<svg class="rich-terminal" viewBox="0 0 1238 1026.0" xmlns="http://www.w3.org/2000/svg">
    <!-- Generated with Rich https://www.textualize.io -->
    <style>

    @font-face {
        font-family: "Fira Code";
        src: local("FiraCode-Regular"),
                url("https://cdnjs.cloudflare.com/ajax/libs/firacode/6.2.0/woff2/FiraCode-Regular.woff2") format("woff2"),
                url("https://cdnjs.cloudflare.com/ajax/libs/firacode/6.2.0/woff/FiraCode-Regular.woff") format("woff");
        font-style: normal;
        font-weight: 400;
    }
    @font-face {
        font-family: "Fira Code";
        src: local("FiraCode-Bold"),
                url("https://cdnjs.cloudflare.com/ajax/libs/firacode/6.2.0/woff2/FiraCode-Bold.woff2") format("woff2"),
                url("https://cdnjs.cloudflare.com/ajax/libs/firacode/6.2.0/woff/FiraCode-Bold.woff") format("woff");
        font-style: bold;
        font-weight: 700;
    }

    .terminal-matrix {
        font-family: Fira Code, monospace;
        font-size: 20px;
        line-height: 24.4px;
        font-variant-east-asian: full-width;
    }

    .terminal-title {
        font-size: 18px;
        font-weight: bold;
        font-family: arial;
    }

    .terminal-r1 { fill: #c5c8c6 }
.terminal-r2 { fill: #e0a044;font-weight: bold }
.terminal-r3 { fill: #efe5c0 }
.terminal-r4 { fill: #a89984 }
.terminal-r5 { fill: #e0a044 }
.terminal-r6 { fill: #3a3a3a }
.terminal-r7 { fill: #efe5c0;font-weight: bold }
    </style>

    <defs>
    <clipPath id="terminal-clip-terminal">
      <rect x="0" y="0" width="1219.0" height="975.0" />
    </clipPath>
    <clipPath id="terminal-line-0">
    <rect x="0" y="1.5" width="1220" height="24.65"/>
            </clipPath>
<clipPath id="terminal-line-1">
    <rect x="0" y="25.9" width="1220" height="24.65"/>
            </clipPath>
<clipPath id="terminal-line-2">
    <rect x="0" y="50.3" width="1220" height="24.65"/>
            </clipPath>
<clipPath id="terminal-line-3">
    <rect x="0" y="74.7" width="1220" height="24.65"/>
            </clipPath>
<clipPath id="terminal-line-4">
    <rect x="0" y="99.1" width="1220" height="24.65"/>
            </clipPath>
<clipPath id="terminal-line-5">
    <rect x="0" y="123.5" width="1220" height="24.65"/>
            </clipPath>
<clipPath id="terminal-line-6">
    <rect x="0" y="147.9" width="1220" height="24.65"/>
            </clipPath>
<clipPath id="terminal-line-7">
    <rect x="0" y="172.3" width="1220" height="24.65"/>
            </clipPath>
<clipPath id="terminal-line-8">
    <rect x="0" y="196.7" width="1220" height="24.65"/>
            </clipPath>
<clipPath id="terminal-line-9">
    <rect x="0" y="221.1" width="1220" height="24.65"/>
            </clipPath>
<clipPath id="terminal-line-10">
    <rect x="0" y="245.5" width="1220" height="24.65"/>
            </clipPath>
<clipPath id="terminal-line-11">
    <rect x="0" y="269.9" width="1220" height="24.65"/>
            </clipPath>
<clipPath id="terminal-line-12">
    <rect x="0" y="294.3" width="1220" height="24.65"/>
            </clipPath>
<clipPath id="terminal-line-13">
    <rect x="0" y="318.7" width="1220" height="24.65"/>
            </clipPath>
<clipPath id="terminal-line-14">
    <rect x="0" y="343.1" width="1220" height="24.65"/>
            </clipPath>
<clipPath id="terminal-line-15">
    <rect x="0" y="367.5" width="1220" height="24.65"/>
            </clipPath>
<clipPath id="terminal-line-16">
    <rect x="0" y="391.9" width="1220" height="24.65"/>
            </clipPath>
<clipPath id="terminal-line-17">
    <rect x="0" y="416.3" width="1220" height="24.65"/>
            </clipPath>
<clipPath id="terminal-line-18">
    <rect x="0" y="440.7" width="1220" height="24.65"/>
            </clipPath>
<clipPath id="terminal-line-19">
    <rect x="0" y="465.1" width="1220" height="24.65"/>
            </clipPath>
<clipPath id="terminal-line-20">
    <rect x="0" y="489.5" width="1220" height="24.65"/>
            </clipPath>
<clipPath id="terminal-line-21">
    <rect x="0" y="513.9" width="1220" height="24.65"/>
            </clipPath>
<clipPath id="terminal-line-22">
    <rect x="0" y="538.3" width="1220" height="24.65"/>
            </clipPath>
<clipPath id="terminal-line-23">
    <rect x="0" y="562.7" width="1220" height="24.65"/>
            </clipPath>
<clipPath id="terminal-line-24">
    <rect x="0" y="587.1" width="1220" height="24.65"/>
            </clipPath>
<clipPath id="terminal-line-25">
    <rect x="0" y="611.5" width="1220" height="24.65"/>
            </clipPath>
<clipPath id="terminal-line-26">
    <rect x="0" y="635.9" width="1220" height="24.65"/>
            </clipPath>
<clipPath id="terminal-line-27">
    <rect x="0" y="660.3" width="1220" height="24.65"/>
            </clipPath>
<clipPath id="terminal-line-28">
    <rect x="0" y="684.7" width="1220" height="24.65"/>
            </clipPath>
<clipPath id="terminal-line-29">
    <rect x="0" y="709.1" width="1220" height="24.65"/>
            </clipPath>
<clipPath id="terminal-line-30">
    <rect x="0" y="733.5" width="1220" height="24.65"/>
            </clipPath>
<clipPath id="terminal-line-31">
    <rect x="0" y="757.9" width="1220" height="24.65"/>
            </clipPath>
<clipPath id="terminal-line-32">
    <rect x="0" y="782.3" width="1220" height="24.65"/>
            </clipPath>
<clipPath id="terminal-line-33">
    <rect x="0" y="806.7" width="1220" height="24.65"/>
            </clipPath>
<clipPath id="terminal-line-34">
    <rect x="0" y="831.1" width="1220" height="24.65"/>
            </clipPath>
<clipPath id="terminal-line-35">
    <rect x="0" y="855.5" width="1220" height="24.65"/>
            </clipPath>
<clipPath id="terminal-line-36">
    <rect x="0" y="879.9" width="1220" height="24.65"/>
            </clipPath>
<clipPath id="terminal-line-37">
    <rect x="0" y="904.3" width="1220" height="24.65"/>
            </clipPath>
<clipPath id="terminal-line-38">
    <rect x="0" y="928.7" width="1220" height="24.65"/>
            </clipPath>
    </defs>

    <rect fill="#292929" stroke="rgba(255,255,255,0.35)" stroke-width="1" x="1" y="1" width="1236" height="1024" rx="8"/><text class="terminal-title" fill="#c5c8c6" text-anchor="middle" x="618" y="27">_DiscoveryApp</text>
            <g transform="translate(26,22)">
            <circle cx="0" cy="0" r="7" fill="#ff5f57"/>
            <circle cx="22" cy="0" r="7" fill="#febc2e"/>
            <circle cx="44" cy="0" r="7" fill="#28c840"/>
            </g>
        
    <g transform="translate(9, 41)" clip-path="url(#terminal-clip-terminal)">
    <rect fill="#1d1d1d" x="0" y="1.5" width="12.2" height="24.65" shape-rendering="crispEdges"/><rect fill="#1d1d1d" x="12.2" y="1.5" width="61" height="24.65" shape-rendering="crispEdges"/><rect fill="#1d1d1d" x="73.2" y="1.5" width="24.4" height="24.65" shape-rendering="crispEdges"/><rect fill="#1d1d1d" x="97.6" y="1.5" width="231.8" height="24.65" shape-rendering="crispEdges"/><rect fill="#1d1d1d" x="329.4" y="1.5" width="890.6" height="24.65" shape-rendering="crispEdges"/><rect fill="#000000" x="0" y="25.9" width="1220" height="24.65" shape-rendering="crispEdges"/><rect fill="#000000" x="0" y="50.3" width="1220" height="24.65" shape-rendering="crispEdges"/><rect fill="#000000" x="0" y="74.7" width="48.8" height="24.65" shape-rendering="crispEdges"/><rect fill="#000000" x="48.8" y="74.7" width="317.2" height="24.65" shape-rendering="crispEdges"/><rect fill="#000000" x="366" y="74.7" width="12.2" height="24.65" shape-rendering="crispEdges"/><rect fill="#000000" x="378.2" y="74.7" width="12.2" height="24.65" shape-rendering="crispEdges"/><rect fill="#000000" x="390.4" y="74.7" width="12.2" height="24.65" shape-rendering="crispEdges"/><rect fill="#000000" x="402.6" y="74.7" width="183" height="24.65" shape-rendering="crispEdges"/><rect fill="#000000" x="585.6" y="74.7" width="634.4" height="24.65" shape-rendering="crispEdges"/><rect fill="#000000" x="0" y="99.1" width="48.8" height="24.65" shape-rendering="crispEdges"/><rect fill="#000000" x="48.8" y="99.1" width="146.4" height="24.65" shape-rendering="crispEdges"/><rect fill="#000000" x="195.2" y="99.1" width="12.2" height="24.65" shape-rendering="crispEdges"/><rect fill="#000000" x="207.4" y="99.1" width="207.4" height="24.65" shape-rendering="crispEdges"/><rect fill="#000000" x="414.8" y="99.1" width="805.2" height="24.65" shape-rendering="crispEdges"/><rect fill="#000000" x="0" y="123.5" width="48.8" height="24.65" shape-rendering="crispEdges"/><rect fill="#000000" x="48.8" y="123.5" width="73.2" height="24.65" shape-rendering="crispEdges"/><rect fill="#000000" x="122" y="123.5" width="12.2" height="24.65" shape-rendering="crispEdges"/><rect fill="#000000" x="134.2" y="123.5" width="183" height="24.65" shape-rendering="crispEdges"/><rect fill="#000000" x="317.2" y="123.5" width="902.8" height="24.65" shape-rendering="crispEdges"/><rect fill="#000000" x="0" y="147.9" width="48.8" height="24.65" shape-rendering="crispEdges"/><rect fill="#000000" x="48.8" y="147.9" width="85.4" height="24.65" shape-rendering="crispEdges"/><rect fill="#000000" x="134.2" y="147.9" width="12.2" height="24.65" shape-rendering="crispEdges"/><rect fill="#000000" x="146.4" y="147.9" width="12.2" height="24.65" shape-rendering="crispEdges"/><rect fill="#000000" x="158.6" y="147.9" width="24.4" height="24.65" shape-rendering="crispEdges"/><rect fill="#000000" x="183" y="147.9" width="12.2" height="24.65" shape-rendering="crispEdges"/><rect fill="#000000" x="195.2" y="147.9" width="24.4" height="24.65" shape-rendering="crispEdges"/><rect fill="#000000" x="219.6" y="147.9" width="109.8" height="24.65" shape-rendering="crispEdges"/><rect fill="#000000" x="329.4" y="147.9" width="12.2" height="24.65" shape-rendering="crispEdges"/><rect fill="#000000" x="341.6" y="147.9" width="12.2" height="24.65" shape-rendering="crispEdges"/><rect fill="#000000" x="353.8" y="147.9" width="24.4" height="24.65" shape-rendering="crispEdges"/><rect fill="#000000" x="378.2" y="147.9" width="12.2" height="24.65" shape-rendering="crispEdges"/><rect fill="#000000" x="390.4" y="147.9" width="24.4" height="24.65" shape-rendering="crispEdges"/><rect fill="#000000" x="414.8" y="147.9" width="109.8" height="24.65" shape-rendering="crispEdges"/><rect fill="#000000" x="524.6" y="147.9" width="12.2" height="24.65" shape-rendering="crispEdges"/><rect fill="#000000" x="536.8" y="147.9" width="12.2" height="24.65" shape-rendering="crispEdges"/><rect fill="#000000" x="549" y="147.9" width="671" height="24.65" shape-rendering="crispEdges"/><rect fill="#000000" x="0" y="172.3" width="1220" height="24.65" shape-rendering="crispEdges"/><rect fill="#000000" x="0" y="196.7" width="48.8" height="24.65" shape-rendering="crispEdges"/><rect fill="#232323" x="48.8" y="196.7" width="36.6" height="24.65" shape-rendering="crispEdges"/><rect fill="#232323" x="85.4" y="196.7" width="109.8" height="24.65" shape-rendering="crispEdges"/><rect fill="#232323" x="195.2" y="196.7" width="158.6" height="24.65" shape-rendering="crispEdges"/><rect fill="#232323" x="353.8" y="196.7" width="256.2" height="24.65" shape-rendering="crispEdges"/><rect fill="#232323" x="610" y="196.7" width="561.2" height="24.65" shape-rendering="crispEdges"/><rect fill="#000000" x="1171.2" y="196.7" width="48.8" height="24.65" shape-rendering="crispEdges"/><rect fill="#000000" x="0" y="221.1" width="48.8" height="24.65" shape-rendering="crispEdges"/><rect fill="#3a3a3a" x="48.8" y="221.1" width="36.6" height="24.65" shape-rendering="crispEdges"/><rect fill="#3a3a3a" x="85.4" y="221.1" width="109.8" height="24.65" shape-rendering="crispEdges"/><rect fill="#3a3a3a" x="195.2" y="221.1" width="158.6" height="24.65" shape-rendering="crispEdges"/><rect fill="#3a3a3a" x="353.8" y="221.1" width="256.2" height="24.65" shape-rendering="crispEdges"/><rect fill="#3a3a3a" x="610" y="221.1" width="561.2" height="24.65" shape-rendering="crispEdges"/><rect fill="#000000" x="1171.2" y="221.1" width="48.8" height="24.65" shape-rendering="crispEdges"/><rect fill="#000000" x="0" y="245.5" width="48.8" height="24.65" shape-rendering="crispEdges"/><rect fill="#0b0b0b" x="48.8" y="245.5" width="36.6" height="24.65" shape-rendering="crispEdges"/><rect fill="#0b0b0b" x="85.4" y="245.5" width="109.8" height="24.65" shape-rendering="crispEdges"/><rect fill="#0b0b0b" x="195.2" y="245.5" width="158.6" height="24.65" shape-rendering="crispEdges"/><rect fill="#0b0b0b" x="353.8" y="245.5" width="256.2" height="24.65" shape-rendering="crispEdges"/><rect fill="#0b0b0b" x="610" y="245.5" width="561.2" height="24.65" shape-rendering="crispEdges"/><rect fill="#000000" x="1171.2" y="245.5" width="48.8" height="24.65" shape-rendering="crispEdges"/><rect fill="#000000" x="0" y="269.9" width="48.8" height="24.65" shape-rendering="crispEdges"/><rect fill="#0b0b0b" x="48.8" y="269.9" width="36.6" height="24.65" shape-rendering="crispEdges"/><rect fill="#0b0b0b" x="85.4" y="269.9" width="109.8" height="24.65" shape-rendering="crispEdges"/><rect fill="#0b0b0b" x="195.2" y="269.9" width="158.6" height="24.65" shape-rendering="crispEdges"/><rect fill="#0b0b0b" x="353.8" y="269.9" width="256.2" height="24.65" shape-rendering="crispEdges"/><rect fill="#0b0b0b" x="610" y="269.9" width="561.2" height="24.65" shape-rendering="crispEdges"/><rect fill="#000000" x="1171.2" y="269.9" width="48.8" height="24.65" shape-rendering="crispEdges"/><rect fill="#000000" x="0" y="294.3" width="1220" height="24.65" shape-rendering="crispEdges"/><rect fill="#000000" x="0" y="318.7" width="48.8" height="24.65" shape-rendering="crispEdges"/><rect fill="#000000" x="48.8" y="318.7" width="1122.4" height="24.65" shape-rendering="crispEdges"/><rect fill="#000000" x="1171.2" y="318.7" width="48.8" height="24.65" shape-rendering="crispEdges"/><rect fill="#000000" x="0" y="343.1" width="48.8" height="24.65" shape-rendering="crispEdges"/><rect fill="#000000" x="48.8" y="343.1" width="12.2" height="24.65" shape-rendering="crispEdges"/><rect fill="#000000" x="61" y="343.1" width="1098" height="24.65" shape-rendering="crispEdges"/><rect fill="#000000" x="1159" y="343.1" width="12.2" height="24.65" shape-rendering="crispEdges"/><rect fill="#000000" x="1171.2" y="343.1" width="48.8" height="24.65" shape-rendering="crispEdges"/><rect fill="#000000" x="0" y="367.5" width="48.8" height="24.65" shape-rendering="crispEdges"/><rect fill="#000000" x="48.8" y="367.5" width="12.2" height="24.65" shape-rendering="crispEdges"/><rect fill="#000000" x="61" y="367.5" width="24.4" height="24.65" shape-rendering="crispEdges"/><rect fill="#000000" x="85.4" y="367.5" width="183" height="24.65" shape-rendering="crispEdges"/><rect fill="#000000" x="268.4" y="367.5" width="48.8" height="24.65" shape-rendering="crispEdges"/><rect fill="#000000" x="317.2" y="367.5" width="841.8" height="24.65" shape-rendering="crispEdges"/><rect fill="#000000" x="1159" y="367.5" width="12.2" height="24.65" shape-rendering="crispEdges"/><rect fill="#000000" x="1171.2" y="367.5" width="48.8" height="24.65" shape-rendering="crispEdges"/><rect fill="#000000" x="0" y="391.9" width="48.8" height="24.65" shape-rendering="crispEdges"/><rect fill="#000000" x="48.8" y="391.9" width="12.2" height="24.65" shape-rendering="crispEdges"/><rect fill="#000000" x="61" y="391.9" width="24.4" height="24.65" shape-rendering="crispEdges"/><rect fill="#000000" x="85.4" y="391.9" width="170.8" height="24.65" shape-rendering="crispEdges"/><rect fill="#000000" x="256.2" y="391.9" width="902.8" height="24.65" shape-rendering="crispEdges"/><rect fill="#000000" x="1159" y="391.9" width="12.2" height="24.65" shape-rendering="crispEdges"/><rect fill="#000000" x="1171.2" y="391.9" width="48.8" height="24.65" shape-rendering="crispEdges"/><rect fill="#000000" x="0" y="416.3" width="48.8" height="24.65" shape-rendering="crispEdges"/><rect fill="#000000" x="48.8" y="416.3" width="12.2" height="24.65" shape-rendering="crispEdges"/><rect fill="#000000" x="61" y="416.3" width="1098" height="24.65" shape-rendering="crispEdges"/><rect fill="#000000" x="1159" y="416.3" width="12.2" height="24.65" shape-rendering="crispEdges"/><rect fill="#000000" x="1171.2" y="416.3" width="48.8" height="24.65" shape-rendering="crispEdges"/><rect fill="#000000" x="0" y="440.7" width="48.8" height="24.65" shape-rendering="crispEdges"/><rect fill="#000000" x="48.8" y="440.7" width="1122.4" height="24.65" shape-rendering="crispEdges"/><rect fill="#000000" x="1171.2" y="440.7" width="48.8" height="24.65" shape-rendering="crispEdges"/><rect fill="#000000" x="0" y="465.1" width="1220" height="24.65" shape-rendering="crispEdges"/><rect fill="#000000" x="0" y="489.5" width="1220" height="24.65" shape-rendering="crispEdges"/><rect fill="#000000" x="0" y="513.9" width="1220" height="24.65" shape-rendering="crispEdges"/><rect fill="#000000" x="0" y="538.3" width="1220" height="24.65" shape-rendering="crispEdges"/><rect fill="#0d0d0d" x="0" y="562.7" width="1220" height="24.65" shape-rendering="crispEdges"/><rect fill="#0d0d0d" x="0" y="587.1" width="12.2" height="24.65" shape-rendering="crispEdges"/><rect fill="#0d0d0d" x="12.2" y="587.1" width="207.4" height="24.65" shape-rendering="crispEdges"/><rect fill="#0d0d0d" x="219.6" y="587.1" width="1000.4" height="24.65" shape-rendering="crispEdges"/><rect fill="#0d0d0d" x="0" y="611.5" width="12.2" height="24.65" shape-rendering="crispEdges"/><rect fill="#0d0d0d" x="12.2" y="611.5" width="1195.6" height="24.65" shape-rendering="crispEdges"/><rect fill="#0d0d0d" x="1207.8" y="611.5" width="12.2" height="24.65" shape-rendering="crispEdges"/><rect fill="#0d0d0d" x="0" y="635.9" width="12.2" height="24.65" shape-rendering="crispEdges"/><rect fill="#0d0d0d" x="12.2" y="635.9" width="1195.6" height="24.65" shape-rendering="crispEdges"/><rect fill="#0d0d0d" x="1207.8" y="635.9" width="12.2" height="24.65" shape-rendering="crispEdges"/><rect fill="#0d0d0d" x="0" y="660.3" width="12.2" height="24.65" shape-rendering="crispEdges"/><rect fill="#0d0d0d" x="12.2" y="660.3" width="1195.6" height="24.65" shape-rendering="crispEdges"/><rect fill="#0d0d0d" x="1207.8" y="660.3" width="12.2" height="24.65" shape-rendering="crispEdges"/><rect fill="#0d0d0d" x="0" y="684.7" width="12.2" height="24.65" shape-rendering="crispEdges"/><rect fill="#0d0d0d" x="12.2" y="684.7" width="1195.6" height="24.65" shape-rendering="crispEdges"/><rect fill="#0d0d0d" x="1207.8" y="684.7" width="12.2" height="24.65" shape-rendering="crispEdges"/><rect fill="#0d0d0d" x="0" y="709.1" width="12.2" height="24.65" shape-rendering="crispEdges"/><rect fill="#0d0d0d" x="12.2" y="709.1" width="1195.6" height="24.65" shape-rendering="crispEdges"/><rect fill="#0d0d0d" x="1207.8" y="709.1" width="12.2" height="24.65" shape-rendering="crispEdges"/><rect fill="#0d0d0d" x="0" y="733.5" width="12.2" height="24.65" shape-rendering="crispEdges"/><rect fill="#0d0d0d" x="12.2" y="733.5" width="1195.6" height="24.65" shape-rendering="crispEdges"/><rect fill="#0d0d0d" x="1207.8" y="733.5" width="12.2" height="24.65" shape-rendering="crispEdges"/><rect fill="#0d0d0d" x="0" y="757.9" width="1220" height="24.65" shape-rendering="crispEdges"/><rect fill="#0d0d0d" x="0" y="782.3" width="12.2" height="24.65" shape-rendering="crispEdges"/><rect fill="#0d0d0d" x="12.2" y="782.3" width="390.4" height="24.65" shape-rendering="crispEdges"/><rect fill="#0d0d0d" x="402.6" y="782.3" width="817.4" height="24.65" shape-rendering="crispEdges"/><rect fill="#0d0d0d" x="0" y="806.7" width="12.2" height="24.65" shape-rendering="crispEdges"/><rect fill="#0d0d0d" x="12.2" y="806.7" width="1195.6" height="24.65" shape-rendering="crispEdges"/><rect fill="#0d0d0d" x="1207.8" y="806.7" width="12.2" height="24.65" shape-rendering="crispEdges"/><rect fill="#0d0d0d" x="0" y="831.1" width="12.2" height="24.65" shape-rendering="crispEdges"/><rect fill="#0d0d0d" x="12.2" y="831.1" width="1195.6" height="24.65" shape-rendering="crispEdges"/><rect fill="#0d0d0d" x="1207.8" y="831.1" width="12.2" height="24.65" shape-rendering="crispEdges"/><rect fill="#0d0d0d" x="0" y="855.5" width="12.2" height="24.65" shape-rendering="crispEdges"/><rect fill="#0d0d0d" x="12.2" y="855.5" width="1195.6" height="24.65" shape-rendering="crispEdges"/><rect fill="#0d0d0d" x="1207.8" y="855.5" width="12.2" height="24.65" shape-rendering="crispEdges"/><rect fill="#0d0d0d" x="0" y="879.9" width="12.2" height="24.65" shape-rendering="crispEdges"/><rect fill="#0d0d0d" x="12.2" y="879.9" width="1195.6" height="24.65" shape-rendering="crispEdges"/><rect fill="#0d0d0d" x="1207.8" y="879.9" width="12.2" height="24.65" shape-rendering="crispEdges"/><rect fill="#0d0d0d" x="0" y="904.3" width="12.2" height="24.65" shape-rendering="crispEdges"/><rect fill="#0d0d0d" x="12.2" y="904.3" width="1195.6" height="24.65" shape-rendering="crispEdges"/><rect fill="#0d0d0d" x="1207.8" y="904.3" width="12.2" height="24.65" shape-rendering="crispEdges"/><rect fill="#0d0d0d" x="0" y="928.7" width="12.2" height="24.65" shape-rendering="crispEdges"/><rect fill="#0d0d0d" x="12.2" y="928.7" width="1195.6" height="24.65" shape-rendering="crispEdges"/><rect fill="#0d0d0d" x="1207.8" y="928.7" width="12.2" height="24.65" shape-rendering="crispEdges"/><rect fill="#1d1d1d" x="0" y="953.1" width="12.2" height="24.65" shape-rendering="crispEdges"/><rect fill="#1d1d1d" x="12.2" y="953.1" width="61" height="24.65" shape-rendering="crispEdges"/><rect fill="#1d1d1d" x="73.2" y="953.1" width="122" height="24.65" shape-rendering="crispEdges"/><rect fill="#1d1d1d" x="195.2" y="953.1" width="36.6" height="24.65" shape-rendering="crispEdges"/><rect fill="#1d1d1d" x="231.8" y="953.1" width="122" height="24.65" shape-rendering="crispEdges"/><rect fill="#1d1d1d" x="353.8" y="953.1" width="12.2" height="24.65" shape-rendering="crispEdges"/><rect fill="#1d1d1d" x="366" y="953.1" width="122" height="24.65" shape-rendering="crispEdges"/><rect fill="#1d1d1d" x="488" y="953.1" width="12.2" height="24.65" shape-rendering="crispEdges"/><rect fill="#1d1d1d" x="500.2" y="953.1" width="85.4" height="24.65" shape-rendering="crispEdges"/><rect fill="#1d1d1d" x="585.6" y="953.1" width="12.2" height="24.65" shape-rendering="crispEdges"/><rect fill="#1d1d1d" x="597.8" y="953.1" width="170.8" height="24.65" shape-rendering="crispEdges"/><rect fill="#1d1d1d" x="768.6" y="953.1" width="61" height="24.65" shape-rendering="crispEdges"/><rect fill="#1d1d1d" x="829.6" y="953.1" width="61" height="24.65" shape-rendering="crispEdges"/><rect fill="#1d1d1d" x="890.6" y="953.1" width="329.4" height="24.65" shape-rendering="crispEdges"/>
    <g class="terminal-matrix">
    <text class="terminal-r2" x="12.2" y="20" textLength="61" clip-path="url(#terminal-line-0)">recon</text><text class="terminal-r4" x="97.6" y="20" textLength="231.8" clip-path="url(#terminal-line-0)">no&#160;workspace&#160;loaded</text><text class="terminal-r1" x="1220" y="20" textLength="12.2" clip-path="url(#terminal-line-0)">
</text><text class="terminal-r1" x="1220" y="44.4" textLength="12.2" clip-path="url(#terminal-line-1)">
</text><text class="terminal-r1" x="1220" y="68.8" textLength="12.2" clip-path="url(#terminal-line-2)">
</text><text class="terminal-r2" x="48.8" y="93.2" textLength="317.2" clip-path="url(#terminal-line-3)">──&#160;COMPETITOR&#160;DISCOVERY&#160;──</text><text class="terminal-r4" x="378.2" y="93.2" textLength="12.2" clip-path="url(#terminal-line-3)">·</text><text class="terminal-r3" x="402.6" y="93.2" textLength="183" clip-path="url(#terminal-line-3)">Developer&#160;Tools</text><text class="terminal-r1" x="1220" y="93.2" textLength="12.2" clip-path="url(#terminal-line-3)">
</text><text class="terminal-r2" x="48.8" y="117.6" textLength="146.4" clip-path="url(#terminal-line-4)">──&#160;SEARCH&#160;──</text><text class="terminal-r4" x="207.4" y="117.6" textLength="207.4" clip-path="url(#terminal-line-4)">1&#160;rounds&#160;complete</text><text class="terminal-r1" x="1220" y="117.6" textLength="12.2" clip-path="url(#terminal-line-4)">
</text><text class="terminal-r4" x="48.8" y="142" textLength="73.2" clip-path="url(#terminal-line-5)">Press&#160;</text><text class="terminal-r5" x="122" y="142" textLength="12.2" clip-path="url(#terminal-line-5)">s</text><text class="terminal-r4" x="134.2" y="142" textLength="183" clip-path="url(#terminal-line-5)">&#160;to&#160;search&#160;more</text><text class="terminal-r1" x="1220" y="142" textLength="12.2" clip-path="url(#terminal-line-5)">
</text><text class="terminal-r4" x="48.8" y="166.4" textLength="85.4" clip-path="url(#terminal-line-6)">rounds:</text><text class="terminal-r5" x="146.4" y="166.4" textLength="12.2" clip-path="url(#terminal-line-6)">1</text><text class="terminal-r6" x="183" y="166.4" textLength="12.2" clip-path="url(#terminal-line-6)">·</text><text class="terminal-r4" x="219.6" y="166.4" textLength="109.8" clip-path="url(#terminal-line-6)">accepted:</text><text class="terminal-r5" x="341.6" y="166.4" textLength="12.2" clip-path="url(#terminal-line-6)">2</text><text class="terminal-r6" x="378.2" y="166.4" textLength="12.2" clip-path="url(#terminal-line-6)">·</text><text class="terminal-r4" x="414.8" y="166.4" textLength="109.8" clip-path="url(#terminal-line-6)">rejected:</text><text class="terminal-r5" x="536.8" y="166.4" textLength="12.2" clip-path="url(#terminal-line-6)">1</text><text class="terminal-r1" x="1220" y="166.4" textLength="12.2" clip-path="url(#terminal-line-6)">
</text><text class="terminal-r1" x="1220" y="190.8" textLength="12.2" clip-path="url(#terminal-line-7)">
</text><text class="terminal-r2" x="85.4" y="215.2" textLength="109.8" clip-path="url(#terminal-line-8)">&#160;Name&#160;&#160;&#160;&#160;</text><text class="terminal-r2" x="195.2" y="215.2" textLength="158.6" clip-path="url(#terminal-line-8)">&#160;Tier&#160;&#160;&#160;&#160;&#160;&#160;&#160;&#160;</text><text class="terminal-r2" x="353.8" y="215.2" textLength="256.2" clip-path="url(#terminal-line-8)">&#160;URL&#160;&#160;&#160;&#160;&#160;&#160;&#160;&#160;&#160;&#160;&#160;&#160;&#160;&#160;&#160;&#160;&#160;</text><text class="terminal-r1" x="1220" y="215.2" textLength="12.2" clip-path="url(#terminal-line-8)">
</text><text class="terminal-r7" x="48.8" y="239.6" textLength="36.6" clip-path="url(#terminal-line-9)">&#160;✓&#160;</text><text class="terminal-r7" x="85.4" y="239.6" textLength="109.8" clip-path="url(#terminal-line-9)">&#160;Cursor&#160;&#160;</text><text class="terminal-r7" x="195.2" y="239.6" textLength="158.6" clip-path="url(#terminal-line-9)">&#160;Established&#160;</text><text class="terminal-r7" x="353.8" y="239.6" textLength="256.2" clip-path="url(#terminal-line-9)">&#160;https://cursor.com&#160;&#160;</text><text class="terminal-r1" x="1220" y="239.6" textLength="12.2" clip-path="url(#terminal-line-9)">
</text><text class="terminal-r3" x="48.8" y="264" textLength="36.6" clip-path="url(#terminal-line-10)">&#160;✓&#160;</text><text class="terminal-r3" x="85.4" y="264" textLength="109.8" clip-path="url(#terminal-line-10)">&#160;Linear&#160;&#160;</text><text class="terminal-r3" x="195.2" y="264" textLength="158.6" clip-path="url(#terminal-line-10)">&#160;Established&#160;</text><text class="terminal-r3" x="353.8" y="264" textLength="256.2" clip-path="url(#terminal-line-10)">&#160;https://linear.app&#160;&#160;</text><text class="terminal-r1" x="1220" y="264" textLength="12.2" clip-path="url(#terminal-line-10)">
</text><text class="terminal-r3" x="48.8" y="288.4" textLength="36.6" clip-path="url(#terminal-line-11)">&#160;·&#160;</text><text class="terminal-r3" x="85.4" y="288.4" textLength="109.8" clip-path="url(#terminal-line-11)">&#160;Earthly&#160;</text><text class="terminal-r3" x="195.2" y="288.4" textLength="158.6" clip-path="url(#terminal-line-11)">&#160;Emerging&#160;&#160;&#160;&#160;</text><text class="terminal-r3" x="353.8" y="288.4" textLength="256.2" clip-path="url(#terminal-line-11)">&#160;https://earthly.dev&#160;</text><text class="terminal-r1" x="1220" y="288.4" textLength="12.2" clip-path="url(#terminal-line-11)">
</text><text class="terminal-r1" x="1220" y="312.8" textLength="12.2" clip-path="url(#terminal-line-12)">
</text><text class="terminal-r6" x="48.8" y="337.2" textLength="1122.4" clip-path="url(#terminal-line-13)">╭──────────────────────────────────────────────────────────────────────────────────────────╮</text><text class="terminal-r1" x="1220" y="337.2" textLength="12.2" clip-path="url(#terminal-line-13)">
</text><text class="terminal-r6" x="48.8" y="361.6" textLength="12.2" clip-path="url(#terminal-line-14)">│</text><text class="terminal-r6" x="1159" y="361.6" textLength="12.2" clip-path="url(#terminal-line-14)">│</text><text class="terminal-r1" x="1220" y="361.6" textLength="12.2" clip-path="url(#terminal-line-14)">
</text><text class="terminal-r6" x="48.8" y="386" textLength="12.2" clip-path="url(#terminal-line-15)">│</text><text class="terminal-r2" x="85.4" y="386" textLength="183" clip-path="url(#terminal-line-15)">ACCEPTED&#160;ROSTER</text><text class="terminal-r3" x="268.4" y="386" textLength="48.8" clip-path="url(#terminal-line-15)">&#160;(2)</text><text class="terminal-r6" x="1159" y="386" textLength="12.2" clip-path="url(#terminal-line-15)">│</text><text class="terminal-r1" x="1220" y="386" textLength="12.2" clip-path="url(#terminal-line-15)">
</text><text class="terminal-r6" x="48.8" y="410.4" textLength="12.2" clip-path="url(#terminal-line-16)">│</text><text class="terminal-r4" x="85.4" y="410.4" textLength="170.8" clip-path="url(#terminal-line-16)">Cursor,&#160;Linear</text><text class="terminal-r6" x="1159" y="410.4" textLength="12.2" clip-path="url(#terminal-line-16)">│</text><text class="terminal-r1" x="1220" y="410.4" textLength="12.2" clip-path="url(#terminal-line-16)">
</text><text class="terminal-r6" x="48.8" y="434.8" textLength="12.2" clip-path="url(#terminal-line-17)">│</text><text class="terminal-r6" x="1159" y="434.8" textLength="12.2" clip-path="url(#terminal-line-17)">│</text><text class="terminal-r1" x="1220" y="434.8" textLength="12.2" clip-path="url(#terminal-line-17)">
</text><text class="terminal-r6" x="48.8" y="459.2" textLength="1122.4" clip-path="url(#terminal-line-18)">╰──────────────────────────────────────────────────────────────────────────────────────────╯</text><text class="terminal-r1" x="1220" y="459.2" textLength="12.2" clip-path="url(#terminal-line-18)">
</text><text class="terminal-r1" x="1220" y="483.6" textLength="12.2" clip-path="url(#terminal-line-19)">
</text><text class="terminal-r1" x="1220" y="508" textLength="12.2" clip-path="url(#terminal-line-20)">
</text><text class="terminal-r1" x="1220" y="532.4" textLength="12.2" clip-path="url(#terminal-line-21)">
</text><text class="terminal-r1" x="1220" y="556.8" textLength="12.2" clip-path="url(#terminal-line-22)">
</text><text class="terminal-r6" x="0" y="581.2" textLength="1220" clip-path="url(#terminal-line-23)">────────────────────────────────────────────────────────────────────────────────────────────────────</text><text class="terminal-r1" x="1220" y="581.2" textLength="12.2" clip-path="url(#terminal-line-23)">
</text><text class="terminal-r6" x="12.2" y="605.6" textLength="207.4" clip-path="url(#terminal-line-24)">│&#160;no&#160;activity&#160;yet</text><text class="terminal-r1" x="1220" y="605.6" textLength="12.2" clip-path="url(#terminal-line-24)">
</text><text class="terminal-r1" x="1220" y="630" textLength="12.2" clip-path="url(#terminal-line-25)">
</text><text class="terminal-r1" x="1220" y="654.4" textLength="12.2" clip-path="url(#terminal-line-26)">
</text><text class="terminal-r1" x="1220" y="678.8" textLength="12.2" clip-path="url(#terminal-line-27)">
</text><text class="terminal-r1" x="1220" y="703.2" textLength="12.2" clip-path="url(#terminal-line-28)">
</text><text class="terminal-r1" x="1220" y="727.6" textLength="12.2" clip-path="url(#terminal-line-29)">
</text><text class="terminal-r1" x="1220" y="752" textLength="12.2" clip-path="url(#terminal-line-30)">
</text><text class="terminal-r6" x="0" y="776.4" textLength="1220" clip-path="url(#terminal-line-31)">────────────────────────────────────────────────────────────────────────────────────────────────────</text><text class="terminal-r1" x="1220" y="776.4" textLength="12.2" clip-path="url(#terminal-line-31)">
</text><text class="terminal-r6" x="12.2" y="800.8" textLength="390.4" clip-path="url(#terminal-line-32)">│&#160;waiting&#160;for&#160;engine&#160;activity...</text><text class="terminal-r1" x="1220" y="800.8" textLength="12.2" clip-path="url(#terminal-line-32)">
</text><text class="terminal-r1" x="1220" y="825.2" textLength="12.2" clip-path="url(#terminal-line-33)">
</text><text class="terminal-r1" x="1220" y="849.6" textLength="12.2" clip-path="url(#terminal-line-34)">
</text><text class="terminal-r1" x="1220" y="874" textLength="12.2" clip-path="url(#terminal-line-35)">
</text><text class="terminal-r1" x="1220" y="898.4" textLength="12.2" clip-path="url(#terminal-line-36)">
</text><text class="terminal-r1" x="1220" y="922.8" textLength="12.2" clip-path="url(#terminal-line-37)">
</text><text class="terminal-r1" x="1220" y="947.2" textLength="12.2" clip-path="url(#terminal-line-38)">
</text><text class="terminal-r5" x="12.2" y="971.6" textLength="61" clip-path="url(#terminal-line-39)">space</text><text class="terminal-r4" x="73.2" y="971.6" textLength="122" clip-path="url(#terminal-line-39)">&#160;toggle&#160;·&#160;</text><text class="terminal-r5" x="195.2" y="971.6" textLength="36.6" clip-path="url(#terminal-line-39)">del</text><text class="terminal-r4" x="231.8" y="971.6" textLength="122" clip-path="url(#terminal-line-39)">&#160;remove&#160;·&#160;</text><text class="terminal-r5" x="353.8" y="971.6" textLength="12.2" clip-path="url(#terminal-line-39)">s</text><text class="terminal-r4" x="366" y="971.6" textLength="122" clip-path="url(#terminal-line-39)">&#160;search&#160;·&#160;</text><text class="terminal-r5" x="488" y="971.6" textLength="12.2" clip-path="url(#terminal-line-39)">n</text><text class="terminal-r4" x="500.2" y="971.6" textLength="85.4" clip-path="url(#terminal-line-39)">&#160;add&#160;·&#160;</text><text class="terminal-r5" x="585.6" y="971.6" textLength="12.2" clip-path="url(#terminal-line-39)">a</text><text class="terminal-r4" x="597.8" y="971.6" textLength="170.8" clip-path="url(#terminal-line-39)">&#160;accept&#160;all&#160;·&#160;</text><text class="terminal-r5" x="768.6" y="971.6" textLength="61" clip-path="url(#terminal-line-39)">enter</text><text class="terminal-r4" x="829.6" y="971.6" textLength="61" clip-path="url(#terminal-line-39)">&#160;done</text>
    </g>
    </g>
</svg>
