<svg class="rich-terminal" viewBox="0 0 1238 1026.0" xmlns="http://www.w3.org/2000/svg">
    <!-- Generated with Rich https://www.textualize.io -->
    <style>

    @font-face {
        font-family: "Fira Code";
        src: local("FiraCode-Regular"),
                url("https://cdnjs.cloudflare.com/ajax/libs/firacode/6.2.0/woff2/FiraCode-Regular.woff2") format("woff2"),
                url("https://cdnjs.cloudflare.com/ajax/libs/firacode/6.2.0/woff/FiraCode-Regular.woff") format("woff");
        font-style: normal;
        font-weight: 400;
    }
    @font-face {
        font-family: "Fira Code";
        src: local("FiraCode-Bold"),
                url("https://cdnjs.cloudflare.com/ajax/libs/firacode/6.2.0/woff2/FiraCode-Bold.woff2") format("woff2"),
                url("https://cdnjs.cloudflare.com/ajax/libs/firacode/6.2.0/woff/FiraCode-Bold.woff") format("woff");
        font-style: bold;
        font-weight: 700;
    }

    .terminal-matrix {
        font-family: Fira Code, monospace;
        font-size: 20px;
        line-height: 24.4px;
        font-variant-east-asian: full-width;
    }

    .terminal-title {
        font-size: 18px;
        font-weight: bold;
        font-family: arial;
    }

    .terminal-r1 { fill: #c5c8c6 }
.terminal-r2 { fill: #3a3a3a }
.terminal-r3 { fill: #e0a044;font-weight: bold }
.terminal-r4 { fill: #efe5c0 }
.terminal-r5 { fill: #a89984 }
.terminal-r6 { fill: #efe5c0;font-weight: bold }
.terminal-r7 { fill: #6db2ff }
.terminal-r8 { fill: #2d2d2d }
.terminal-r9 { fill: #0c7dd4;font-weight: bold }
.terminal-r10 { fill: #e0e0e0;font-weight: bold }
.terminal-r11 { fill: #004295 }
.terminal-r12 { fill: #0d0d0d }
    </style>

    <defs>
    <clipPath id="terminal-clip-terminal">
      <rect x="0" y="0" width="1219.0" height="975.0" />
    </clipPath>
    <clipPath id="terminal-line-0">
    <rect x="0" y="1.5" width="1220" height="24.65"/>
            </clipPath>
<clipPath id="terminal-line-1">
    <rect x="0" y="25.9" width="1220" height="24.65"/>
            </clipPath>
<clipPath id="terminal-line-2">
    <rect x="0" y="50.3" width="1220" height="24.65"/>
            </clipPath>
<clipPath id="terminal-line-3">
    <rect x="0" y="74.7" width="1220" height="24.65"/>
            </clipPath>
<clipPath id="terminal-line-4">
    <rect x="0" y="99.1" width="1220" height="24.65"/>
            </clipPath>
<clipPath id="terminal-line-5">
    <rect x="0" y="123.5" width="1220" height="24.65"/>
            </clipPath>
<clipPath id="terminal-line-6">
    <rect x="0" y="147.9" width="1220" height="24.65"/>
            </clipPath>
<clipPath id="terminal-line-7">
    <rect x="0" y="172.3" width="1220" height="24.65"/>
            </clipPath>
<clipPath id="terminal-line-8">
    <rect x="0" y="196.7" width="1220" height="24.65"/>
            </clipPath>
<clipPath id="terminal-line-9">
    <rect x="0" y="221.1" width="1220" height="24.65"/>
            </clipPath>
<clipPath id="terminal-line-10">
    <rect x="0" y="245.5" width="1220" height="24.65"/>
            </clipPath>
<clipPath id="terminal-line-11">
    <rect x="0" y="269.9" width="1220" height="24.65"/>
            </clipPath>
<clipPath id="terminal-line-12">
    <rect x="0" y="294.3" width="1220" height="24.65"/>
            </clipPath>
<clipPath id="terminal-line-13">
    <rect x="0" y="318.7" width="1220" height="24.65"/>
            </clipPath>
<clipPath id="terminal-line-14">
    <rect x="0" y="343.1" width="1220" height="24.65"/>
            </clipPath>
<clipPath id="terminal-line-15">
    <rect x="0" y="367.5" width="1220" height="24.65"/>
            </clipPath>
<clipPath id="terminal-line-16">
    <rect x="0" y="391.9" width="1220" height="24.65"/>
            </clipPath>
<clipPath id="terminal-line-17">
    <rect x="0" y="416.3" width="1220" height="24.65"/>
            </clipPath>
<clipPath id="terminal-line-18">
    <rect x="0" y="440.7" width="1220" height="24.65"/>
            </clipPath>
<clipPath id="terminal-line-19">
    <rect x="0" y="465.1" width="1220" height="24.65"/>
            </clipPath>
<clipPath id="terminal-line-20">
    <rect x="0" y="489.5" width="1220" height="24.65"/>
            </clipPath>
<clipPath id="terminal-line-21">
    <rect x="0" y="513.9" width="1220" height="24.65"/>
            </clipPath>
<clipPath id="terminal-line-22">
    <rect x="0" y="538.3" width="1220" height="24.65"/>
            </clipPath>
<clipPath id="terminal-line-23">
    <rect x="0" y="562.7" width="1220" height="24.65"/>
            </clipPath>
<clipPath id="terminal-line-24">
    <rect x="0" y="587.1" width="1220" height="24.65"/>
            </clipPath>
<clipPath id="terminal-line-25">
    <rect x="0" y="611.5" width="1220" height="24.65"/>
            </clipPath>
<clipPath id="terminal-line-26">
    <rect x="0" y="635.9" width="1220" height="24.65"/>
            </clipPath>
<clipPath id="terminal-line-27">
    <rect x="0" y="660.3" width="1220" height="24.65"/>
            </clipPath>
<clipPath id="terminal-line-28">
    <rect x="0" y="684.7" width="1220" height="24.65"/>
            </clipPath>
<clipPath id="terminal-line-29">
    <rect x="0" y="709.1" width="1220" height="24.65"/>
            </clipPath>
<clipPath id="terminal-line-30">
    <rect x="0" y="733.5" width="1220" height="24.65"/>
            </clipPath>
<clipPath id="terminal-line-31">
    <rect x="0" y="757.9" width="1220" height="24.65"/>
            </clipPath>
<clipPath id="terminal-line-32">
    <rect x="0" y="782.3" width="1220" height="24.65"/>
            </clipPath>
<clipPath id="terminal-line-33">
    <rect x="0" y="806.7" width="1220" height="24.65"/>
            </clipPath>
<clipPath id="terminal-line-34">
    <rect x="0" y="831.1" width="1220" height="24.65"/>
            </clipPath>
<clipPath id="terminal-line-35">
    <rect x="0" y="855.5" width="1220" height="24.65"/>
            </clipPath>
<clipPath id="terminal-line-36">
    <rect x="0" y="879.9" width="1220" height="24.65"/>
            </clipPath>
<clipPath id="terminal-line-37">
    <rect x="0" y="904.3" width="1220" height="24.65"/>
            </clipPath>
<clipPath id="terminal-line-38">
    <rect x="0" y="928.7" width="1220" height="24.65"/>
            </clipPath>
    </defs>

    <rect fill="#292929" stroke="rgba(255,255,255,0.35)" stroke-width="1" x="1" y="1" width="1236" height="1024" rx="8"/><text class="terminal-title" fill="#c5c8c6" text-anchor="middle" x="618" y="27">_DiscoveryApp</text>
            <g transform="translate(26,22)">
            <circle cx="0" cy="0" r="7" fill="#ff5f57"/>
            <circle cx="22" cy="0" r="7" fill="#febc2e"/>
            <circle cx="44" cy="0" r="7" fill="#28c840"/>
            </g>
        
    <g transform="translate(9, 41)" clip-path="url(#terminal-clip-terminal)">
    <rect fill="#000000" x="0" y="1.5" width="1220" height="24.65" shape-rendering="crispEdges"/><rect fill="#000000" x="0" y="25.9" width="1220" height="24.65" shape-rendering="crispEdges"/><rect fill="#000000" x="0" y="50.3" width="1220" height="24.65" shape-rendering="crispEdges"/><rect fill="#000000" x="0" y="74.7" width="1220" height="24.65" shape-rendering="crispEdges"/><rect fill="#000000" x="0" y="99.1" width="61" height="24.65" shape-rendering="crispEdges"/><rect fill="#0d0d0d" x="61" y="99.1" width="1098" height="24.65" shape-rendering="crispEdges"/><rect fill="#000000" x="1159" y="99.1" width="61" height="24.65" shape-rendering="crispEdges"/><rect fill="#000000" x="0" y="123.5" width="61" height="24.65" shape-rendering="crispEdges"/><rect fill="#0d0d0d" x="61" y="123.5" width="12.2" height="24.65" shape-rendering="crispEdges"/><rect fill="#0d0d0d" x="73.2" y="123.5" width="1073.6" height="24.65" shape-rendering="crispEdges"/><rect fill="#0d0d0d" x="1146.8" y="123.5" width="12.2" height="24.65" shape-rendering="crispEdges"/><rect fill="#000000" x="1159" y="123.5" width="61" height="24.65" shape-rendering="crispEdges"/><rect fill="#000000" x="0" y="147.9" width="61" height="24.65" shape-rendering="crispEdges"/><rect fill="#0d0d0d" x="61" y="147.9" width="12.2" height="24.65" shape-rendering="crispEdges"/><rect fill="#0d0d0d" x="73.2" y="147.9" width="24.4" height="24.65" shape-rendering="crispEdges"/><rect fill="#0d0d0d" x="97.6" y="147.9" width="109.8" height="24.65" shape-rendering="crispEdges"/><rect fill="#0d0d0d" x="207.4" y="147.9" width="231.8" height="24.65" shape-rendering="crispEdges"/><rect fill="#0d0d0d" x="439.2" y="147.9" width="707.6" height="24.65" shape-rendering="crispEdges"/><rect fill="#0d0d0d" x="1146.8" y="147.9" width="12.2" height="24.65" shape-rendering="crispEdges"/><rect fill="#000000" x="1159" y="147.9" width="61" height="24.65" shape-rendering="crispEdges"/><rect fill="#000000" x="0" y="172.3" width="61" height="24.65" shape-rendering="crispEdges"/><rect fill="#0d0d0d" x="61" y="172.3" width="12.2" height="24.65" shape-rendering="crispEdges"/><rect fill="#0d0d0d" x="73.2" y="172.3" width="24.4" height="24.65" shape-rendering="crispEdges"/><rect fill="#0d0d0d" x="97.6" y="172.3" width="268.4" height="24.65" shape-rendering="crispEdges"/><rect fill="#0d0d0d" x="366" y="172.3" width="780.8" height="24.65" shape-rendering="crispEdges"/><rect fill="#0d0d0d" x="1146.8" y="172.3" width="12.2" height="24.65" shape-rendering="crispEdges"/><rect fill="#000000" x="1159" y="172.3" width="61" height="24.65" shape-rendering="crispEdges"/><rect fill="#000000" x="0" y="196.7" width="61" height="24.65" shape-rendering="crispEdges"/><rect fill="#0d0d0d" x="61" y="196.7" width="12.2" height="24.65" shape-rendering="crispEdges"/><rect fill="#0d0d0d" x="73.2" y="196.7" width="24.4" height="24.65" shape-rendering="crispEdges"/><rect fill="#0d0d0d" x="97.6" y="196.7" width="0" height="24.65" shape-rendering="crispEdges"/><rect fill="#0d0d0d" x="97.6" y="196.7" width="1049.2" height="24.65" shape-rendering="crispEdges"/><rect fill="#0d0d0d" x="1146.8" y="196.7" width="12.2" height="24.65" shape-rendering="crispEdges"/><rect fill="#000000" x="1159" y="196.7" width="61" height="24.65" shape-rendering="crispEdges"/><rect fill="#000000" x="0" y="221.1" width="61" height="24.65" shape-rendering="crispEdges"/><rect fill="#0d0d0d" x="61" y="221.1" width="12.2" height="24.65" shape-rendering="crispEdges"/><rect fill="#0d0d0d" x="73.2" y="221.1" width="36.6" height="24.65" shape-rendering="crispEdges"/><rect fill="#0d0d0d" x="109.8" y="221.1" width="12.2" height="24.65" shape-rendering="crispEdges"/><rect fill="#0d0d0d" x="122" y="221.1" width="73.2" height="24.65" shape-rendering="crispEdges"/><rect fill="#0d0d0d" x="195.2" y="221.1" width="24.4" height="24.65" shape-rendering="crispEdges"/><rect fill="#0d0d0d" x="219.6" y="221.1" width="219.6" height="24.65" shape-rendering="crispEdges"/><rect fill="#0d0d0d" x="439.2" y="221.1" width="707.6" height="24.65" shape-rendering="crispEdges"/><rect fill="#0d0d0d" x="1146.8" y="221.1" width="12.2" height="24.65" shape-rendering="crispEdges"/><rect fill="#000000" x="1159" y="221.1" width="61" height="24.65" shape-rendering="crispEdges"/><rect fill="#000000" x="0" y="245.5" width="61" height="24.65" shape-rendering="crispEdges"/><rect fill="#0d0d0d" x="61" y="245.5" width="12.2" height="24.65" shape-rendering="crispEdges"/><rect fill="#0d0d0d" x="73.2" y="245.5" width="36.6" height="24.65" shape-rendering="crispEdges"/><rect fill="#0d0d0d" x="109.8" y="245.5" width="719.8" height="24.65" shape-rendering="crispEdges"/><rect fill="#0d0d0d" x="829.6" y="245.5" width="317.2" height="24.65" shape-rendering="crispEdges"/><rect fill="#0d0d0d" x="1146.8" y="245.5" width="12.2" height="24.65" shape-rendering="crispEdges"/><rect fill="#000000" x="1159" y="245.5" width="61" height="24.65" shape-rendering="crispEdges"/><rect fill="#000000" x="0" y="269.9" width="61" height="24.65" shape-rendering="crispEdges"/><rect fill="#0d0d0d" x="61" y="269.9" width="12.2" height="24.65" shape-rendering="crispEdges"/><rect fill="#0d0d0d" x="73.2" y="269.9" width="36.6" height="24.65" shape-rendering="crispEdges"/><rect fill="#0d0d0d" x="109.8" y="269.9" width="48.8" height="24.65" shape-rendering="crispEdges"/><rect fill="#0d0d0d" x="158.6" y="269.9" width="902.8" height="24.65" shape-rendering="crispEdges"/><rect fill="#0d0d0d" x="1061.4" y="269.9" width="85.4" height="24.65" shape-rendering="crispEdges"/><rect fill="#0d0d0d" x="1146.8" y="269.9" width="12.2" height="24.65" shape-rendering="crispEdges"/><rect fill="#000000" x="1159" y="269.9" width="61" height="24.65" shape-rendering="crispEdges"/><rect fill="#000000" x="0" y="294.3" width="61" height="24.65" shape-rendering="crispEdges"/><rect fill="#0d0d0d" x="61" y="294.3" width="12.2" height="24.65" shape-rendering="crispEdges"/><rect fill="#0d0d0d" x="73.2" y="294.3" width="1073.6" height="24.65" shape-rendering="crispEdges"/><rect fill="#0d0d0d" x="1146.8" y="294.3" width="12.2" height="24.65" shape-rendering="crispEdges"/><rect fill="#000000" x="1159" y="294.3" width="61" height="24.65" shape-rendering="crispEdges"/><rect fill="#000000" x="0" y="318.7" width="61" height="24.65" shape-rendering="crispEdges"/><rect fill="#0d0d0d" x="61" y="318.7" width="12.2" height="24.65" shape-rendering="crispEdges"/><rect fill="#0d0d0d" x="73.2" y="318.7" width="36.6" height="24.65" shape-rendering="crispEdges"/><rect fill="#0d0d0d" x="109.8" y="318.7" width="12.2" height="24.65" shape-rendering="crispEdges"/><rect fill="#0d0d0d" x="122" y="318.7" width="73.2" height="24.65" shape-rendering="crispEdges"/><rect fill="#0d0d0d" x="195.2" y="318.7" width="24.4" height="24.65" shape-rendering="crispEdges"/><rect fill="#0d0d0d" x="219.6" y="318.7" width="219.6" height="24.65" shape-rendering="crispEdges"/><rect fill="#0d0d0d" x="439.2" y="318.7" width="707.6" height="24.65" shape-rendering="crispEdges"/><rect fill="#0d0d0d" x="1146.8" y="318.7" width="12.2" height="24.65" shape-rendering="crispEdges"/><rect fill="#000000" x="1159" y="318.7" width="61" height="24.65" shape-rendering="crispEdges"/><rect fill="#000000" x="0" y="343.1" width="61" height="24.65" shape-rendering="crispEdges"/><rect fill="#0d0d0d" x="61" y="343.1" width="12.2" height="24.65" shape-rendering="crispEdges"/><rect fill="#0d0d0d" x="73.2" y="343.1" width="36.6" height="24.65" shape-rendering="crispEdges"/><rect fill="#0d0d0d" x="109.8" y="343.1" width="585.6" height="24.65" shape-rendering="crispEdges"/><rect fill="#0d0d0d" x="695.4" y="343.1" width="451.4" height="24.65" shape-rendering="crispEdges"/><rect fill="#0d0d0d" x="1146.8" y="343.1" width="12.2" height="24.65" shape-rendering="crispEdges"/><rect fill="#000000" x="1159" y="343.1" width="61" height="24.65" shape-rendering="crispEdges"/><rect fill="#000000" x="0" y="367.5" width="61" height="24.65" shape-rendering="crispEdges"/><rect fill="#0d0d0d" x="61" y="367.5" width="12.2" height="24.65" shape-rendering="crispEdges"/><rect fill="#0d0d0d" x="73.2" y="367.5" width="36.6" height="24.65" shape-rendering="crispEdges"/><rect fill="#0d0d0d" x="109.8" y="367.5" width="48.8" height="24.65" shape-rendering="crispEdges"/><rect fill="#0d0d0d" x="158.6" y="367.5" width="732" height="24.65" shape-rendering="crispEdges"/><rect fill="#0d0d0d" x="890.6" y="367.5" width="256.2" height="24.65" shape-rendering="crispEdges"/><rect fill="#0d0d0d" x="1146.8" y="367.5" width="12.2" height="24.65" shape-rendering="crispEdges"/><rect fill="#000000" x="1159" y="367.5" width="61" height="24.65" shape-rendering="crispEdges"/><rect fill="#000000" x="0" y="391.9" width="61" height="24.65" shape-rendering="crispEdges"/><rect fill="#0d0d0d" x="61" y="391.9" width="12.2" height="24.65" shape-rendering="crispEdges"/><rect fill="#0d0d0d" x="73.2" y="391.9" width="1073.6" height="24.65" shape-rendering="crispEdges"/><rect fill="#0d0d0d" x="1146.8" y="391.9" width="12.2" height="24.65" shape-rendering="crispEdges"/><rect fill="#000000" x="1159" y="391.9" width="61" height="24.65" shape-rendering="crispEdges"/><rect fill="#000000" x="0" y="416.3" width="61" height="24.65" shape-rendering="crispEdges"/><rect fill="#0d0d0d" x="61" y="416.3" width="12.2" height="24.65" shape-rendering="crispEdges"/><rect fill="#0d0d0d" x="73.2" y="416.3" width="36.6" height="24.65" shape-rendering="crispEdges"/><rect fill="#0d0d0d" x="109.8" y="416.3" width="48.8" height="24.65" shape-rendering="crispEdges"/><rect fill="#0d0d0d" x="158.6" y="416.3" width="85.4" height="24.65" shape-rendering="crispEdges"/><rect fill="#0d0d0d" x="244" y="416.3" width="24.4" height="24.65" shape-rendering="crispEdges"/><rect fill="#0d0d0d" x="268.4" y="416.3" width="231.8" height="24.65" shape-rendering="crispEdges"/><rect fill="#0d0d0d" x="500.2" y="416.3" width="646.6" height="24.65" shape-rendering="crispEdges"/><rect fill="#0d0d0d" x="1146.8" y="416.3" width="12.2" height="24.65" shape-rendering="crispEdges"/><rect fill="#000000" x="1159" y="416.3" width="61" height="24.65" shape-rendering="crispEdges"/><rect fill="#000000" x="0" y="440.7" width="61" height="24.65" shape-rendering="crispEdges"/><rect fill="#0d0d0d" x="61" y="440.7" width="12.2" height="24.65" shape-rendering="crispEdges"/><rect fill="#0d0d0d" x="73.2" y="440.7" width="36.6" height="24.65" shape-rendering="crispEdges"/><rect fill="#0d0d0d" x="109.8" y="440.7" width="549" height="24.65" shape-rendering="crispEdges"/><rect fill="#0d0d0d" x="658.8" y="440.7" width="488" height="24.65" shape-rendering="crispEdges"/><rect fill="#0d0d0d" x="1146.8" y="440.7" width="12.2" height="24.65" shape-rendering="crispEdges"/><rect fill="#000000" x="1159" y="440.7" width="61" height="24.65" shape-rendering="crispEdges"/><rect fill="#000000" x="0" y="465.1" width="61" height="24.65" shape-rendering="crispEdges"/><rect fill="#0d0d0d" x="61" y="465.1" width="12.2" height="24.65" shape-rendering="crispEdges"/><rect fill="#0d0d0d" x="73.2" y="465.1" width="36.6" height="24.65" shape-rendering="crispEdges"/><rect fill="#0d0d0d" x="109.8" y="465.1" width="48.8" height="24.65" shape-rendering="crispEdges"/><rect fill="#0d0d0d" x="158.6" y="465.1" width="622.2" height="24.65" shape-rendering="crispEdges"/><rect fill="#0d0d0d" x="780.8" y="465.1" width="366" height="24.65" shape-rendering="crispEdges"/><rect fill="#0d0d0d" x="1146.8" y="465.1" width="12.2" height="24.65" shape-rendering="crispEdges"/><rect fill="#000000" x="1159" y="465.1" width="61" height="24.65" shape-rendering="crispEdges"/><rect fill="#000000" x="0" y="489.5" width="61" height="24.65" shape-rendering="crispEdges"/><rect fill="#0d0d0d" x="61" y="489.5" width="12.2" height="24.65" shape-rendering="crispEdges"/><rect fill="#0d0d0d" x="73.2" y="489.5" width="1073.6" height="24.65" shape-rendering="crispEdges"/><rect fill="#0d0d0d" x="1146.8" y="489.5" width="12.2" height="24.65" shape-rendering="crispEdges"/><rect fill="#000000" x="1159" y="489.5" width="61" height="24.65" shape-rendering="crispEdges"/><rect fill="#000000" x="0" y="513.9" width="61" height="24.65" shape-rendering="crispEdges"/><rect fill="#0d0d0d" x="61" y="513.9" width="12.2" height="24.65" shape-rendering="crispEdges"/><rect fill="#0d0d0d" x="73.2" y="513.9" width="24.4" height="24.65" shape-rendering="crispEdges"/><rect fill="#0d0d0d" x="97.6" y="513.9" width="1024.8" height="24.65" shape-rendering="crispEdges"/><rect fill="#0d0d0d" x="1122.4" y="513.9" width="24.4" height="24.65" shape-rendering="crispEdges"/><rect fill="#0d0d0d" x="1146.8" y="513.9" width="12.2" height="24.65" shape-rendering="crispEdges"/><rect fill="#000000" x="1159" y="513.9" width="61" height="24.65" shape-rendering="crispEdges"/><rect fill="#000000" x="0" y="538.3" width="61" height="24.65" shape-rendering="crispEdges"/><rect fill="#0d0d0d" x="61" y="538.3" width="12.2" height="24.65" shape-rendering="crispEdges"/><rect fill="#0d0d0d" x="73.2" y="538.3" width="24.4" height="24.65" shape-rendering="crispEdges"/><rect fill="#0d0d0d" x="97.6" y="538.3" width="12.2" height="24.65" shape-rendering="crispEdges"/><rect fill="#0d0d0d" x="109.8" y="538.3" width="1000.4" height="24.65" shape-rendering="crispEdges"/><rect fill="#0d0d0d" x="1110.2" y="538.3" width="12.2" height="24.65" shape-rendering="crispEdges"/><rect fill="#0d0d0d" x="1122.4" y="538.3" width="24.4" height="24.65" shape-rendering="crispEdges"/><rect fill="#0d0d0d" x="1146.8" y="538.3" width="12.2" height="24.65" shape-rendering="crispEdges"/><rect fill="#000000" x="1159" y="538.3" width="61" height="24.65" shape-rendering="crispEdges"/><rect fill="#000000" x="0" y="562.7" width="61" height="24.65" shape-rendering="crispEdges"/><rect fill="#0d0d0d" x="61" y="562.7" width="12.2" height="24.65" shape-rendering="crispEdges"/><rect fill="#0d0d0d" x="73.2" y="562.7" width="24.4" height="24.65" shape-rendering="crispEdges"/><rect fill="#0d0d0d" x="97.6" y="562.7" width="12.2" height="24.65" shape-rendering="crispEdges"/><rect fill="#0d0d0d" x="109.8" y="562.7" width="24.4" height="24.65" shape-rendering="crispEdges"/><rect fill="#0d0d0d" x="134.2" y="562.7" width="183" height="24.65" shape-rendering="crispEdges"/><rect fill="#0d0d0d" x="317.2" y="562.7" width="48.8" height="24.65" shape-rendering="crispEdges"/><rect fill="#0d0d0d" x="366" y="562.7" width="744.2" height="24.65" shape-rendering="crispEdges"/><rect fill="#0d0d0d" x="1110.2" y="562.7" width="12.2" height="24.65" shape-rendering="crispEdges"/><rect fill="#0d0d0d" x="1122.4" y="562.7" width="24.4" height="24.65" shape-rendering="crispEdges"/><rect fill="#0d0d0d" x="1146.8" y="562.7" width="12.2" height="24.65" shape-rendering="crispEdges"/><rect fill="#000000" x="1159" y="562.7" width="61" height="24.65" shape-rendering="crispEdges"/><rect fill="#000000" x="0" y="587.1" width="61" height="24.65" shape-rendering="crispEdges"/><rect fill="#0d0d0d" x="61" y="587.1" width="12.2" height="24.65" shape-rendering="crispEdges"/><rect fill="#0d0d0d" x="73.2" y="587.1" width="24.4" height="24.65" shape-rendering="crispEdges"/><rect fill="#0d0d0d" x="97.6" y="587.1" width="12.2" height="24.65" shape-rendering="crispEdges"/><rect fill="#0d0d0d" x="109.8" y="587.1" width="24.4" height="24.65" shape-rendering="crispEdges"/><rect fill="#0d0d0d" x="134.2" y="587.1" width="170.8" height="24.65" shape-rendering="crispEdges"/><rect fill="#0d0d0d" x="305" y="587.1" width="805.2" height="24.65" shape-rendering="crispEdges"/><rect fill="#0d0d0d" x="1110.2" y="587.1" width="12.2" height="24.65" shape-rendering="crispEdges"/><rect fill="#0d0d0d" x="1122.4" y="587.1" width="24.4" height="24.65" shape-rendering="crispEdges"/><rect fill="#0d0d0d" x="1146.8" y="587.1" width="12.2" height="24.65" shape-rendering="crispEdges"/><rect fill="#000000" x="1159" y="587.1" width="61" height="24.65" shape-rendering="crispEdges"/><rect fill="#000000" x="0" y="611.5" width="61" height="24.65" shape-rendering="crispEdges"/><rect fill="#0d0d0d" x="61" y="611.5" width="12.2" height="24.65" shape-rendering="crispEdges"/><rect fill="#0d0d0d" x="73.2" y="611.5" width="24.4" height="24.65" shape-rendering="crispEdges"/><rect fill="#0d0d0d" x="97.6" y="611.5" width="12.2" height="24.65" shape-rendering="crispEdges"/><rect fill="#0d0d0d" x="109.8" y="611.5" width="1000.4" height="24.65" shape-rendering="crispEdges"/><rect fill="#0d0d0d" x="1110.2" y="611.5" width="12.2" height="24.65" shape-rendering="crispEdges"/><rect fill="#0d0d0d" x="1122.4" y="611.5" width="24.4" height="24.65" shape-rendering="crispEdges"/><rect fill="#0d0d0d" x="1146.8" y="611.5" width="12.2" height="24.65" shape-rendering="crispEdges"/><rect fill="#000000" x="1159" y="611.5" width="61" height="24.65" shape-rendering="crispEdges"/><rect fill="#000000" x="0" y="635.9" width="61" height="24.65" shape-rendering="crispEdges"/><rect fill="#0d0d0d" x="61" y="635.9" width="12.2" height="24.65" shape-rendering="crispEdges"/><rect fill="#0d0d0d" x="73.2" y="635.9" width="24.4" height="24.65" shape-rendering="crispEdges"/><rect fill="#0d0d0d" x="97.6" y="635.9" width="1024.8" height="24.65" shape-rendering="crispEdges"/><rect fill="#0d0d0d" x="1122.4" y="635.9" width="24.4" height="24.65" shape-rendering="crispEdges"/><rect fill="#0d0d0d" x="1146.8" y="635.9" width="12.2" height="24.65" shape-rendering="crispEdges"/><rect fill="#000000" x="1159" y="635.9" width="61" height="24.65" shape-rendering="crispEdges"/><rect fill="#000000" x="0" y="660.3" width="61" height="24.65" shape-rendering="crispEdges"/><rect fill="#0d0d0d" x="61" y="660.3" width="12.2" height="24.65" shape-rendering="crispEdges"/><rect fill="#0d0d0d" x="73.2" y="660.3" width="1073.6" height="24.65" shape-rendering="crispEdges"/><rect fill="#0d0d0d" x="1146.8" y="660.3" width="12.2" height="24.65" shape-rendering="crispEdges"/><rect fill="#000000" x="1159" y="660.3" width="61" height="24.65" shape-rendering="crispEdges"/><rect fill="#000000" x="0" y="684.7" width="61" height="24.65" shape-rendering="crispEdges"/><rect fill="#0d0d0d" x="61" y="684.7" width="12.2" height="24.65" shape-rendering="crispEdges"/><rect fill="#0d0d0d" x="73.2" y="684.7" width="24.4" height="24.65" shape-rendering="crispEdges"/><rect fill="#0d0d0d" x="97.6" y="684.7" width="0" height="24.65" shape-rendering="crispEdges"/><rect fill="#0d0d0d" x="97.6" y="684.7" width="1049.2" height="24.65" shape-rendering="crispEdges"/><rect fill="#0d0d0d" x="1146.8" y="684.7" width="12.2" height="24.65" shape-rendering="crispEdges"/><rect fill="#000000" x="1159" y="684.7" width="61" height="24.65" shape-rendering="crispEdges"/><rect fill="#000000" x="0" y="709.1" width="61" height="24.65" shape-rendering="crispEdges"/><rect fill="#0d0d0d" x="61" y="709.1" width="12.2" height="24.65" shape-rendering="crispEdges"/><rect fill="#0d0d0d" x="73.2" y="709.1" width="1073.6" height="24.65" shape-rendering="crispEdges"/><rect fill="#0d0d0d" x="1146.8" y="709.1" width="12.2" height="24.65" shape-rendering="crispEdges"/><rect fill="#000000" x="1159" y="709.1" width="61" height="24.65" shape-rendering="crispEdges"/><rect fill="#000000" x="0" y="733.5" width="61" height="24.65" shape-rendering="crispEdges"/><rect fill="#0d0d0d" x="61" y="733.5" width="12.2" height="24.65" shape-rendering="crispEdges"/><rect fill="#0d0d0d" x="73.2" y="733.5" width="24.4" height="24.65" shape-rendering="crispEdges"/><rect fill="#0c7dd4" x="97.6" y="733.5" width="195.2" height="24.65" shape-rendering="crispEdges"/><rect fill="#0d0d0d" x="292.8" y="733.5" width="12.2" height="24.65" shape-rendering="crispEdges"/><rect fill="#1e1e1e" x="305" y="733.5" width="195.2" height="24.65" shape-rendering="crispEdges"/><rect fill="#0d0d0d" x="500.2" y="733.5" width="12.2" height="24.65" shape-rendering="crispEdges"/><rect fill="#1e1e1e" x="512.4" y="733.5" width="195.2" height="24.65" shape-rendering="crispEdges"/><rect fill="#0d0d0d" x="707.6" y="733.5" width="12.2" height="24.65" shape-rendering="crispEdges"/><rect fill="#1e1e1e" x="719.8" y="733.5" width="195.2" height="24.65" shape-rendering="crispEdges"/><rect fill="#0d0d0d" x="915" y="733.5" width="12.2" height="24.65" shape-rendering="crispEdges"/><rect fill="#1e1e1e" x="927.2" y="733.5" width="195.2" height="24.65" shape-rendering="crispEdges"/><rect fill="#0d0d0d" x="1122.4" y="733.5" width="24.4" height="24.65" shape-rendering="crispEdges"/><rect fill="#0d0d0d" x="1146.8" y="733.5" width="12.2" height="24.65" shape-rendering="crispEdges"/><rect fill="#000000" x="1159" y="733.5" width="61" height="24.65" shape-rendering="crispEdges"/><rect fill="#000000" x="0" y="757.9" width="61" height="24.65" shape-rendering="crispEdges"/><rect fill="#0d0d0d" x="61" y="757.9" width="12.2" height="24.65" shape-rendering="crispEdges"/><rect fill="#0d0d0d" x="73.2" y="757.9" width="24.4" height="24.65" shape-rendering="crispEdges"/><rect fill="#0c7dd4" x="97.6" y="757.9" width="61" height="24.65" shape-rendering="crispEdges"/><rect fill="#dfeef9" x="158.6" y="757.9" width="73.2" height="24.65" shape-rendering="crispEdges"/><rect fill="#0c7dd4" x="231.8" y="757.9" width="61" height="24.65" shape-rendering="crispEdges"/><rect fill="#0d0d0d" x="292.8" y="757.9" width="12.2" height="24.65" shape-rendering="crispEdges"/><rect fill="#1e1e1e" x="305" y="757.9" width="12.2" height="24.65" shape-rendering="crispEdges"/><rect fill="#1e1e1e" x="317.2" y="757.9" width="158.6" height="24.65" shape-rendering="crispEdges"/><rect fill="#1e1e1e" x="475.8" y="757.9" width="24.4" height="24.65" shape-rendering="crispEdges"/><rect fill="#0d0d0d" x="500.2" y="757.9" width="12.2" height="24.65" shape-rendering="crispEdges"/><rect fill="#1e1e1e" x="512.4" y="757.9" width="12.2" height="24.65" shape-rendering="crispEdges"/><rect fill="#1e1e1e" x="524.6" y="757.9" width="170.8" height="24.65" shape-rendering="crispEdges"/><rect fill="#1e1e1e" x="695.4" y="757.9" width="12.2" height="24.65" shape-rendering="crispEdges"/><rect fill="#0d0d0d" x="707.6" y="757.9" width="12.2" height="24.65" shape-rendering="crispEdges"/><rect fill="#1e1e1e" x="719.8" y="757.9" width="24.4" height="24.65" shape-rendering="crispEdges"/><rect fill="#1e1e1e" x="744.2" y="757.9" width="146.4" height="24.65" shape-rendering="crispEdges"/><rect fill="#1e1e1e" x="890.6" y="757.9" width="24.4" height="24.65" shape-rendering="crispEdges"/><rect fill="#0d0d0d" x="915" y="757.9" width="12.2" height="24.65" shape-rendering="crispEdges"/><rect fill="#1e1e1e" x="927.2" y="757.9" width="24.4" height="24.65" shape-rendering="crispEdges"/><rect fill="#1e1e1e" x="951.6" y="757.9" width="146.4" height="24.65" shape-rendering="crispEdges"/><rect fill="#1e1e1e" x="1098" y="757.9" width="24.4" height="24.65" shape-rendering="crispEdges"/><rect fill="#0d0d0d" x="1122.4" y="757.9" width="24.4" height="24.65" shape-rendering="crispEdges"/><rect fill="#0d0d0d" x="1146.8" y="757.9" width="12.2" height="24.65" shape-rendering="crispEdges"/><rect fill="#000000" x="1159" y="757.9" width="61" height="24.65" shape-rendering="crispEdges"/><rect fill="#000000" x="0" y="782.3" width="61" height="24.65" shape-rendering="crispEdges"/><rect fill="#0d0d0d" x="61" y="782.3" width="12.2" height="24.65" shape-rendering="crispEdges"/><rect fill="#0d0d0d" x="73.2" y="782.3" width="24.4" height="24.65" shape-rendering="crispEdges"/><rect fill="#0c7dd4" x="97.6" y="782.3" width="195.2" height="24.65" shape-rendering="crispEdges"/><rect fill="#0d0d0d" x="292.8" y="782.3" width="12.2" height="24.65" shape-rendering="crispEdges"/><rect fill="#1e1e1e" x="305" y="782.3" width="195.2" height="24.65" shape-rendering="crispEdges"/><rect fill="#0d0d0d" x="500.2" y="782.3" width="12.2" height="24.65" shape-rendering="crispEdges"/><rect fill="#1e1e1e" x="512.4" y="782.3" width="195.2" height="24.65" shape-rendering="crispEdges"/><rect fill="#0d0d0d" x="707.6" y="782.3" width="12.2" height="24.65" shape-rendering="crispEdges"/><rect fill="#1e1e1e" x="719.8" y="782.3" width="195.2" height="24.65" shape-rendering="crispEdges"/><rect fill="#0d0d0d" x="915" y="782.3" width="12.2" height="24.65" shape-rendering="crispEdges"/><rect fill="#1e1e1e" x="927.2" y="782.3" width="195.2" height="24.65" shape-rendering="crispEdges"/><rect fill="#0d0d0d" x="1122.4" y="782.3" width="24.4" height="24.65" shape-rendering="crispEdges"/><rect fill="#0d0d0d" x="1146.8" y="782.3" width="12.2" height="24.65" shape-rendering="crispEdges"/><rect fill="#000000" x="1159" y="782.3" width="61" height="24.65" shape-rendering="crispEdges"/><rect fill="#000000" x="0" y="806.7" width="61" height="24.65" shape-rendering="crispEdges"/><rect fill="#0d0d0d" x="61" y="806.7" width="12.2" height="24.65" shape-rendering="crispEdges"/><rect fill="#0d0d0d" x="73.2" y="806.7" width="1073.6" height="24.65" shape-rendering="crispEdges"/><rect fill="#0d0d0d" x="1146.8" y="806.7" width="12.2" height="24.65" shape-rendering="crispEdges"/><rect fill="#000000" x="1159" y="806.7" width="61" height="24.65" shape-rendering="crispEdges"/><rect fill="#000000" x="0" y="831.1" width="61" height="24.65" shape-rendering="crispEdges"/><rect fill="#0d0d0d" x="61" y="831.1" width="12.2" height="24.65" shape-rendering="crispEdges"/><rect fill="#0d0d0d" x="73.2" y="831.1" width="1073.6" height="24.65" shape-rendering="crispEdges"/><rect fill="#0d0d0d" x="1146.8" y="831.1" width="12.2" height="24.65" shape-rendering="crispEdges"/><rect fill="#000000" x="1159" y="831.1" width="61" height="24.65" shape-rendering="crispEdges"/><rect fill="#000000" x="0" y="855.5" width="61" height="24.65" shape-rendering="crispEdges"/><rect fill="#0d0d0d" x="61" y="855.5" width="1098" height="24.65" shape-rendering="crispEdges"/><rect fill="#000000" x="1159" y="855.5" width="61" height="24.65" shape-rendering="crispEdges"/><rect fill="#000000" x="0" y="879.9" width="1220" height="24.65" shape-rendering="crispEdges"/><rect fill="#000000" x="0" y="904.3" width="1220" height="24.65" shape-rendering="crispEdges"/><rect fill="#000000" x="0" y="928.7" width="1220" height="24.65" shape-rendering="crispEdges"/><rect fill="#000000" x="0" y="953.1" width="1220" height="24.65" shape-rendering="crispEdges"/>
    <g class="terminal-matrix">
    <text class="terminal-r1" x="1220" y="20" textLength="12.2" clip-path="url(#terminal-line-0)">
</text><text class="terminal-r1" x="1220" y="44.4" textLength="12.2" clip-path="url(#terminal-line-1)">
</text><text class="terminal-r1" x="1220" y="68.8" textLength="12.2" clip-path="url(#terminal-line-2)">
</text><text class="terminal-r1" x="1220" y="93.2" textLength="12.2" clip-path="url(#terminal-line-3)">
</text><text class="terminal-r2" x="61" y="117.6" textLength="1098" clip-path="url(#terminal-line-4)">┌────────────────────────────────────────────────────────────────────────────────────────┐</text><text class="terminal-r1" x="1220" y="117.6" textLength="12.2" clip-path="url(#terminal-line-4)">
</text><text class="terminal-r2" x="61" y="142" textLength="12.2" clip-path="url(#terminal-line-5)">│</text><text class="terminal-r2" x="1146.8" y="142" textLength="12.2" clip-path="url(#terminal-line-5)">│</text><text class="terminal-r1" x="1220" y="142" textLength="12.2" clip-path="url(#terminal-line-5)">
</text><text class="terminal-r2" x="61" y="166.4" textLength="12.2" clip-path="url(#terminal-line-6)">│</text><text class="terminal-r3" x="97.6" y="166.4" textLength="109.8" clip-path="url(#terminal-line-6)">DISCOVERY</text><text class="terminal-r4" x="207.4" y="166.4" textLength="231.8" clip-path="url(#terminal-line-6)">&#160;--&#160;Developer&#160;Tools</text><text class="terminal-r2" x="1146.8" y="166.4" textLength="12.2" clip-path="url(#terminal-line-6)">│</text><text class="terminal-r1" x="1220" y="166.4" textLength="12.2" clip-path="url(#terminal-line-6)">
</text><text class="terminal-r2" x="61" y="190.8" textLength="12.2" clip-path="url(#terminal-line-7)">│</text><text class="terminal-r5" x="97.6" y="190.8" textLength="268.4" clip-path="url(#terminal-line-7)">2&#160;accepted,&#160;1&#160;rejected</text><text class="terminal-r2" x="1146.8" y="190.8" textLength="12.2" clip-path="url(#terminal-line-7)">│</text><text class="terminal-r1" x="1220" y="190.8" textLength="12.2" clip-path="url(#terminal-line-7)">
</text><text class="terminal-r2" x="61" y="215.2" textLength="12.2" clip-path="url(#terminal-line-8)">│</text><text class="terminal-r2" x="1146.8" y="215.2" textLength="12.2" clip-path="url(#terminal-line-8)">│</text><text class="terminal-r1" x="1220" y="215.2" textLength="12.2" clip-path="url(#terminal-line-8)">
</text><text class="terminal-r2" x="61" y="239.6" textLength="12.2" clip-path="url(#terminal-line-9)">│</text><text class="terminal-r6" x="122" y="239.6" textLength="73.2" clip-path="url(#terminal-line-9)">Cursor</text><text class="terminal-r5" x="219.6" y="239.6" textLength="219.6" clip-path="url(#terminal-line-9)">https://cursor.com</text><text class="terminal-r2" x="1146.8" y="239.6" textLength="12.2" clip-path="url(#terminal-line-9)">│</text><text class="terminal-r1" x="1220" y="239.6" textLength="12.2" clip-path="url(#terminal-line-9)">
</text><text class="terminal-r2" x="61" y="264" textLength="12.2" clip-path="url(#terminal-line-10)">│</text><text class="terminal-r4" x="109.8" y="264" textLength="719.8" clip-path="url(#terminal-line-10)">&#160;&#160;&#160;&#160;AI-powered&#160;code&#160;editor&#160;with&#160;deep&#160;codebase&#160;understanding</text><text class="terminal-r2" x="1146.8" y="264" textLength="12.2" clip-path="url(#terminal-line-10)">│</text><text class="terminal-r1" x="1220" y="264" textLength="12.2" clip-path="url(#terminal-line-10)">
</text><text class="terminal-r2" x="61" y="288.4" textLength="12.2" clip-path="url(#terminal-line-11)">│</text><text class="terminal-r5" x="158.6" y="288.4" textLength="902.8" clip-path="url(#terminal-line-11)">Found&#160;via:&#160;G2&#160;category&#160;leader,&#160;3x&#160;alternatives&#160;lists&#160;&#160;|&#160;&#160;Tier:&#160;Established</text><text class="terminal-r2" x="1146.8" y="288.4" textLength="12.2" clip-path="url(#terminal-line-11)">│</text><text class="terminal-r1" x="1220" y="288.4" textLength="12.2" clip-path="url(#terminal-line-11)">
</text><text class="terminal-r2" x="61" y="312.8" textLength="12.2" clip-path="url(#terminal-line-12)">│</text><text class="terminal-r2" x="1146.8" y="312.8" textLength="12.2" clip-path="url(#terminal-line-12)">│</text><text class="terminal-r1" x="1220" y="312.8" textLength="12.2" clip-path="url(#terminal-line-12)">
</text><text class="terminal-r2" x="61" y="337.2" textLength="12.2" clip-path="url(#terminal-line-13)">│</text><text class="terminal-r6" x="122" y="337.2" textLength="73.2" clip-path="url(#terminal-line-13)">Linear</text><text class="terminal-r5" x="219.6" y="337.2" textLength="219.6" clip-path="url(#terminal-line-13)">https://linear.app</text><text class="terminal-r2" x="1146.8" y="337.2" textLength="12.2" clip-path="url(#terminal-line-13)">│</text><text class="terminal-r1" x="1220" y="337.2" textLength="12.2" clip-path="url(#terminal-line-13)">
</text><text class="terminal-r2" x="61" y="361.6" textLength="12.2" clip-path="url(#terminal-line-14)">│</text><text class="terminal-r4" x="109.8" y="361.6" textLength="585.6" clip-path="url(#terminal-line-14)">&#160;&#160;&#160;&#160;Project&#160;management&#160;for&#160;modern&#160;software&#160;teams</text><text class="terminal-r2" x="1146.8" y="361.6" textLength="12.2" clip-path="url(#terminal-line-14)">│</text><text class="terminal-r1" x="1220" y="361.6" textLength="12.2" clip-path="url(#terminal-line-14)">
</text><text class="terminal-r2" x="61" y="386" textLength="12.2" clip-path="url(#terminal-line-15)">│</text><text class="terminal-r5" x="158.6" y="386" textLength="732" clip-path="url(#terminal-line-15)">Found&#160;via:&#160;HN&#160;mentions,&#160;ProductHunt&#160;#1&#160;&#160;|&#160;&#160;Tier:&#160;Established</text><text class="terminal-r2" x="1146.8" y="386" textLength="12.2" clip-path="url(#terminal-line-15)">│</text><text class="terminal-r1" x="1220" y="386" textLength="12.2" clip-path="url(#terminal-line-15)">
</text><text class="terminal-r2" x="61" y="410.4" textLength="12.2" clip-path="url(#terminal-line-16)">│</text><text class="terminal-r2" x="1146.8" y="410.4" textLength="12.2" clip-path="url(#terminal-line-16)">│</text><text class="terminal-r1" x="1220" y="410.4" textLength="12.2" clip-path="url(#terminal-line-16)">
</text><text class="terminal-r2" x="61" y="434.8" textLength="12.2" clip-path="url(#terminal-line-17)">│</text><text class="terminal-r4" x="109.8" y="434.8" textLength="48.8" clip-path="url(#terminal-line-17)">[&#160;]&#160;</text><text class="terminal-r6" x="158.6" y="434.8" textLength="85.4" clip-path="url(#terminal-line-17)">Earthly</text><text class="terminal-r5" x="268.4" y="434.8" textLength="231.8" clip-path="url(#terminal-line-17)">https://earthly.dev</text><text class="terminal-r2" x="1146.8" y="434.8" textLength="12.2" clip-path="url(#terminal-line-17)">│</text><text class="terminal-r1" x="1220" y="434.8" textLength="12.2" clip-path="url(#terminal-line-17)">
</text><text class="terminal-r2" x="61" y="459.2" textLength="12.2" clip-path="url(#terminal-line-18)">│</text><text class="terminal-r4" x="109.8" y="459.2" textLength="549" clip-path="url(#terminal-line-18)">&#160;&#160;&#160;&#160;Repeatable&#160;build&#160;automation.&#160;YC&#160;W21&#160;batch</text><text class="terminal-r2" x="1146.8" y="459.2" textLength="12.2" clip-path="url(#terminal-line-18)">│</text><text class="terminal-r1" x="1220" y="459.2" textLength="12.2" clip-path="url(#terminal-line-18)">
</text><text class="terminal-r2" x="61" y="483.6" textLength="12.2" clip-path="url(#terminal-line-19)">│</text><text class="terminal-r5" x="158.6" y="483.6" textLength="622.2" clip-path="url(#terminal-line-19)">Found&#160;via:&#160;alternatives&#160;to&#160;Bazel&#160;&#160;|&#160;&#160;Tier:&#160;Emerging</text><text class="terminal-r2" x="1146.8" y="483.6" textLength="12.2" clip-path="url(#terminal-line-19)">│</text><text class="terminal-r1" x="1220" y="483.6" textLength="12.2" clip-path="url(#terminal-line-19)">
</text><text class="terminal-r2" x="61" y="508" textLength="12.2" clip-path="url(#terminal-line-20)">│</text><text class="terminal-r2" x="1146.8" y="508" textLength="12.2" clip-path="url(#terminal-line-20)">│</text><text class="terminal-r1" x="1220" y="508" textLength="12.2" clip-path="url(#terminal-line-20)">
</text><text class="terminal-r2" x="61" y="532.4" textLength="12.2" clip-path="url(#terminal-line-21)">│</text><text class="terminal-r2" x="97.6" y="532.4" textLength="1024.8" clip-path="url(#terminal-line-21)">┌──────────────────────────────────────────────────────────────────────────────────┐</text><text class="terminal-r2" x="1146.8" y="532.4" textLength="12.2" clip-path="url(#terminal-line-21)">│</text><text class="terminal-r1" x="1220" y="532.4" textLength="12.2" clip-path="url(#terminal-line-21)">
</text><text class="terminal-r2" x="61" y="556.8" textLength="12.2" clip-path="url(#terminal-line-22)">│</text><text class="terminal-r2" x="97.6" y="556.8" textLength="12.2" clip-path="url(#terminal-line-22)">│</text><text class="terminal-r2" x="1110.2" y="556.8" textLength="12.2" clip-path="url(#terminal-line-22)">│</text><text class="terminal-r2" x="1146.8" y="556.8" textLength="12.2" clip-path="url(#terminal-line-22)">│</text><text class="terminal-r1" x="1220" y="556.8" textLength="12.2" clip-path="url(#terminal-line-22)">
</text><text class="terminal-r2" x="61" y="581.2" textLength="12.2" clip-path="url(#terminal-line-23)">│</text><text class="terminal-r2" x="97.6" y="581.2" textLength="12.2" clip-path="url(#terminal-line-23)">│</text><text class="terminal-r3" x="134.2" y="581.2" textLength="183" clip-path="url(#terminal-line-23)">ACCEPTED&#160;ROSTER</text><text class="terminal-r4" x="317.2" y="581.2" textLength="48.8" clip-path="url(#terminal-line-23)">&#160;(2)</text><text class="terminal-r2" x="1110.2" y="581.2" textLength="12.2" clip-path="url(#terminal-line-23)">│</text><text class="terminal-r2" x="1146.8" y="581.2" textLength="12.2" clip-path="url(#terminal-line-23)">│</text><text class="terminal-r1" x="1220" y="581.2" textLength="12.2" clip-path="url(#terminal-line-23)">
</text><text class="terminal-r2" x="61" y="605.6" textLength="12.2" clip-path="url(#terminal-line-24)">│</text><text class="terminal-r2" x="97.6" y="605.6" textLength="12.2" clip-path="url(#terminal-line-24)">│</text><text class="terminal-r5" x="134.2" y="605.6" textLength="170.8" clip-path="url(#terminal-line-24)">Cursor,&#160;Linear</text><text class="terminal-r2" x="1110.2" y="605.6" textLength="12.2" clip-path="url(#terminal-line-24)">│</text><text class="terminal-r2" x="1146.8" y="605.6" textLength="12.2" clip-path="url(#terminal-line-24)">│</text><text class="terminal-r1" x="1220" y="605.6" textLength="12.2" clip-path="url(#terminal-line-24)">
</text><text class="terminal-r2" x="61" y="630" textLength="12.2" clip-path="url(#terminal-line-25)">│</text><text class="terminal-r2" x="97.6" y="630" textLength="12.2" clip-path="url(#terminal-line-25)">│</text><text class="terminal-r2" x="1110.2" y="630" textLength="12.2" clip-path="url(#terminal-line-25)">│</text><text class="terminal-r2" x="1146.8" y="630" textLength="12.2" clip-path="url(#terminal-line-25)">│</text><text class="terminal-r1" x="1220" y="630" textLength="12.2" clip-path="url(#terminal-line-25)">
</text><text class="terminal-r2" x="61" y="654.4" textLength="12.2" clip-path="url(#terminal-line-26)">│</text><text class="terminal-r2" x="97.6" y="654.4" textLength="1024.8" clip-path="url(#terminal-line-26)">└──────────────────────────────────────────────────────────────────────────────────┘</text><text class="terminal-r2" x="1146.8" y="654.4" textLength="12.2" clip-path="url(#terminal-line-26)">│</text><text class="terminal-r1" x="1220" y="654.4" textLength="12.2" clip-path="url(#terminal-line-26)">
</text><text class="terminal-r2" x="61" y="678.8" textLength="12.2" clip-path="url(#terminal-line-27)">│</text><text class="terminal-r2" x="1146.8" y="678.8" textLength="12.2" clip-path="url(#terminal-line-27)">│</text><text class="terminal-r1" x="1220" y="678.8" textLength="12.2" clip-path="url(#terminal-line-27)">
</text><text class="terminal-r2" x="61" y="703.2" textLength="12.2" clip-path="url(#terminal-line-28)">│</text><text class="terminal-r2" x="1146.8" y="703.2" textLength="12.2" clip-path="url(#terminal-line-28)">│</text><text class="terminal-r1" x="1220" y="703.2" textLength="12.2" clip-path="url(#terminal-line-28)">
</text><text class="terminal-r2" x="61" y="727.6" textLength="12.2" clip-path="url(#terminal-line-29)">│</text><text class="terminal-r2" x="1146.8" y="727.6" textLength="12.2" clip-path="url(#terminal-line-29)">│</text><text class="terminal-r1" x="1220" y="727.6" textLength="12.2" clip-path="url(#terminal-line-29)">
</text><text class="terminal-r2" x="61" y="752" textLength="12.2" clip-path="url(#terminal-line-30)">│</text><text class="terminal-r7" x="97.6" y="752" textLength="195.2" clip-path="url(#terminal-line-30)">▔▔▔▔▔▔▔▔▔▔▔▔▔▔▔▔</text><text class="terminal-r8" x="305" y="752" textLength="195.2" clip-path="url(#terminal-line-30)">▔▔▔▔▔▔▔▔▔▔▔▔▔▔▔▔</text><text class="terminal-r8" x="512.4" y="752" textLength="195.2" clip-path="url(#terminal-line-30)">▔▔▔▔▔▔▔▔▔▔▔▔▔▔▔▔</text><text class="terminal-r8" x="719.8" y="752" textLength="195.2" clip-path="url(#terminal-line-30)">▔▔▔▔▔▔▔▔▔▔▔▔▔▔▔▔</text><text class="terminal-r8" x="927.2" y="752" textLength="195.2" clip-path="url(#terminal-line-30)">▔▔▔▔▔▔▔▔▔▔▔▔▔▔▔▔</text><text class="terminal-r2" x="1146.8" y="752" textLength="12.2" clip-path="url(#terminal-line-30)">│</text><text class="terminal-r1" x="1220" y="752" textLength="12.2" clip-path="url(#terminal-line-30)">
</text><text class="terminal-r2" x="61" y="776.4" textLength="12.2" clip-path="url(#terminal-line-31)">│</text><text class="terminal-r9" x="158.6" y="776.4" textLength="73.2" clip-path="url(#terminal-line-31)">&#160;Done&#160;</text><text class="terminal-r10" x="317.2" y="776.4" textLength="158.6" clip-path="url(#terminal-line-31)">&#160;Search&#160;More&#160;</text><text class="terminal-r10" x="524.6" y="776.4" textLength="170.8" clip-path="url(#terminal-line-31)">&#160;Add&#160;Manually&#160;</text><text class="terminal-r10" x="744.2" y="776.4" textLength="146.4" clip-path="url(#terminal-line-31)">&#160;Accept&#160;All&#160;</text><text class="terminal-r10" x="951.6" y="776.4" textLength="146.4" clip-path="url(#terminal-line-31)">&#160;Reject&#160;All&#160;</text><text class="terminal-r2" x="1146.8" y="776.4" textLength="12.2" clip-path="url(#terminal-line-31)">│</text><text class="terminal-r1" x="1220" y="776.4" textLength="12.2" clip-path="url(#terminal-line-31)">
</text><text class="terminal-r2" x="61" y="800.8" textLength="12.2" clip-path="url(#terminal-line-32)">│</text><text class="terminal-r11" x="97.6" y="800.8" textLength="195.2" clip-path="url(#terminal-line-32)">▁▁▁▁▁▁▁▁▁▁▁▁▁▁▁▁</text><text class="terminal-r12" x="305" y="800.8" textLength="195.2" clip-path="url(#terminal-line-32)">▁▁▁▁▁▁▁▁▁▁▁▁▁▁▁▁</text><text class="terminal-r12" x="512.4" y="800.8" textLength="195.2" clip-path="url(#terminal-line-32)">▁▁▁▁▁▁▁▁▁▁▁▁▁▁▁▁</text><text class="terminal-r12" x="719.8" y="800.8" textLength="195.2" clip-path="url(#terminal-line-32)">▁▁▁▁▁▁▁▁▁▁▁▁▁▁▁▁</text><text class="terminal-r12" x="927.2" y="800.8" textLength="195.2" clip-path="url(#terminal-line-32)">▁▁▁▁▁▁▁▁▁▁▁▁▁▁▁▁</text><text class="terminal-r2" x="1146.8" y="800.8" textLength="12.2" clip-path="url(#terminal-line-32)">│</text><text class="terminal-r1" x="1220" y="800.8" textLength="12.2" clip-path="url(#terminal-line-32)">
</text><text class="terminal-r2" x="61" y="825.2" textLength="12.2" clip-path="url(#terminal-line-33)">│</text><text class="terminal-r2" x="1146.8" y="825.2" textLength="12.2" clip-path="url(#terminal-line-33)">│</text><text class="terminal-r1" x="1220" y="825.2" textLength="12.2" clip-path="url(#terminal-line-33)">
</text><text class="terminal-r2" x="61" y="849.6" textLength="12.2" clip-path="url(#terminal-line-34)">│</text><text class="terminal-r2" x="1146.8" y="849.6" textLength="12.2" clip-path="url(#terminal-line-34)">│</text><text class="terminal-r1" x="1220" y="849.6" textLength="12.2" clip-path="url(#terminal-line-34)">
</text><text class="terminal-r2" x="61" y="874" textLength="1098" clip-path="url(#terminal-line-35)">└────────────────────────────────────────────────────────────────────────────────────────┘</text><text class="terminal-r1" x="1220" y="874" textLength="12.2" clip-path="url(#terminal-line-35)">
</text><text class="terminal-r1" x="1220" y="898.4" textLength="12.2" clip-path="url(#terminal-line-36)">
</text><text class="terminal-r1" x="1220" y="922.8" textLength="12.2" clip-path="url(#terminal-line-37)">
</text><text class="terminal-r1" x="1220" y="947.2" textLength="12.2" clip-path="url(#terminal-line-38)">
</text>
    </g>
    </g>
</svg>
