<svg class="rich-terminal" viewBox="0 0 1238 1026.0" xmlns="http://www.w3.org/2000/svg">
    <!-- Generated with Rich https://www.textualize.io -->
    <style>

    @font-face {
        font-family: "Fira Code";
        src: local("FiraCode-Regular"),
                url("https://cdnjs.cloudflare.com/ajax/libs/firacode/6.2.0/woff2/FiraCode-Regular.woff2") format("woff2"),
                url("https://cdnjs.cloudflare.com/ajax/libs/firacode/6.2.0/woff/FiraCode-Regular.woff") format("woff");
        font-style: normal;
        font-weight: 400;
    }
    @font-face {
        font-family: "Fira Code";
        src: local("FiraCode-Bold"),
                url("https://cdnjs.cloudflare.com/ajax/libs/firacode/6.2.0/woff2/FiraCode-Bold.woff2") format("woff2"),
                url("https://cdnjs.cloudflare.com/ajax/libs/firacode/6.2.0/woff/FiraCode-Bold.woff") format("woff");
        font-style: bold;
        font-weight: 700;
    }

    .terminal-matrix {
        font-family: Fira Code, monospace;
        font-size: 20px;
        line-height: 24.4px;
        font-variant-east-asian: full-width;
    }

    .terminal-title {
        font-size: 18px;
        font-weight: bold;
        font-family: arial;
    }

    .terminal-r1 { fill: #c5c8c6 }
.terminal-r2 { fill: #e0a044;font-weight: bold }
.terminal-r3 { fill: #efe5c0 }
.terminal-r4 { fill: #a89984 }
.terminal-r5 { fill: #3a3a3a }
.terminal-r6 { fill: #e0a044 }
    </style>

    <defs>
    <clipPath id="terminal-clip-terminal">
      <rect x="0" y="0" width="1219.0" height="975.0" />
    </clipPath>
    <clipPath id="terminal-line-0">
    <rect x="0" y="1.5" width="1220" height="24.65"/>
            </clipPath>
<clipPath id="terminal-line-1">
    <rect x="0" y="25.9" width="1220" height="24.65"/>
            </clipPath>
<clipPath id="terminal-line-2">
    <rect x="0" y="50.3" width="1220" height="24.65"/>
            </clipPath>
<clipPath id="terminal-line-3">
    <rect x="0" y="74.7" width="1220" height="24.65"/>
            </clipPath>
<clipPath id="terminal-line-4">
    <rect x="0" y="99.1" width="1220" height="24.65"/>
            </clipPath>
<clipPath id="terminal-line-5">
    <rect x="0" y="123.5" width="1220" height="24.65"/>
            </clipPath>
<clipPath id="terminal-line-6">
    <rect x="0" y="147.9" width="1220" height="24.65"/>
            </clipPath>
<clipPath id="terminal-line-7">
    <rect x="0" y="172.3" width="1220" height="24.65"/>
            </clipPath>
<clipPath id="terminal-line-8">
    <rect x="0" y="196.7" width="1220" height="24.65"/>
            </clipPath>
<clipPath id="terminal-line-9">
    <rect x="0" y="221.1" width="1220" height="24.65"/>
            </clipPath>
<clipPath id="terminal-line-10">
    <rect x="0" y="245.5" width="1220" height="24.65"/>
            </clipPath>
<clipPath id="terminal-line-11">
    <rect x="0" y="269.9" width="1220" height="24.65"/>
            </clipPath>
<clipPath id="terminal-line-12">
    <rect x="0" y="294.3" width="1220" height="24.65"/>
            </clipPath>
<clipPath id="terminal-line-13">
    <rect x="0" y="318.7" width="1220" height="24.65"/>
            </clipPath>
<clipPath id="terminal-line-14">
    <rect x="0" y="343.1" width="1220" height="24.65"/>
            </clipPath>
<clipPath id="terminal-line-15">
    <rect x="0" y="367.5" width="1220" height="24.65"/>
            </clipPath>
<clipPath id="terminal-line-16">
    <rect x="0" y="391.9" width="1220" height="24.65"/>
            </clipPath>
<clipPath id="terminal-line-17">
    <rect x="0" y="416.3" width="1220" height="24.65"/>
            </clipPath>
<clipPath id="terminal-line-18">
    <rect x="0" y="440.7" width="1220" height="24.65"/>
            </clipPath>
<clipPath id="terminal-line-19">
    <rect x="0" y="465.1" width="1220" height="24.65"/>
            </clipPath>
<clipPath id="terminal-line-20">
    <rect x="0" y="489.5" width="1220" height="24.65"/>
            </clipPath>
<clipPath id="terminal-line-21">
    <rect x="0" y="513.9" width="1220" height="24.65"/>
            </clipPath>
<clipPath id="terminal-line-22">
    <rect x="0" y="538.3" width="1220" height="24.65"/>
            </clipPath>
<clipPath id="terminal-line-23">
    <rect x="0" y="562.7" width="1220" height="24.65"/>
            </clipPath>
<clipPath id="terminal-line-24">
    <rect x="0" y="587.1" width="1220" height="24.65"/>
            </clipPath>
<clipPath id="terminal-line-25">
    <rect x="0" y="611.5" width="1220" height="24.65"/>
            </clipPath>
<clipPath id="terminal-line-26">
    <rect x="0" y="635.9" width="1220" height="24.65"/>
            </clipPath>
<clipPath id="terminal-line-27">
    <rect x="0" y="660.3" width="1220" height="24.65"/>
            </clipPath>
<clipPath id="terminal-line-28">
    <rect x="0" y="684.7" width="1220" height="24.65"/>
            </clipPath>
<clipPath id="terminal-line-29">
    <rect x="0" y="709.1" width="1220" height="24.65"/>
            </clipPath>
<clipPath id="terminal-line-30">
    <rect x="0" y="733.5" width="1220" height="24.65"/>
            </clipPath>
<clipPath id="terminal-line-31">
    <rect x="0" y="757.9" width="1220" height="24.65"/>
            </clipPath>
<clipPath id="terminal-line-32">
    <rect x="0" y="782.3" width="1220" height="24.65"/>
            </clipPath>
<clipPath id="terminal-line-33">
    <rect x="0" y="806.7" width="1220" height="24.65"/>
            </clipPath>
<clipPath id="terminal-line-34">
    <rect x="0" y="831.1" width="1220" height="24.65"/>
            </clipPath>
<clipPath id="terminal-line-35">
    <rect x="0" y="855.5" width="1220" height="24.65"/>
            </clipPath>
<clipPath id="terminal-line-36">
    <rect x="0" y="879.9" width="1220" height="24.65"/>
            </clipPath>
<clipPath id="terminal-line-37">
    <rect x="0" y="904.3" width="1220" height="24.65"/>
            </clipPath>
<clipPath id="terminal-line-38">
    <rect x="0" y="928.7" width="1220" height="24.65"/>
            </clipPath>
    </defs>

    <rect fill="#292929" stroke="rgba(255,255,255,0.35)" stroke-width="1" x="1" y="1" width="1236" height="1024" rx="8"/><text class="terminal-title" fill="#c5c8c6" text-anchor="middle" x="618" y="27">_DashboardEmptyApp</text>
            <g transform="translate(26,22)">
            <circle cx="0" cy="0" r="7" fill="#ff5f57"/>
            <circle cx="22" cy="0" r="7" fill="#febc2e"/>
            <circle cx="44" cy="0" r="7" fill="#28c840"/>
            </g>
        
    <g transform="translate(9, 41)" clip-path="url(#terminal-clip-terminal)">
    <rect fill="#1d1d1d" x="0" y="1.5" width="12.2" height="24.65" shape-rendering="crispEdges"/><rect fill="#1d1d1d" x="12.2" y="1.5" width="61" height="24.65" shape-rendering="crispEdges"/><rect fill="#1d1d1d" x="73.2" y="1.5" width="24.4" height="24.65" shape-rendering="crispEdges"/><rect fill="#1d1d1d" x="97.6" y="1.5" width="231.8" height="24.65" shape-rendering="crispEdges"/><rect fill="#1d1d1d" x="329.4" y="1.5" width="890.6" height="24.65" shape-rendering="crispEdges"/><rect fill="#000000" x="0" y="25.9" width="1220" height="24.65" shape-rendering="crispEdges"/><rect fill="#000000" x="0" y="50.3" width="1220" height="24.65" shape-rendering="crispEdges"/><rect fill="#000000" x="0" y="74.7" width="24.4" height="24.65" shape-rendering="crispEdges"/><rect fill="#000000" x="24.4" y="74.7" width="1171.2" height="24.65" shape-rendering="crispEdges"/><rect fill="#000000" x="1195.6" y="74.7" width="24.4" height="24.65" shape-rendering="crispEdges"/><rect fill="#000000" x="0" y="99.1" width="24.4" height="24.65" shape-rendering="crispEdges"/><rect fill="#000000" x="24.4" y="99.1" width="12.2" height="24.65" shape-rendering="crispEdges"/><rect fill="#000000" x="36.6" y="99.1" width="1146.8" height="24.65" shape-rendering="crispEdges"/><rect fill="#000000" x="1183.4" y="99.1" width="12.2" height="24.65" shape-rendering="crispEdges"/><rect fill="#000000" x="1195.6" y="99.1" width="24.4" height="24.65" shape-rendering="crispEdges"/><rect fill="#000000" x="0" y="123.5" width="24.4" height="24.65" shape-rendering="crispEdges"/><rect fill="#000000" x="24.4" y="123.5" width="12.2" height="24.65" shape-rendering="crispEdges"/><rect fill="#000000" x="36.6" y="123.5" width="24.4" height="24.65" shape-rendering="crispEdges"/><rect fill="#000000" x="61" y="123.5" width="231.8" height="24.65" shape-rendering="crispEdges"/><rect fill="#000000" x="292.8" y="123.5" width="890.6" height="24.65" shape-rendering="crispEdges"/><rect fill="#000000" x="1183.4" y="123.5" width="12.2" height="24.65" shape-rendering="crispEdges"/><rect fill="#000000" x="1195.6" y="123.5" width="24.4" height="24.65" shape-rendering="crispEdges"/><rect fill="#000000" x="0" y="147.9" width="24.4" height="24.65" shape-rendering="crispEdges"/><rect fill="#000000" x="24.4" y="147.9" width="12.2" height="24.65" shape-rendering="crispEdges"/><rect fill="#000000" x="36.6" y="147.9" width="24.4" height="24.65" shape-rendering="crispEdges"/><rect fill="#000000" x="61" y="147.9" width="0" height="24.65" shape-rendering="crispEdges"/><rect fill="#000000" x="61" y="147.9" width="1122.4" height="24.65" shape-rendering="crispEdges"/><rect fill="#000000" x="1183.4" y="147.9" width="12.2" height="24.65" shape-rendering="crispEdges"/><rect fill="#000000" x="1195.6" y="147.9" width="24.4" height="24.65" shape-rendering="crispEdges"/><rect fill="#000000" x="0" y="172.3" width="24.4" height="24.65" shape-rendering="crispEdges"/><rect fill="#000000" x="24.4" y="172.3" width="12.2" height="24.65" shape-rendering="crispEdges"/><rect fill="#000000" x="36.6" y="172.3" width="24.4" height="24.65" shape-rendering="crispEdges"/><rect fill="#000000" x="61" y="172.3" width="73.2" height="24.65" shape-rendering="crispEdges"/><rect fill="#000000" x="134.2" y="172.3" width="12.2" height="24.65" shape-rendering="crispEdges"/><rect fill="#000000" x="146.4" y="172.3" width="488" height="24.65" shape-rendering="crispEdges"/><rect fill="#000000" x="634.4" y="172.3" width="549" height="24.65" shape-rendering="crispEdges"/><rect fill="#000000" x="1183.4" y="172.3" width="12.2" height="24.65" shape-rendering="crispEdges"/><rect fill="#000000" x="1195.6" y="172.3" width="24.4" height="24.65" shape-rendering="crispEdges"/><rect fill="#000000" x="0" y="196.7" width="24.4" height="24.65" shape-rendering="crispEdges"/><rect fill="#000000" x="24.4" y="196.7" width="12.2" height="24.65" shape-rendering="crispEdges"/><rect fill="#000000" x="36.6" y="196.7" width="24.4" height="24.65" shape-rendering="crispEdges"/><rect fill="#000000" x="61" y="196.7" width="109.8" height="24.65" shape-rendering="crispEdges"/><rect fill="#000000" x="170.8" y="196.7" width="12.2" height="24.65" shape-rendering="crispEdges"/><rect fill="#000000" x="183" y="196.7" width="366" height="24.65" shape-rendering="crispEdges"/><rect fill="#000000" x="549" y="196.7" width="634.4" height="24.65" shape-rendering="crispEdges"/><rect fill="#000000" x="1183.4" y="196.7" width="12.2" height="24.65" shape-rendering="crispEdges"/><rect fill="#000000" x="1195.6" y="196.7" width="24.4" height="24.65" shape-rendering="crispEdges"/><rect fill="#000000" x="0" y="221.1" width="24.4" height="24.65" shape-rendering="crispEdges"/><rect fill="#000000" x="24.4" y="221.1" width="12.2" height="24.65" shape-rendering="crispEdges"/><rect fill="#000000" x="36.6" y="221.1" width="1146.8" height="24.65" shape-rendering="crispEdges"/><rect fill="#000000" x="1183.4" y="221.1" width="12.2" height="24.65" shape-rendering="crispEdges"/><rect fill="#000000" x="1195.6" y="221.1" width="24.4" height="24.65" shape-rendering="crispEdges"/><rect fill="#000000" x="0" y="245.5" width="24.4" height="24.65" shape-rendering="crispEdges"/><rect fill="#000000" x="24.4" y="245.5" width="1171.2" height="24.65" shape-rendering="crispEdges"/><rect fill="#000000" x="1195.6" y="245.5" width="24.4" height="24.65" shape-rendering="crispEdges"/><rect fill="#000000" x="0" y="269.9" width="1220" height="24.65" shape-rendering="crispEdges"/><rect fill="#000000" x="0" y="294.3" width="1220" height="24.65" shape-rendering="crispEdges"/><rect fill="#000000" x="0" y="318.7" width="1220" height="24.65" shape-rendering="crispEdges"/><rect fill="#000000" x="0" y="343.1" width="1220" height="24.65" shape-rendering="crispEdges"/><rect fill="#000000" x="0" y="367.5" width="1220" height="24.65" shape-rendering="crispEdges"/><rect fill="#000000" x="0" y="391.9" width="1220" height="24.65" shape-rendering="crispEdges"/><rect fill="#000000" x="0" y="416.3" width="1220" height="24.65" shape-rendering="crispEdges"/><rect fill="#000000" x="0" y="440.7" width="1220" height="24.65" shape-rendering="crispEdges"/><rect fill="#000000" x="0" y="465.1" width="1220" height="24.65" shape-rendering="crispEdges"/><rect fill="#000000" x="0" y="489.5" width="1220" height="24.65" shape-rendering="crispEdges"/><rect fill="#000000" x="0" y="513.9" width="1220" height="24.65" shape-rendering="crispEdges"/><rect fill="#000000" x="0" y="538.3" width="1220" height="24.65" shape-rendering="crispEdges"/><rect fill="#0d0d0d" x="0" y="562.7" width="1220" height="24.65" shape-rendering="crispEdges"/><rect fill="#0d0d0d" x="0" y="587.1" width="12.2" height="24.65" shape-rendering="crispEdges"/><rect fill="#0d0d0d" x="12.2" y="587.1" width="207.4" height="24.65" shape-rendering="crispEdges"/><rect fill="#0d0d0d" x="219.6" y="587.1" width="1000.4" height="24.65" shape-rendering="crispEdges"/><rect fill="#0d0d0d" x="0" y="611.5" width="12.2" height="24.65" shape-rendering="crispEdges"/><rect fill="#0d0d0d" x="12.2" y="611.5" width="1195.6" height="24.65" shape-rendering="crispEdges"/><rect fill="#0d0d0d" x="1207.8" y="611.5" width="12.2" height="24.65" shape-rendering="crispEdges"/><rect fill="#0d0d0d" x="0" y="635.9" width="12.2" height="24.65" shape-rendering="crispEdges"/><rect fill="#0d0d0d" x="12.2" y="635.9" width="1195.6" height="24.65" shape-rendering="crispEdges"/><rect fill="#0d0d0d" x="1207.8" y="635.9" width="12.2" height="24.65" shape-rendering="crispEdges"/><rect fill="#0d0d0d" x="0" y="660.3" width="12.2" height="24.65" shape-rendering="crispEdges"/><rect fill="#0d0d0d" x="12.2" y="660.3" width="1195.6" height="24.65" shape-rendering="crispEdges"/><rect fill="#0d0d0d" x="1207.8" y="660.3" width="12.2" height="24.65" shape-rendering="crispEdges"/><rect fill="#0d0d0d" x="0" y="684.7" width="12.2" height="24.65" shape-rendering="crispEdges"/><rect fill="#0d0d0d" x="12.2" y="684.7" width="1195.6" height="24.65" shape-rendering="crispEdges"/><rect fill="#0d0d0d" x="1207.8" y="684.7" width="12.2" height="24.65" shape-rendering="crispEdges"/><rect fill="#0d0d0d" x="0" y="709.1" width="12.2" height="24.65" shape-rendering="crispEdges"/><rect fill="#0d0d0d" x="12.2" y="709.1" width="1195.6" height="24.65" shape-rendering="crispEdges"/><rect fill="#0d0d0d" x="1207.8" y="709.1" width="12.2" height="24.65" shape-rendering="crispEdges"/><rect fill="#0d0d0d" x="0" y="733.5" width="12.2" height="24.65" shape-rendering="crispEdges"/><rect fill="#0d0d0d" x="12.2" y="733.5" width="1195.6" height="24.65" shape-rendering="crispEdges"/><rect fill="#0d0d0d" x="1207.8" y="733.5" width="12.2" height="24.65" shape-rendering="crispEdges"/><rect fill="#0d0d0d" x="0" y="757.9" width="1220" height="24.65" shape-rendering="crispEdges"/><rect fill="#0d0d0d" x="0" y="782.3" width="12.2" height="24.65" shape-rendering="crispEdges"/><rect fill="#0d0d0d" x="12.2" y="782.3" width="390.4" height="24.65" shape-rendering="crispEdges"/><rect fill="#0d0d0d" x="402.6" y="782.3" width="817.4" height="24.65" shape-rendering="crispEdges"/><rect fill="#0d0d0d" x="0" y="806.7" width="12.2" height="24.65" shape-rendering="crispEdges"/><rect fill="#0d0d0d" x="12.2" y="806.7" width="1195.6" height="24.65" shape-rendering="crispEdges"/><rect fill="#0d0d0d" x="1207.8" y="806.7" width="12.2" height="24.65" shape-rendering="crispEdges"/><rect fill="#0d0d0d" x="0" y="831.1" width="12.2" height="24.65" shape-rendering="crispEdges"/><rect fill="#0d0d0d" x="12.2" y="831.1" width="1195.6" height="24.65" shape-rendering="crispEdges"/><rect fill="#0d0d0d" x="1207.8" y="831.1" width="12.2" height="24.65" shape-rendering="crispEdges"/><rect fill="#0d0d0d" x="0" y="855.5" width="12.2" height="24.65" shape-rendering="crispEdges"/><rect fill="#0d0d0d" x="12.2" y="855.5" width="1195.6" height="24.65" shape-rendering="crispEdges"/><rect fill="#0d0d0d" x="1207.8" y="855.5" width="12.2" height="24.65" shape-rendering="crispEdges"/><rect fill="#0d0d0d" x="0" y="879.9" width="12.2" height="24.65" shape-rendering="crispEdges"/><rect fill="#0d0d0d" x="12.2" y="879.9" width="1195.6" height="24.65" shape-rendering="crispEdges"/><rect fill="#0d0d0d" x="1207.8" y="879.9" width="12.2" height="24.65" shape-rendering="crispEdges"/><rect fill="#0d0d0d" x="0" y="904.3" width="12.2" height="24.65" shape-rendering="crispEdges"/><rect fill="#0d0d0d" x="12.2" y="904.3" width="1195.6" height="24.65" shape-rendering="crispEdges"/><rect fill="#0d0d0d" x="1207.8" y="904.3" width="12.2" height="24.65" shape-rendering="crispEdges"/><rect fill="#0d0d0d" x="0" y="928.7" width="12.2" height="24.65" shape-rendering="crispEdges"/><rect fill="#0d0d0d" x="12.2" y="928.7" width="1195.6" height="24.65" shape-rendering="crispEdges"/><rect fill="#0d0d0d" x="1207.8" y="928.7" width="12.2" height="24.65" shape-rendering="crispEdges"/><rect fill="#1d1d1d" x="0" y="953.1" width="12.2" height="24.65" shape-rendering="crispEdges"/><rect fill="#1d1d1d" x="12.2" y="953.1" width="12.2" height="24.65" shape-rendering="crispEdges"/><rect fill="#1d1d1d" x="24.4" y="953.1" width="85.4" height="24.65" shape-rendering="crispEdges"/><rect fill="#1d1d1d" x="109.8" y="953.1" width="12.2" height="24.65" shape-rendering="crispEdges"/><rect fill="#1d1d1d" x="122" y="953.1" width="146.4" height="24.65" shape-rendering="crispEdges"/><rect fill="#1d1d1d" x="268.4" y="953.1" width="12.2" height="24.65" shape-rendering="crispEdges"/><rect fill="#1d1d1d" x="280.6" y="953.1" width="122" height="24.65" shape-rendering="crispEdges"/><rect fill="#1d1d1d" x="402.6" y="953.1" width="12.2" height="24.65" shape-rendering="crispEdges"/><rect fill="#1d1d1d" x="414.8" y="953.1" width="195.2" height="24.65" shape-rendering="crispEdges"/><rect fill="#1d1d1d" x="610" y="953.1" width="12.2" height="24.65" shape-rendering="crispEdges"/><rect fill="#1d1d1d" x="622.2" y="953.1" width="97.6" height="24.65" shape-rendering="crispEdges"/><rect fill="#1d1d1d" x="719.8" y="953.1" width="12.2" height="24.65" shape-rendering="crispEdges"/><rect fill="#1d1d1d" x="732" y="953.1" width="61" height="24.65" shape-rendering="crispEdges"/><rect fill="#1d1d1d" x="793" y="953.1" width="427" height="24.65" shape-rendering="crispEdges"/>
    <g class="terminal-matrix">
    <text class="terminal-r2" x="12.2" y="20" textLength="61" clip-path="url(#terminal-line-0)">recon</text><text class="terminal-r4" x="97.6" y="20" textLength="231.8" clip-path="url(#terminal-line-0)">no&#160;workspace&#160;loaded</text><text class="terminal-r1" x="1220" y="20" textLength="12.2" clip-path="url(#terminal-line-0)">
</text><text class="terminal-r1" x="1220" y="44.4" textLength="12.2" clip-path="url(#terminal-line-1)">
</text><text class="terminal-r1" x="1220" y="68.8" textLength="12.2" clip-path="url(#terminal-line-2)">
</text><text class="terminal-r5" x="24.4" y="93.2" textLength="1171.2" clip-path="url(#terminal-line-3)">┌──────────────────────────────────────────────────────────────────────────────────────────────┐</text><text class="terminal-r1" x="1220" y="93.2" textLength="12.2" clip-path="url(#terminal-line-3)">
</text><text class="terminal-r5" x="24.4" y="117.6" textLength="12.2" clip-path="url(#terminal-line-4)">│</text><text class="terminal-r5" x="1183.4" y="117.6" textLength="12.2" clip-path="url(#terminal-line-4)">│</text><text class="terminal-r1" x="1220" y="117.6" textLength="12.2" clip-path="url(#terminal-line-4)">
</text><text class="terminal-r5" x="24.4" y="142" textLength="12.2" clip-path="url(#terminal-line-5)">│</text><text class="terminal-r3" x="61" y="142" textLength="231.8" clip-path="url(#terminal-line-5)">No&#160;competitors&#160;yet.</text><text class="terminal-r5" x="1183.4" y="142" textLength="12.2" clip-path="url(#terminal-line-5)">│</text><text class="terminal-r1" x="1220" y="142" textLength="12.2" clip-path="url(#terminal-line-5)">
</text><text class="terminal-r5" x="24.4" y="166.4" textLength="12.2" clip-path="url(#terminal-line-6)">│</text><text class="terminal-r5" x="1183.4" y="166.4" textLength="12.2" clip-path="url(#terminal-line-6)">│</text><text class="terminal-r1" x="1220" y="166.4" textLength="12.2" clip-path="url(#terminal-line-6)">
</text><text class="terminal-r5" x="24.4" y="190.8" textLength="12.2" clip-path="url(#terminal-line-7)">│</text><text class="terminal-r4" x="61" y="190.8" textLength="73.2" clip-path="url(#terminal-line-7)">Press&#160;</text><text class="terminal-r6" x="134.2" y="190.8" textLength="12.2" clip-path="url(#terminal-line-7)">d</text><text class="terminal-r4" x="146.4" y="190.8" textLength="488" clip-path="url(#terminal-line-7)">&#160;to&#160;discover&#160;competitors&#160;via&#160;web&#160;search,</text><text class="terminal-r5" x="1183.4" y="190.8" textLength="12.2" clip-path="url(#terminal-line-7)">│</text><text class="terminal-r1" x="1220" y="190.8" textLength="12.2" clip-path="url(#terminal-line-7)">
</text><text class="terminal-r5" x="24.4" y="215.2" textLength="12.2" clip-path="url(#terminal-line-8)">│</text><text class="terminal-r4" x="61" y="215.2" textLength="109.8" clip-path="url(#terminal-line-8)">or&#160;press&#160;</text><text class="terminal-r6" x="170.8" y="215.2" textLength="12.2" clip-path="url(#terminal-line-8)">m</text><text class="terminal-r4" x="183" y="215.2" textLength="366" clip-path="url(#terminal-line-8)">&#160;to&#160;add&#160;them&#160;manually&#160;by&#160;name.</text><text class="terminal-r5" x="1183.4" y="215.2" textLength="12.2" clip-path="url(#terminal-line-8)">│</text><text class="terminal-r1" x="1220" y="215.2" textLength="12.2" clip-path="url(#terminal-line-8)">
</text><text class="terminal-r5" x="24.4" y="239.6" textLength="12.2" clip-path="url(#terminal-line-9)">│</text><text class="terminal-r5" x="1183.4" y="239.6" textLength="12.2" clip-path="url(#terminal-line-9)">│</text><text class="terminal-r1" x="1220" y="239.6" textLength="12.2" clip-path="url(#terminal-line-9)">
</text><text class="terminal-r5" x="24.4" y="264" textLength="1171.2" clip-path="url(#terminal-line-10)">└──────────────────────────────────────────────────────────────────────────────────────────────┘</text><text class="terminal-r1" x="1220" y="264" textLength="12.2" clip-path="url(#terminal-line-10)">
</text><text class="terminal-r1" x="1220" y="288.4" textLength="12.2" clip-path="url(#terminal-line-11)">
</text><text class="terminal-r1" x="1220" y="312.8" textLength="12.2" clip-path="url(#terminal-line-12)">
</text><text class="terminal-r1" x="1220" y="337.2" textLength="12.2" clip-path="url(#terminal-line-13)">
</text><text class="terminal-r1" x="1220" y="361.6" textLength="12.2" clip-path="url(#terminal-line-14)">
</text><text class="terminal-r1" x="1220" y="386" textLength="12.2" clip-path="url(#terminal-line-15)">
</text><text class="terminal-r1" x="1220" y="410.4" textLength="12.2" clip-path="url(#terminal-line-16)">
</text><text class="terminal-r1" x="1220" y="434.8" textLength="12.2" clip-path="url(#terminal-line-17)">
</text><text class="terminal-r1" x="1220" y="459.2" textLength="12.2" clip-path="url(#terminal-line-18)">
</text><text class="terminal-r1" x="1220" y="483.6" textLength="12.2" clip-path="url(#terminal-line-19)">
</text><text class="terminal-r1" x="1220" y="508" textLength="12.2" clip-path="url(#terminal-line-20)">
</text><text class="terminal-r1" x="1220" y="532.4" textLength="12.2" clip-path="url(#terminal-line-21)">
</text><text class="terminal-r1" x="1220" y="556.8" textLength="12.2" clip-path="url(#terminal-line-22)">
</text><text class="terminal-r5" x="0" y="581.2" textLength="1220" clip-path="url(#terminal-line-23)">────────────────────────────────────────────────────────────────────────────────────────────────────</text><text class="terminal-r1" x="1220" y="581.2" textLength="12.2" clip-path="url(#terminal-line-23)">
</text><text class="terminal-r5" x="12.2" y="605.6" textLength="207.4" clip-path="url(#terminal-line-24)">│&#160;no&#160;activity&#160;yet</text><text class="terminal-r1" x="1220" y="605.6" textLength="12.2" clip-path="url(#terminal-line-24)">
</text><text class="terminal-r1" x="1220" y="630" textLength="12.2" clip-path="url(#terminal-line-25)">
</text><text class="terminal-r1" x="1220" y="654.4" textLength="12.2" clip-path="url(#terminal-line-26)">
</text><text class="terminal-r1" x="1220" y="678.8" textLength="12.2" clip-path="url(#terminal-line-27)">
</text><text class="terminal-r1" x="1220" y="703.2" textLength="12.2" clip-path="url(#terminal-line-28)">
</text><text class="terminal-r1" x="1220" y="727.6" textLength="12.2" clip-path="url(#terminal-line-29)">
</text><text class="terminal-r1" x="1220" y="752" textLength="12.2" clip-path="url(#terminal-line-30)">
</text><text class="terminal-r5" x="0" y="776.4" textLength="1220" clip-path="url(#terminal-line-31)">────────────────────────────────────────────────────────────────────────────────────────────────────</text><text class="terminal-r1" x="1220" y="776.4" textLength="12.2" clip-path="url(#terminal-line-31)">
</text><text class="terminal-r5" x="12.2" y="800.8" textLength="390.4" clip-path="url(#terminal-line-32)">│&#160;waiting&#160;for&#160;engine&#160;activity...</text><text class="terminal-r1" x="1220" y="800.8" textLength="12.2" clip-path="url(#terminal-line-32)">
</text><text class="terminal-r1" x="1220" y="825.2" textLength="12.2" clip-path="url(#terminal-line-33)">
</text><text class="terminal-r1" x="1220" y="849.6" textLength="12.2" clip-path="url(#terminal-line-34)">
</text><text class="terminal-r1" x="1220" y="874" textLength="12.2" clip-path="url(#terminal-line-35)">
</text><text class="terminal-r1" x="1220" y="898.4" textLength="12.2" clip-path="url(#terminal-line-36)">
</text><text class="terminal-r1" x="1220" y="922.8" textLength="12.2" clip-path="url(#terminal-line-37)">
</text><text class="terminal-r1" x="1220" y="947.2" textLength="12.2" clip-path="url(#terminal-line-38)">
</text><text class="terminal-r6" x="12.2" y="971.6" textLength="12.2" clip-path="url(#terminal-line-39)">r</text><text class="terminal-r4" x="24.4" y="971.6" textLength="85.4" clip-path="url(#terminal-line-39)">&#160;run&#160;·&#160;</text><text class="terminal-r6" x="109.8" y="971.6" textLength="12.2" clip-path="url(#terminal-line-39)">d</text><text class="terminal-r4" x="122" y="971.6" textLength="146.4" clip-path="url(#terminal-line-39)">&#160;discover&#160;·&#160;</text><text class="terminal-r6" x="268.4" y="971.6" textLength="12.2" clip-path="url(#terminal-line-39)">b</text><text class="terminal-r4" x="280.6" y="971.6" textLength="122" clip-path="url(#terminal-line-39)">&#160;browse&#160;·&#160;</text><text class="terminal-r6" x="402.6" y="971.6" textLength="12.2" clip-path="url(#terminal-line-39)">m</text><text class="terminal-r4" x="414.8" y="971.6" textLength="195.2" clip-path="url(#terminal-line-39)">&#160;add&#160;manually&#160;·&#160;</text><text class="terminal-r6" x="610" y="971.6" textLength="12.2" clip-path="url(#terminal-line-39)">q</text><text class="terminal-r4" x="622.2" y="971.6" textLength="97.6" clip-path="url(#terminal-line-39)">&#160;quit&#160;·&#160;</text><text class="terminal-r6" x="719.8" y="971.6" textLength="12.2" clip-path="url(#terminal-line-39)">?</text><text class="terminal-r4" x="732" y="971.6" textLength="61" clip-path="url(#terminal-line-39)">&#160;help</text>
    </g>
    </g>
</svg>
