<svg width="764" height="34" viewBox="0 0 764 34" fill="none" xmlns="http://www.w3.org/2000/svg">
<mask id="path-1-inside-1_32_1297" fill="white">
<path d="M0 0H764V34H0V0Z"/>
</mask>
<path d="M0 0H764V34H0V0Z" fill="black"/>
<path d="M0 0V1H764V0V-1H0V0Z" fill="#3A3A3A" mask="url(#path-1-inside-1_32_1297)"/>
<path d="M18.1855 11.7422H21.2734V12.5449H19.1523V21H21.2852V21.8027H18.1855V11.7422ZM23.834 21L26.5176 16.752L23.8516 12.5449H25.0234L27.1445 15.9434H27.1914L29.3301 12.5449H30.4199L27.7012 16.7812L30.3789 21H29.2305L27.0977 17.6426H27.0566L24.9062 21H23.834ZM36.1211 11.7422V21.8027H33.0215V21H35.1484V12.5449H33.0332V11.7422H36.1211ZM49.5742 20.1973C50.6992 20.1973 51.4141 19.5234 51.4434 18.4336H52.4863C52.4863 20.0684 51.3027 21.1758 49.5742 21.1758C47.5879 21.1758 46.4336 19.834 46.4336 17.5254V16.0195C46.4336 13.7109 47.5879 12.3691 49.5742 12.3691C51.3555 12.3691 52.457 13.4531 52.4922 15.2578H51.4434C51.4082 14.1152 50.6523 13.3477 49.5684 13.3477C48.2031 13.3477 47.4883 14.2676 47.4883 16.0195V17.5254C47.4883 19.2773 48.2031 20.1973 49.5742 20.1973ZM59.6641 20.0391V21H54.6309V12.5449H55.6562V20.0391H59.6641ZM67.3164 17.4551C67.3164 19.793 66.1387 21.1758 64.2168 21.1758C62.2949 21.1758 61.1172 19.793 61.1172 17.4551V16.0898C61.1172 13.752 62.2949 12.3691 64.2168 12.3691C66.1387 12.3691 67.3164 13.752 67.3164 16.0898V17.4551ZM64.2168 20.1973C65.5 20.1973 66.2734 19.2129 66.2734 17.4492V16.0957C66.2734 14.332 65.5 13.3477 64.2168 13.3477C62.9336 13.3477 62.1602 14.332 62.1602 16.0957V17.4492C62.1602 19.2129 62.9336 20.1973 64.2168 20.1973ZM68.7402 18.75H69.748C69.8535 19.6758 70.5977 20.2383 71.7227 20.2383C72.8477 20.2383 73.5859 19.6523 73.5859 18.7441C73.5859 18.0117 73.0938 17.5723 71.9512 17.291L71.2246 17.1094C69.6543 16.7109 68.9453 15.9668 68.9453 14.7422C68.9453 13.3008 70.0293 12.3691 71.7168 12.3691C73.3105 12.3691 74.4062 13.2891 74.4766 14.6953H73.4688C73.3633 13.8223 72.7188 13.3066 71.7227 13.3066C70.6387 13.3066 69.9883 13.8223 69.9883 14.6836C69.9883 15.416 70.457 15.8379 71.5586 16.1133L72.2969 16.3008C73.9375 16.7051 74.6289 17.4199 74.6289 18.6914C74.6289 20.209 73.4863 21.1758 71.7168 21.1758C69.9707 21.1758 68.8281 20.25 68.7402 18.75ZM81.6836 20.0508V21H76.6914V12.5449H81.6836V13.4941H77.7285V16.2363H81.4668V17.1445H77.7285V20.0508H81.6836Z" fill="#A59A86"/>
<path d="M97.1855 11.7422H100.273V12.5449H98.1523V21H100.285V21.8027H97.1855V11.7422ZM103.232 18.75H104.24C104.346 19.6758 105.09 20.2383 106.215 20.2383C107.34 20.2383 108.078 19.6523 108.078 18.7441C108.078 18.0117 107.586 17.5723 106.443 17.291L105.717 17.1094C104.146 16.7109 103.438 15.9668 103.438 14.7422C103.438 13.3008 104.521 12.3691 106.209 12.3691C107.803 12.3691 108.898 13.2891 108.969 14.6953H107.961C107.855 13.8223 107.211 13.3066 106.215 13.3066C105.131 13.3066 104.48 13.8223 104.48 14.6836C104.48 15.416 104.949 15.8379 106.051 16.1133L106.789 16.3008C108.43 16.7051 109.121 17.4199 109.121 18.6914C109.121 20.209 107.979 21.1758 106.209 21.1758C104.463 21.1758 103.32 20.25 103.232 18.75ZM115.121 11.7422V21.8027H112.021V21H114.148V12.5449H112.033V11.7422H115.121ZM125.486 18.75H126.494C126.6 19.6758 127.344 20.2383 128.469 20.2383C129.594 20.2383 130.332 19.6523 130.332 18.7441C130.332 18.0117 129.84 17.5723 128.697 17.291L127.971 17.1094C126.4 16.7109 125.691 15.9668 125.691 14.7422C125.691 13.3008 126.775 12.3691 128.463 12.3691C130.057 12.3691 131.152 13.2891 131.223 14.6953H130.215C130.109 13.8223 129.465 13.3066 128.469 13.3066C127.385 13.3066 126.734 13.8223 126.734 14.6836C126.734 15.416 127.203 15.8379 128.305 16.1133L129.043 16.3008C130.684 16.7051 131.375 17.4199 131.375 18.6914C131.375 20.209 130.232 21.1758 128.463 21.1758C126.717 21.1758 125.574 20.25 125.486 18.75ZM137.984 21L137.252 18.5742H134.311L133.572 21H132.523L135.248 12.5449H136.35L139.074 21H137.984ZM135.77 13.7871L134.58 17.6895H136.982L135.799 13.7871H135.77ZM143.246 19.7578L145.449 12.5449H146.492L143.768 21H142.666L139.941 12.5449H141.025L143.217 19.7578H143.246ZM153.266 20.0508V21H148.273V12.5449H153.266V13.4941H149.311V16.2363H153.049V17.1445H149.311V20.0508H153.266Z" fill="#A59A86"/>
<g clip-path="url(#clip0_32_1297)">
<path fill-rule="evenodd" clip-rule="evenodd" d="M556 12.5C553.515 12.5 551.5 14.5147 551.5 17C551.5 19.4853 553.515 21.5 556 21.5C558.485 21.5 560.5 19.4853 560.5 17C560.5 14.5147 558.485 12.5 556 12.5ZM550.5 17C550.5 13.9624 552.962 11.5 556 11.5C559.038 11.5 561.5 13.9624 561.5 17C561.5 20.0376 559.038 22.5 556 22.5C552.962 22.5 550.5 20.0376 550.5 17Z" fill="#A59A86"/>
<path fill-rule="evenodd" clip-rule="evenodd" d="M556 11.5C556.137 11.5 556.268 11.5561 556.362 11.6552C557.734 13.0962 558.5 15.01 558.5 17C558.5 18.99 557.734 20.9038 556.362 22.3448C556.268 22.4439 556.137 22.5 556 22.5C555.863 22.5 555.732 22.4439 555.638 22.3448C554.266 20.9038 553.5 18.99 553.5 17C553.5 15.01 554.266 13.0962 555.638 11.6552C555.732 11.5561 555.863 11.5 556 11.5ZM556 12.7573C555.033 13.954 554.5 15.4504 554.5 17C554.5 18.5496 555.033 20.046 556 21.2427C556.967 20.046 557.5 18.5496 557.5 17C557.5 15.4504 556.967 13.954 556 12.7573Z" fill="#A59A86"/>
<path fill-rule="evenodd" clip-rule="evenodd" d="M550.5 17C550.5 16.7239 550.724 16.5 551 16.5H561C561.276 16.5 561.5 16.7239 561.5 17C561.5 17.2761 561.276 17.5 561 17.5H551C550.724 17.5 550.5 17.2761 550.5 17Z" fill="#A59A86"/>
</g>
<path d="M569.582 17.7539V21H568.662V12.5449H569.816L571.674 17.7949H571.75L573.596 12.5449H574.756V21H573.836V17.7539L573.889 14.332H573.812L572.113 19.0137H571.305L569.605 14.332H569.529L569.582 17.7539ZM581.758 20.0508V21H576.766V12.5449H581.758V13.4941H577.803V16.2363H581.541V17.1445H577.803V20.0508H581.758ZM584.664 21H583.732V12.5449H584.723L588.344 19.125H588.426V12.5449H589.357V21H588.379L584.746 14.4023H584.664V21ZM593.963 20.1973C595.193 20.1973 595.908 19.3887 595.908 18V12.5449H596.939V18.0645C596.939 20.0098 595.826 21.1758 593.963 21.1758C592.1 21.1758 590.986 20.0098 590.986 18.0645V12.5449H592.018V18C592.018 19.3887 592.732 20.1973 593.963 20.1973ZM609.314 21H608.283V13.4941H605.729V12.5449H611.869V13.4941H609.314V21ZM619.029 21H618.004V17.1562H614.43V21H613.404V12.5449H614.43V16.207H618.004V12.5449H619.029V21ZM625.861 21H621.408V20.0801H623.119V13.4648H621.408V12.5449H625.861V13.4648H624.15V20.0801H625.861V21ZM629.172 21H628.24V12.5449H629.23L632.852 19.125H632.934V12.5449H633.865V21H632.887L629.254 14.4023H629.172V21ZM640.48 18.4102V17.584H638.529V16.6992H641.523V18.498C641.523 20.0859 640.328 21.1758 638.623 21.1758C636.637 21.1758 635.488 19.8398 635.488 17.5254V16.0195C635.488 13.7051 636.637 12.3691 638.623 12.3691C640.381 12.3691 641.482 13.4414 641.523 15.1934H640.48C640.434 14.0918 639.684 13.3477 638.605 13.3477C637.24 13.3477 636.531 14.2676 636.531 16.0195V17.5254C636.531 19.2773 637.246 20.1973 638.611 20.1973C639.766 20.1973 640.48 19.5176 640.48 18.4102Z" fill="#A59A86"/>
<g clip-path="url(#clip1_32_1297)">
<path fill-rule="evenodd" clip-rule="evenodd" d="M661 12.5C658.515 12.5 656.5 14.5147 656.5 17C656.5 19.4853 658.515 21.5 661 21.5C663.485 21.5 665.5 19.4853 665.5 17C665.5 14.5147 663.485 12.5 661 12.5ZM655.5 17C655.5 13.9624 657.962 11.5 661 11.5C664.038 11.5 666.5 13.9624 666.5 17C666.5 20.0376 664.038 22.5 661 22.5C657.962 22.5 655.5 20.0376 655.5 17Z" fill="#A59A86"/>
<path fill-rule="evenodd" clip-rule="evenodd" d="M661 11.5C661.137 11.5 661.268 11.5561 661.362 11.6552C662.734 13.0962 663.5 15.01 663.5 17C663.5 18.99 662.734 20.9038 661.362 22.3448C661.268 22.4439 661.137 22.5 661 22.5C660.863 22.5 660.732 22.4439 660.638 22.3448C659.266 20.9038 658.5 18.99 658.5 17C658.5 15.01 659.266 13.0962 660.638 11.6552C660.732 11.5561 660.863 11.5 661 11.5ZM661 12.7573C660.033 13.954 659.5 15.4504 659.5 17C659.5 18.5496 660.033 20.046 661 21.2427C661.967 20.046 662.5 18.5496 662.5 17C662.5 15.4504 661.967 13.954 661 12.7573Z" fill="#A59A86"/>
<path fill-rule="evenodd" clip-rule="evenodd" d="M655.5 17C655.5 16.7239 655.724 16.5 656 16.5H666C666.276 16.5 666.5 16.7239 666.5 17C666.5 17.2761 666.276 17.5 666 17.5H656C655.724 17.5 655.5 17.2761 655.5 17Z" fill="#A59A86"/>
</g>
<path d="M674.582 17.7539V21H673.662V12.5449H674.816L676.674 17.7949H676.75L678.596 12.5449H679.756V21H678.836V17.7539L678.889 14.332H678.812L677.113 19.0137H676.305L674.605 14.332H674.529L674.582 17.7539ZM686.758 20.0508V21H681.766V12.5449H686.758V13.4941H682.803V16.2363H686.541V17.1445H682.803V20.0508H686.758ZM689.664 21H688.732V12.5449H689.723L693.344 19.125H693.426V12.5449H694.357V21H693.379L689.746 14.4023H689.664V21ZM698.963 20.1973C700.193 20.1973 700.908 19.3887 700.908 18V12.5449H701.939V18.0645C701.939 20.0098 700.826 21.1758 698.963 21.1758C697.1 21.1758 695.986 20.0098 695.986 18.0645V12.5449H697.018V18C697.018 19.3887 697.732 20.1973 698.963 20.1973ZM714.314 21H713.283V13.4941H710.729V12.5449H716.869V13.4941H714.314V21ZM724.029 21H723.004V17.1562H719.43V21H718.404V12.5449H719.43V16.207H723.004V12.5449H724.029V21ZM730.861 21H726.408V20.0801H728.119V13.4648H726.408V12.5449H730.861V13.4648H729.15V20.0801H730.861V21ZM734.172 21H733.24V12.5449H734.23L737.852 19.125H737.934V12.5449H738.865V21H737.887L734.254 14.4023H734.172V21ZM745.48 18.4102V17.584H743.529V16.6992H746.523V18.498C746.523 20.0859 745.328 21.1758 743.623 21.1758C741.637 21.1758 740.488 19.8398 740.488 17.5254V16.0195C740.488 13.7051 741.637 12.3691 743.623 12.3691C745.381 12.3691 746.482 13.4414 746.523 15.1934H745.48C745.434 14.0918 744.684 13.3477 743.605 13.3477C742.24 13.3477 741.531 14.2676 741.531 16.0195V17.5254C741.531 19.2773 742.246 20.1973 743.611 20.1973C744.766 20.1973 745.48 19.5176 745.48 18.4102Z" fill="#A59A86"/>
<defs>
<clipPath id="clip0_32_1297">
<rect width="12" height="12" fill="white" transform="translate(550 11)"/>
</clipPath>
<clipPath id="clip1_32_1297">
<rect width="12" height="12" fill="white" transform="translate(655 11)"/>
</clipPath>
</defs>
</svg>
