<svg width="94" height="26" viewBox="0 0 94 26" fill="none" xmlns="http://www.w3.org/2000/svg">
<rect x="0.5" y="0.5" width="25" height="25" rx="3.5" stroke="#353535"/>
<path d="M7.5 11.7503C7.50001 11.0928 7.69967 10.4504 8.07227 9.90855C8.44485 9.36682 8.97298 8.951 9.58691 8.71568C10.2009 8.48035 10.872 8.43669 11.5112 8.59068C12.0718 8.72574 12.5849 9.0071 12.999 9.40416C13.4124 9.00439 13.9262 8.72103 14.4878 8.58433C15.1282 8.42847 15.801 8.47099 16.4165 8.70689C17.032 8.9428 17.5609 9.36067 17.9331 9.90464C18.3049 10.4481 18.5027 11.0919 18.5 11.7503C18.4998 12.0511 18.456 12.3504 18.3696 12.6385C18.2903 12.903 18.0115 13.0532 17.7471 12.974C17.4826 12.8947 17.3323 12.6159 17.4116 12.3514C17.4701 12.1563 17.4999 11.9536 17.5 11.7499V11.7479C17.5022 11.2919 17.3654 10.846 17.1079 10.4696C16.8504 10.0932 16.4844 9.8042 16.0586 9.64097C15.6328 9.47777 15.1672 9.44769 14.7241 9.55552C14.281 9.66338 13.8813 9.90386 13.5781 10.2445C13.5754 10.2476 13.5726 10.2508 13.5698 10.2538C13.4969 10.3318 13.4085 10.3939 13.3105 10.4364C13.2126 10.4789 13.1068 10.5008 13 10.5008C12.8932 10.5008 12.7874 10.4789 12.6895 10.4364C12.5915 10.3939 12.5031 10.3318 12.4302 10.2538C12.428 10.2514 12.426 10.2488 12.4238 10.2464C12.1196 9.90783 11.7194 9.66946 11.2769 9.56285C10.8343 9.45625 10.3699 9.48637 9.94482 9.64927C9.51974 9.8122 9.15394 10.1003 8.896 10.4754C8.63811 10.8505 8.50001 11.2952 8.5 11.7503C8.5001 12.6723 9.09623 13.389 9.85352 14.1463L12.6016 16.807L12.627 16.8329C12.6742 16.8857 12.7321 16.9281 12.7969 16.9569C12.8617 16.9857 12.932 17.0003 13.0029 16.9999C13.0739 16.9994 13.144 16.984 13.2085 16.9544C13.2729 16.9249 13.3304 16.8819 13.377 16.8285L13.4062 16.7972L13.8921 16.3275C14.0906 16.1357 14.4072 16.1413 14.5991 16.3397C14.7909 16.5382 14.7854 16.8548 14.5869 17.0467L14.1089 17.5086C13.9731 17.6579 13.8091 17.7789 13.6255 17.8631C13.4321 17.9519 13.2221 17.9985 13.0093 17.9999C12.7965 18.0012 12.5856 17.9573 12.3911 17.871C12.2033 17.7876 12.035 17.6662 11.896 17.515L9.15234 14.8592C9.15044 14.8574 9.14836 14.8557 9.14648 14.8539C8.40393 14.1113 7.5001 13.1281 7.5 11.7503Z" fill="#A59A86"/>
<path d="M17.5 14.0001C17.7761 14.0001 18 14.224 18 14.5001C18 14.7763 17.7761 15.0001 17.5 15.0001H14.5C14.2239 15.0001 14 14.7763 14 14.5001C14 14.224 14.2239 14.0001 14.5 14.0001H17.5Z" fill="#A59A86"/>
<path d="M15.5 16.0001V13.0001C15.5 12.724 15.7239 12.5001 16 12.5001C16.2761 12.5001 16.5 12.724 16.5 13.0001V16.0001C16.5 16.2763 16.2761 16.5001 16 16.5001C15.7239 16.5001 15.5 16.2763 15.5 16.0001Z" fill="#A59A86"/>
<rect x="34.5" y="0.5" width="25" height="25" rx="3.5" stroke="#353535"/>
<path d="M41.5 11.7503C41.5 11.0928 41.6997 10.4504 42.0723 9.90855C42.4448 9.36682 42.973 8.951 43.5869 8.71568C44.2009 8.48035 44.872 8.43669 45.5112 8.59068C46.0718 8.72574 46.5849 9.0071 46.999 9.40416C47.4124 9.00439 47.9262 8.72103 48.4878 8.58433C49.1282 8.42847 49.801 8.47099 50.4165 8.70689C51.032 8.9428 51.5609 9.36067 51.9331 9.90464C52.3049 10.4481 52.5027 11.0919 52.5 11.7503C52.4998 12.0511 52.456 12.3504 52.3696 12.6385C52.2903 12.903 52.0115 13.0532 51.7471 12.974C51.4826 12.8947 51.3323 12.6159 51.4116 12.3514C51.4701 12.1563 51.4999 11.9536 51.5 11.7499V11.7479C51.5022 11.2919 51.3654 10.846 51.1079 10.4696C50.8504 10.0932 50.4844 9.8042 50.0586 9.64097C49.6328 9.47777 49.1672 9.44769 48.7241 9.55552C48.281 9.66338 47.8813 9.90386 47.5781 10.2445C47.5754 10.2476 47.5726 10.2508 47.5698 10.2538C47.4969 10.3318 47.4085 10.3939 47.3105 10.4364C47.2126 10.4789 47.1068 10.5008 47 10.5008C46.8932 10.5008 46.7874 10.4789 46.6895 10.4364C46.5915 10.3939 46.5031 10.3318 46.4302 10.2538C46.428 10.2514 46.426 10.2488 46.4238 10.2464C46.1196 9.90783 45.7194 9.66946 45.2769 9.56285C44.8343 9.45625 44.3699 9.48637 43.9448 9.64927C43.5197 9.8122 43.1539 10.1003 42.896 10.4754C42.6381 10.8505 42.5 11.2952 42.5 11.7503C42.5001 12.6723 43.0962 13.389 43.8535 14.1463L46.6016 16.807L46.627 16.8329C46.6742 16.8857 46.7321 16.9281 46.7969 16.9569C46.8617 16.9857 46.932 17.0003 47.0029 16.9999C47.0739 16.9994 47.144 16.984 47.2085 16.9544C47.2729 16.9249 47.3304 16.8819 47.377 16.8285L47.4062 16.7972L47.8921 16.3275C48.0906 16.1357 48.4072 16.1413 48.5991 16.3397C48.7909 16.5382 48.7854 16.8548 48.5869 17.0467L48.1089 17.5086C47.9731 17.6579 47.8091 17.7789 47.6255 17.8631C47.4321 17.9519 47.2221 17.9985 47.0093 17.9999C46.7965 18.0012 46.5856 17.9573 46.3911 17.871C46.2033 17.7876 46.035 17.6662 45.896 17.515L43.1523 14.8592C43.1504 14.8574 43.1484 14.8557 43.1465 14.8539C42.4039 14.1113 41.5001 13.1281 41.5 11.7503Z" fill="#A59A86"/>
<path d="M51.5 14.0001C51.7761 14.0001 52 14.224 52 14.5001C52 14.7763 51.7761 15.0001 51.5 15.0001H48.5C48.2239 15.0001 48 14.7763 48 14.5001C48 14.224 48.2239 14.0001 48.5 14.0001H51.5Z" fill="#A59A86"/>
<path d="M49.5 16.0001V13.0001C49.5 12.724 49.7239 12.5001 50 12.5001C50.2761 12.5001 50.5 12.724 50.5 13.0001V16.0001C50.5 16.2763 50.2761 16.5001 50 16.5001C49.7239 16.5001 49.5 16.2763 49.5 16.0001Z" fill="#A59A86"/>
<rect x="68" width="26" height="26" rx="4" fill="#EDE5C4"/>
<path d="M75.5 11.7503C75.5 11.0928 75.6997 10.4504 76.0723 9.90855C76.4448 9.36682 76.973 8.951 77.5869 8.71568C78.2009 8.48035 78.872 8.43669 79.5112 8.59068C80.0718 8.72574 80.5849 9.0071 80.999 9.40416C81.4124 9.00439 81.9262 8.72103 82.4878 8.58433C83.1282 8.42847 83.801 8.47099 84.4165 8.70689C85.032 8.9428 85.5609 9.36067 85.9331 9.90464C86.3049 10.4481 86.5027 11.0919 86.5 11.7503C86.4998 12.0511 86.456 12.3504 86.3696 12.6385C86.2903 12.903 86.0115 13.0532 85.7471 12.974C85.4826 12.8947 85.3323 12.6159 85.4116 12.3514C85.4701 12.1563 85.4999 11.9536 85.5 11.7499V11.7479C85.5022 11.2919 85.3654 10.846 85.1079 10.4696C84.8504 10.0932 84.4844 9.8042 84.0586 9.64097C83.6328 9.47777 83.1672 9.44769 82.7241 9.55552C82.281 9.66338 81.8813 9.90386 81.5781 10.2445C81.5754 10.2476 81.5726 10.2508 81.5698 10.2538C81.4969 10.3318 81.4085 10.3939 81.3105 10.4364C81.2126 10.4789 81.1068 10.5008 81 10.5008C80.8932 10.5008 80.7874 10.4789 80.6895 10.4364C80.5915 10.3939 80.5031 10.3318 80.4302 10.2538C80.428 10.2514 80.426 10.2488 80.4238 10.2464C80.1196 9.90783 79.7194 9.66946 79.2769 9.56285C78.8343 9.45625 78.3699 9.48637 77.9448 9.64927C77.5197 9.8122 77.1539 10.1003 76.896 10.4754C76.6381 10.8505 76.5 11.2952 76.5 11.7503C76.5001 12.6723 77.0962 13.389 77.8535 14.1463L80.6016 16.807L80.627 16.8329C80.6742 16.8857 80.7321 16.9281 80.7969 16.9569C80.8617 16.9857 80.932 17.0003 81.0029 16.9999C81.0739 16.9994 81.144 16.984 81.2085 16.9544C81.2729 16.9249 81.3304 16.8819 81.377 16.8285L81.4062 16.7972L81.8921 16.3275C82.0906 16.1357 82.4072 16.1413 82.5991 16.3397C82.7909 16.5382 82.7854 16.8548 82.5869 17.0467L82.1089 17.5086C81.9731 17.6579 81.8091 17.7789 81.6255 17.8631C81.4321 17.9519 81.2221 17.9985 81.0093 17.9999C80.7965 18.0012 80.5856 17.9573 80.3911 17.871C80.2033 17.7876 80.035 17.6662 79.896 17.515L77.1523 14.8592C77.1504 14.8574 77.1484 14.8557 77.1465 14.8539C76.4039 14.1113 75.5001 13.1281 75.5 11.7503Z" fill="black"/>
<path d="M85.5 14.0001C85.7761 14.0001 86 14.224 86 14.5001C86 14.7763 85.7761 15.0001 85.5 15.0001H82.5C82.2239 15.0001 82 14.7763 82 14.5001C82 14.224 82.2239 14.0001 82.5 14.0001H85.5Z" fill="black"/>
<path d="M83.5 16.0001V13.0001C83.5 12.724 83.7239 12.5001 84 12.5001C84.2761 12.5001 84.5 12.724 84.5 13.0001V16.0001C84.5 16.2763 84.2761 16.5001 84 16.5001C83.7239 16.5001 83.5 16.2763 83.5 16.0001Z" fill="black"/>
</svg>
