<svg width="138" height="26" viewBox="0 0 138 26" fill="none" xmlns="http://www.w3.org/2000/svg">
<rect width="65" height="26" rx="4" fill="#EDE5C4"/>
<path d="M16.5742 16.0391V17H11.541V8.54492H12.5664V16.0391H16.5742ZM24.2266 13.4551C24.2266 15.793 23.0488 17.1758 21.127 17.1758C19.2051 17.1758 18.0273 15.793 18.0273 13.4551V12.0898C18.0273 9.75195 19.2051 8.36914 21.127 8.36914C23.0488 8.36914 24.2266 9.75195 24.2266 12.0898V13.4551ZM21.127 16.1973C22.4102 16.1973 23.1836 15.2129 23.1836 13.4492V12.0957C23.1836 10.332 22.4102 9.34766 21.127 9.34766C19.8438 9.34766 19.0703 10.332 19.0703 12.0957V13.4492C19.0703 15.2129 19.8438 16.1973 21.127 16.1973ZM30.5547 14.4102V13.584H28.6035V12.6992H31.5977V14.498C31.5977 16.0859 30.4023 17.1758 28.6973 17.1758C26.7109 17.1758 25.5625 15.8398 25.5625 13.5254V12.0195C25.5625 9.70508 26.7109 8.36914 28.6973 8.36914C30.4551 8.36914 31.5566 9.44141 31.5977 11.1934H30.5547C30.5078 10.0918 29.7578 9.34766 28.6797 9.34766C27.3145 9.34766 26.6055 10.2676 26.6055 12.0195V13.5254C26.6055 15.2773 27.3203 16.1973 28.6855 16.1973C29.8398 16.1973 30.5547 15.5176 30.5547 14.4102ZM45.6074 17H41.1543V16.0801H42.8652V9.46484H41.1543V8.54492H45.6074V9.46484H43.8965V16.0801H45.6074V17ZM48.918 17H47.9863V8.54492H48.9766L52.5977 15.125H52.6797V8.54492H53.6113V17H52.6328L49 10.4023H48.918V17Z" fill="black"/>
<rect x="73.5" y="0.5" width="64" height="25" rx="3.5" stroke="#353535"/>
<path d="M89.5742 16.0391V17H84.541V8.54492H85.5664V16.0391H89.5742ZM97.2266 13.4551C97.2266 15.793 96.0488 17.1758 94.127 17.1758C92.2051 17.1758 91.0273 15.793 91.0273 13.4551V12.0898C91.0273 9.75195 92.2051 8.36914 94.127 8.36914C96.0488 8.36914 97.2266 9.75195 97.2266 12.0898V13.4551ZM94.127 16.1973C95.4102 16.1973 96.1836 15.2129 96.1836 13.4492V12.0957C96.1836 10.332 95.4102 9.34766 94.127 9.34766C92.8438 9.34766 92.0703 10.332 92.0703 12.0957V13.4492C92.0703 15.2129 92.8438 16.1973 94.127 16.1973ZM103.555 14.4102V13.584H101.604V12.6992H104.598V14.498C104.598 16.0859 103.402 17.1758 101.697 17.1758C99.7109 17.1758 98.5625 15.8398 98.5625 13.5254V12.0195C98.5625 9.70508 99.7109 8.36914 101.697 8.36914C103.455 8.36914 104.557 9.44141 104.598 11.1934H103.555C103.508 10.0918 102.758 9.34766 101.68 9.34766C100.314 9.34766 99.6055 10.2676 99.6055 12.0195V13.5254C99.6055 15.2773 100.32 16.1973 101.686 16.1973C102.84 16.1973 103.555 15.5176 103.555 14.4102ZM118.607 17H114.154V16.0801H115.865V9.46484H114.154V8.54492H118.607V9.46484H116.896V16.0801H118.607V17ZM121.918 17H120.986V8.54492H121.977L125.598 15.125H125.68V8.54492H126.611V17H125.633L122 10.4023H121.918V17Z" fill="#EDE5C4"/>
</svg>
