<svg width="624" height="80" viewBox="0 0 624 80" fill="none" xmlns="http://www.w3.org/2000/svg">
<rect x="0.5" y="0.5" width="623" height="79" rx="3.5" fill="black"/>
<rect x="0.5" y="0.5" width="623" height="79" rx="3.5" stroke="#3A3A3A"/>
<path d="M253.172 26H252.141V18.4941H249.586V17.5449H255.727V18.4941H253.172V26ZM257.467 26V17.1465H258.428V20.7676H258.51C258.844 19.9766 259.576 19.5312 260.549 19.5312C261.932 19.5312 262.682 20.3633 262.682 21.8809V26H261.686V22.1328C261.686 20.9902 261.217 20.4453 260.221 20.4453C259.172 20.4453 258.463 21.1777 258.463 22.2617V26H257.467ZM267.604 18.084C267.135 18.084 266.777 17.7324 266.777 17.2637C266.777 16.8008 267.135 16.4492 267.604 16.4492C268.072 16.4492 268.43 16.8008 268.43 17.2637C268.43 17.7324 268.072 18.084 267.604 18.084ZM270.27 26H265.002V25.1738H267.182V20.4688H265.02V19.6426H268.166V25.1738H270.27V26ZM272.596 21.3594C272.596 20.2578 273.533 19.5195 274.934 19.5195C276.258 19.5195 277.154 20.1816 277.271 21.2422H276.311C276.193 20.6855 275.66 20.3457 274.916 20.3457C274.107 20.3457 273.586 20.7207 273.586 21.3008C273.586 21.7871 273.914 22.0625 274.711 22.2383L275.607 22.4434C276.844 22.7246 277.406 23.2637 277.406 24.1836C277.406 25.3555 276.428 26.1172 274.922 26.1172C273.48 26.1172 272.525 25.4434 272.414 24.3535H273.428C273.574 24.9395 274.137 25.2793 274.957 25.2793C275.824 25.2793 276.375 24.8867 276.375 24.2773C276.375 23.7734 276.064 23.5039 275.256 23.3223L274.312 23.1055C273.164 22.8418 272.596 22.2617 272.596 21.3594ZM289.857 18.084C289.389 18.084 289.031 17.7324 289.031 17.2637C289.031 16.8008 289.389 16.4492 289.857 16.4492C290.326 16.4492 290.684 16.8008 290.684 17.2637C290.684 17.7324 290.326 18.084 289.857 18.084ZM292.523 26H287.256V25.1738H289.436V20.4688H287.273V19.6426H290.42V25.1738H292.523V26ZM294.85 21.3594C294.85 20.2578 295.787 19.5195 297.188 19.5195C298.512 19.5195 299.408 20.1816 299.525 21.2422H298.564C298.447 20.6855 297.914 20.3457 297.17 20.3457C296.361 20.3457 295.84 20.7207 295.84 21.3008C295.84 21.7871 296.168 22.0625 296.965 22.2383L297.861 22.4434C299.098 22.7246 299.66 23.2637 299.66 24.1836C299.66 25.3555 298.682 26.1172 297.176 26.1172C295.734 26.1172 294.779 25.4434 294.668 24.3535H295.682C295.828 24.9395 296.391 25.2793 297.211 25.2793C298.078 25.2793 298.629 24.8867 298.629 24.2773C298.629 23.7734 298.318 23.5039 297.51 23.3223L296.566 23.1055C295.418 22.8418 294.85 22.2617 294.85 21.3594ZM311.355 26.1113C310.143 26.1113 309.334 25.3496 309.334 24.1953C309.334 23.0703 310.143 22.4023 311.59 22.3262L313.336 22.2383V21.6641C313.336 20.8672 312.85 20.4277 311.965 20.4277C311.232 20.4277 310.717 20.7383 310.553 21.2832H309.574C309.691 20.2637 310.676 19.5664 311.977 19.5664C313.471 19.5664 314.326 20.3281 314.326 21.6523V26.0059H313.377V25.0508H313.277C312.973 25.7305 312.281 26.1113 311.355 26.1113ZM311.643 25.2383C312.604 25.2383 313.336 24.5996 313.336 23.75V23L311.701 23.0762C310.811 23.1172 310.342 23.498 310.342 24.1602C310.342 24.8281 310.84 25.2383 311.643 25.2383ZM329.9 21.3184V26H329.004V21.6113C329.004 20.8379 328.723 20.4336 328.189 20.4336C327.633 20.4336 327.293 20.9199 327.293 21.7109V26H326.402V21.6055C326.402 20.8379 326.121 20.4336 325.582 20.4336C325.02 20.4336 324.668 20.9199 324.668 21.7109V26H323.771V19.6426H324.662V20.5391H324.768C324.926 19.9004 325.383 19.5254 325.98 19.5254C326.578 19.5254 327 19.8945 327.135 20.5215H327.24C327.404 19.9121 327.914 19.5254 328.553 19.5254C329.438 19.5254 329.9 20.1406 329.9 21.3184ZM335.971 24.3594H336.938C336.744 25.4082 335.736 26.1172 334.4 26.1172C332.654 26.1172 331.641 25.0684 331.641 23.2578V22.3027C331.641 20.627 332.713 19.5254 334.33 19.5254C335.982 19.5254 336.955 20.6211 336.955 22.4609V23.082H332.625V23.3398C332.625 24.5059 333.316 25.2559 334.4 25.2559C335.203 25.2559 335.795 24.916 335.971 24.3594ZM334.324 20.3809C333.264 20.3809 332.625 21.1074 332.625 22.3262H335.971C335.971 21.1133 335.35 20.3809 334.324 20.3809ZM339.357 21.3594C339.357 20.2578 340.295 19.5195 341.695 19.5195C343.02 19.5195 343.916 20.1816 344.033 21.2422H343.072C342.955 20.6855 342.422 20.3457 341.678 20.3457C340.869 20.3457 340.348 20.7207 340.348 21.3008C340.348 21.7871 340.676 22.0625 341.473 22.2383L342.369 22.4434C343.605 22.7246 344.168 23.2637 344.168 24.1836C344.168 25.3555 343.189 26.1172 341.684 26.1172C340.242 26.1172 339.287 25.4434 339.176 24.3535H340.189C340.336 24.9395 340.898 25.2793 341.719 25.2793C342.586 25.2793 343.137 24.8867 343.137 24.2773C343.137 23.7734 342.826 23.5039 342.018 23.3223L341.074 23.1055C339.926 22.8418 339.357 22.2617 339.357 21.3594ZM346.775 21.3594C346.775 20.2578 347.713 19.5195 349.113 19.5195C350.438 19.5195 351.334 20.1816 351.451 21.2422H350.49C350.373 20.6855 349.84 20.3457 349.096 20.3457C348.287 20.3457 347.766 20.7207 347.766 21.3008C347.766 21.7871 348.094 22.0625 348.891 22.2383L349.787 22.4434C351.023 22.7246 351.586 23.2637 351.586 24.1836C351.586 25.3555 350.607 26.1172 349.102 26.1172C347.66 26.1172 346.705 25.4434 346.594 24.3535H347.607C347.754 24.9395 348.316 25.2793 349.137 25.2793C350.004 25.2793 350.555 24.8867 350.555 24.2773C350.555 23.7734 350.244 23.5039 349.436 23.3223L348.492 23.1055C347.344 22.8418 346.775 22.2617 346.775 21.3594ZM355.863 26.1113C354.65 26.1113 353.842 25.3496 353.842 24.1953C353.842 23.0703 354.65 22.4023 356.098 22.3262L357.844 22.2383V21.6641C357.844 20.8672 357.357 20.4277 356.473 20.4277C355.74 20.4277 355.225 20.7383 355.061 21.2832H354.082C354.199 20.2637 355.184 19.5664 356.484 19.5664C357.979 19.5664 358.834 20.3281 358.834 21.6523V26.0059H357.885V25.0508H357.785C357.48 25.7305 356.789 26.1113 355.863 26.1113ZM356.15 25.2383C357.111 25.2383 357.844 24.5996 357.844 23.75V23L356.209 23.0762C355.318 23.1172 354.85 23.498 354.85 24.1602C354.85 24.8281 355.348 25.2383 356.15 25.2383ZM363.738 28.3848C362.268 28.3848 361.283 27.7402 361.154 26.6855H362.139C362.268 27.2129 362.906 27.5586 363.756 27.5586C364.869 27.5586 365.484 26.9961 365.484 25.9766V24.9863H365.379C365.098 25.6543 364.395 26.0586 363.469 26.0586C361.998 26.0586 361.031 24.998 361.031 23.3691V22.2266C361.031 20.5918 362.004 19.5371 363.492 19.5371C364.412 19.5371 365.109 19.9414 365.385 20.627H365.496V19.6426H366.48V26C366.48 27.4941 365.461 28.3848 363.738 28.3848ZM362.033 23.2285C362.033 24.3945 362.713 25.1562 363.768 25.1562C364.816 25.1562 365.49 24.4004 365.49 23.2285V22.3555C365.49 21.1836 364.816 20.4336 363.768 20.4336C362.713 20.4336 362.033 21.1895 362.033 22.3555V23.2285ZM373.061 24.3594H374.027C373.834 25.4082 372.826 26.1172 371.49 26.1172C369.744 26.1172 368.73 25.0684 368.73 23.2578V22.3027C368.73 20.627 369.803 19.5254 371.42 19.5254C373.072 19.5254 374.045 20.6211 374.045 22.4609V23.082H369.715V23.3398C369.715 24.5059 370.406 25.2559 371.49 25.2559C372.293 25.2559 372.885 24.916 373.061 24.3594ZM371.414 20.3809C370.354 20.3809 369.715 21.1074 369.715 22.3262H373.061C373.061 21.1133 372.439 20.3809 371.414 20.3809Z" fill="#EDE5C4"/>
<rect x="243.5" y="42.5" width="64" height="25" rx="3.5" stroke="#353535"/>
<path d="M259.574 58.0391V59H254.541V50.5449H255.566V58.0391H259.574ZM267.227 55.4551C267.227 57.793 266.049 59.1758 264.127 59.1758C262.205 59.1758 261.027 57.793 261.027 55.4551V54.0898C261.027 51.752 262.205 50.3691 264.127 50.3691C266.049 50.3691 267.227 51.752 267.227 54.0898V55.4551ZM264.127 58.1973C265.41 58.1973 266.184 57.2129 266.184 55.4492V54.0957C266.184 52.332 265.41 51.3477 264.127 51.3477C262.844 51.3477 262.07 52.332 262.07 54.0957V55.4492C262.07 57.2129 262.844 58.1973 264.127 58.1973ZM273.555 56.4102V55.584H271.604V54.6992H274.598V56.498C274.598 58.0859 273.402 59.1758 271.697 59.1758C269.711 59.1758 268.562 57.8398 268.562 55.5254V54.0195C268.562 51.7051 269.711 50.3691 271.697 50.3691C273.455 50.3691 274.557 51.4414 274.598 53.1934H273.555C273.508 52.0918 272.758 51.3477 271.68 51.3477C270.314 51.3477 269.605 52.2676 269.605 54.0195V55.5254C269.605 57.2773 270.32 58.1973 271.686 58.1973C272.84 58.1973 273.555 57.5176 273.555 56.4102ZM288.607 59H284.154V58.0801H285.865V51.4648H284.154V50.5449H288.607V51.4648H286.896V58.0801H288.607V59ZM291.918 59H290.986V50.5449H291.977L295.598 57.125H295.68V50.5449H296.611V59H295.633L292 52.4023H291.918V59Z" fill="#EDE5C4"/>
<rect x="316" y="42" width="65" height="26" rx="4" fill="#EDE5C4"/>
<path d="M332.574 58.0391V59H327.541V50.5449H328.566V58.0391H332.574ZM340.227 55.4551C340.227 57.793 339.049 59.1758 337.127 59.1758C335.205 59.1758 334.027 57.793 334.027 55.4551V54.0898C334.027 51.752 335.205 50.3691 337.127 50.3691C339.049 50.3691 340.227 51.752 340.227 54.0898V55.4551ZM337.127 58.1973C338.41 58.1973 339.184 57.2129 339.184 55.4492V54.0957C339.184 52.332 338.41 51.3477 337.127 51.3477C335.844 51.3477 335.07 52.332 335.07 54.0957V55.4492C335.07 57.2129 335.844 58.1973 337.127 58.1973ZM346.555 56.4102V55.584H344.604V54.6992H347.598V56.498C347.598 58.0859 346.402 59.1758 344.697 59.1758C342.711 59.1758 341.562 57.8398 341.562 55.5254V54.0195C341.562 51.7051 342.711 50.3691 344.697 50.3691C346.455 50.3691 347.557 51.4414 347.598 53.1934H346.555C346.508 52.0918 345.758 51.3477 344.68 51.3477C343.314 51.3477 342.605 52.2676 342.605 54.0195V55.5254C342.605 57.2773 343.32 58.1973 344.686 58.1973C345.84 58.1973 346.555 57.5176 346.555 56.4102ZM361.607 59H357.154V58.0801H358.865V51.4648H357.154V50.5449H361.607V51.4648H359.896V58.0801H361.607V59ZM364.918 59H363.986V50.5449H364.977L368.598 57.125H368.68V50.5449H369.611V59H368.633L365 52.4023H364.918V59Z" fill="black"/>
</svg>
