<svg width="624" height="222" viewBox="0 0 624 222" fill="none" xmlns="http://www.w3.org/2000/svg">
<rect x="1" y="1" width="622" height="220" rx="3" fill="black"/>
<rect x="1" y="1" width="622" height="220" rx="3" stroke="#EDE5C4" stroke-width="2"/>
<mask id="path-2-inside-1_31_898" fill="white">
<path d="M12 4H612V36H12V4Z"/>
</mask>
<path d="M612 36V35H12V36V37H612V36Z" fill="#3A3A3A" mask="url(#path-2-inside-1_31_898)"/>
<path d="M13.1602 14.5449H15.9727C17.6133 14.5449 18.6855 15.6172 18.6855 17.2578C18.6855 18.8926 17.6016 19.9648 15.9492 19.9648H14.1973V23H13.1602V14.5449ZM14.1973 15.4648V19.0449H15.7148C16.9453 19.0449 17.6367 18.4062 17.6367 17.2578C17.6367 16.1035 16.9453 15.4648 15.7148 15.4648H14.1973ZM23.4492 19.6309H21.5039V23H20.4844V14.5449H23.3203C24.9961 14.5449 26.0449 15.5176 26.0449 17.0879C26.0449 18.1953 25.4297 19.1035 24.4688 19.4199L26.1914 23H25.0254L23.4492 19.6309ZM21.5039 15.4648V18.7578H23.1797C24.3457 18.7578 25.002 18.166 25.002 17.1113C25.002 16.0625 24.3574 15.4648 23.2266 15.4648H21.5039ZM32.7715 23H28.3184V22.0801H30.0293V15.4648H28.3184V14.5449H32.7715V15.4648H31.0605V22.0801H32.7715V23ZM35.8359 19.7539V23H34.916V14.5449H36.0703L37.9277 19.7949H38.0039L39.8496 14.5449H41.0098V23H40.0898V19.7539L40.1426 16.332H40.0664L38.3672 21.0137H37.5586L35.8594 16.332H35.7832L35.8359 19.7539ZM47.5664 23L46.834 20.5742H43.8926L43.1543 23H42.1055L44.8301 14.5449H45.9316L48.6562 23H47.5664ZM45.3516 15.7871L44.1621 19.6895H46.5645L45.3809 15.7871H45.3516ZM53.1211 19.6309H51.1758V23H50.1562V14.5449H52.9922C54.668 14.5449 55.7168 15.5176 55.7168 17.0879C55.7168 18.1953 55.1016 19.1035 54.1406 19.4199L55.8633 23H54.6973L53.1211 19.6309ZM51.1758 15.4648V18.7578H52.8516C54.0176 18.7578 54.6738 18.166 54.6738 17.1113C54.6738 16.0625 54.0293 15.4648 52.8984 15.4648H51.1758ZM60.7324 23H59.7012V19.5137L56.8828 14.5449H58.0371L60.1758 18.4121H60.2578L62.3965 14.5449H63.5508L60.7324 19.5137V23ZM75.5684 23H74.5371V15.4941H71.9824V14.5449H78.123V15.4941H75.5684V23ZM85.1016 22.0508V23H80.1094V14.5449H85.1016V15.4941H81.1465V18.2363H84.8848V19.1445H81.1465V22.0508H85.1016ZM86.5957 23L89.2793 18.752L86.6133 14.5449H87.7852L89.9062 17.9434H89.9531L92.0918 14.5449H93.1816L90.4629 18.7812L93.1406 23H91.9922L89.8594 19.6426H89.8184L87.668 23H86.5957ZM97.8223 23H96.791V15.4941H94.2363V14.5449H100.377V15.4941H97.8223V23Z" fill="#EDE5C4"/>
<path d="M460.814 20.75H461.822C461.928 21.6758 462.672 22.2383 463.797 22.2383C464.922 22.2383 465.66 21.6523 465.66 20.7441C465.66 20.0117 465.168 19.5723 464.025 19.291L463.299 19.1094C461.729 18.7109 461.02 17.9668 461.02 16.7422C461.02 15.3008 462.104 14.3691 463.791 14.3691C465.385 14.3691 466.48 15.2891 466.551 16.6953H465.543C465.438 15.8223 464.793 15.3066 463.797 15.3066C462.713 15.3066 462.062 15.8223 462.062 16.6836C462.062 17.416 462.531 17.8379 463.633 18.1133L464.371 18.3008C466.012 18.7051 466.703 19.4199 466.703 20.6914C466.703 22.209 465.561 23.1758 463.791 23.1758C462.045 23.1758 460.902 22.25 460.814 20.75ZM473.758 22.0508V23H468.766V14.5449H473.758V15.4941H469.803V18.2363H473.541V19.1445H469.803V22.0508H473.758ZM478.738 22.1973C479.863 22.1973 480.578 21.5234 480.607 20.4336H481.65C481.65 22.0684 480.467 23.1758 478.738 23.1758C476.752 23.1758 475.598 21.834 475.598 19.5254V18.0195C475.598 15.7109 476.752 14.3691 478.738 14.3691C480.52 14.3691 481.621 15.4531 481.656 17.2578H480.607C480.572 16.1152 479.816 15.3477 478.732 15.3477C477.367 15.3477 476.652 16.2676 476.652 18.0195V19.5254C476.652 21.2773 477.367 22.1973 478.738 22.1973ZM489.062 19.4551C489.062 21.793 487.885 23.1758 485.963 23.1758C484.041 23.1758 482.863 21.793 482.863 19.4551V18.0898C482.863 15.752 484.041 14.3691 485.963 14.3691C487.885 14.3691 489.062 15.752 489.062 18.0898V19.4551ZM485.963 22.1973C487.246 22.1973 488.02 21.2129 488.02 19.4492V18.0957C488.02 16.332 487.246 15.3477 485.963 15.3477C484.68 15.3477 483.906 16.332 483.906 18.0957V19.4492C483.906 21.2129 484.68 22.1973 485.963 22.1973ZM491.5 23H490.568V14.5449H491.559L495.18 21.125H495.262V14.5449H496.193V23H495.215L491.582 16.4023H491.5V23ZM498.027 14.5449H500.395C502.791 14.5449 503.998 15.957 503.998 18.7578C503.998 21.582 502.791 23 500.395 23H498.027V14.5449ZM499.064 15.4941V22.0508H500.301C502.094 22.0508 502.943 21.002 502.943 18.7637C502.943 16.5488 502.088 15.4941 500.301 15.4941H499.064ZM510.402 23L509.67 20.5742H506.729L505.99 23H504.941L507.666 14.5449H508.768L511.492 23H510.402ZM508.188 15.7871L506.998 19.6895H509.4L508.217 15.7871H508.188ZM515.957 19.6309H514.012V23H512.992V14.5449H515.828C517.504 14.5449 518.553 15.5176 518.553 17.0879C518.553 18.1953 517.938 19.1035 516.977 19.4199L518.699 23H517.533L515.957 19.6309ZM514.012 15.4648V18.7578H515.688C516.854 18.7578 517.51 18.166 517.51 17.1113C517.51 16.0625 516.865 15.4648 515.734 15.4648H514.012ZM523.568 23H522.537V19.5137L519.719 14.5449H520.873L523.012 18.4121H523.094L525.232 14.5449H526.387L523.568 19.5137V23ZM538.404 23H537.373V15.4941H534.818V14.5449H540.959V15.4941H538.404V23ZM547.938 22.0508V23H542.945V14.5449H547.938V15.4941H543.982V18.2363H547.721V19.1445H543.982V22.0508H547.938ZM549.432 23L552.115 18.752L549.449 14.5449H550.621L552.742 17.9434H552.789L554.928 14.5449H556.018L553.299 18.7812L555.977 23H554.828L552.695 19.6426H552.654L550.504 23H549.432ZM560.658 23H559.627V15.4941H557.072V14.5449H563.213V15.4941H560.658V23Z" fill="#A59A86"/>
<g clip-path="url(#clip0_31_898)">
<path fill-rule="evenodd" clip-rule="evenodd" d="M582 14.5C579.515 14.5 577.5 16.5147 577.5 19C577.5 21.4853 579.515 23.5 582 23.5C584.485 23.5 586.5 21.4853 586.5 19C586.5 16.5147 584.485 14.5 582 14.5ZM576.5 19C576.5 15.9624 578.962 13.5 582 13.5C585.038 13.5 587.5 15.9624 587.5 19C587.5 22.0376 585.038 24.5 582 24.5C578.962 24.5 576.5 22.0376 576.5 19Z" fill="#A59A86"/>
<path fill-rule="evenodd" clip-rule="evenodd" d="M582 13.5C582.137 13.5 582.268 13.5561 582.362 13.6552C583.734 15.0962 584.5 17.01 584.5 19C584.5 20.99 583.734 22.9038 582.362 24.3448C582.268 24.4439 582.137 24.5 582 24.5C581.863 24.5 581.732 24.4439 581.638 24.3448C580.266 22.9038 579.5 20.99 579.5 19C579.5 17.01 580.266 15.0962 581.638 13.6552C581.732 13.5561 581.863 13.5 582 13.5ZM582 14.7573C581.033 15.954 580.5 17.4504 580.5 19C580.5 20.5496 581.033 22.046 582 23.2427C582.967 22.046 583.5 20.5496 583.5 19C583.5 17.4504 582.967 15.954 582 14.7573Z" fill="#A59A86"/>
<path fill-rule="evenodd" clip-rule="evenodd" d="M576.5 19C576.5 18.7239 576.724 18.5 577 18.5H587C587.276 18.5 587.5 18.7239 587.5 19C587.5 19.2761 587.276 19.5 587 19.5H577C576.724 19.5 576.5 19.2761 576.5 19Z" fill="#A59A86"/>
</g>
<g clip-path="url(#clip1_31_898)">
<path fill-rule="evenodd" clip-rule="evenodd" d="M606.387 14.3753C606.953 13.8289 607.71 13.5265 608.497 13.5333C609.284 13.5402 610.036 13.8557 610.592 14.4119C611.148 14.9681 611.464 15.7205 611.471 16.5071C611.478 17.2937 611.175 18.0515 610.629 18.6173C610.627 18.6194 610.625 18.6215 610.623 18.6235L609.123 20.1235C609.123 20.1235 609.123 20.1235 609.123 20.1235C608.819 20.4277 608.453 20.663 608.05 20.8133C607.646 20.9637 607.216 21.0256 606.787 20.9949C606.358 20.9641 605.94 20.8415 605.563 20.6352C605.185 20.429 604.856 20.1439 604.599 19.7995C604.433 19.5783 604.479 19.265 604.7 19.0996C604.921 18.9342 605.234 18.9794 605.4 19.2005C605.571 19.4301 605.79 19.6202 606.042 19.7577C606.294 19.8952 606.572 19.9769 606.858 19.9974C607.144 20.0179 607.431 19.9766 607.7 19.8764C607.969 19.7762 608.213 19.6193 608.416 19.4165L609.912 17.9197C610.275 17.5428 610.475 17.0388 610.471 16.5158C610.466 15.9914 610.256 15.4898 609.885 15.119C609.514 14.7482 609.013 14.5378 608.488 14.5333C607.965 14.5287 607.461 14.7294 607.084 15.0923L606.227 15.9446C606.031 16.1393 605.714 16.1383 605.52 15.9425C605.325 15.7467 605.326 15.4301 605.522 15.2354L606.382 14.3804C606.383 14.3787 606.385 14.377 606.387 14.3753Z" fill="#A59A86"/>
<path fill-rule="evenodd" clip-rule="evenodd" d="M603.949 17.1866C604.352 17.0363 604.782 16.9744 605.212 17.0051C605.641 17.0358 606.058 17.1585 606.436 17.3647C606.813 17.571 607.142 17.856 607.4 18.2005C607.565 18.4216 607.52 18.735 607.299 18.9004C607.077 19.0658 606.764 19.0206 606.599 18.7995C606.427 18.5698 606.208 18.3798 605.956 18.2423C605.704 18.1048 605.426 18.023 605.14 18.0025C604.854 17.982 604.567 18.0233 604.298 18.1236C604.029 18.2238 603.785 18.3806 603.583 18.5835L602.086 20.0803C601.723 20.4572 601.523 20.9611 601.527 21.4841C601.532 22.0085 601.742 22.5102 602.113 22.881C602.484 23.2518 602.986 23.4621 603.51 23.4667C604.033 23.4712 604.537 23.2707 604.914 22.9082L605.766 22.0564C605.961 21.8612 606.277 21.8612 606.473 22.0564C606.668 22.2517 606.668 22.5683 606.473 22.7635L605.618 23.6185C605.616 23.6206 605.614 23.6226 605.611 23.6246C605.046 24.1711 604.288 24.4735 603.501 24.4666C602.715 24.4598 601.962 24.1443 601.406 23.5881C600.85 23.0319 600.534 22.2794 600.527 21.4928C600.521 20.7062 600.823 19.9484 601.369 19.3826C601.371 19.3805 601.374 19.3785 601.376 19.3764L602.876 17.8765C602.875 17.8765 602.876 17.8765 602.876 17.8765C603.18 17.5723 603.546 17.337 603.949 17.1866Z" fill="#A59A86"/>
</g>
<path d="M14.2793 60H13.2656V51.5449H14.2793V55.752H14.3555L17.7773 51.5449H18.9844L15.8555 55.2832L19.2891 60H18.0059L15.1582 56.0801L14.2793 57.123V60ZM20.5254 60V53.6426H21.4805V54.7617H21.5625C21.9023 53.9707 22.6289 53.5254 23.5957 53.5254C24.9785 53.5254 25.7285 54.3516 25.7285 55.875V60H24.7324V56.127C24.7324 54.9785 24.2637 54.4395 23.2734 54.4395C22.2246 54.4395 21.5215 55.1719 21.5215 56.2559V60H20.5254ZM30.5449 60.1172C28.8633 60.1172 27.791 59.0215 27.791 57.3047V56.3438C27.791 54.627 28.8633 53.5312 30.5449 53.5312C32.2266 53.5312 33.2988 54.627 33.2988 56.3438V57.3047C33.2988 59.0215 32.2266 60.1172 30.5449 60.1172ZM30.5449 54.4102C29.4551 54.4102 28.7754 55.1836 28.7754 56.4316V57.2109C28.7754 58.4648 29.4551 59.2324 30.5449 59.2324C31.6348 59.2324 32.3145 58.4648 32.3145 57.2109V56.4316C32.3145 55.1836 31.6348 54.4102 30.5449 54.4102ZM41.3965 53.6426L40.0312 60H39.0762L37.998 55.043H37.9277L36.8496 60H35.8945L34.5293 53.6426H35.502L36.3633 58.7402H36.4688L37.4941 53.6484H38.4316L39.457 58.7402H39.5625L40.4238 53.6426H41.3965ZM48.1582 60H42.8906V59.1738H45.0645V51.9727H42.9082V51.1465H46.0605V59.1738H48.1582V60ZM54.5156 58.3594H55.4824C55.2891 59.4082 54.2812 60.1172 52.9453 60.1172C51.1992 60.1172 50.1855 59.0684 50.1855 57.2578V56.3027C50.1855 54.627 51.2578 53.5254 52.875 53.5254C54.5273 53.5254 55.5 54.6211 55.5 56.4609V57.082H51.1699V57.3398C51.1699 58.5059 51.8613 59.2559 52.9453 59.2559C53.748 59.2559 54.3398 58.916 54.5156 58.3594ZM52.8691 54.3809C51.8086 54.3809 51.1699 55.1074 51.1699 56.3262H54.5156C54.5156 55.1133 53.8945 54.3809 52.8691 54.3809ZM59.8184 60.1055C58.3477 60.1055 57.3867 59.0449 57.3867 57.4102V56.2266C57.3867 54.5977 58.3477 53.5371 59.8184 53.5371C60.7383 53.5371 61.418 53.9297 61.6934 54.627H61.7988V51.1465H62.8125V60H61.834V59.0273H61.7227C61.3945 59.7305 60.7266 60.1055 59.8184 60.1055ZM60.1113 59.1973C61.1543 59.1973 61.8281 58.4473 61.8281 57.2695V56.3555C61.8281 55.1836 61.1543 54.4336 60.1113 54.4336C59.0625 54.4336 58.3887 55.1836 58.3887 56.3555V57.2695C58.3887 58.4414 59.0625 59.1973 60.1113 59.1973ZM67.4473 62.3848C65.9766 62.3848 64.9922 61.7402 64.8633 60.6855H65.8477C65.9766 61.2129 66.6152 61.5586 67.4648 61.5586C68.5781 61.5586 69.1934 60.9961 69.1934 59.9766V58.9863H69.0879C68.8066 59.6543 68.1035 60.0586 67.1777 60.0586C65.707 60.0586 64.7402 58.998 64.7402 57.3691V56.2266C64.7402 54.5918 65.7129 53.5371 67.2012 53.5371C68.1211 53.5371 68.8184 53.9414 69.0938 54.627H69.2051V53.6426H70.1895V60C70.1895 61.4941 69.1699 62.3848 67.4473 62.3848ZM65.7422 57.2285C65.7422 58.3945 66.4219 59.1562 67.4766 59.1562C68.5254 59.1562 69.1992 58.4004 69.1992 57.2285V56.3555C69.1992 55.1836 68.5254 54.4336 67.4766 54.4336C66.4219 54.4336 65.7422 55.1895 65.7422 56.3555V57.2285ZM76.7695 58.3594H77.7363C77.543 59.4082 76.5352 60.1172 75.1992 60.1172C73.4531 60.1172 72.4395 59.0684 72.4395 57.2578V56.3027C72.4395 54.627 73.5117 53.5254 75.1289 53.5254C76.7812 53.5254 77.7539 54.6211 77.7539 56.4609V57.082H73.4238V57.3398C73.4238 58.5059 74.1152 59.2559 75.1992 59.2559C76.002 59.2559 76.5938 58.916 76.7695 58.3594ZM75.123 54.3809C74.0625 54.3809 73.4238 55.1074 73.4238 56.3262H76.7695C76.7695 55.1133 76.1484 54.3809 75.123 54.3809ZM93.3223 53.6426L91.957 60H91.002L89.9238 55.043H89.8535L88.7754 60H87.8203L86.4551 53.6426H87.4277L88.2891 58.7402H88.3945L89.4199 53.6484H90.3574L91.3828 58.7402H91.4883L92.3496 53.6426H93.3223ZM97.3066 60.1172C95.625 60.1172 94.5527 59.0215 94.5527 57.3047V56.3438C94.5527 54.627 95.625 53.5312 97.3066 53.5312C98.9883 53.5312 100.061 54.627 100.061 56.3438V57.3047C100.061 59.0215 98.9883 60.1172 97.3066 60.1172ZM97.3066 54.4102C96.2168 54.4102 95.5371 55.1836 95.5371 56.4316V57.2109C95.5371 58.4648 96.2168 59.2324 97.3066 59.2324C98.3965 59.2324 99.0762 58.4648 99.0762 57.2109V56.4316C99.0762 55.1836 98.3965 54.4102 97.3066 54.4102ZM104.473 57.1523V59.2031H106.441V60H102.217V59.2031H103.5V54.4395H102.088V53.6426H104.461V55.2656H104.59C104.824 54.0879 105.615 53.4785 106.84 53.4785C107.203 53.4785 107.549 53.5312 107.76 53.6191V54.7383C107.467 54.6328 107.057 54.5625 106.711 54.5625C105.305 54.5625 104.473 55.5352 104.473 57.1523ZM111.082 56.4961L113.854 53.6426H115.061L112.594 56.1621L115.236 60H114.053L111.885 56.8418L111.006 57.6855V60H110.01V51.1465H111.006V56.4961H111.082ZM127.09 52.084C126.621 52.084 126.264 51.7324 126.264 51.2637C126.264 50.8008 126.621 50.4492 127.09 50.4492C127.559 50.4492 127.916 50.8008 127.916 51.2637C127.916 51.7324 127.559 52.084 127.09 52.084ZM129.756 60H124.488V59.1738H126.668V54.4688H124.506V53.6426H127.652V59.1738H129.756V60ZM132.082 55.3594C132.082 54.2578 133.02 53.5195 134.42 53.5195C135.744 53.5195 136.641 54.1816 136.758 55.2422H135.797C135.68 54.6855 135.146 54.3457 134.402 54.3457C133.594 54.3457 133.072 54.7207 133.072 55.3008C133.072 55.7871 133.4 56.0625 134.197 56.2383L135.094 56.4434C136.33 56.7246 136.893 57.2637 136.893 58.1836C136.893 59.3555 135.914 60.1172 134.408 60.1172C132.967 60.1172 132.012 59.4434 131.9 58.3535H132.914C133.061 58.9395 133.623 59.2793 134.443 59.2793C135.311 59.2793 135.861 58.8867 135.861 58.2773C135.861 57.7734 135.551 57.5039 134.742 57.3223L133.799 57.1055C132.65 56.8418 132.082 56.2617 132.082 55.3594ZM146.918 55.3594C146.918 54.2578 147.855 53.5195 149.256 53.5195C150.58 53.5195 151.477 54.1816 151.594 55.2422H150.633C150.516 54.6855 149.982 54.3457 149.238 54.3457C148.43 54.3457 147.908 54.7207 147.908 55.3008C147.908 55.7871 148.236 56.0625 149.033 56.2383L149.93 56.4434C151.166 56.7246 151.729 57.2637 151.729 58.1836C151.729 59.3555 150.75 60.1172 149.244 60.1172C147.803 60.1172 146.848 59.4434 146.736 58.3535H147.75C147.896 58.9395 148.459 59.2793 149.279 59.2793C150.146 59.2793 150.697 58.8867 150.697 58.2773C150.697 57.7734 150.387 57.5039 149.578 57.3223L148.635 57.1055C147.486 56.8418 146.918 56.2617 146.918 55.3594ZM154.043 60V51.1465H155.004V54.7676H155.086C155.42 53.9766 156.152 53.5312 157.125 53.5312C158.508 53.5312 159.258 54.3633 159.258 55.8809V60H158.262V56.1328C158.262 54.9902 157.793 54.4453 156.797 54.4453C155.748 54.4453 155.039 55.1777 155.039 56.2617V60H154.043ZM164.18 52.084C163.711 52.084 163.354 51.7324 163.354 51.2637C163.354 50.8008 163.711 50.4492 164.18 50.4492C164.648 50.4492 165.006 50.8008 165.006 51.2637C165.006 51.7324 164.648 52.084 164.18 52.084ZM166.846 60H161.578V59.1738H163.758V54.4688H161.596V53.6426H164.742V59.1738H166.846V60ZM170.549 60V54.5098H168.844V53.6602H170.549V53.0215C170.549 51.791 171.311 51.2168 172.875 51.2168C173.244 51.2168 174.129 51.2461 174.34 51.2754V52.0898C174.064 52.0605 173.244 52.0371 172.887 52.0371C172.002 52.0371 171.533 52.3652 171.533 53.0039V53.6602H174.34V54.5098H171.545V60H170.549ZM177.82 51.9375H178.805V53.6602H181.383V54.5098H178.816V58.0957C178.816 58.7871 179.303 59.1621 180.199 59.1621C180.557 59.1621 181.195 59.1445 181.365 59.127V59.9707C181.207 60 180.434 60.0293 180.129 60.0293C178.553 60.0293 177.82 59.4316 177.82 58.1074V54.5098H176.127V53.6602H177.82V51.9375ZM186.434 52.084C185.965 52.084 185.607 51.7324 185.607 51.2637C185.607 50.8008 185.965 50.4492 186.434 50.4492C186.902 50.4492 187.26 50.8008 187.26 51.2637C187.26 51.7324 186.902 52.084 186.434 52.084ZM189.1 60H183.832V59.1738H186.012V54.4688H183.85V53.6426H186.996V59.1738H189.1V60ZM191.139 60V53.6426H192.094V54.7617H192.176C192.516 53.9707 193.242 53.5254 194.209 53.5254C195.592 53.5254 196.342 54.3516 196.342 55.875V60H195.346V56.127C195.346 54.9785 194.877 54.4395 193.887 54.4395C192.838 54.4395 192.135 55.1719 192.135 56.2559V60H191.139ZM200.971 62.3848C199.5 62.3848 198.516 61.7402 198.387 60.6855H199.371C199.5 61.2129 200.139 61.5586 200.988 61.5586C202.102 61.5586 202.717 60.9961 202.717 59.9766V58.9863H202.611C202.33 59.6543 201.627 60.0586 200.701 60.0586C199.23 60.0586 198.264 58.998 198.264 57.3691V56.2266C198.264 54.5918 199.236 53.5371 200.725 53.5371C201.645 53.5371 202.342 53.9414 202.617 54.627H202.729V53.6426H203.713V60C203.713 61.4941 202.693 62.3848 200.971 62.3848ZM199.266 57.2285C199.266 58.3945 199.945 59.1562 201 59.1562C202.049 59.1562 202.723 58.4004 202.723 57.2285V56.3555C202.723 55.1836 202.049 54.4336 201 54.4336C199.945 54.4336 199.266 55.1895 199.266 56.3555V57.2285ZM215.057 60V54.5098H213.352V53.6602H215.057V53.0215C215.057 51.791 215.818 51.2168 217.383 51.2168C217.752 51.2168 218.637 51.2461 218.848 51.2754V52.0898C218.572 52.0605 217.752 52.0371 217.395 52.0371C216.51 52.0371 216.041 52.3652 216.041 53.0039V53.6602H218.848V54.5098H216.053V60H215.057ZM223.16 57.1523V59.2031H225.129V60H220.904V59.2031H222.188V54.4395H220.775V53.6426H223.148V55.2656H223.277C223.512 54.0879 224.303 53.4785 225.527 53.4785C225.891 53.4785 226.236 53.5312 226.447 53.6191V54.7383C226.154 54.6328 225.744 54.5625 225.398 54.5625C223.992 54.5625 223.16 55.5352 223.16 57.1523ZM230.83 60.1172C229.148 60.1172 228.076 59.0215 228.076 57.3047V56.3438C228.076 54.627 229.148 53.5312 230.83 53.5312C232.512 53.5312 233.584 54.627 233.584 56.3438V57.3047C233.584 59.0215 232.512 60.1172 230.83 60.1172ZM230.83 54.4102C229.74 54.4102 229.061 55.1836 229.061 56.4316V57.2109C229.061 58.4648 229.74 59.2324 230.83 59.2324C231.92 59.2324 232.6 58.4648 232.6 57.2109V56.4316C232.6 55.1836 231.92 54.4102 230.83 54.4102ZM241.312 55.3184V60H240.416V55.6113C240.416 54.8379 240.135 54.4336 239.602 54.4336C239.045 54.4336 238.705 54.9199 238.705 55.7109V60H237.814V55.6055C237.814 54.8379 237.533 54.4336 236.994 54.4336C236.432 54.4336 236.08 54.9199 236.08 55.7109V60H235.184V53.6426H236.074V54.5391H236.18C236.338 53.9004 236.795 53.5254 237.393 53.5254C237.99 53.5254 238.412 53.8945 238.547 54.5215H238.652C238.816 53.9121 239.326 53.5254 239.965 53.5254C240.85 53.5254 241.312 54.1406 241.312 55.3184ZM253.195 52.084C252.727 52.084 252.369 51.7324 252.369 51.2637C252.369 50.8008 252.727 50.4492 253.195 50.4492C253.664 50.4492 254.021 50.8008 254.021 51.2637C254.021 51.7324 253.664 52.084 253.195 52.084ZM255.861 60H250.594V59.1738H252.773V54.4688H250.611V53.6426H253.758V59.1738H255.861V60ZM263.566 55.3184V60H262.67V55.6113C262.67 54.8379 262.389 54.4336 261.855 54.4336C261.299 54.4336 260.959 54.9199 260.959 55.7109V60H260.068V55.6055C260.068 54.8379 259.787 54.4336 259.248 54.4336C258.686 54.4336 258.334 54.9199 258.334 55.7109V60H257.438V53.6426H258.328V54.5391H258.434C258.592 53.9004 259.049 53.5254 259.646 53.5254C260.244 53.5254 260.666 53.8945 260.801 54.5215H260.906C261.07 53.9121 261.58 53.5254 262.219 53.5254C263.104 53.5254 263.566 54.1406 263.566 55.3184ZM268.318 53.5371C269.789 53.5371 270.75 54.5977 270.75 56.2324V57.416C270.75 59.0449 269.789 60.1055 268.318 60.1055C267.398 60.1055 266.725 59.7129 266.449 59.0156H266.338V62.1445H265.324V53.6426H266.309V54.6152H266.414C266.748 53.9121 267.41 53.5371 268.318 53.5371ZM268.031 54.4512C266.982 54.4512 266.314 55.2012 266.314 56.373V57.2871C266.314 58.4648 266.982 59.2148 268.031 59.2148C269.08 59.2148 269.748 58.459 269.748 57.2871V56.373C269.748 55.2012 269.08 54.4512 268.031 54.4512ZM277.055 58.3594H278.021C277.828 59.4082 276.82 60.1172 275.484 60.1172C273.738 60.1172 272.725 59.0684 272.725 57.2578V56.3027C272.725 54.627 273.797 53.5254 275.414 53.5254C277.066 53.5254 278.039 54.6211 278.039 56.4609V57.082H273.709V57.3398C273.709 58.5059 274.4 59.2559 275.484 59.2559C276.287 59.2559 276.879 58.916 277.055 58.3594ZM275.408 54.3809C274.348 54.3809 273.709 55.1074 273.709 56.3262H277.055C277.055 55.1133 276.434 54.3809 275.408 54.3809ZM282.504 57.1523V59.2031H284.473V60H280.248V59.2031H281.531V54.4395H280.119V53.6426H282.492V55.2656H282.621C282.855 54.0879 283.646 53.4785 284.871 53.4785C285.234 53.4785 285.58 53.5312 285.791 53.6191V54.7383C285.498 54.6328 285.088 54.5625 284.742 54.5625C283.336 54.5625 282.504 55.5352 282.504 57.1523ZM289.529 60.1113C288.316 60.1113 287.508 59.3496 287.508 58.1953C287.508 57.0703 288.316 56.4023 289.764 56.3262L291.51 56.2383V55.6641C291.51 54.8672 291.023 54.4277 290.139 54.4277C289.406 54.4277 288.891 54.7383 288.727 55.2832H287.748C287.865 54.2637 288.85 53.5664 290.15 53.5664C291.645 53.5664 292.5 54.3281 292.5 55.6523V60.0059H291.551V59.0508H291.451C291.146 59.7305 290.455 60.1113 289.529 60.1113ZM289.816 59.2383C290.777 59.2383 291.51 58.5996 291.51 57.75V57L289.875 57.0762C288.984 57.1172 288.516 57.498 288.516 58.1602C288.516 58.8281 289.014 59.2383 289.816 59.2383ZM296.508 51.9375H297.492V53.6602H300.07V54.5098H297.504V58.0957C297.504 58.7871 297.99 59.1621 298.887 59.1621C299.244 59.1621 299.883 59.1445 300.053 59.127V59.9707C299.895 60 299.121 60.0293 298.816 60.0293C297.24 60.0293 296.508 59.4316 296.508 58.1074V54.5098H294.814V53.6602H296.508V51.9375ZM305.121 52.084C304.652 52.084 304.295 51.7324 304.295 51.2637C304.295 50.8008 304.652 50.4492 305.121 50.4492C305.59 50.4492 305.947 50.8008 305.947 51.2637C305.947 51.7324 305.59 52.084 305.121 52.084ZM307.787 60H302.52V59.1738H304.699V54.4688H302.537V53.6426H305.684V59.1738H307.787V60ZM309.557 53.6426H310.623L312.398 58.9336H312.475L314.238 53.6426H315.299L312.979 60H311.883L309.557 53.6426ZM321.562 58.3594H322.529C322.336 59.4082 321.328 60.1172 319.992 60.1172C318.246 60.1172 317.232 59.0684 317.232 57.2578V56.3027C317.232 54.627 318.305 53.5254 319.922 53.5254C321.574 53.5254 322.547 54.6211 322.547 56.4609V57.082H318.217V57.3398C318.217 58.5059 318.908 59.2559 319.992 59.2559C320.795 59.2559 321.387 58.916 321.562 58.3594ZM319.916 54.3809C318.855 54.3809 318.217 55.1074 318.217 56.3262H321.562C321.562 55.1133 320.941 54.3809 319.916 54.3809ZM337.459 60H332.191V59.1738H334.365V51.9727H332.209V51.1465H335.361V59.1738H337.459V60ZM341.455 60.1113C340.242 60.1113 339.434 59.3496 339.434 58.1953C339.434 57.0703 340.242 56.4023 341.689 56.3262L343.436 56.2383V55.6641C343.436 54.8672 342.949 54.4277 342.064 54.4277C341.332 54.4277 340.816 54.7383 340.652 55.2832H339.674C339.791 54.2637 340.775 53.5664 342.076 53.5664C343.57 53.5664 344.426 54.3281 344.426 55.6523V60.0059H343.477V59.0508H343.377C343.072 59.7305 342.381 60.1113 341.455 60.1113ZM341.742 59.2383C342.703 59.2383 343.436 58.5996 343.436 57.75V57L341.801 57.0762C340.91 57.1172 340.441 57.498 340.441 58.1602C340.441 58.8281 340.939 59.2383 341.742 59.2383ZM349.916 60.1055C349.008 60.1055 348.34 59.7305 348.012 59.0273H347.9V60H346.922V51.1465H347.936V54.627H348.041C348.322 53.9297 348.996 53.5371 349.916 53.5371C351.387 53.5371 352.348 54.5977 352.348 56.2266V57.4102C352.348 59.0449 351.387 60.1055 349.916 60.1055ZM349.623 59.1973C350.678 59.1973 351.346 58.4414 351.346 57.2695V56.3555C351.346 55.1836 350.678 54.4336 349.623 54.4336C348.58 54.4336 347.912 55.1836 347.912 56.3555V57.2695C347.912 58.4473 348.58 59.1973 349.623 59.1973ZM356.936 60.1172C355.254 60.1172 354.182 59.0215 354.182 57.3047V56.3438C354.182 54.627 355.254 53.5312 356.936 53.5312C358.617 53.5312 359.689 54.627 359.689 56.3438V57.3047C359.689 59.0215 358.617 60.1172 356.936 60.1172ZM356.936 54.4102C355.846 54.4102 355.166 55.1836 355.166 56.4316V57.2109C355.166 58.4648 355.846 59.2324 356.936 59.2324C358.025 59.2324 358.705 58.4648 358.705 57.2109V56.4316C358.705 55.1836 358.025 54.4102 356.936 54.4102ZM364.102 57.1523V59.2031H366.07V60H361.846V59.2031H363.129V54.4395H361.717V53.6426H364.09V55.2656H364.219C364.453 54.0879 365.244 53.4785 366.469 53.4785C366.832 53.4785 367.178 53.5312 367.389 53.6191V54.7383C367.096 54.6328 366.686 54.5625 366.34 54.5625C364.934 54.5625 364.102 55.5352 364.102 57.1523ZM378.105 51.9375H379.09V53.6602H381.668V54.5098H379.102V58.0957C379.102 58.7871 379.588 59.1621 380.484 59.1621C380.842 59.1621 381.48 59.1445 381.65 59.127V59.9707C381.492 60 380.719 60.0293 380.414 60.0293C378.838 60.0293 378.105 59.4316 378.105 58.1074V54.5098H376.412V53.6602H378.105V51.9375ZM386.607 60.1172C384.926 60.1172 383.854 59.0215 383.854 57.3047V56.3438C383.854 54.627 384.926 53.5312 386.607 53.5312C388.289 53.5312 389.361 54.627 389.361 56.3438V57.3047C389.361 59.0215 388.289 60.1172 386.607 60.1172ZM386.607 54.4102C385.518 54.4102 384.838 55.1836 384.838 56.4316V57.2109C384.838 58.4648 385.518 59.2324 386.607 59.2324C387.697 59.2324 388.377 58.4648 388.377 57.2109V56.4316C388.377 55.1836 387.697 54.4102 386.607 54.4102ZM401.045 60.1055C399.574 60.1055 398.613 59.0449 398.613 57.4102V56.2266C398.613 54.5977 399.574 53.5371 401.045 53.5371C401.965 53.5371 402.645 53.9297 402.92 54.627H403.025V51.1465H404.039V60H403.061V59.0273H402.949C402.621 59.7305 401.953 60.1055 401.045 60.1055ZM401.338 59.1973C402.381 59.1973 403.055 58.4473 403.055 57.2695V56.3555C403.055 55.1836 402.381 54.4336 401.338 54.4336C400.289 54.4336 399.615 55.1836 399.615 56.3555V57.2695C399.615 58.4414 400.289 59.1973 401.338 59.1973ZM410.578 58.3594H411.545C411.352 59.4082 410.344 60.1172 409.008 60.1172C407.262 60.1172 406.248 59.0684 406.248 57.2578V56.3027C406.248 54.627 407.32 53.5254 408.938 53.5254C410.59 53.5254 411.562 54.6211 411.562 56.4609V57.082H407.232V57.3398C407.232 58.5059 407.924 59.2559 409.008 59.2559C409.811 59.2559 410.402 58.916 410.578 58.3594ZM408.932 54.3809C407.871 54.3809 407.232 55.1074 407.232 56.3262H410.578C410.578 55.1133 409.957 54.3809 408.932 54.3809ZM418.928 55.623H417.943C417.82 54.8789 417.199 54.4102 416.379 54.4102C415.271 54.4102 414.656 55.166 414.656 56.5312V57.1055C414.656 58.4707 415.271 59.2207 416.379 59.2207C417.199 59.2207 417.82 58.7578 417.943 58.0312H418.928C418.77 59.3262 417.803 60.1172 416.396 60.1172C414.668 60.1172 413.66 59.0566 413.66 57.2344V56.4023C413.66 54.5801 414.668 53.5195 416.396 53.5195C417.803 53.5195 418.764 54.3164 418.928 55.623ZM426.475 60H421.207V59.1738H423.381V51.9727H421.225V51.1465H424.377V59.1738H426.475V60ZM430.471 60.1113C429.258 60.1113 428.449 59.3496 428.449 58.1953C428.449 57.0703 429.258 56.4023 430.705 56.3262L432.451 56.2383V55.6641C432.451 54.8672 431.965 54.4277 431.08 54.4277C430.348 54.4277 429.832 54.7383 429.668 55.2832H428.689C428.807 54.2637 429.791 53.5664 431.092 53.5664C432.586 53.5664 433.441 54.3281 433.441 55.6523V60.0059H432.492V59.0508H432.393C432.088 59.7305 431.396 60.1113 430.471 60.1113ZM430.758 59.2383C431.719 59.2383 432.451 58.5996 432.451 57.75V57L430.816 57.0762C429.926 57.1172 429.457 57.498 429.457 58.1602C429.457 58.8281 429.955 59.2383 430.758 59.2383ZM438.281 57.1523V59.2031H440.25V60H436.025V59.2031H437.309V54.4395H435.896V53.6426H438.27V55.2656H438.398C438.633 54.0879 439.424 53.4785 440.648 53.4785C441.012 53.4785 441.357 53.5312 441.568 53.6191V54.7383C441.275 54.6328 440.865 54.5625 440.52 54.5625C439.113 54.5625 438.281 55.5352 438.281 57.1523ZM445.307 60.1113C444.094 60.1113 443.285 59.3496 443.285 58.1953C443.285 57.0703 444.094 56.4023 445.541 56.3262L447.287 56.2383V55.6641C447.287 54.8672 446.801 54.4277 445.916 54.4277C445.184 54.4277 444.668 54.7383 444.504 55.2832H443.525C443.643 54.2637 444.627 53.5664 445.928 53.5664C447.422 53.5664 448.277 54.3281 448.277 55.6523V60.0059H447.328V59.0508H447.229C446.924 59.7305 446.232 60.1113 445.307 60.1113ZM445.594 59.2383C446.555 59.2383 447.287 58.5996 447.287 57.75V57L445.652 57.0762C444.762 57.1172 444.293 57.498 444.293 58.1602C444.293 58.8281 444.791 59.2383 445.594 59.2383ZM452.285 51.9375H453.27V53.6602H455.848V54.5098H453.281V58.0957C453.281 58.7871 453.768 59.1621 454.664 59.1621C455.021 59.1621 455.66 59.1445 455.83 59.127V59.9707C455.672 60 454.898 60.0293 454.594 60.0293C453.018 60.0293 452.285 59.4316 452.285 58.1074V54.5098H450.592V53.6602H452.285V51.9375ZM460.898 52.084C460.43 52.084 460.072 51.7324 460.072 51.2637C460.072 50.8008 460.43 50.4492 460.898 50.4492C461.367 50.4492 461.725 50.8008 461.725 51.2637C461.725 51.7324 461.367 52.084 460.898 52.084ZM463.564 60H458.297V59.1738H460.477V54.4688H458.314V53.6426H461.461V59.1738H463.564V60ZM465.334 53.6426H466.4L468.176 58.9336H468.252L470.016 53.6426H471.076L468.756 60H467.66L465.334 53.6426ZM477.34 58.3594H478.307C478.113 59.4082 477.105 60.1172 475.77 60.1172C474.023 60.1172 473.01 59.0684 473.01 57.2578V56.3027C473.01 54.627 474.082 53.5254 475.699 53.5254C477.352 53.5254 478.324 54.6211 478.324 56.4609V57.082H473.994V57.3398C473.994 58.5059 474.686 59.2559 475.77 59.2559C476.572 59.2559 477.164 58.916 477.34 58.3594ZM475.693 54.3809C474.633 54.3809 473.994 55.1074 473.994 56.3262H477.34C477.34 55.1133 476.719 54.3809 475.693 54.3809ZM490.061 60.1055C488.59 60.1055 487.629 59.0449 487.629 57.4102V56.2266C487.629 54.5977 488.59 53.5371 490.061 53.5371C490.98 53.5371 491.66 53.9297 491.936 54.627H492.041V51.1465H493.055V60H492.076V59.0273H491.965C491.637 59.7305 490.969 60.1055 490.061 60.1055ZM490.354 59.1973C491.396 59.1973 492.07 58.4473 492.07 57.2695V56.3555C492.07 55.1836 491.396 54.4336 490.354 54.4336C489.305 54.4336 488.631 55.1836 488.631 56.3555V57.2695C488.631 58.4414 489.305 59.1973 490.354 59.1973ZM497.988 52.084C497.52 52.084 497.162 51.7324 497.162 51.2637C497.162 50.8008 497.52 50.4492 497.988 50.4492C498.457 50.4492 498.814 50.8008 498.814 51.2637C498.814 51.7324 498.457 52.084 497.988 52.084ZM500.654 60H495.387V59.1738H497.566V54.4688H495.404V53.6426H498.551V59.1738H500.654V60ZM504.65 60.1113C503.438 60.1113 502.629 59.3496 502.629 58.1953C502.629 57.0703 503.438 56.4023 504.885 56.3262L506.631 56.2383V55.6641C506.631 54.8672 506.145 54.4277 505.26 54.4277C504.527 54.4277 504.012 54.7383 503.848 55.2832H502.869C502.986 54.2637 503.971 53.5664 505.271 53.5664C506.766 53.5664 507.621 54.3281 507.621 55.6523V60.0059H506.672V59.0508H506.572C506.268 59.7305 505.576 60.1113 504.65 60.1113ZM504.938 59.2383C505.898 59.2383 506.631 58.5996 506.631 57.75V57L504.996 57.0762C504.105 57.1172 503.637 57.498 503.637 58.1602C503.637 58.8281 504.135 59.2383 504.938 59.2383ZM515.49 60H510.223V59.1738H512.396V51.9727H510.24V51.1465H513.393V59.1738H515.49V60ZM520.131 60.1172C518.449 60.1172 517.377 59.0215 517.377 57.3047V56.3438C517.377 54.627 518.449 53.5312 520.131 53.5312C521.812 53.5312 522.885 54.627 522.885 56.3438V57.3047C522.885 59.0215 521.812 60.1172 520.131 60.1172ZM520.131 54.4102C519.041 54.4102 518.361 55.1836 518.361 56.4316V57.2109C518.361 58.4648 519.041 59.2324 520.131 59.2324C521.221 59.2324 521.9 58.4648 521.9 57.2109V56.4316C521.9 55.1836 521.221 54.4102 520.131 54.4102ZM527.361 62.3848C525.891 62.3848 524.906 61.7402 524.777 60.6855H525.762C525.891 61.2129 526.529 61.5586 527.379 61.5586C528.492 61.5586 529.107 60.9961 529.107 59.9766V58.9863H529.002C528.721 59.6543 528.018 60.0586 527.092 60.0586C525.621 60.0586 524.654 58.998 524.654 57.3691V56.2266C524.654 54.5918 525.627 53.5371 527.115 53.5371C528.035 53.5371 528.732 53.9414 529.008 54.627H529.119V53.6426H530.104V60C530.104 61.4941 529.084 62.3848 527.361 62.3848ZM525.656 57.2285C525.656 58.3945 526.336 59.1562 527.391 59.1562C528.439 59.1562 529.113 58.4004 529.113 57.2285V56.3555C529.113 55.1836 528.439 54.4336 527.391 54.4336C526.336 54.4336 525.656 55.1895 525.656 56.3555V57.2285ZM537.568 53.6426V60H536.613V58.8809H536.531C536.191 59.6719 535.465 60.1172 534.498 60.1172C533.115 60.1172 532.365 59.291 532.365 57.7676V53.6426H533.361V57.5156C533.361 58.6641 533.83 59.2031 534.82 59.2031C535.869 59.2031 536.572 58.4707 536.572 57.3867V53.6426H537.568ZM544.102 58.3594H545.068C544.875 59.4082 543.867 60.1172 542.531 60.1172C540.785 60.1172 539.771 59.0684 539.771 57.2578V56.3027C539.771 54.627 540.844 53.5254 542.461 53.5254C544.113 53.5254 545.086 54.6211 545.086 56.4609V57.082H540.756V57.3398C540.756 58.5059 541.447 59.2559 542.531 59.2559C543.334 59.2559 543.926 58.916 544.102 58.3594ZM542.455 54.3809C541.395 54.3809 540.756 55.1074 540.756 56.3262H544.102C544.102 55.1133 543.48 54.3809 542.455 54.3809ZM557.221 60.0352C556.641 60.0352 556.16 59.5488 556.16 58.9512C556.16 58.3594 556.641 57.873 557.221 57.873C557.801 57.873 558.281 58.3594 558.281 58.9512C558.281 59.5488 557.801 60.0352 557.221 60.0352ZM18.5215 80H17.4961V76.1562H13.9219V80H12.8965V71.5449H13.9219V75.207H17.4961V71.5449H18.5215V80ZM25.7285 73.6426V80H24.7734V78.8809H24.6914C24.3516 79.6719 23.625 80.1172 22.6582 80.1172C21.2754 80.1172 20.5254 79.291 20.5254 77.7676V73.6426H21.5215V77.5156C21.5215 78.6641 21.9902 79.2031 22.9805 79.2031C24.0293 79.2031 24.7324 78.4707 24.7324 77.3867V73.6426H25.7285ZM33.6094 75.3184V80H32.7129V75.6113C32.7129 74.8379 32.4316 74.4336 31.8984 74.4336C31.3418 74.4336 31.002 74.9199 31.002 75.7109V80H30.1113V75.6055C30.1113 74.8379 29.8301 74.4336 29.291 74.4336C28.7285 74.4336 28.377 74.9199 28.377 75.7109V80H27.4805V73.6426H28.3711V74.5391H28.4766C28.6348 73.9004 29.0918 73.5254 29.6895 73.5254C30.2871 73.5254 30.709 73.8945 30.8438 74.5215H30.9492C31.1133 73.9121 31.623 73.5254 32.2617 73.5254C33.1465 73.5254 33.6094 74.1406 33.6094 75.3184ZM37.3184 80.1113C36.1055 80.1113 35.2969 79.3496 35.2969 78.1953C35.2969 77.0703 36.1055 76.4023 37.5527 76.3262L39.2988 76.2383V75.6641C39.2988 74.8672 38.8125 74.4277 37.9277 74.4277C37.1953 74.4277 36.6797 74.7383 36.5156 75.2832H35.5371C35.6543 74.2637 36.6387 73.5664 37.9395 73.5664C39.4336 73.5664 40.2891 74.3281 40.2891 75.6523V80.0059H39.3398V79.0508H39.2402C38.9355 79.7305 38.2441 80.1113 37.3184 80.1113ZM37.6055 79.2383C38.5664 79.2383 39.2988 78.5996 39.2988 77.75V77L37.6641 77.0762C36.7734 77.1172 36.3047 77.498 36.3047 78.1602C36.3047 78.8281 36.8027 79.2383 37.6055 79.2383ZM42.7793 80V73.6426H43.7344V74.7617H43.8164C44.1562 73.9707 44.8828 73.5254 45.8496 73.5254C47.2324 73.5254 47.9824 74.3516 47.9824 75.875V80H46.9863V76.127C46.9863 74.9785 46.5176 74.4395 45.5273 74.4395C44.4785 74.4395 43.7754 75.1719 43.7754 76.2559V80H42.7793ZM50.4844 75.3594C50.4844 74.2578 51.4219 73.5195 52.8223 73.5195C54.1465 73.5195 55.043 74.1816 55.1602 75.2422H54.1992C54.082 74.6855 53.5488 74.3457 52.8047 74.3457C51.9961 74.3457 51.4746 74.7207 51.4746 75.3008C51.4746 75.7871 51.8027 76.0625 52.5996 76.2383L53.4961 76.4434C54.7324 76.7246 55.2949 77.2637 55.2949 78.1836C55.2949 79.3555 54.3164 80.1172 52.8105 80.1172C51.3691 80.1172 50.4141 79.4434 50.3027 78.3535H51.3164C51.4629 78.9395 52.0254 79.2793 52.8457 79.2793C53.7129 79.2793 54.2637 78.8867 54.2637 78.2773C54.2637 77.7734 53.9531 77.5039 53.1445 77.3223L52.2012 77.1055C51.0527 76.8418 50.4844 76.2617 50.4844 75.3594ZM68.0332 73.5371C69.5039 73.5371 70.4648 74.5977 70.4648 76.2324V77.416C70.4648 79.0449 69.5039 80.1055 68.0332 80.1055C67.1133 80.1055 66.4395 79.7129 66.1641 79.0156H66.0527V82.1445H65.0391V73.6426H66.0234V74.6152H66.1289C66.4629 73.9121 67.125 73.5371 68.0332 73.5371ZM67.7461 74.4512C66.6973 74.4512 66.0293 75.2012 66.0293 76.373V77.2871C66.0293 78.4648 66.6973 79.2148 67.7461 79.2148C68.7949 79.2148 69.4629 78.459 69.4629 77.2871V76.373C69.4629 75.2012 68.7949 74.4512 67.7461 74.4512ZM74.8008 77.1523V79.2031H76.7695V80H72.5449V79.2031H73.8281V74.4395H72.416V73.6426H74.7891V75.2656H74.918C75.1523 74.0879 75.9434 73.4785 77.168 73.4785C77.5312 73.4785 77.877 73.5312 78.0879 73.6191V74.7383C77.7949 74.6328 77.3848 74.5625 77.0391 74.5625C75.6328 74.5625 74.8008 75.5352 74.8008 77.1523ZM82.4707 80.1172C80.7891 80.1172 79.7168 79.0215 79.7168 77.3047V76.3438C79.7168 74.627 80.7891 73.5312 82.4707 73.5312C84.1523 73.5312 85.2246 74.627 85.2246 76.3438V77.3047C85.2246 79.0215 84.1523 80.1172 82.4707 80.1172ZM82.4707 74.4102C81.3809 74.4102 80.7012 75.1836 80.7012 76.4316V77.2109C80.7012 78.4648 81.3809 79.2324 82.4707 79.2324C83.5605 79.2324 84.2402 78.4648 84.2402 77.2109V76.4316C84.2402 75.1836 83.5605 74.4102 82.4707 74.4102ZM92.9531 75.3184V80H92.0566V75.6113C92.0566 74.8379 91.7754 74.4336 91.2422 74.4336C90.6855 74.4336 90.3457 74.9199 90.3457 75.7109V80H89.4551V75.6055C89.4551 74.8379 89.1738 74.4336 88.6348 74.4336C88.0723 74.4336 87.7207 74.9199 87.7207 75.7109V80H86.8242V73.6426H87.7148V74.5391H87.8203C87.9785 73.9004 88.4355 73.5254 89.0332 73.5254C89.6309 73.5254 90.0527 73.8945 90.1875 74.5215H90.293C90.457 73.9121 90.9668 73.5254 91.6055 73.5254C92.4902 73.5254 92.9531 74.1406 92.9531 75.3184ZM97.7051 73.5371C99.1758 73.5371 100.137 74.5977 100.137 76.2324V77.416C100.137 79.0449 99.1758 80.1055 97.7051 80.1055C96.7852 80.1055 96.1113 79.7129 95.8359 79.0156H95.7246V82.1445H94.7109V73.6426H95.6953V74.6152H95.8008C96.1348 73.9121 96.7969 73.5371 97.7051 73.5371ZM97.418 74.4512C96.3691 74.4512 95.7012 75.2012 95.7012 76.373V77.2871C95.7012 78.4648 96.3691 79.2148 97.418 79.2148C98.4668 79.2148 99.1348 78.459 99.1348 77.2871V76.373C99.1348 75.2012 98.4668 74.4512 97.418 74.4512ZM103.641 71.9375H104.625V73.6602H107.203V74.5098H104.637V78.0957C104.637 78.7871 105.123 79.1621 106.02 79.1621C106.377 79.1621 107.016 79.1445 107.186 79.127V79.9707C107.027 80 106.254 80.0293 105.949 80.0293C104.373 80.0293 103.641 79.4316 103.641 78.1074V74.5098H101.947V73.6602H103.641V71.9375ZM111.609 81.9453H110.666L111.393 78.1367H112.711L111.609 81.9453ZM129.164 80L128.432 77.5742H125.49L124.752 80H123.703L126.428 71.5449H127.529L130.254 80H129.164ZM126.949 72.7871L125.76 76.6895H128.162L126.979 72.7871H126.949ZM136.623 80H132.17V79.0801H133.881V72.4648H132.17V71.5449H136.623V72.4648H134.912V79.0801H136.623V80ZM148.834 80.1055C147.363 80.1055 146.402 79.0449 146.402 77.4102V76.2266C146.402 74.5977 147.363 73.5371 148.834 73.5371C149.754 73.5371 150.434 73.9297 150.709 74.627H150.814V71.1465H151.828V80H150.85V79.0273H150.738C150.41 79.7305 149.742 80.1055 148.834 80.1055ZM149.127 79.1973C150.17 79.1973 150.844 78.4473 150.844 77.2695V76.3555C150.844 75.1836 150.17 74.4336 149.127 74.4336C148.078 74.4336 147.404 75.1836 147.404 76.3555V77.2695C147.404 78.4414 148.078 79.1973 149.127 79.1973ZM156.398 77.1523V79.2031H158.367V80H154.143V79.2031H155.426V74.4395H154.014V73.6426H156.387V75.2656H156.516C156.75 74.0879 157.541 73.4785 158.766 73.4785C159.129 73.4785 159.475 73.5312 159.686 73.6191V74.7383C159.393 74.6328 158.982 74.5625 158.637 74.5625C157.23 74.5625 156.398 75.5352 156.398 77.1523ZM163.424 80.1113C162.211 80.1113 161.402 79.3496 161.402 78.1953C161.402 77.0703 162.211 76.4023 163.658 76.3262L165.404 76.2383V75.6641C165.404 74.8672 164.918 74.4277 164.033 74.4277C163.301 74.4277 162.785 74.7383 162.621 75.2832H161.643C161.76 74.2637 162.744 73.5664 164.045 73.5664C165.539 73.5664 166.395 74.3281 166.395 75.6523V80.0059H165.445V79.0508H165.346C165.041 79.7305 164.35 80.1113 163.424 80.1113ZM163.711 79.2383C164.672 79.2383 165.404 78.5996 165.404 77.75V77L163.77 77.0762C162.879 77.1172 162.41 77.498 162.41 78.1602C162.41 78.8281 162.908 79.2383 163.711 79.2383ZM170.549 80V74.5098H168.844V73.6602H170.549V73.0215C170.549 71.791 171.311 71.2168 172.875 71.2168C173.244 71.2168 174.129 71.2461 174.34 71.2754V72.0898C174.064 72.0605 173.244 72.0371 172.887 72.0371C172.002 72.0371 171.533 72.3652 171.533 73.0039V73.6602H174.34V74.5098H171.545V80H170.549ZM177.82 71.9375H178.805V73.6602H181.383V74.5098H178.816V78.0957C178.816 78.7871 179.303 79.1621 180.199 79.1621C180.557 79.1621 181.195 79.1445 181.365 79.127V79.9707C181.207 80 180.434 80.0293 180.129 80.0293C178.553 80.0293 177.82 79.4316 177.82 78.1074V74.5098H176.127V73.6602H177.82V71.9375ZM184.008 75.3594C184.008 74.2578 184.945 73.5195 186.346 73.5195C187.67 73.5195 188.566 74.1816 188.684 75.2422H187.723C187.605 74.6855 187.072 74.3457 186.328 74.3457C185.52 74.3457 184.998 74.7207 184.998 75.3008C184.998 75.7871 185.326 76.0625 186.123 76.2383L187.02 76.4434C188.256 76.7246 188.818 77.2637 188.818 78.1836C188.818 79.3555 187.84 80.1172 186.334 80.1172C184.893 80.1172 183.938 79.4434 183.826 78.3535H184.84C184.986 78.9395 185.549 79.2793 186.369 79.2793C187.236 79.2793 187.787 78.8867 187.787 78.2773C187.787 77.7734 187.477 77.5039 186.668 77.3223L185.725 77.1055C184.576 76.8418 184.008 76.2617 184.008 75.3594ZM193.74 75.5352C193.16 75.5352 192.68 75.043 192.68 74.4512C192.68 73.8594 193.16 73.3672 193.74 73.3672C194.32 73.3672 194.801 73.8594 194.801 74.4512C194.801 75.043 194.32 75.5352 193.74 75.5352ZM193.23 81.9512H192.287L193.014 78.1367H194.332L193.23 81.9512ZM205.969 80V71.1465H206.93V74.7676H207.012C207.346 73.9766 208.078 73.5312 209.051 73.5312C210.434 73.5312 211.184 74.3633 211.184 75.8809V80H210.188V76.1328C210.188 74.9902 209.719 74.4453 208.723 74.4453C207.674 74.4453 206.965 75.1777 206.965 76.2617V80H205.969ZM218.596 73.6426V80H217.641V78.8809H217.559C217.219 79.6719 216.492 80.1172 215.525 80.1172C214.143 80.1172 213.393 79.291 213.393 77.7676V73.6426H214.389V77.5156C214.389 78.6641 214.857 79.2031 215.848 79.2031C216.896 79.2031 217.6 78.4707 217.6 77.3867V73.6426H218.596ZM226.477 75.3184V80H225.58V75.6113C225.58 74.8379 225.299 74.4336 224.766 74.4336C224.209 74.4336 223.869 74.9199 223.869 75.7109V80H222.979V75.6055C222.979 74.8379 222.697 74.4336 222.158 74.4336C221.596 74.4336 221.244 74.9199 221.244 75.7109V80H220.348V73.6426H221.238V74.5391H221.344C221.502 73.9004 221.959 73.5254 222.557 73.5254C223.154 73.5254 223.576 73.8945 223.711 74.5215H223.816C223.98 73.9121 224.49 73.5254 225.129 73.5254C226.014 73.5254 226.477 74.1406 226.477 75.3184ZM230.186 80.1113C228.973 80.1113 228.164 79.3496 228.164 78.1953C228.164 77.0703 228.973 76.4023 230.42 76.3262L232.166 76.2383V75.6641C232.166 74.8672 231.68 74.4277 230.795 74.4277C230.062 74.4277 229.547 74.7383 229.383 75.2832H228.404C228.521 74.2637 229.506 73.5664 230.807 73.5664C232.301 73.5664 233.156 74.3281 233.156 75.6523V80.0059H232.207V79.0508H232.107C231.803 79.7305 231.111 80.1113 230.186 80.1113ZM230.473 79.2383C231.434 79.2383 232.166 78.5996 232.166 77.75V77L230.531 77.0762C229.641 77.1172 229.172 77.498 229.172 78.1602C229.172 78.8281 229.67 79.2383 230.473 79.2383ZM235.646 80V73.6426H236.602V74.7617H236.684C237.023 73.9707 237.75 73.5254 238.717 73.5254C240.1 73.5254 240.85 74.3516 240.85 75.875V80H239.854V76.127C239.854 74.9785 239.385 74.4395 238.395 74.4395C237.346 74.4395 236.643 75.1719 236.643 76.2559V80H235.646ZM243.352 75.3594C243.352 74.2578 244.289 73.5195 245.689 73.5195C247.014 73.5195 247.91 74.1816 248.027 75.2422H247.066C246.949 74.6855 246.416 74.3457 245.672 74.3457C244.863 74.3457 244.342 74.7207 244.342 75.3008C244.342 75.7871 244.67 76.0625 245.467 76.2383L246.363 76.4434C247.6 76.7246 248.162 77.2637 248.162 78.1836C248.162 79.3555 247.184 80.1172 245.678 80.1172C244.236 80.1172 243.281 79.4434 243.17 78.3535H244.184C244.33 78.9395 244.893 79.2793 245.713 79.2793C246.58 79.2793 247.131 78.8867 247.131 78.2773C247.131 77.7734 246.82 77.5039 246.012 77.3223L245.068 77.1055C243.92 76.8418 243.352 76.2617 243.352 75.3594ZM260.25 77.1523V79.2031H262.219V80H257.994V79.2031H259.277V74.4395H257.865V73.6426H260.238V75.2656H260.367C260.602 74.0879 261.393 73.4785 262.617 73.4785C262.98 73.4785 263.326 73.5312 263.537 73.6191V74.7383C263.244 74.6328 262.834 74.5625 262.488 74.5625C261.082 74.5625 260.25 75.5352 260.25 77.1523ZM269.637 78.3594H270.604C270.41 79.4082 269.402 80.1172 268.066 80.1172C266.32 80.1172 265.307 79.0684 265.307 77.2578V76.3027C265.307 74.627 266.379 73.5254 267.996 73.5254C269.648 73.5254 270.621 74.6211 270.621 76.4609V77.082H266.291V77.3398C266.291 78.5059 266.982 79.2559 268.066 79.2559C268.869 79.2559 269.461 78.916 269.637 78.3594ZM267.99 74.3809C266.93 74.3809 266.291 75.1074 266.291 76.3262H269.637C269.637 75.1133 269.016 74.3809 267.99 74.3809ZM274.4 80V74.5098H272.695V73.6602H274.4V73.0215C274.4 71.791 275.162 71.2168 276.727 71.2168C277.096 71.2168 277.98 71.2461 278.191 71.2754V72.0898C277.916 72.0605 277.096 72.0371 276.738 72.0371C275.854 72.0371 275.385 72.3652 275.385 73.0039V73.6602H278.191V74.5098H275.396V80H274.4ZM282.867 72.084C282.398 72.084 282.041 71.7324 282.041 71.2637C282.041 70.8008 282.398 70.4492 282.867 70.4492C283.336 70.4492 283.693 70.8008 283.693 71.2637C283.693 71.7324 283.336 72.084 282.867 72.084ZM285.533 80H280.266V79.1738H282.445V74.4688H280.283V73.6426H283.43V79.1738H285.533V80ZM287.572 80V73.6426H288.527V74.7617H288.609C288.949 73.9707 289.676 73.5254 290.643 73.5254C292.025 73.5254 292.775 74.3516 292.775 75.875V80H291.779V76.127C291.779 74.9785 291.311 74.4395 290.32 74.4395C289.271 74.4395 288.568 75.1719 288.568 76.2559V80H287.572ZM299.309 78.3594H300.275C300.082 79.4082 299.074 80.1172 297.738 80.1172C295.992 80.1172 294.979 79.0684 294.979 77.2578V76.3027C294.979 74.627 296.051 73.5254 297.668 73.5254C299.32 73.5254 300.293 74.6211 300.293 76.4609V77.082H295.963V77.3398C295.963 78.5059 296.654 79.2559 297.738 79.2559C298.541 79.2559 299.133 78.916 299.309 78.3594ZM297.662 74.3809C296.602 74.3809 295.963 75.1074 295.963 76.3262H299.309C299.309 75.1133 298.688 74.3809 297.662 74.3809ZM304.477 81.9453H303.533L304.26 78.1367H305.578L304.477 81.9453ZM322.031 80L321.299 77.5742H318.357L317.619 80H316.57L319.295 71.5449H320.396L323.121 80H322.031ZM319.816 72.7871L318.627 76.6895H321.029L319.846 72.7871H319.816ZM329.49 80H325.037V79.0801H326.748V72.4648H325.037V71.5449H329.49V72.4648H327.779V79.0801H329.49V80ZM341.848 77.1523V79.2031H343.816V80H339.592V79.2031H340.875V74.4395H339.463V73.6426H341.836V75.2656H341.965C342.199 74.0879 342.99 73.4785 344.215 73.4785C344.578 73.4785 344.924 73.5312 345.135 73.6191V74.7383C344.842 74.6328 344.432 74.5625 344.086 74.5625C342.68 74.5625 341.848 75.5352 341.848 77.1523ZM351.234 78.3594H352.201C352.008 79.4082 351 80.1172 349.664 80.1172C347.918 80.1172 346.904 79.0684 346.904 77.2578V76.3027C346.904 74.627 347.977 73.5254 349.594 73.5254C351.246 73.5254 352.219 74.6211 352.219 76.4609V77.082H347.889V77.3398C347.889 78.5059 348.58 79.2559 349.664 79.2559C350.467 79.2559 351.059 78.916 351.234 78.3594ZM349.588 74.3809C348.527 74.3809 347.889 75.1074 347.889 76.3262H351.234C351.234 75.1133 350.613 74.3809 349.588 74.3809ZM354.064 73.6426H355.131L356.906 78.9336H356.982L358.746 73.6426H359.807L357.486 80H356.391L354.064 73.6426ZM364.465 72.084C363.996 72.084 363.639 71.7324 363.639 71.2637C363.639 70.8008 363.996 70.4492 364.465 70.4492C364.934 70.4492 365.291 70.8008 365.291 71.2637C365.291 71.7324 364.934 72.084 364.465 72.084ZM367.131 80H361.863V79.1738H364.043V74.4688H361.881V73.6426H365.027V79.1738H367.131V80ZM369.457 75.3594C369.457 74.2578 370.395 73.5195 371.795 73.5195C373.119 73.5195 374.016 74.1816 374.133 75.2422H373.172C373.055 74.6855 372.521 74.3457 371.777 74.3457C370.969 74.3457 370.447 74.7207 370.447 75.3008C370.447 75.7871 370.775 76.0625 371.572 76.2383L372.469 76.4434C373.705 76.7246 374.268 77.2637 374.268 78.1836C374.268 79.3555 373.289 80.1172 371.783 80.1172C370.342 80.1172 369.387 79.4434 369.275 78.3535H370.289C370.436 78.9395 370.998 79.2793 371.818 79.2793C372.686 79.2793 373.236 78.8867 373.236 78.2773C373.236 77.7734 372.926 77.5039 372.117 77.3223L371.174 77.1055C370.025 76.8418 369.457 76.2617 369.457 75.3594ZM380.906 78.3594H381.873C381.68 79.4082 380.672 80.1172 379.336 80.1172C377.59 80.1172 376.576 79.0684 376.576 77.2578V76.3027C376.576 74.627 377.648 73.5254 379.266 73.5254C380.918 73.5254 381.891 74.6211 381.891 76.4609V77.082H377.561V77.3398C377.561 78.5059 378.252 79.2559 379.336 79.2559C380.139 79.2559 380.73 78.916 380.906 78.3594ZM379.26 74.3809C378.199 74.3809 377.561 75.1074 377.561 76.3262H380.906C380.906 75.1133 380.285 74.3809 379.26 74.3809ZM384.293 75.3594C384.293 74.2578 385.23 73.5195 386.631 73.5195C387.955 73.5195 388.852 74.1816 388.969 75.2422H388.008C387.891 74.6855 387.357 74.3457 386.613 74.3457C385.805 74.3457 385.283 74.7207 385.283 75.3008C385.283 75.7871 385.611 76.0625 386.408 76.2383L387.305 76.4434C388.541 76.7246 389.104 77.2637 389.104 78.1836C389.104 79.3555 388.125 80.1172 386.619 80.1172C385.178 80.1172 384.223 79.4434 384.111 78.3535H385.125C385.271 78.9395 385.834 79.2793 386.654 79.2793C387.521 79.2793 388.072 78.8867 388.072 78.2773C388.072 77.7734 387.762 77.5039 386.953 77.3223L386.01 77.1055C384.861 76.8418 384.293 76.2617 384.293 75.3594ZM405.152 76.7129H397.734V75.7871H405.152V76.7129ZM415.635 80.1113C414.422 80.1113 413.613 79.3496 413.613 78.1953C413.613 77.0703 414.422 76.4023 415.869 76.3262L417.615 76.2383V75.6641C417.615 74.8672 417.129 74.4277 416.244 74.4277C415.512 74.4277 414.996 74.7383 414.832 75.2832H413.854C413.971 74.2637 414.955 73.5664 416.256 73.5664C417.75 73.5664 418.605 74.3281 418.605 75.6523V80.0059H417.656V79.0508H417.557C417.252 79.7305 416.561 80.1113 415.635 80.1113ZM415.922 79.2383C416.883 79.2383 417.615 78.5996 417.615 77.75V77L415.98 77.0762C415.09 77.1172 414.621 77.498 414.621 78.1602C414.621 78.8281 415.119 79.2383 415.922 79.2383ZM426.475 80H421.207V79.1738H423.381V71.9727H421.225V71.1465H424.377V79.1738H426.475V80ZM433.893 80H428.625V79.1738H430.799V71.9727H428.643V71.1465H431.795V79.1738H433.893V80ZM445.951 80.1172C444.27 80.1172 443.197 79.0215 443.197 77.3047V76.3438C443.197 74.627 444.27 73.5312 445.951 73.5312C447.633 73.5312 448.705 74.627 448.705 76.3438V77.3047C448.705 79.0215 447.633 80.1172 445.951 80.1172ZM445.951 74.4102C444.861 74.4102 444.182 75.1836 444.182 76.4316V77.2109C444.182 78.4648 444.861 79.2324 445.951 79.2324C447.041 79.2324 447.721 78.4648 447.721 77.2109V76.4316C447.721 75.1836 447.041 74.4102 445.951 74.4102ZM450.768 80V73.6426H451.723V74.7617H451.805C452.145 73.9707 452.871 73.5254 453.838 73.5254C455.221 73.5254 455.971 74.3516 455.971 75.875V80H454.975V76.127C454.975 74.9785 454.506 74.4395 453.516 74.4395C452.467 74.4395 451.764 75.1719 451.764 76.2559V80H450.768ZM467.121 71.9375H468.105V73.6602H470.684V74.5098H468.117V78.0957C468.117 78.7871 468.604 79.1621 469.5 79.1621C469.857 79.1621 470.496 79.1445 470.666 79.127V79.9707C470.508 80 469.734 80.0293 469.43 80.0293C467.854 80.0293 467.121 79.4316 467.121 78.1074V74.5098H465.428V73.6602H467.121V71.9375ZM473.016 80V71.1465H473.977V74.7676H474.059C474.393 73.9766 475.125 73.5312 476.098 73.5312C477.48 73.5312 478.23 74.3633 478.23 75.8809V80H477.234V76.1328C477.234 74.9902 476.766 74.4453 475.77 74.4453C474.721 74.4453 474.012 75.1777 474.012 76.2617V80H473.016ZM484.758 78.3594H485.725C485.531 79.4082 484.523 80.1172 483.188 80.1172C481.441 80.1172 480.428 79.0684 480.428 77.2578V76.3027C480.428 74.627 481.5 73.5254 483.117 73.5254C484.77 73.5254 485.742 74.6211 485.742 76.4609V77.082H481.412V77.3398C481.412 78.5059 482.104 79.2559 483.188 79.2559C483.99 79.2559 484.582 78.916 484.758 78.3594ZM483.111 74.3809C482.051 74.3809 481.412 75.1074 481.412 76.3262H484.758C484.758 75.1133 484.137 74.3809 483.111 74.3809ZM495.562 75.3594C495.562 74.2578 496.5 73.5195 497.9 73.5195C499.225 73.5195 500.121 74.1816 500.238 75.2422H499.277C499.16 74.6855 498.627 74.3457 497.883 74.3457C497.074 74.3457 496.553 74.7207 496.553 75.3008C496.553 75.7871 496.881 76.0625 497.678 76.2383L498.574 76.4434C499.811 76.7246 500.373 77.2637 500.373 78.1836C500.373 79.3555 499.395 80.1172 497.889 80.1172C496.447 80.1172 495.492 79.4434 495.381 78.3535H496.395C496.541 78.9395 497.104 79.2793 497.924 79.2793C498.791 79.2793 499.342 78.8867 499.342 78.2773C499.342 77.7734 499.031 77.5039 498.223 77.3223L497.279 77.1055C496.131 76.8418 495.562 76.2617 495.562 75.3594ZM504.65 80.1113C503.438 80.1113 502.629 79.3496 502.629 78.1953C502.629 77.0703 503.438 76.4023 504.885 76.3262L506.631 76.2383V75.6641C506.631 74.8672 506.145 74.4277 505.26 74.4277C504.527 74.4277 504.012 74.7383 503.848 75.2832H502.869C502.986 74.2637 503.971 73.5664 505.271 73.5664C506.766 73.5664 507.621 74.3281 507.621 75.6523V80.0059H506.672V79.0508H506.572C506.268 79.7305 505.576 80.1113 504.65 80.1113ZM504.938 79.2383C505.898 79.2383 506.631 78.5996 506.631 77.75V77L504.996 77.0762C504.105 77.1172 503.637 77.498 503.637 78.1602C503.637 78.8281 504.135 79.2383 504.938 79.2383ZM515.777 75.3184V80H514.881V75.6113C514.881 74.8379 514.6 74.4336 514.066 74.4336C513.51 74.4336 513.17 74.9199 513.17 75.7109V80H512.279V75.6055C512.279 74.8379 511.998 74.4336 511.459 74.4336C510.896 74.4336 510.545 74.9199 510.545 75.7109V80H509.648V73.6426H510.539V74.5391H510.645C510.803 73.9004 511.26 73.5254 511.857 73.5254C512.455 73.5254 512.877 73.8945 513.012 74.5215H513.117C513.281 73.9121 513.791 73.5254 514.43 73.5254C515.314 73.5254 515.777 74.1406 515.777 75.3184ZM521.848 78.3594H522.814C522.621 79.4082 521.613 80.1172 520.277 80.1172C518.531 80.1172 517.518 79.0684 517.518 77.2578V76.3027C517.518 74.627 518.59 73.5254 520.207 73.5254C521.859 73.5254 522.832 74.6211 522.832 76.4609V77.082H518.502V77.3398C518.502 78.5059 519.193 79.2559 520.277 79.2559C521.08 79.2559 521.672 78.916 521.848 78.3594ZM520.201 74.3809C519.141 74.3809 518.502 75.1074 518.502 76.3262H521.848C521.848 75.1133 521.227 74.3809 520.201 74.3809ZM534.322 80.1113C533.109 80.1113 532.301 79.3496 532.301 78.1953C532.301 77.0703 533.109 76.4023 534.557 76.3262L536.303 76.2383V75.6641C536.303 74.8672 535.816 74.4277 534.932 74.4277C534.199 74.4277 533.684 74.7383 533.52 75.2832H532.541C532.658 74.2637 533.643 73.5664 534.943 73.5664C536.438 73.5664 537.293 74.3281 537.293 75.6523V80.0059H536.344V79.0508H536.244C535.939 79.7305 535.248 80.1113 534.322 80.1113ZM534.609 79.2383C535.57 79.2383 536.303 78.5996 536.303 77.75V77L534.668 77.0762C533.777 77.1172 533.309 77.498 533.309 78.1602C533.309 78.8281 533.807 79.2383 534.609 79.2383ZM542.133 77.1523V79.2031H544.102V80H539.877V79.2031H541.16V74.4395H539.748V73.6426H542.121V75.2656H542.25C542.484 74.0879 543.275 73.4785 544.5 73.4785C544.863 73.4785 545.209 73.5312 545.42 73.6191V74.7383C545.127 74.6328 544.717 74.5625 544.371 74.5625C542.965 74.5625 542.133 75.5352 542.133 77.1523ZM548.719 71.9375H549.703V73.6602H552.281V74.5098H549.715V78.0957C549.715 78.7871 550.201 79.1621 551.098 79.1621C551.455 79.1621 552.094 79.1445 552.264 79.127V79.9707C552.105 80 551.332 80.0293 551.027 80.0293C549.451 80.0293 548.719 79.4316 548.719 78.1074V74.5098H547.025V73.6602H548.719V71.9375ZM557.332 72.084C556.863 72.084 556.506 71.7324 556.506 71.2637C556.506 70.8008 556.863 70.4492 557.332 70.4492C557.801 70.4492 558.158 70.8008 558.158 71.2637C558.158 71.7324 557.801 72.084 557.332 72.084ZM559.998 80H554.73V79.1738H556.91V74.4688H554.748V73.6426H557.895V79.1738H559.998V80ZM563.701 80V74.5098H561.996V73.6602H563.701V73.0215C563.701 71.791 564.463 71.2168 566.027 71.2168C566.396 71.2168 567.281 71.2461 567.492 71.2754V72.0898C567.217 72.0605 566.396 72.0371 566.039 72.0371C565.154 72.0371 564.686 72.3652 564.686 73.0039V73.6602H567.492V74.5098H564.697V80H563.701ZM571.412 80.1113C570.199 80.1113 569.391 79.3496 569.391 78.1953C569.391 77.0703 570.199 76.4023 571.646 76.3262L573.393 76.2383V75.6641C573.393 74.8672 572.906 74.4277 572.021 74.4277C571.289 74.4277 570.773 74.7383 570.609 75.2832H569.631C569.748 74.2637 570.732 73.5664 572.033 73.5664C573.527 73.5664 574.383 74.3281 574.383 75.6523V80.0059H573.434V79.0508H573.334C573.029 79.7305 572.338 80.1113 571.412 80.1113ZM571.699 79.2383C572.66 79.2383 573.393 78.5996 573.393 77.75V77L571.758 77.0762C570.867 77.1172 570.398 77.498 570.398 78.1602C570.398 78.8281 570.896 79.2383 571.699 79.2383ZM582.123 75.623H581.139C581.016 74.8789 580.395 74.4102 579.574 74.4102C578.467 74.4102 577.852 75.166 577.852 76.5312V77.1055C577.852 78.4707 578.467 79.2207 579.574 79.2207C580.395 79.2207 581.016 78.7578 581.139 78.0312H582.123C581.965 79.3262 580.998 80.1172 579.592 80.1172C577.863 80.1172 576.855 79.0566 576.855 77.2344V76.4023C576.855 74.5801 577.863 73.5195 579.592 73.5195C580.998 73.5195 581.959 74.3164 582.123 75.623ZM585.809 71.9375H586.793V73.6602H589.371V74.5098H586.805V78.0957C586.805 78.7871 587.291 79.1621 588.188 79.1621C588.545 79.1621 589.184 79.1445 589.354 79.127V79.9707C589.195 80 588.422 80.0293 588.117 80.0293C586.541 80.0293 585.809 79.4316 585.809 78.1074V74.5098H584.115V73.6602H585.809V71.9375ZM594.311 80.0352C593.73 80.0352 593.25 79.5488 593.25 78.9512C593.25 78.3594 593.73 77.873 594.311 77.873C594.891 77.873 595.371 78.3594 595.371 78.9512C595.371 79.5488 594.891 80.0352 594.311 80.0352ZM18.8086 116.455C18.8086 118.793 17.6309 120.176 15.709 120.176C13.7871 120.176 12.6094 118.793 12.6094 116.455V115.09C12.6094 112.752 13.7871 111.369 15.709 111.369C17.6309 111.369 18.8086 112.752 18.8086 115.09V116.455ZM15.709 119.197C16.9922 119.197 17.7656 118.213 17.7656 116.449V115.096C17.7656 113.332 16.9922 112.348 15.709 112.348C14.4258 112.348 13.6523 113.332 13.6523 115.096V116.449C13.6523 118.213 14.4258 119.197 15.709 119.197ZM20.5254 120V113.643H21.4805V114.762H21.5625C21.9023 113.971 22.6289 113.525 23.5957 113.525C24.9785 113.525 25.7285 114.352 25.7285 115.875V120H24.7324V116.127C24.7324 114.979 24.2637 114.439 23.2734 114.439C22.2246 114.439 21.5215 115.172 21.5215 116.256V120H20.5254ZM33.1934 115.623H32.209C32.0859 114.879 31.4648 114.41 30.6445 114.41C29.5371 114.41 28.9219 115.166 28.9219 116.531V117.105C28.9219 118.471 29.5371 119.221 30.6445 119.221C31.4648 119.221 32.0859 118.758 32.209 118.031H33.1934C33.0352 119.326 32.0684 120.117 30.6621 120.117C28.9336 120.117 27.9258 119.057 27.9258 117.234V116.402C27.9258 114.58 28.9336 113.52 30.6621 113.52C32.0684 113.52 33.0293 114.316 33.1934 115.623ZM39.6797 118.359H40.6465C40.4531 119.408 39.4453 120.117 38.1094 120.117C36.3633 120.117 35.3496 119.068 35.3496 117.258V116.303C35.3496 114.627 36.4219 113.525 38.0391 113.525C39.6914 113.525 40.6641 114.621 40.6641 116.461V117.082H36.334V117.34C36.334 118.506 37.0254 119.256 38.1094 119.256C38.9121 119.256 39.5039 118.916 39.6797 118.359ZM38.0332 114.381C36.9727 114.381 36.334 115.107 36.334 116.326H39.6797C39.6797 115.113 39.0586 114.381 38.0332 114.381ZM51.0176 122.262C50.8711 122.262 50.6777 122.256 50.5898 122.244V121.371C50.666 121.389 50.8477 121.395 50.9414 121.395C51.5391 121.395 51.8672 121.125 52.1309 120.387L52.2422 120.041L49.9043 113.643H50.9883L52.7695 118.963H52.8457L54.6211 113.643H55.6816L53.2852 120.234C52.7285 121.799 52.1953 122.262 51.0176 122.262ZM60.2168 120.117C58.5352 120.117 57.4629 119.021 57.4629 117.305V116.344C57.4629 114.627 58.5352 113.531 60.2168 113.531C61.8984 113.531 62.9707 114.627 62.9707 116.344V117.305C62.9707 119.021 61.8984 120.117 60.2168 120.117ZM60.2168 114.41C59.127 114.41 58.4473 115.184 58.4473 116.432V117.211C58.4473 118.465 59.127 119.232 60.2168 119.232C61.3066 119.232 61.9863 118.465 61.9863 117.211V116.432C61.9863 115.184 61.3066 114.41 60.2168 114.41ZM70.2363 113.643V120H69.2812V118.881H69.1992C68.8594 119.672 68.1328 120.117 67.166 120.117C65.7832 120.117 65.0332 119.291 65.0332 117.768V113.643H66.0293V117.516C66.0293 118.664 66.498 119.203 67.4883 119.203C68.5371 119.203 69.2402 118.471 69.2402 117.387V113.643H70.2363ZM85.9043 113.643L84.5391 120H83.584L82.5059 115.043H82.4355L81.3574 120H80.4023L79.0371 113.643H80.0098L80.8711 118.74H80.9766L82.002 113.648H82.9395L83.9648 118.74H84.0703L84.9316 113.643H85.9043ZM89.8887 120.117C88.207 120.117 87.1348 119.021 87.1348 117.305V116.344C87.1348 114.627 88.207 113.531 89.8887 113.531C91.5703 113.531 92.6426 114.627 92.6426 116.344V117.305C92.6426 119.021 91.5703 120.117 89.8887 120.117ZM89.8887 114.41C88.7988 114.41 88.1191 115.184 88.1191 116.432V117.211C88.1191 118.465 88.7988 119.232 89.8887 119.232C90.9785 119.232 91.6582 118.465 91.6582 117.211V116.432C91.6582 115.184 90.9785 114.41 89.8887 114.41ZM97.0547 117.152V119.203H99.0234V120H94.7988V119.203H96.082V114.439H94.6699V113.643H97.043V115.266H97.1719C97.4062 114.088 98.1973 113.479 99.4219 113.479C99.7852 113.479 100.131 113.531 100.342 113.619V114.738C100.049 114.633 99.6387 114.562 99.293 114.562C97.8867 114.562 97.0547 115.535 97.0547 117.152ZM103.664 116.496L106.436 113.643H107.643L105.176 116.162L107.818 120H106.635L104.467 116.842L103.588 117.686V120H102.592V111.146H103.588V116.496H103.664ZM118.477 111.938H119.461V113.66H122.039V114.51H119.473V118.096C119.473 118.787 119.959 119.162 120.855 119.162C121.213 119.162 121.852 119.145 122.021 119.127V119.971C121.863 120 121.09 120.029 120.785 120.029C119.209 120.029 118.477 119.432 118.477 118.107V114.51H116.783V113.66H118.477V111.938ZM124.371 120V111.146H125.332V114.768H125.414C125.748 113.977 126.48 113.531 127.453 113.531C128.836 113.531 129.586 114.363 129.586 115.881V120H128.59V116.133C128.59 114.99 128.121 114.445 127.125 114.445C126.076 114.445 125.367 115.178 125.367 116.262V120H124.371ZM134.508 112.084C134.039 112.084 133.682 111.732 133.682 111.264C133.682 110.801 134.039 110.449 134.508 110.449C134.977 110.449 135.334 110.801 135.334 111.264C135.334 111.732 134.977 112.084 134.508 112.084ZM137.174 120H131.906V119.174H134.086V114.469H131.924V113.643H135.07V119.174H137.174V120ZM139.5 115.359C139.5 114.258 140.438 113.52 141.838 113.52C143.162 113.52 144.059 114.182 144.176 115.242H143.215C143.098 114.686 142.564 114.346 141.82 114.346C141.012 114.346 140.49 114.721 140.49 115.301C140.49 115.787 140.818 116.062 141.615 116.238L142.512 116.443C143.748 116.725 144.311 117.264 144.311 118.184C144.311 119.355 143.332 120.117 141.826 120.117C140.385 120.117 139.43 119.443 139.318 118.354H140.332C140.479 118.939 141.041 119.279 141.861 119.279C142.729 119.279 143.279 118.887 143.279 118.277C143.279 117.773 142.969 117.504 142.16 117.322L141.217 117.105C140.068 116.842 139.5 116.262 139.5 115.359ZM160.084 113.643L158.719 120H157.764L156.686 115.043H156.615L155.537 120H154.582L153.217 113.643H154.189L155.051 118.74H155.156L156.182 113.648H157.119L158.145 118.74H158.25L159.111 113.643H160.084ZM163.424 120.111C162.211 120.111 161.402 119.35 161.402 118.195C161.402 117.07 162.211 116.402 163.658 116.326L165.404 116.238V115.664C165.404 114.867 164.918 114.428 164.033 114.428C163.301 114.428 162.785 114.738 162.621 115.283H161.643C161.76 114.264 162.744 113.566 164.045 113.566C165.539 113.566 166.395 114.328 166.395 115.652V120.006H165.445V119.051H165.346C165.041 119.73 164.35 120.111 163.424 120.111ZM163.711 119.238C164.672 119.238 165.404 118.6 165.404 117.75V117L163.77 117.076C162.879 117.117 162.41 117.498 162.41 118.16C162.41 118.828 162.908 119.238 163.711 119.238ZM169.705 122.262C169.559 122.262 169.365 122.256 169.277 122.244V121.371C169.354 121.389 169.535 121.395 169.629 121.395C170.227 121.395 170.555 121.125 170.818 120.387L170.93 120.041L168.592 113.643H169.676L171.457 118.963H171.533L173.309 113.643H174.369L171.973 120.234C171.416 121.799 170.883 122.262 169.705 122.262ZM178.371 121.945H177.428L178.154 118.137H179.473L178.371 121.945ZM193.852 112.084C193.383 112.084 193.025 111.732 193.025 111.264C193.025 110.801 193.383 110.449 193.852 110.449C194.32 110.449 194.678 110.801 194.678 111.264C194.678 111.732 194.32 112.084 193.852 112.084ZM196.518 120H191.25V119.174H193.43V114.469H191.268V113.643H194.414V119.174H196.518V120ZM200.074 111.938H201.059V113.66H203.637V114.51H201.07V118.096C201.07 118.787 201.557 119.162 202.453 119.162C202.811 119.162 203.449 119.145 203.619 119.127V119.971C203.461 120 202.688 120.029 202.383 120.029C200.807 120.029 200.074 119.432 200.074 118.107V114.51H198.381V113.66H200.074V111.938ZM209.109 115.359H208.043V111.545H209.109V115.359ZM213.68 115.359C213.68 114.258 214.617 113.52 216.018 113.52C217.342 113.52 218.238 114.182 218.355 115.242H217.395C217.277 114.686 216.744 114.346 216 114.346C215.191 114.346 214.67 114.721 214.67 115.301C214.67 115.787 214.998 116.062 215.795 116.238L216.691 116.443C217.928 116.725 218.49 117.264 218.49 118.184C218.49 119.355 217.512 120.117 216.006 120.117C214.564 120.117 213.609 119.443 213.498 118.354H214.512C214.658 118.939 215.221 119.279 216.041 119.279C216.908 119.279 217.459 118.887 217.459 118.277C217.459 117.773 217.148 117.504 216.34 117.322L215.396 117.105C214.248 116.842 213.68 116.262 213.68 115.359ZM228.223 120V111.146H229.184V114.768H229.266C229.6 113.977 230.332 113.531 231.305 113.531C232.688 113.531 233.438 114.363 233.438 115.881V120H232.441V116.133C232.441 114.99 231.973 114.445 230.977 114.445C229.928 114.445 229.219 115.178 229.219 116.262V120H228.223ZM237.604 120.111C236.391 120.111 235.582 119.35 235.582 118.195C235.582 117.07 236.391 116.402 237.838 116.326L239.584 116.238V115.664C239.584 114.867 239.098 114.428 238.213 114.428C237.48 114.428 236.965 114.738 236.801 115.283H235.822C235.939 114.264 236.924 113.566 238.225 113.566C239.719 113.566 240.574 114.328 240.574 115.652V120.006H239.625V119.051H239.525C239.221 119.73 238.529 120.111 237.604 120.111ZM237.891 119.238C238.852 119.238 239.584 118.6 239.584 117.75V117L237.949 117.076C237.059 117.117 236.59 117.498 236.59 118.16C236.59 118.828 237.088 119.238 237.891 119.238ZM245.414 117.152V119.203H247.383V120H243.158V119.203H244.441V114.439H243.029V113.643H245.402V115.266H245.531C245.766 114.088 246.557 113.479 247.781 113.479C248.145 113.479 248.49 113.531 248.701 113.619V114.738C248.408 114.633 247.998 114.562 247.652 114.562C246.246 114.562 245.414 115.535 245.414 117.152ZM252.686 120.105C251.215 120.105 250.254 119.045 250.254 117.41V116.227C250.254 114.598 251.215 113.537 252.686 113.537C253.605 113.537 254.285 113.93 254.561 114.627H254.666V111.146H255.68V120H254.701V119.027H254.59C254.262 119.73 253.594 120.105 252.686 120.105ZM252.979 119.197C254.021 119.197 254.695 118.447 254.695 117.27V116.355C254.695 115.184 254.021 114.434 252.979 114.434C251.93 114.434 251.256 115.184 251.256 116.355V117.27C251.256 118.441 251.93 119.197 252.979 119.197ZM266.836 111.938H267.82V113.66H270.398V114.51H267.832V118.096C267.832 118.787 268.318 119.162 269.215 119.162C269.572 119.162 270.211 119.145 270.381 119.127V119.971C270.223 120 269.449 120.029 269.145 120.029C267.568 120.029 266.836 119.432 266.836 118.107V114.51H265.143V113.66H266.836V111.938ZM275.338 120.117C273.656 120.117 272.584 119.021 272.584 117.305V116.344C272.584 114.627 273.656 113.531 275.338 113.531C277.02 113.531 278.092 114.627 278.092 116.344V117.305C278.092 119.021 277.02 120.117 275.338 120.117ZM275.338 114.41C274.248 114.41 273.568 115.184 273.568 116.432V117.211C273.568 118.465 274.248 119.232 275.338 119.232C276.428 119.232 277.107 118.465 277.107 117.211V116.432C277.107 115.184 276.428 114.41 275.338 114.41ZM289.986 122.385C288.516 122.385 287.531 121.74 287.402 120.686H288.387C288.516 121.213 289.154 121.559 290.004 121.559C291.117 121.559 291.732 120.996 291.732 119.977V118.986H291.627C291.346 119.654 290.643 120.059 289.717 120.059C288.246 120.059 287.279 118.998 287.279 117.369V116.227C287.279 114.592 288.252 113.537 289.74 113.537C290.66 113.537 291.357 113.941 291.633 114.627H291.744V113.643H292.729V120C292.729 121.494 291.709 122.385 289.986 122.385ZM288.281 117.229C288.281 118.395 288.961 119.156 290.016 119.156C291.064 119.156 291.738 118.4 291.738 117.229V116.355C291.738 115.184 291.064 114.434 290.016 114.434C288.961 114.434 288.281 115.189 288.281 116.355V117.229ZM297.592 120.117C295.91 120.117 294.838 119.021 294.838 117.305V116.344C294.838 114.627 295.91 113.531 297.592 113.531C299.273 113.531 300.346 114.627 300.346 116.344V117.305C300.346 119.021 299.273 120.117 297.592 120.117ZM297.592 114.41C296.502 114.41 295.822 115.184 295.822 116.432V117.211C295.822 118.465 296.502 119.232 297.592 119.232C298.682 119.232 299.361 118.465 299.361 117.211V116.432C299.361 115.184 298.682 114.41 297.592 114.41ZM312.826 120.105C311.918 120.105 311.25 119.73 310.922 119.027H310.811V120H309.832V111.146H310.846V114.627H310.951C311.232 113.93 311.906 113.537 312.826 113.537C314.297 113.537 315.258 114.598 315.258 116.227V117.41C315.258 119.045 314.297 120.105 312.826 120.105ZM312.533 119.197C313.588 119.197 314.256 118.441 314.256 117.27V116.355C314.256 115.184 313.588 114.434 312.533 114.434C311.49 114.434 310.822 115.184 310.822 116.355V117.27C310.822 118.447 311.49 119.197 312.533 119.197ZM319.201 120.111C317.988 120.111 317.18 119.35 317.18 118.195C317.18 117.07 317.988 116.402 319.436 116.326L321.182 116.238V115.664C321.182 114.867 320.695 114.428 319.811 114.428C319.078 114.428 318.562 114.738 318.398 115.283H317.42C317.537 114.264 318.521 113.566 319.822 113.566C321.316 113.566 322.172 114.328 322.172 115.652V120.006H321.223V119.051H321.123C320.818 119.73 320.127 120.111 319.201 120.111ZM319.488 119.238C320.449 119.238 321.182 118.6 321.182 117.75V117L319.547 117.076C318.656 117.117 318.188 117.498 318.188 118.16C318.188 118.828 318.686 119.238 319.488 119.238ZM329.912 115.623H328.928C328.805 114.879 328.184 114.41 327.363 114.41C326.256 114.41 325.641 115.166 325.641 116.531V117.105C325.641 118.471 326.256 119.221 327.363 119.221C328.184 119.221 328.805 118.758 328.928 118.031H329.912C329.754 119.326 328.787 120.117 327.381 120.117C325.652 120.117 324.645 119.057 324.645 117.234V116.402C324.645 114.58 325.652 113.52 327.381 113.52C328.787 113.52 329.748 114.316 329.912 115.623ZM333.621 116.496L336.393 113.643H337.6L335.133 116.162L337.775 120H336.592L334.424 116.842L333.545 117.686V120H332.549V111.146H333.545V116.496H333.621ZM342.1 120.035C341.52 120.035 341.039 119.549 341.039 118.951C341.039 118.359 341.52 117.873 342.1 117.873C342.68 117.873 343.16 118.359 343.16 118.951C343.16 119.549 342.68 120.035 342.1 120.035ZM359.162 120H354.709V119.08H356.42V112.465H354.709V111.545H359.162V112.465H357.451V119.08H359.162V120ZM363.27 111.938H364.254V113.66H366.832V114.51H364.266V118.096C364.266 118.787 364.752 119.162 365.648 119.162C366.006 119.162 366.645 119.145 366.814 119.127V119.971C366.656 120 365.883 120.029 365.578 120.029C364.002 120.029 363.27 119.432 363.27 118.107V114.51H361.576V113.66H363.27V111.938ZM382.254 115.318V120H381.357V115.611C381.357 114.838 381.076 114.434 380.543 114.434C379.986 114.434 379.646 114.92 379.646 115.711V120H378.756V115.605C378.756 114.838 378.475 114.434 377.936 114.434C377.373 114.434 377.021 114.92 377.021 115.711V120H376.125V113.643H377.016V114.539H377.121C377.279 113.9 377.736 113.525 378.334 113.525C378.932 113.525 379.354 113.895 379.488 114.521H379.594C379.758 113.912 380.268 113.525 380.906 113.525C381.791 113.525 382.254 114.141 382.254 115.318ZM385.963 120.111C384.75 120.111 383.941 119.35 383.941 118.195C383.941 117.07 384.75 116.402 386.197 116.326L387.943 116.238V115.664C387.943 114.867 387.457 114.428 386.572 114.428C385.84 114.428 385.324 114.738 385.16 115.283H384.182C384.299 114.264 385.283 113.566 386.584 113.566C388.078 113.566 388.934 114.328 388.934 115.652V120.006H387.984V119.051H387.885C387.58 119.73 386.889 120.111 385.963 120.111ZM386.25 119.238C387.211 119.238 387.943 118.6 387.943 117.75V117L386.309 117.076C385.418 117.117 384.949 117.498 384.949 118.16C384.949 118.828 385.447 119.238 386.25 119.238ZM392.244 122.262C392.098 122.262 391.904 122.256 391.816 122.244V121.371C391.893 121.389 392.074 121.395 392.168 121.395C392.766 121.395 393.094 121.125 393.357 120.387L393.469 120.041L391.131 113.643H392.215L393.996 118.963H394.072L395.848 113.643H396.908L394.512 120.234C393.955 121.799 393.422 122.262 392.244 122.262ZM409.26 120.105C408.352 120.105 407.684 119.73 407.355 119.027H407.244V120H406.266V111.146H407.279V114.627H407.385C407.666 113.93 408.34 113.537 409.26 113.537C410.73 113.537 411.691 114.598 411.691 116.227V117.41C411.691 119.045 410.73 120.105 409.26 120.105ZM408.967 119.197C410.021 119.197 410.689 118.441 410.689 117.27V116.355C410.689 115.184 410.021 114.434 408.967 114.434C407.924 114.434 407.256 115.184 407.256 116.355V117.27C407.256 118.447 407.924 119.197 408.967 119.197ZM417.996 118.359H418.963C418.77 119.408 417.762 120.117 416.426 120.117C414.68 120.117 413.666 119.068 413.666 117.258V116.303C413.666 114.627 414.738 113.525 416.355 113.525C418.008 113.525 418.98 114.621 418.98 116.461V117.082H414.65V117.34C414.65 118.506 415.342 119.256 416.426 119.256C417.229 119.256 417.82 118.916 417.996 118.359ZM416.35 114.381C415.289 114.381 414.65 115.107 414.65 116.326H417.996C417.996 115.113 417.375 114.381 416.35 114.381ZM430.031 111.938H431.016V113.66H433.594V114.51H431.027V118.096C431.027 118.787 431.514 119.162 432.41 119.162C432.768 119.162 433.406 119.145 433.576 119.127V119.971C433.418 120 432.645 120.029 432.34 120.029C430.764 120.029 430.031 119.432 430.031 118.107V114.51H428.338V113.66H430.031V111.938ZM435.926 120V111.146H436.887V114.768H436.969C437.303 113.977 438.035 113.531 439.008 113.531C440.391 113.531 441.141 114.363 441.141 115.881V120H440.145V116.133C440.145 114.99 439.676 114.445 438.68 114.445C437.631 114.445 436.922 115.178 436.922 116.262V120H435.926ZM447.668 118.359H448.635C448.441 119.408 447.434 120.117 446.098 120.117C444.352 120.117 443.338 119.068 443.338 117.258V116.303C443.338 114.627 444.41 113.525 446.027 113.525C447.68 113.525 448.652 114.621 448.652 116.461V117.082H444.322V117.34C444.322 118.506 445.014 119.256 446.098 119.256C446.9 119.256 447.492 118.916 447.668 118.359ZM446.021 114.381C444.961 114.381 444.322 115.107 444.322 116.326H447.668C447.668 115.113 447.047 114.381 446.021 114.381ZM463.852 115.318V120H462.955V115.611C462.955 114.838 462.674 114.434 462.141 114.434C461.584 114.434 461.244 114.92 461.244 115.711V120H460.354V115.605C460.354 114.838 460.072 114.434 459.533 114.434C458.971 114.434 458.619 114.92 458.619 115.711V120H457.723V113.643H458.613V114.539H458.719C458.877 113.9 459.334 113.525 459.932 113.525C460.529 113.525 460.951 113.895 461.086 114.521H461.191C461.355 113.912 461.865 113.525 462.504 113.525C463.389 113.525 463.852 114.141 463.852 115.318ZM468.205 120.117C466.523 120.117 465.451 119.021 465.451 117.305V116.344C465.451 114.627 466.523 113.531 468.205 113.531C469.887 113.531 470.959 114.627 470.959 116.344V117.305C470.959 119.021 469.887 120.117 468.205 120.117ZM468.205 114.41C467.115 114.41 466.436 115.184 466.436 116.432V117.211C466.436 118.465 467.115 119.232 468.205 119.232C469.295 119.232 469.975 118.465 469.975 117.211V116.432C469.975 115.184 469.295 114.41 468.205 114.41ZM473.309 115.359C473.309 114.258 474.246 113.52 475.646 113.52C476.971 113.52 477.867 114.182 477.984 115.242H477.023C476.906 114.686 476.373 114.346 475.629 114.346C474.82 114.346 474.299 114.721 474.299 115.301C474.299 115.787 474.627 116.062 475.424 116.238L476.32 116.443C477.557 116.725 478.119 117.264 478.119 118.184C478.119 119.355 477.141 120.117 475.635 120.117C474.193 120.117 473.238 119.443 473.127 118.354H474.141C474.287 118.939 474.85 119.279 475.67 119.279C476.537 119.279 477.088 118.887 477.088 118.277C477.088 117.773 476.777 117.504 475.969 117.322L475.025 117.105C473.877 116.842 473.309 116.262 473.309 115.359ZM481.957 111.938H482.941V113.66H485.52V114.51H482.953V118.096C482.953 118.787 483.439 119.162 484.336 119.162C484.693 119.162 485.332 119.145 485.502 119.127V119.971C485.344 120 484.57 120.029 484.266 120.029C482.689 120.029 481.957 119.432 481.957 118.107V114.51H480.264V113.66H481.957V111.938ZM497.988 112.084C497.52 112.084 497.162 111.732 497.162 111.264C497.162 110.801 497.52 110.449 497.988 110.449C498.457 110.449 498.814 110.801 498.814 111.264C498.814 111.732 498.457 112.084 497.988 112.084ZM500.654 120H495.387V119.174H497.566V114.469H495.404V113.643H498.551V119.174H500.654V120ZM508.359 115.318V120H507.463V115.611C507.463 114.838 507.182 114.434 506.648 114.434C506.092 114.434 505.752 114.92 505.752 115.711V120H504.861V115.605C504.861 114.838 504.58 114.434 504.041 114.434C503.479 114.434 503.127 114.92 503.127 115.711V120H502.23V113.643H503.121V114.539H503.227C503.385 113.9 503.842 113.525 504.439 113.525C505.037 113.525 505.459 113.895 505.594 114.521H505.699C505.863 113.912 506.373 113.525 507.012 113.525C507.896 113.525 508.359 114.141 508.359 115.318ZM513.111 113.537C514.582 113.537 515.543 114.598 515.543 116.232V117.416C515.543 119.045 514.582 120.105 513.111 120.105C512.191 120.105 511.518 119.713 511.242 119.016H511.131V122.145H510.117V113.643H511.102V114.615H511.207C511.541 113.912 512.203 113.537 513.111 113.537ZM512.824 114.451C511.775 114.451 511.107 115.201 511.107 116.373V117.287C511.107 118.465 511.775 119.215 512.824 119.215C513.873 119.215 514.541 118.459 514.541 117.287V116.373C514.541 115.201 513.873 114.451 512.824 114.451ZM520.131 120.117C518.449 120.117 517.377 119.021 517.377 117.305V116.344C517.377 114.627 518.449 113.531 520.131 113.531C521.812 113.531 522.885 114.627 522.885 116.344V117.305C522.885 119.021 521.812 120.117 520.131 120.117ZM520.131 114.41C519.041 114.41 518.361 115.184 518.361 116.432V117.211C518.361 118.465 519.041 119.232 520.131 119.232C521.221 119.232 521.9 118.465 521.9 117.211V116.432C521.9 115.184 521.221 114.41 520.131 114.41ZM527.297 117.152V119.203H529.266V120H525.041V119.203H526.324V114.439H524.912V113.643H527.285V115.266H527.414C527.648 114.088 528.439 113.479 529.664 113.479C530.027 113.479 530.373 113.531 530.584 113.619V114.738C530.291 114.633 529.881 114.562 529.535 114.562C528.129 114.562 527.297 115.535 527.297 117.152ZM533.883 111.938H534.867V113.66H537.445V114.51H534.879V118.096C534.879 118.787 535.365 119.162 536.262 119.162C536.619 119.162 537.258 119.145 537.428 119.127V119.971C537.27 120 536.496 120.029 536.191 120.029C534.615 120.029 533.883 119.432 533.883 118.107V114.51H532.189V113.66H533.883V111.938ZM541.74 120.111C540.527 120.111 539.719 119.35 539.719 118.195C539.719 117.07 540.527 116.402 541.975 116.326L543.721 116.238V115.664C543.721 114.867 543.234 114.428 542.35 114.428C541.617 114.428 541.102 114.738 540.938 115.283H539.959C540.076 114.264 541.061 113.566 542.361 113.566C543.855 113.566 544.711 114.328 544.711 115.652V120.006H543.762V119.051H543.662C543.357 119.73 542.666 120.111 541.74 120.111ZM542.027 119.238C542.988 119.238 543.721 118.6 543.721 117.75V117L542.086 117.076C541.195 117.117 540.727 117.498 540.727 118.16C540.727 118.828 541.225 119.238 542.027 119.238ZM547.201 120V113.643H548.156V114.762H548.238C548.578 113.971 549.305 113.525 550.271 113.525C551.654 113.525 552.404 114.352 552.404 115.875V120H551.408V116.127C551.408 114.979 550.939 114.439 549.949 114.439C548.9 114.439 548.197 115.172 548.197 116.256V120H547.201ZM556.137 111.938H557.121V113.66H559.699V114.51H557.133V118.096C557.133 118.787 557.619 119.162 558.516 119.162C558.873 119.162 559.512 119.145 559.682 119.127V119.971C559.523 120 558.75 120.029 558.445 120.029C556.869 120.029 556.137 119.432 556.137 118.107V114.51H554.443V113.66H556.137V111.938ZM569.742 115.359C569.742 114.258 570.68 113.52 572.08 113.52C573.404 113.52 574.301 114.182 574.418 115.242H573.457C573.34 114.686 572.807 114.346 572.062 114.346C571.254 114.346 570.732 114.721 570.732 115.301C570.732 115.787 571.061 116.062 571.857 116.238L572.754 116.443C573.99 116.725 574.553 117.264 574.553 118.184C574.553 119.355 573.574 120.117 572.068 120.117C570.627 120.117 569.672 119.443 569.561 118.354H570.574C570.721 118.939 571.283 119.279 572.104 119.279C572.971 119.279 573.521 118.887 573.521 118.277C573.521 117.773 573.211 117.504 572.402 117.322L571.459 117.105C570.311 116.842 569.742 116.262 569.742 115.359ZM576.867 120V111.146H577.828V114.768H577.91C578.244 113.977 578.977 113.531 579.949 113.531C581.332 113.531 582.082 114.363 582.082 115.881V120H581.086V116.133C581.086 114.99 580.617 114.445 579.621 114.445C578.572 114.445 577.863 115.178 577.863 116.262V120H576.867ZM587.004 112.084C586.535 112.084 586.178 111.732 586.178 111.264C586.178 110.801 586.535 110.449 587.004 110.449C587.473 110.449 587.83 110.801 587.83 111.264C587.83 111.732 587.473 112.084 587.004 112.084ZM589.67 120H584.402V119.174H586.582V114.469H584.42V113.643H587.566V119.174H589.67V120ZM593.373 120V114.51H591.668V113.66H593.373V113.021C593.373 111.791 594.135 111.217 595.699 111.217C596.068 111.217 596.953 111.246 597.164 111.275V112.09C596.889 112.061 596.068 112.037 595.711 112.037C594.826 112.037 594.357 112.365 594.357 113.004V113.66H597.164V114.51H594.369V120H593.373ZM600.645 111.938H601.629V113.66H604.207V114.51H601.641V118.096C601.641 118.787 602.127 119.162 603.023 119.162C603.381 119.162 604.02 119.145 604.189 119.127V119.971C604.031 120 603.258 120.029 602.953 120.029C601.377 120.029 600.645 119.432 600.645 118.107V114.51H598.951V113.66H600.645V111.938ZM13.3945 135.359C13.3945 134.258 14.332 133.52 15.7324 133.52C17.0566 133.52 17.9531 134.182 18.0703 135.242H17.1094C16.9922 134.686 16.459 134.346 15.7148 134.346C14.9062 134.346 14.3848 134.721 14.3848 135.301C14.3848 135.787 14.7129 136.062 15.5098 136.238L16.4062 136.443C17.6426 136.725 18.2051 137.264 18.2051 138.184C18.2051 139.355 17.2266 140.117 15.7207 140.117C14.2793 140.117 13.3242 139.443 13.2129 138.354H14.2266C14.373 138.939 14.9355 139.279 15.7559 139.279C16.623 139.279 17.1738 138.887 17.1738 138.277C17.1738 137.773 16.8633 137.504 16.0547 137.322L15.1113 137.105C13.9629 136.842 13.3945 136.262 13.3945 135.359ZM23.2383 132.084C22.7695 132.084 22.4121 131.732 22.4121 131.264C22.4121 130.801 22.7695 130.449 23.2383 130.449C23.707 130.449 24.0645 130.801 24.0645 131.264C24.0645 131.732 23.707 132.084 23.2383 132.084ZM25.9043 140H20.6367V139.174H22.8164V134.469H20.6543V133.643H23.8008V139.174H25.9043V140ZM27.9434 140V133.643H28.8984V134.762H28.9805C29.3203 133.971 30.0469 133.525 31.0137 133.525C32.3965 133.525 33.1465 134.352 33.1465 135.875V140H32.1504V136.127C32.1504 134.979 31.6816 134.439 30.6914 134.439C29.6426 134.439 28.9395 135.172 28.9395 136.256V140H27.9434ZM40.6113 135.623H39.627C39.5039 134.879 38.8828 134.41 38.0625 134.41C36.9551 134.41 36.3398 135.166 36.3398 136.531V137.105C36.3398 138.471 36.9551 139.221 38.0625 139.221C38.8828 139.221 39.5039 138.758 39.627 138.031H40.6113C40.4531 139.326 39.4863 140.117 38.0801 140.117C36.3516 140.117 35.3438 139.057 35.3438 137.234V136.402C35.3438 134.58 36.3516 133.52 38.0801 133.52C39.4863 133.52 40.4473 134.316 40.6113 135.623ZM47.0977 138.359H48.0645C47.8711 139.408 46.8633 140.117 45.5273 140.117C43.7812 140.117 42.7676 139.068 42.7676 137.258V136.303C42.7676 134.627 43.8398 133.525 45.457 133.525C47.1094 133.525 48.082 134.621 48.082 136.461V137.082H43.752V137.34C43.752 138.506 44.4434 139.256 45.5273 139.256C46.3301 139.256 46.9219 138.916 47.0977 138.359ZM45.4512 134.381C44.3906 134.381 43.752 135.107 43.752 136.326H47.0977C47.0977 135.113 46.4766 134.381 45.4512 134.381ZM59.1328 131.938H60.1172V133.66H62.6953V134.51H60.1289V138.096C60.1289 138.787 60.6152 139.162 61.5117 139.162C61.8691 139.162 62.5078 139.145 62.6777 139.127V139.971C62.5195 140 61.7461 140.029 61.4414 140.029C59.8652 140.029 59.1328 139.432 59.1328 138.107V134.51H57.4395V133.66H59.1328V131.938ZM65.0273 140V131.146H65.9883V134.768H66.0703C66.4043 133.977 67.1367 133.531 68.1094 133.531C69.4922 133.531 70.2422 134.363 70.2422 135.881V140H69.2461V136.133C69.2461 134.99 68.7773 134.445 67.7812 134.445C66.7324 134.445 66.0234 135.178 66.0234 136.262V140H65.0273ZM76.7695 138.359H77.7363C77.543 139.408 76.5352 140.117 75.1992 140.117C73.4531 140.117 72.4395 139.068 72.4395 137.258V136.303C72.4395 134.627 73.5117 133.525 75.1289 133.525C76.7812 133.525 77.7539 134.621 77.7539 136.461V137.082H73.4238V137.34C73.4238 138.506 74.1152 139.256 75.1992 139.256C76.002 139.256 76.5938 138.916 76.7695 138.359ZM75.123 134.381C74.0625 134.381 73.4238 135.107 73.4238 136.326H76.7695C76.7695 135.113 76.1484 134.381 75.123 134.381ZM90.2871 133.537C91.7578 133.537 92.7188 134.598 92.7188 136.232V137.416C92.7188 139.045 91.7578 140.105 90.2871 140.105C89.3672 140.105 88.6934 139.713 88.418 139.016H88.3066V142.145H87.293V133.643H88.2773V134.615H88.3828C88.7168 133.912 89.3789 133.537 90.2871 133.537ZM90 134.451C88.9512 134.451 88.2832 135.201 88.2832 136.373V137.287C88.2832 138.465 88.9512 139.215 90 139.215C91.0488 139.215 91.7168 138.459 91.7168 137.287V136.373C91.7168 135.201 91.0488 134.451 90 134.451ZM99.0234 138.359H99.9902C99.7969 139.408 98.7891 140.117 97.4531 140.117C95.707 140.117 94.6934 139.068 94.6934 137.258V136.303C94.6934 134.627 95.7656 133.525 97.3828 133.525C99.0352 133.525 100.008 134.621 100.008 136.461V137.082H95.6777V137.34C95.6777 138.506 96.3691 139.256 97.4531 139.256C98.2559 139.256 98.8477 138.916 99.0234 138.359ZM97.377 134.381C96.3164 134.381 95.6777 135.107 95.6777 136.326H99.0234C99.0234 135.113 98.4023 134.381 97.377 134.381ZM104.473 137.152V139.203H106.441V140H102.217V139.203H103.5V134.439H102.088V133.643H104.461V135.266H104.59C104.824 134.088 105.615 133.479 106.84 133.479C107.203 133.479 107.549 133.531 107.76 133.619V134.738C107.467 134.633 107.057 134.562 106.711 134.562C105.305 134.562 104.473 135.535 104.473 137.152ZM109.828 135.359C109.828 134.258 110.766 133.52 112.166 133.52C113.49 133.52 114.387 134.182 114.504 135.242H113.543C113.426 134.686 112.893 134.346 112.148 134.346C111.34 134.346 110.818 134.721 110.818 135.301C110.818 135.787 111.146 136.062 111.943 136.238L112.84 136.443C114.076 136.725 114.639 137.264 114.639 138.184C114.639 139.355 113.66 140.117 112.154 140.117C110.713 140.117 109.758 139.443 109.646 138.354H110.66C110.807 138.939 111.369 139.279 112.189 139.279C113.057 139.279 113.607 138.887 113.607 138.277C113.607 137.773 113.297 137.504 112.488 137.322L111.545 137.105C110.396 136.842 109.828 136.262 109.828 135.359ZM119.561 140.117C117.879 140.117 116.807 139.021 116.807 137.305V136.344C116.807 134.627 117.879 133.531 119.561 133.531C121.242 133.531 122.314 134.627 122.314 136.344V137.305C122.314 139.021 121.242 140.117 119.561 140.117ZM119.561 134.41C118.471 134.41 117.791 135.184 117.791 136.432V137.211C117.791 138.465 118.471 139.232 119.561 139.232C120.65 139.232 121.33 138.465 121.33 137.211V136.432C121.33 135.184 120.65 134.41 119.561 134.41ZM124.377 140V133.643H125.332V134.762H125.414C125.754 133.971 126.48 133.525 127.447 133.525C128.83 133.525 129.58 134.352 129.58 135.875V140H128.584V136.127C128.584 134.979 128.115 134.439 127.125 134.439C126.076 134.439 125.373 135.172 125.373 136.256V140H124.377ZM133.752 140.111C132.539 140.111 131.73 139.35 131.73 138.195C131.73 137.07 132.539 136.402 133.986 136.326L135.732 136.238V135.664C135.732 134.867 135.246 134.428 134.361 134.428C133.629 134.428 133.113 134.738 132.949 135.283H131.971C132.088 134.264 133.072 133.566 134.373 133.566C135.867 133.566 136.723 134.328 136.723 135.652V140.006H135.773V139.051H135.674C135.369 139.73 134.678 140.111 133.752 140.111ZM134.039 139.238C135 139.238 135.732 138.6 135.732 137.75V137L134.098 137.076C133.207 137.117 132.738 137.498 132.738 138.16C132.738 138.828 133.236 139.238 134.039 139.238ZM144.592 140H139.324V139.174H141.498V131.973H139.342V131.146H142.494V139.174H144.592V140ZM159.299 135.623H158.314C158.191 134.879 157.57 134.41 156.75 134.41C155.643 134.41 155.027 135.166 155.027 136.531V137.105C155.027 138.471 155.643 139.221 156.75 139.221C157.57 139.221 158.191 138.758 158.314 138.031H159.299C159.141 139.326 158.174 140.117 156.768 140.117C155.039 140.117 154.031 139.057 154.031 137.234V136.402C154.031 134.58 155.039 133.52 156.768 133.52C158.174 133.52 159.135 134.316 159.299 135.623ZM164.068 140.117C162.387 140.117 161.314 139.021 161.314 137.305V136.344C161.314 134.627 162.387 133.531 164.068 133.531C165.75 133.531 166.822 134.627 166.822 136.344V137.305C166.822 139.021 165.75 140.117 164.068 140.117ZM164.068 134.41C162.979 134.41 162.299 135.184 162.299 136.432V137.211C162.299 138.465 162.979 139.232 164.068 139.232C165.158 139.232 165.838 138.465 165.838 137.211V136.432C165.838 135.184 165.158 134.41 164.068 134.41ZM174.551 135.318V140H173.654V135.611C173.654 134.838 173.373 134.434 172.84 134.434C172.283 134.434 171.943 134.92 171.943 135.711V140H171.053V135.605C171.053 134.838 170.771 134.434 170.232 134.434C169.67 134.434 169.318 134.92 169.318 135.711V140H168.422V133.643H169.312V134.539H169.418C169.576 133.9 170.033 133.525 170.631 133.525C171.229 133.525 171.65 133.895 171.785 134.521H171.891C172.055 133.912 172.564 133.525 173.203 133.525C174.088 133.525 174.551 134.141 174.551 135.318ZM179.303 133.537C180.773 133.537 181.734 134.598 181.734 136.232V137.416C181.734 139.045 180.773 140.105 179.303 140.105C178.383 140.105 177.709 139.713 177.434 139.016H177.322V142.145H176.309V133.643H177.293V134.615H177.398C177.732 133.912 178.395 133.537 179.303 133.537ZM179.016 134.451C177.967 134.451 177.299 135.201 177.299 136.373V137.287C177.299 138.465 177.967 139.215 179.016 139.215C180.064 139.215 180.732 138.459 180.732 137.287V136.373C180.732 135.201 180.064 134.451 179.016 134.451ZM188.924 133.643V140H187.969V138.881H187.887C187.547 139.672 186.82 140.117 185.854 140.117C184.471 140.117 183.721 139.291 183.721 137.768V133.643H184.717V137.516C184.717 138.664 185.186 139.203 186.176 139.203C187.225 139.203 187.928 138.471 187.928 137.387V133.643H188.924ZM192.656 131.938H193.641V133.66H196.219V134.51H193.652V138.096C193.652 138.787 194.139 139.162 195.035 139.162C195.393 139.162 196.031 139.145 196.201 139.127V139.971C196.043 140 195.27 140.029 194.965 140.029C193.389 140.029 192.656 139.432 192.656 138.107V134.51H190.963V133.66H192.656V131.938ZM202.875 138.359H203.842C203.648 139.408 202.641 140.117 201.305 140.117C199.559 140.117 198.545 139.068 198.545 137.258V136.303C198.545 134.627 199.617 133.525 201.234 133.525C202.887 133.525 203.859 134.621 203.859 136.461V137.082H199.529V137.34C199.529 138.506 200.221 139.256 201.305 139.256C202.107 139.256 202.699 138.916 202.875 138.359ZM201.229 134.381C200.168 134.381 199.529 135.107 199.529 136.326H202.875C202.875 135.113 202.254 134.381 201.229 134.381ZM208.324 137.152V139.203H210.293V140H206.068V139.203H207.352V134.439H205.939V133.643H208.312V135.266H208.441C208.676 134.088 209.467 133.479 210.691 133.479C211.055 133.479 211.4 133.531 211.611 133.619V134.738C211.318 134.633 210.908 134.562 210.562 134.562C209.156 134.562 208.324 135.535 208.324 137.152ZM223.412 140.035C222.832 140.035 222.352 139.549 222.352 138.951C222.352 138.359 222.832 137.873 223.412 137.873C223.992 137.873 224.473 138.359 224.473 138.951C224.473 139.549 223.992 140.035 223.412 140.035Z" fill="#EDE5C4"/>
<rect x="487.5" y="156.5" width="34" height="21" stroke="#353535"/>
<path d="M497.225 171H496.193V163.494H493.639V162.545H499.779V163.494H497.225V171ZM506.312 171L505.58 168.574H502.639L501.9 171H500.852L503.576 162.545H504.678L507.402 171H506.312ZM504.098 163.787L502.908 167.689H505.311L504.127 163.787H504.098ZM513.555 168.41V167.584H511.604V166.699H514.598V168.498C514.598 170.086 513.402 171.176 511.697 171.176C509.711 171.176 508.562 169.84 508.562 167.525V166.02C508.562 163.705 509.711 162.369 511.697 162.369C513.455 162.369 514.557 163.441 514.598 165.193H513.555C513.508 164.092 512.758 163.348 511.68 163.348C510.314 163.348 509.605 164.268 509.605 166.02V167.525C509.605 169.277 510.32 170.197 511.686 170.197C512.84 170.197 513.555 169.518 513.555 168.41Z" fill="#A59A86"/>
<rect x="532.5" y="156.5" width="34" height="21" stroke="#353535"/>
<path d="M542.225 171H541.193V163.494H538.639V162.545H544.779V163.494H542.225V171ZM551.312 171L550.58 168.574H547.639L546.9 171H545.852L548.576 162.545H549.678L552.402 171H551.312ZM549.098 163.787L547.908 167.689H550.311L549.127 163.787H549.098ZM558.555 168.41V167.584H556.604V166.699H559.598V168.498C559.598 170.086 558.402 171.176 556.697 171.176C554.711 171.176 553.562 169.84 553.562 167.525V166.02C553.562 163.705 554.711 162.369 556.697 162.369C558.455 162.369 559.557 163.441 559.598 165.193H558.555C558.508 164.092 557.758 163.348 556.68 163.348C555.314 163.348 554.605 164.268 554.605 166.02V167.525C554.605 169.277 555.32 170.197 556.686 170.197C557.84 170.197 558.555 169.518 558.555 168.41Z" fill="#A59A86"/>
<rect x="577.5" y="156.5" width="34" height="21" stroke="#353535"/>
<path d="M587.225 171H586.193V163.494H583.639V162.545H589.779V163.494H587.225V171ZM596.312 171L595.58 168.574H592.639L591.9 171H590.852L593.576 162.545H594.678L597.402 171H596.312ZM594.098 163.787L592.908 167.689H595.311L594.127 163.787H594.098ZM603.555 168.41V167.584H601.604V166.699H604.598V168.498C604.598 170.086 603.402 171.176 601.697 171.176C599.711 171.176 598.562 169.84 598.562 167.525V166.02C598.562 163.705 599.711 162.369 601.697 162.369C603.455 162.369 604.557 163.441 604.598 165.193H603.555C603.508 164.092 602.758 163.348 601.68 163.348C600.314 163.348 599.605 164.268 599.605 166.02V167.525C599.605 169.277 600.32 170.197 601.686 170.197C602.84 170.197 603.555 169.518 603.555 168.41Z" fill="#A59A86"/>
<mask id="path-15-inside-2_31_898" fill="white">
<path d="M12 188H612V218H12V188Z"/>
</mask>
<path d="M12 188V189H612V188V187H12V188Z" fill="#3A3A3A" mask="url(#path-15-inside-2_31_898)"/>
<path d="M14.1855 197.742H17.2734V198.545H15.1523V207H17.2852V207.803H14.1855V197.742ZM19.834 207L22.5176 202.752L19.8516 198.545H21.0234L23.1445 201.943H23.1914L25.3301 198.545H26.4199L23.7012 202.781L26.3789 207H25.2305L23.0977 203.643H23.0566L20.9062 207H19.834ZM32.1211 197.742V207.803H29.0215V207H31.1484V198.545H29.0332V197.742H32.1211ZM45.5742 206.197C46.6992 206.197 47.4141 205.523 47.4434 204.434H48.4863C48.4863 206.068 47.3027 207.176 45.5742 207.176C43.5879 207.176 42.4336 205.834 42.4336 203.525V202.02C42.4336 199.711 43.5879 198.369 45.5742 198.369C47.3555 198.369 48.457 199.453 48.4922 201.258H47.4434C47.4082 200.115 46.6523 199.348 45.5684 199.348C44.2031 199.348 43.4883 200.268 43.4883 202.02V203.525C43.4883 205.277 44.2031 206.197 45.5742 206.197ZM55.6641 206.039V207H50.6309V198.545H51.6562V206.039H55.6641ZM63.3164 203.455C63.3164 205.793 62.1387 207.176 60.2168 207.176C58.2949 207.176 57.1172 205.793 57.1172 203.455V202.09C57.1172 199.752 58.2949 198.369 60.2168 198.369C62.1387 198.369 63.3164 199.752 63.3164 202.09V203.455ZM60.2168 206.197C61.5 206.197 62.2734 205.213 62.2734 203.449V202.096C62.2734 200.332 61.5 199.348 60.2168 199.348C58.9336 199.348 58.1602 200.332 58.1602 202.096V203.449C58.1602 205.213 58.9336 206.197 60.2168 206.197ZM64.7402 204.75H65.748C65.8535 205.676 66.5977 206.238 67.7227 206.238C68.8477 206.238 69.5859 205.652 69.5859 204.744C69.5859 204.012 69.0938 203.572 67.9512 203.291L67.2246 203.109C65.6543 202.711 64.9453 201.967 64.9453 200.742C64.9453 199.301 66.0293 198.369 67.7168 198.369C69.3105 198.369 70.4062 199.289 70.4766 200.695H69.4688C69.3633 199.822 68.7188 199.307 67.7227 199.307C66.6387 199.307 65.9883 199.822 65.9883 200.684C65.9883 201.416 66.457 201.838 67.5586 202.113L68.2969 202.301C69.9375 202.705 70.6289 203.42 70.6289 204.691C70.6289 206.209 69.4863 207.176 67.7168 207.176C65.9707 207.176 64.8281 206.25 64.7402 204.75ZM77.6836 206.051V207H72.6914V198.545H77.6836V199.494H73.7285V202.236H77.4668V203.145H73.7285V206.051H77.6836Z" fill="#A59A86"/>
<path d="M93.1855 197.742H96.2734V198.545H94.1523V207H96.2852V207.803H93.1855V197.742ZM99.2324 204.75H100.24C100.346 205.676 101.09 206.238 102.215 206.238C103.34 206.238 104.078 205.652 104.078 204.744C104.078 204.012 103.586 203.572 102.443 203.291L101.717 203.109C100.146 202.711 99.4375 201.967 99.4375 200.742C99.4375 199.301 100.521 198.369 102.209 198.369C103.803 198.369 104.898 199.289 104.969 200.695H103.961C103.855 199.822 103.211 199.307 102.215 199.307C101.131 199.307 100.48 199.822 100.48 200.684C100.48 201.416 100.949 201.838 102.051 202.113L102.789 202.301C104.43 202.705 105.121 203.42 105.121 204.691C105.121 206.209 103.979 207.176 102.209 207.176C100.463 207.176 99.3203 206.25 99.2324 204.75ZM111.121 197.742V207.803H108.021V207H110.148V198.545H108.033V197.742H111.121ZM121.486 204.75H122.494C122.6 205.676 123.344 206.238 124.469 206.238C125.594 206.238 126.332 205.652 126.332 204.744C126.332 204.012 125.84 203.572 124.697 203.291L123.971 203.109C122.4 202.711 121.691 201.967 121.691 200.742C121.691 199.301 122.775 198.369 124.463 198.369C126.057 198.369 127.152 199.289 127.223 200.695H126.215C126.109 199.822 125.465 199.307 124.469 199.307C123.385 199.307 122.734 199.822 122.734 200.684C122.734 201.416 123.203 201.838 124.305 202.113L125.043 202.301C126.684 202.705 127.375 203.42 127.375 204.691C127.375 206.209 126.232 207.176 124.463 207.176C122.717 207.176 121.574 206.25 121.486 204.75ZM133.984 207L133.252 204.574H130.311L129.572 207H128.523L131.248 198.545H132.35L135.074 207H133.984ZM131.77 199.787L130.58 203.689H132.982L131.799 199.787H131.77ZM139.246 205.758L141.449 198.545H142.492L139.768 207H138.666L135.941 198.545H137.025L139.217 205.758H139.246ZM149.266 206.051V207H144.273V198.545H149.266V199.494H145.311V202.236H149.049V203.145H145.311V206.051H149.266Z" fill="#A59A86"/>
<path fill-rule="evenodd" clip-rule="evenodd" d="M600.939 197.439C601.221 197.158 601.602 197 602 197H606.5C606.776 197 607 197.224 607 197.5C607 197.776 606.776 198 606.5 198H602C601.867 198 601.74 198.053 601.646 198.146C601.553 198.24 601.5 198.367 601.5 198.5V203.5C601.5 203.633 601.553 203.76 601.646 203.854C601.74 203.947 601.867 204 602 204H610C610.133 204 610.26 203.947 610.354 203.854C610.447 203.76 610.5 203.633 610.5 203.5V202C610.5 201.724 610.724 201.5 611 201.5C611.276 201.5 611.5 201.724 611.5 202V203.5C611.5 203.898 611.342 204.279 611.061 204.561C610.779 204.842 610.398 205 610 205H602C601.602 205 601.221 204.842 600.939 204.561C600.658 204.279 600.5 203.898 600.5 203.5V198.5C600.5 198.102 600.658 197.721 600.939 197.439Z" fill="#A59A86"/>
<path fill-rule="evenodd" clip-rule="evenodd" d="M603.5 206.5C603.5 206.224 603.724 206 604 206H608C608.276 206 608.5 206.224 608.5 206.5C608.5 206.776 608.276 207 608 207H604C603.724 207 603.5 206.776 603.5 206.5Z" fill="#A59A86"/>
<path fill-rule="evenodd" clip-rule="evenodd" d="M606 204C606.276 204 606.5 204.224 606.5 204.5V206.5C606.5 206.776 606.276 207 606 207C605.724 207 605.5 206.776 605.5 206.5V204.5C605.5 204.224 605.724 204 606 204Z" fill="#A59A86"/>
<path fill-rule="evenodd" clip-rule="evenodd" d="M611.354 197.146C611.549 197.342 611.549 197.658 611.354 197.854L608.854 200.354C608.658 200.549 608.342 200.549 608.146 200.354C607.951 200.158 607.951 199.842 608.146 199.646L610.646 197.146C610.842 196.951 611.158 196.951 611.354 197.146Z" fill="#A59A86"/>
<path fill-rule="evenodd" clip-rule="evenodd" d="M608.146 197.146C608.342 196.951 608.658 196.951 608.854 197.146L611.354 199.646C611.549 199.842 611.549 200.158 611.354 200.354C611.158 200.549 610.842 200.549 610.646 200.354L608.146 197.854C607.951 197.658 607.951 197.342 608.146 197.146Z" fill="#A59A86"/>
<defs>
<clipPath id="clip0_31_898">
<rect width="12" height="12" fill="white" transform="translate(576 13)"/>
</clipPath>
<clipPath id="clip1_31_898">
<rect width="12" height="12" fill="white" transform="translate(600 13)"/>
</clipPath>
</defs>
</svg>
