<svg width="624" height="124" viewBox="0 0 624 124" fill="none" xmlns="http://www.w3.org/2000/svg">
<rect x="0.5" y="0.5" width="623" height="123" rx="3.5" fill="black"/>
<rect x="0.5" y="0.5" width="623" height="123" rx="3.5" stroke="#3A3A3A"/>
<path d="M14.2793 26H13.2656V17.5449H14.2793V21.752H14.3555L17.7773 17.5449H18.9844L15.8555 21.2832L19.2891 26H18.0059L15.1582 22.0801L14.2793 23.123V26ZM20.5254 26V19.6426H21.4805V20.7617H21.5625C21.9023 19.9707 22.6289 19.5254 23.5957 19.5254C24.9785 19.5254 25.7285 20.3516 25.7285 21.875V26H24.7324V22.127C24.7324 20.9785 24.2637 20.4395 23.2734 20.4395C22.2246 20.4395 21.5215 21.1719 21.5215 22.2559V26H20.5254ZM30.5449 26.1172C28.8633 26.1172 27.791 25.0215 27.791 23.3047V22.3438C27.791 20.627 28.8633 19.5312 30.5449 19.5312C32.2266 19.5312 33.2988 20.627 33.2988 22.3438V23.3047C33.2988 25.0215 32.2266 26.1172 30.5449 26.1172ZM30.5449 20.4102C29.4551 20.4102 28.7754 21.1836 28.7754 22.4316V23.2109C28.7754 24.4648 29.4551 25.2324 30.5449 25.2324C31.6348 25.2324 32.3145 24.4648 32.3145 23.2109V22.4316C32.3145 21.1836 31.6348 20.4102 30.5449 20.4102ZM41.3965 19.6426L40.0312 26H39.0762L37.998 21.043H37.9277L36.8496 26H35.8945L34.5293 19.6426H35.502L36.3633 24.7402H36.4688L37.4941 19.6484H38.4316L39.457 24.7402H39.5625L40.4238 19.6426H41.3965ZM48.1582 26H42.8906V25.1738H45.0645V17.9727H42.9082V17.1465H46.0605V25.1738H48.1582V26ZM54.5156 24.3594H55.4824C55.2891 25.4082 54.2812 26.1172 52.9453 26.1172C51.1992 26.1172 50.1855 25.0684 50.1855 23.2578V22.3027C50.1855 20.627 51.2578 19.5254 52.875 19.5254C54.5273 19.5254 55.5 20.6211 55.5 22.4609V23.082H51.1699V23.3398C51.1699 24.5059 51.8613 25.2559 52.9453 25.2559C53.748 25.2559 54.3398 24.916 54.5156 24.3594ZM52.8691 20.3809C51.8086 20.3809 51.1699 21.1074 51.1699 22.3262H54.5156C54.5156 21.1133 53.8945 20.3809 52.8691 20.3809ZM59.8184 26.1055C58.3477 26.1055 57.3867 25.0449 57.3867 23.4102V22.2266C57.3867 20.5977 58.3477 19.5371 59.8184 19.5371C60.7383 19.5371 61.418 19.9297 61.6934 20.627H61.7988V17.1465H62.8125V26H61.834V25.0273H61.7227C61.3945 25.7305 60.7266 26.1055 59.8184 26.1055ZM60.1113 25.1973C61.1543 25.1973 61.8281 24.4473 61.8281 23.2695V22.3555C61.8281 21.1836 61.1543 20.4336 60.1113 20.4336C59.0625 20.4336 58.3887 21.1836 58.3887 22.3555V23.2695C58.3887 24.4414 59.0625 25.1973 60.1113 25.1973ZM67.4473 28.3848C65.9766 28.3848 64.9922 27.7402 64.8633 26.6855H65.8477C65.9766 27.2129 66.6152 27.5586 67.4648 27.5586C68.5781 27.5586 69.1934 26.9961 69.1934 25.9766V24.9863H69.0879C68.8066 25.6543 68.1035 26.0586 67.1777 26.0586C65.707 26.0586 64.7402 24.998 64.7402 23.3691V22.2266C64.7402 20.5918 65.7129 19.5371 67.2012 19.5371C68.1211 19.5371 68.8184 19.9414 69.0938 20.627H69.2051V19.6426H70.1895V26C70.1895 27.4941 69.1699 28.3848 67.4473 28.3848ZM65.7422 23.2285C65.7422 24.3945 66.4219 25.1562 67.4766 25.1562C68.5254 25.1562 69.1992 24.4004 69.1992 23.2285V22.3555C69.1992 21.1836 68.5254 20.4336 67.4766 20.4336C66.4219 20.4336 65.7422 21.1895 65.7422 22.3555V23.2285ZM76.7695 24.3594H77.7363C77.543 25.4082 76.5352 26.1172 75.1992 26.1172C73.4531 26.1172 72.4395 25.0684 72.4395 23.2578V22.3027C72.4395 20.627 73.5117 19.5254 75.1289 19.5254C76.7812 19.5254 77.7539 20.6211 77.7539 22.4609V23.082H73.4238V23.3398C73.4238 24.5059 74.1152 25.2559 75.1992 25.2559C76.002 25.2559 76.5938 24.916 76.7695 24.3594ZM75.123 20.3809C74.0625 20.3809 73.4238 21.1074 73.4238 22.3262H76.7695C76.7695 21.1133 76.1484 20.3809 75.123 20.3809ZM93.3223 19.6426L91.957 26H91.002L89.9238 21.043H89.8535L88.7754 26H87.8203L86.4551 19.6426H87.4277L88.2891 24.7402H88.3945L89.4199 19.6484H90.3574L91.3828 24.7402H91.4883L92.3496 19.6426H93.3223ZM97.3066 26.1172C95.625 26.1172 94.5527 25.0215 94.5527 23.3047V22.3438C94.5527 20.627 95.625 19.5312 97.3066 19.5312C98.9883 19.5312 100.061 20.627 100.061 22.3438V23.3047C100.061 25.0215 98.9883 26.1172 97.3066 26.1172ZM97.3066 20.4102C96.2168 20.4102 95.5371 21.1836 95.5371 22.4316V23.2109C95.5371 24.4648 96.2168 25.2324 97.3066 25.2324C98.3965 25.2324 99.0762 24.4648 99.0762 23.2109V22.4316C99.0762 21.1836 98.3965 20.4102 97.3066 20.4102ZM104.473 23.1523V25.2031H106.441V26H102.217V25.2031H103.5V20.4395H102.088V19.6426H104.461V21.2656H104.59C104.824 20.0879 105.615 19.4785 106.84 19.4785C107.203 19.4785 107.549 19.5312 107.76 19.6191V20.7383C107.467 20.6328 107.057 20.5625 106.711 20.5625C105.305 20.5625 104.473 21.5352 104.473 23.1523ZM111.082 22.4961L113.854 19.6426H115.061L112.594 22.1621L115.236 26H114.053L111.885 22.8418L111.006 23.6855V26H110.01V17.1465H111.006V22.4961H111.082ZM127.09 18.084C126.621 18.084 126.264 17.7324 126.264 17.2637C126.264 16.8008 126.621 16.4492 127.09 16.4492C127.559 16.4492 127.916 16.8008 127.916 17.2637C127.916 17.7324 127.559 18.084 127.09 18.084ZM129.756 26H124.488V25.1738H126.668V20.4688H124.506V19.6426H127.652V25.1738H129.756V26ZM132.082 21.3594C132.082 20.2578 133.02 19.5195 134.42 19.5195C135.744 19.5195 136.641 20.1816 136.758 21.2422H135.797C135.68 20.6855 135.146 20.3457 134.402 20.3457C133.594 20.3457 133.072 20.7207 133.072 21.3008C133.072 21.7871 133.4 22.0625 134.197 22.2383L135.094 22.4434C136.33 22.7246 136.893 23.2637 136.893 24.1836C136.893 25.3555 135.914 26.1172 134.408 26.1172C132.967 26.1172 132.012 25.4434 131.9 24.3535H132.914C133.061 24.9395 133.623 25.2793 134.443 25.2793C135.311 25.2793 135.861 24.8867 135.861 24.2773C135.861 23.7734 135.551 23.5039 134.742 23.3223L133.799 23.1055C132.65 22.8418 132.082 22.2617 132.082 21.3594ZM146.918 21.3594C146.918 20.2578 147.855 19.5195 149.256 19.5195C150.58 19.5195 151.477 20.1816 151.594 21.2422H150.633C150.516 20.6855 149.982 20.3457 149.238 20.3457C148.43 20.3457 147.908 20.7207 147.908 21.3008C147.908 21.7871 148.236 22.0625 149.033 22.2383L149.93 22.4434C151.166 22.7246 151.729 23.2637 151.729 24.1836C151.729 25.3555 150.75 26.1172 149.244 26.1172C147.803 26.1172 146.848 25.4434 146.736 24.3535H147.75C147.896 24.9395 148.459 25.2793 149.279 25.2793C150.146 25.2793 150.697 24.8867 150.697 24.2773C150.697 23.7734 150.387 23.5039 149.578 23.3223L148.635 23.1055C147.486 22.8418 146.918 22.2617 146.918 21.3594ZM154.043 26V17.1465H155.004V20.7676H155.086C155.42 19.9766 156.152 19.5312 157.125 19.5312C158.508 19.5312 159.258 20.3633 159.258 21.8809V26H158.262V22.1328C158.262 20.9902 157.793 20.4453 156.797 20.4453C155.748 20.4453 155.039 21.1777 155.039 22.2617V26H154.043ZM164.18 18.084C163.711 18.084 163.354 17.7324 163.354 17.2637C163.354 16.8008 163.711 16.4492 164.18 16.4492C164.648 16.4492 165.006 16.8008 165.006 17.2637C165.006 17.7324 164.648 18.084 164.18 18.084ZM166.846 26H161.578V25.1738H163.758V20.4688H161.596V19.6426H164.742V25.1738H166.846V26ZM170.549 26V20.5098H168.844V19.6602H170.549V19.0215C170.549 17.791 171.311 17.2168 172.875 17.2168C173.244 17.2168 174.129 17.2461 174.34 17.2754V18.0898C174.064 18.0605 173.244 18.0371 172.887 18.0371C172.002 18.0371 171.533 18.3652 171.533 19.0039V19.6602H174.34V20.5098H171.545V26H170.549ZM177.82 17.9375H178.805V19.6602H181.383V20.5098H178.816V24.0957C178.816 24.7871 179.303 25.1621 180.199 25.1621C180.557 25.1621 181.195 25.1445 181.365 25.127V25.9707C181.207 26 180.434 26.0293 180.129 26.0293C178.553 26.0293 177.82 25.4316 177.82 24.1074V20.5098H176.127V19.6602H177.82V17.9375ZM186.434 18.084C185.965 18.084 185.607 17.7324 185.607 17.2637C185.607 16.8008 185.965 16.4492 186.434 16.4492C186.902 16.4492 187.26 16.8008 187.26 17.2637C187.26 17.7324 186.902 18.084 186.434 18.084ZM189.1 26H183.832V25.1738H186.012V20.4688H183.85V19.6426H186.996V25.1738H189.1V26ZM191.139 26V19.6426H192.094V20.7617H192.176C192.516 19.9707 193.242 19.5254 194.209 19.5254C195.592 19.5254 196.342 20.3516 196.342 21.875V26H195.346V22.127C195.346 20.9785 194.877 20.4395 193.887 20.4395C192.838 20.4395 192.135 21.1719 192.135 22.2559V26H191.139ZM200.971 28.3848C199.5 28.3848 198.516 27.7402 198.387 26.6855H199.371C199.5 27.2129 200.139 27.5586 200.988 27.5586C202.102 27.5586 202.717 26.9961 202.717 25.9766V24.9863H202.611C202.33 25.6543 201.627 26.0586 200.701 26.0586C199.23 26.0586 198.264 24.998 198.264 23.3691V22.2266C198.264 20.5918 199.236 19.5371 200.725 19.5371C201.645 19.5371 202.342 19.9414 202.617 20.627H202.729V19.6426H203.713V26C203.713 27.4941 202.693 28.3848 200.971 28.3848ZM199.266 23.2285C199.266 24.3945 199.945 25.1562 201 25.1562C202.049 25.1562 202.723 24.4004 202.723 23.2285V22.3555C202.723 21.1836 202.049 20.4336 201 20.4336C199.945 20.4336 199.266 21.1895 199.266 22.3555V23.2285ZM215.057 26V20.5098H213.352V19.6602H215.057V19.0215C215.057 17.791 215.818 17.2168 217.383 17.2168C217.752 17.2168 218.637 17.2461 218.848 17.2754V18.0898C218.572 18.0605 217.752 18.0371 217.395 18.0371C216.51 18.0371 216.041 18.3652 216.041 19.0039V19.6602H218.848V20.5098H216.053V26H215.057ZM223.16 23.1523V25.2031H225.129V26H220.904V25.2031H222.188V20.4395H220.775V19.6426H223.148V21.2656H223.277C223.512 20.0879 224.303 19.4785 225.527 19.4785C225.891 19.4785 226.236 19.5312 226.447 19.6191V20.7383C226.154 20.6328 225.744 20.5625 225.398 20.5625C223.992 20.5625 223.16 21.5352 223.16 23.1523ZM230.83 26.1172C229.148 26.1172 228.076 25.0215 228.076 23.3047V22.3438C228.076 20.627 229.148 19.5312 230.83 19.5312C232.512 19.5312 233.584 20.627 233.584 22.3438V23.3047C233.584 25.0215 232.512 26.1172 230.83 26.1172ZM230.83 20.4102C229.74 20.4102 229.061 21.1836 229.061 22.4316V23.2109C229.061 24.4648 229.74 25.2324 230.83 25.2324C231.92 25.2324 232.6 24.4648 232.6 23.2109V22.4316C232.6 21.1836 231.92 20.4102 230.83 20.4102ZM241.312 21.3184V26H240.416V21.6113C240.416 20.8379 240.135 20.4336 239.602 20.4336C239.045 20.4336 238.705 20.9199 238.705 21.7109V26H237.814V21.6055C237.814 20.8379 237.533 20.4336 236.994 20.4336C236.432 20.4336 236.08 20.9199 236.08 21.7109V26H235.184V19.6426H236.074V20.5391H236.18C236.338 19.9004 236.795 19.5254 237.393 19.5254C237.99 19.5254 238.412 19.8945 238.547 20.5215H238.652C238.816 19.9121 239.326 19.5254 239.965 19.5254C240.85 19.5254 241.312 20.1406 241.312 21.3184ZM253.195 18.084C252.727 18.084 252.369 17.7324 252.369 17.2637C252.369 16.8008 252.727 16.4492 253.195 16.4492C253.664 16.4492 254.021 16.8008 254.021 17.2637C254.021 17.7324 253.664 18.084 253.195 18.084ZM255.861 26H250.594V25.1738H252.773V20.4688H250.611V19.6426H253.758V25.1738H255.861V26ZM263.566 21.3184V26H262.67V21.6113C262.67 20.8379 262.389 20.4336 261.855 20.4336C261.299 20.4336 260.959 20.9199 260.959 21.7109V26H260.068V21.6055C260.068 20.8379 259.787 20.4336 259.248 20.4336C258.686 20.4336 258.334 20.9199 258.334 21.7109V26H257.438V19.6426H258.328V20.5391H258.434C258.592 19.9004 259.049 19.5254 259.646 19.5254C260.244 19.5254 260.666 19.8945 260.801 20.5215H260.906C261.07 19.9121 261.58 19.5254 262.219 19.5254C263.104 19.5254 263.566 20.1406 263.566 21.3184ZM268.318 19.5371C269.789 19.5371 270.75 20.5977 270.75 22.2324V23.416C270.75 25.0449 269.789 26.1055 268.318 26.1055C267.398 26.1055 266.725 25.7129 266.449 25.0156H266.338V28.1445H265.324V19.6426H266.309V20.6152H266.414C266.748 19.9121 267.41 19.5371 268.318 19.5371ZM268.031 20.4512C266.982 20.4512 266.314 21.2012 266.314 22.373V23.2871C266.314 24.4648 266.982 25.2148 268.031 25.2148C269.08 25.2148 269.748 24.459 269.748 23.2871V22.373C269.748 21.2012 269.08 20.4512 268.031 20.4512ZM277.055 24.3594H278.021C277.828 25.4082 276.82 26.1172 275.484 26.1172C273.738 26.1172 272.725 25.0684 272.725 23.2578V22.3027C272.725 20.627 273.797 19.5254 275.414 19.5254C277.066 19.5254 278.039 20.6211 278.039 22.4609V23.082H273.709V23.3398C273.709 24.5059 274.4 25.2559 275.484 25.2559C276.287 25.2559 276.879 24.916 277.055 24.3594ZM275.408 20.3809C274.348 20.3809 273.709 21.1074 273.709 22.3262H277.055C277.055 21.1133 276.434 20.3809 275.408 20.3809ZM282.504 23.1523V25.2031H284.473V26H280.248V25.2031H281.531V20.4395H280.119V19.6426H282.492V21.2656H282.621C282.855 20.0879 283.646 19.4785 284.871 19.4785C285.234 19.4785 285.58 19.5312 285.791 19.6191V20.7383C285.498 20.6328 285.088 20.5625 284.742 20.5625C283.336 20.5625 282.504 21.5352 282.504 23.1523ZM289.529 26.1113C288.316 26.1113 287.508 25.3496 287.508 24.1953C287.508 23.0703 288.316 22.4023 289.764 22.3262L291.51 22.2383V21.6641C291.51 20.8672 291.023 20.4277 290.139 20.4277C289.406 20.4277 288.891 20.7383 288.727 21.2832H287.748C287.865 20.2637 288.85 19.5664 290.15 19.5664C291.645 19.5664 292.5 20.3281 292.5 21.6523V26.0059H291.551V25.0508H291.451C291.146 25.7305 290.455 26.1113 289.529 26.1113ZM289.816 25.2383C290.777 25.2383 291.51 24.5996 291.51 23.75V23L289.875 23.0762C288.984 23.1172 288.516 23.498 288.516 24.1602C288.516 24.8281 289.014 25.2383 289.816 25.2383ZM296.508 17.9375H297.492V19.6602H300.07V20.5098H297.504V24.0957C297.504 24.7871 297.99 25.1621 298.887 25.1621C299.244 25.1621 299.883 25.1445 300.053 25.127V25.9707C299.895 26 299.121 26.0293 298.816 26.0293C297.24 26.0293 296.508 25.4316 296.508 24.1074V20.5098H294.814V19.6602H296.508V17.9375ZM305.121 18.084C304.652 18.084 304.295 17.7324 304.295 17.2637C304.295 16.8008 304.652 16.4492 305.121 16.4492C305.59 16.4492 305.947 16.8008 305.947 17.2637C305.947 17.7324 305.59 18.084 305.121 18.084ZM307.787 26H302.52V25.1738H304.699V20.4688H302.537V19.6426H305.684V25.1738H307.787V26ZM309.557 19.6426H310.623L312.398 24.9336H312.475L314.238 19.6426H315.299L312.979 26H311.883L309.557 19.6426ZM321.562 24.3594H322.529C322.336 25.4082 321.328 26.1172 319.992 26.1172C318.246 26.1172 317.232 25.0684 317.232 23.2578V22.3027C317.232 20.627 318.305 19.5254 319.922 19.5254C321.574 19.5254 322.547 20.6211 322.547 22.4609V23.082H318.217V23.3398C318.217 24.5059 318.908 25.2559 319.992 25.2559C320.795 25.2559 321.387 24.916 321.562 24.3594ZM319.916 20.3809C318.855 20.3809 318.217 21.1074 318.217 22.3262H321.562C321.562 21.1133 320.941 20.3809 319.916 20.3809ZM337.459 26H332.191V25.1738H334.365V17.9727H332.209V17.1465H335.361V25.1738H337.459V26ZM341.455 26.1113C340.242 26.1113 339.434 25.3496 339.434 24.1953C339.434 23.0703 340.242 22.4023 341.689 22.3262L343.436 22.2383V21.6641C343.436 20.8672 342.949 20.4277 342.064 20.4277C341.332 20.4277 340.816 20.7383 340.652 21.2832H339.674C339.791 20.2637 340.775 19.5664 342.076 19.5664C343.57 19.5664 344.426 20.3281 344.426 21.6523V26.0059H343.477V25.0508H343.377C343.072 25.7305 342.381 26.1113 341.455 26.1113ZM341.742 25.2383C342.703 25.2383 343.436 24.5996 343.436 23.75V23L341.801 23.0762C340.91 23.1172 340.441 23.498 340.441 24.1602C340.441 24.8281 340.939 25.2383 341.742 25.2383ZM349.916 26.1055C349.008 26.1055 348.34 25.7305 348.012 25.0273H347.9V26H346.922V17.1465H347.936V20.627H348.041C348.322 19.9297 348.996 19.5371 349.916 19.5371C351.387 19.5371 352.348 20.5977 352.348 22.2266V23.4102C352.348 25.0449 351.387 26.1055 349.916 26.1055ZM349.623 25.1973C350.678 25.1973 351.346 24.4414 351.346 23.2695V22.3555C351.346 21.1836 350.678 20.4336 349.623 20.4336C348.58 20.4336 347.912 21.1836 347.912 22.3555V23.2695C347.912 24.4473 348.58 25.1973 349.623 25.1973ZM356.936 26.1172C355.254 26.1172 354.182 25.0215 354.182 23.3047V22.3438C354.182 20.627 355.254 19.5312 356.936 19.5312C358.617 19.5312 359.689 20.627 359.689 22.3438V23.3047C359.689 25.0215 358.617 26.1172 356.936 26.1172ZM356.936 20.4102C355.846 20.4102 355.166 21.1836 355.166 22.4316V23.2109C355.166 24.4648 355.846 25.2324 356.936 25.2324C358.025 25.2324 358.705 24.4648 358.705 23.2109V22.4316C358.705 21.1836 358.025 20.4102 356.936 20.4102ZM364.102 23.1523V25.2031H366.07V26H361.846V25.2031H363.129V20.4395H361.717V19.6426H364.09V21.2656H364.219C364.453 20.0879 365.244 19.4785 366.469 19.4785C366.832 19.4785 367.178 19.5312 367.389 19.6191V20.7383C367.096 20.6328 366.686 20.5625 366.34 20.5625C364.934 20.5625 364.102 21.5352 364.102 23.1523ZM378.105 17.9375H379.09V19.6602H381.668V20.5098H379.102V24.0957C379.102 24.7871 379.588 25.1621 380.484 25.1621C380.842 25.1621 381.48 25.1445 381.65 25.127V25.9707C381.492 26 380.719 26.0293 380.414 26.0293C378.838 26.0293 378.105 25.4316 378.105 24.1074V20.5098H376.412V19.6602H378.105V17.9375ZM386.607 26.1172C384.926 26.1172 383.854 25.0215 383.854 23.3047V22.3438C383.854 20.627 384.926 19.5312 386.607 19.5312C388.289 19.5312 389.361 20.627 389.361 22.3438V23.3047C389.361 25.0215 388.289 26.1172 386.607 26.1172ZM386.607 20.4102C385.518 20.4102 384.838 21.1836 384.838 22.4316V23.2109C384.838 24.4648 385.518 25.2324 386.607 25.2324C387.697 25.2324 388.377 24.4648 388.377 23.2109V22.4316C388.377 21.1836 387.697 20.4102 386.607 20.4102ZM401.045 26.1055C399.574 26.1055 398.613 25.0449 398.613 23.4102V22.2266C398.613 20.5977 399.574 19.5371 401.045 19.5371C401.965 19.5371 402.645 19.9297 402.92 20.627H403.025V17.1465H404.039V26H403.061V25.0273H402.949C402.621 25.7305 401.953 26.1055 401.045 26.1055ZM401.338 25.1973C402.381 25.1973 403.055 24.4473 403.055 23.2695V22.3555C403.055 21.1836 402.381 20.4336 401.338 20.4336C400.289 20.4336 399.615 21.1836 399.615 22.3555V23.2695C399.615 24.4414 400.289 25.1973 401.338 25.1973ZM410.578 24.3594H411.545C411.352 25.4082 410.344 26.1172 409.008 26.1172C407.262 26.1172 406.248 25.0684 406.248 23.2578V22.3027C406.248 20.627 407.32 19.5254 408.938 19.5254C410.59 19.5254 411.562 20.6211 411.562 22.4609V23.082H407.232V23.3398C407.232 24.5059 407.924 25.2559 409.008 25.2559C409.811 25.2559 410.402 24.916 410.578 24.3594ZM408.932 20.3809C407.871 20.3809 407.232 21.1074 407.232 22.3262H410.578C410.578 21.1133 409.957 20.3809 408.932 20.3809ZM418.928 21.623H417.943C417.82 20.8789 417.199 20.4102 416.379 20.4102C415.271 20.4102 414.656 21.166 414.656 22.5312V23.1055C414.656 24.4707 415.271 25.2207 416.379 25.2207C417.199 25.2207 417.82 24.7578 417.943 24.0312H418.928C418.77 25.3262 417.803 26.1172 416.396 26.1172C414.668 26.1172 413.66 25.0566 413.66 23.2344V22.4023C413.66 20.5801 414.668 19.5195 416.396 19.5195C417.803 19.5195 418.764 20.3164 418.928 21.623ZM426.475 26H421.207V25.1738H423.381V17.9727H421.225V17.1465H424.377V25.1738H426.475V26ZM430.471 26.1113C429.258 26.1113 428.449 25.3496 428.449 24.1953C428.449 23.0703 429.258 22.4023 430.705 22.3262L432.451 22.2383V21.6641C432.451 20.8672 431.965 20.4277 431.08 20.4277C430.348 20.4277 429.832 20.7383 429.668 21.2832H428.689C428.807 20.2637 429.791 19.5664 431.092 19.5664C432.586 19.5664 433.441 20.3281 433.441 21.6523V26.0059H432.492V25.0508H432.393C432.088 25.7305 431.396 26.1113 430.471 26.1113ZM430.758 25.2383C431.719 25.2383 432.451 24.5996 432.451 23.75V23L430.816 23.0762C429.926 23.1172 429.457 23.498 429.457 24.1602C429.457 24.8281 429.955 25.2383 430.758 25.2383ZM438.281 23.1523V25.2031H440.25V26H436.025V25.2031H437.309V20.4395H435.896V19.6426H438.27V21.2656H438.398C438.633 20.0879 439.424 19.4785 440.648 19.4785C441.012 19.4785 441.357 19.5312 441.568 19.6191V20.7383C441.275 20.6328 440.865 20.5625 440.52 20.5625C439.113 20.5625 438.281 21.5352 438.281 23.1523ZM445.307 26.1113C444.094 26.1113 443.285 25.3496 443.285 24.1953C443.285 23.0703 444.094 22.4023 445.541 22.3262L447.287 22.2383V21.6641C447.287 20.8672 446.801 20.4277 445.916 20.4277C445.184 20.4277 444.668 20.7383 444.504 21.2832H443.525C443.643 20.2637 444.627 19.5664 445.928 19.5664C447.422 19.5664 448.277 20.3281 448.277 21.6523V26.0059H447.328V25.0508H447.229C446.924 25.7305 446.232 26.1113 445.307 26.1113ZM445.594 25.2383C446.555 25.2383 447.287 24.5996 447.287 23.75V23L445.652 23.0762C444.762 23.1172 444.293 23.498 444.293 24.1602C444.293 24.8281 444.791 25.2383 445.594 25.2383ZM452.285 17.9375H453.27V19.6602H455.848V20.5098H453.281V24.0957C453.281 24.7871 453.768 25.1621 454.664 25.1621C455.021 25.1621 455.66 25.1445 455.83 25.127V25.9707C455.672 26 454.898 26.0293 454.594 26.0293C453.018 26.0293 452.285 25.4316 452.285 24.1074V20.5098H450.592V19.6602H452.285V17.9375ZM460.898 18.084C460.43 18.084 460.072 17.7324 460.072 17.2637C460.072 16.8008 460.43 16.4492 460.898 16.4492C461.367 16.4492 461.725 16.8008 461.725 17.2637C461.725 17.7324 461.367 18.084 460.898 18.084ZM463.564 26H458.297V25.1738H460.477V20.4688H458.314V19.6426H461.461V25.1738H463.564V26ZM465.334 19.6426H466.4L468.176 24.9336H468.252L470.016 19.6426H471.076L468.756 26H467.66L465.334 19.6426ZM477.34 24.3594H478.307C478.113 25.4082 477.105 26.1172 475.77 26.1172C474.023 26.1172 473.01 25.0684 473.01 23.2578V22.3027C473.01 20.627 474.082 19.5254 475.699 19.5254C477.352 19.5254 478.324 20.6211 478.324 22.4609V23.082H473.994V23.3398C473.994 24.5059 474.686 25.2559 475.77 25.2559C476.572 25.2559 477.164 24.916 477.34 24.3594ZM475.693 20.3809C474.633 20.3809 473.994 21.1074 473.994 22.3262H477.34C477.34 21.1133 476.719 20.3809 475.693 20.3809ZM490.061 26.1055C488.59 26.1055 487.629 25.0449 487.629 23.4102V22.2266C487.629 20.5977 488.59 19.5371 490.061 19.5371C490.98 19.5371 491.66 19.9297 491.936 20.627H492.041V17.1465H493.055V26H492.076V25.0273H491.965C491.637 25.7305 490.969 26.1055 490.061 26.1055ZM490.354 25.1973C491.396 25.1973 492.07 24.4473 492.07 23.2695V22.3555C492.07 21.1836 491.396 20.4336 490.354 20.4336C489.305 20.4336 488.631 21.1836 488.631 22.3555V23.2695C488.631 24.4414 489.305 25.1973 490.354 25.1973ZM497.988 18.084C497.52 18.084 497.162 17.7324 497.162 17.2637C497.162 16.8008 497.52 16.4492 497.988 16.4492C498.457 16.4492 498.814 16.8008 498.814 17.2637C498.814 17.7324 498.457 18.084 497.988 18.084ZM500.654 26H495.387V25.1738H497.566V20.4688H495.404V19.6426H498.551V25.1738H500.654V26ZM504.65 26.1113C503.438 26.1113 502.629 25.3496 502.629 24.1953C502.629 23.0703 503.438 22.4023 504.885 22.3262L506.631 22.2383V21.6641C506.631 20.8672 506.145 20.4277 505.26 20.4277C504.527 20.4277 504.012 20.7383 503.848 21.2832H502.869C502.986 20.2637 503.971 19.5664 505.271 19.5664C506.766 19.5664 507.621 20.3281 507.621 21.6523V26.0059H506.672V25.0508H506.572C506.268 25.7305 505.576 26.1113 504.65 26.1113ZM504.938 25.2383C505.898 25.2383 506.631 24.5996 506.631 23.75V23L504.996 23.0762C504.105 23.1172 503.637 23.498 503.637 24.1602C503.637 24.8281 504.135 25.2383 504.938 25.2383ZM515.49 26H510.223V25.1738H512.396V17.9727H510.24V17.1465H513.393V25.1738H515.49V26ZM520.131 26.1172C518.449 26.1172 517.377 25.0215 517.377 23.3047V22.3438C517.377 20.627 518.449 19.5312 520.131 19.5312C521.812 19.5312 522.885 20.627 522.885 22.3438V23.3047C522.885 25.0215 521.812 26.1172 520.131 26.1172ZM520.131 20.4102C519.041 20.4102 518.361 21.1836 518.361 22.4316V23.2109C518.361 24.4648 519.041 25.2324 520.131 25.2324C521.221 25.2324 521.9 24.4648 521.9 23.2109V22.4316C521.9 21.1836 521.221 20.4102 520.131 20.4102ZM527.361 28.3848C525.891 28.3848 524.906 27.7402 524.777 26.6855H525.762C525.891 27.2129 526.529 27.5586 527.379 27.5586C528.492 27.5586 529.107 26.9961 529.107 25.9766V24.9863H529.002C528.721 25.6543 528.018 26.0586 527.092 26.0586C525.621 26.0586 524.654 24.998 524.654 23.3691V22.2266C524.654 20.5918 525.627 19.5371 527.115 19.5371C528.035 19.5371 528.732 19.9414 529.008 20.627H529.119V19.6426H530.104V26C530.104 27.4941 529.084 28.3848 527.361 28.3848ZM525.656 23.2285C525.656 24.3945 526.336 25.1562 527.391 25.1562C528.439 25.1562 529.113 24.4004 529.113 23.2285V22.3555C529.113 21.1836 528.439 20.4336 527.391 20.4336C526.336 20.4336 525.656 21.1895 525.656 22.3555V23.2285ZM537.568 19.6426V26H536.613V24.8809H536.531C536.191 25.6719 535.465 26.1172 534.498 26.1172C533.115 26.1172 532.365 25.291 532.365 23.7676V19.6426H533.361V23.5156C533.361 24.6641 533.83 25.2031 534.82 25.2031C535.869 25.2031 536.572 24.4707 536.572 23.3867V19.6426H537.568ZM544.102 24.3594H545.068C544.875 25.4082 543.867 26.1172 542.531 26.1172C540.785 26.1172 539.771 25.0684 539.771 23.2578V22.3027C539.771 20.627 540.844 19.5254 542.461 19.5254C544.113 19.5254 545.086 20.6211 545.086 22.4609V23.082H540.756V23.3398C540.756 24.5059 541.447 25.2559 542.531 25.2559C543.334 25.2559 543.926 24.916 544.102 24.3594ZM542.455 20.3809C541.395 20.3809 540.756 21.1074 540.756 22.3262H544.102C544.102 21.1133 543.48 20.3809 542.455 20.3809ZM549.803 26.0352C549.223 26.0352 548.742 25.5488 548.742 24.9512C548.742 24.3594 549.223 23.873 549.803 23.873C550.383 23.873 550.863 24.3594 550.863 24.9512C550.863 25.5488 550.383 26.0352 549.803 26.0352ZM567.451 26H566.426V22.1562H562.852V26H561.826V17.5449H562.852V21.207H566.426V17.5449H567.451V26ZM574.658 19.6426V26H573.703V24.8809H573.621C573.281 25.6719 572.555 26.1172 571.588 26.1172C570.205 26.1172 569.455 25.291 569.455 23.7676V19.6426H570.451V23.5156C570.451 24.6641 570.92 25.2031 571.91 25.2031C572.959 25.2031 573.662 24.4707 573.662 23.3867V19.6426H574.658ZM582.539 21.3184V26H581.643V21.6113C581.643 20.8379 581.361 20.4336 580.828 20.4336C580.271 20.4336 579.932 20.9199 579.932 21.7109V26H579.041V21.6055C579.041 20.8379 578.76 20.4336 578.221 20.4336C577.658 20.4336 577.307 20.9199 577.307 21.7109V26H576.41V19.6426H577.301V20.5391H577.406C577.564 19.9004 578.021 19.5254 578.619 19.5254C579.217 19.5254 579.639 19.8945 579.773 20.5215H579.879C580.043 19.9121 580.553 19.5254 581.191 19.5254C582.076 19.5254 582.539 20.1406 582.539 21.3184ZM586.248 26.1113C585.035 26.1113 584.227 25.3496 584.227 24.1953C584.227 23.0703 585.035 22.4023 586.482 22.3262L588.229 22.2383V21.6641C588.229 20.8672 587.742 20.4277 586.857 20.4277C586.125 20.4277 585.609 20.7383 585.445 21.2832H584.467C584.584 20.2637 585.568 19.5664 586.869 19.5664C588.363 19.5664 589.219 20.3281 589.219 21.6523V26.0059H588.27V25.0508H588.17C587.865 25.7305 587.174 26.1113 586.248 26.1113ZM586.535 25.2383C587.496 25.2383 588.229 24.5996 588.229 23.75V23L586.594 23.0762C585.703 23.1172 585.234 23.498 585.234 24.1602C585.234 24.8281 585.732 25.2383 586.535 25.2383ZM591.709 26V19.6426H592.664V20.7617H592.746C593.086 19.9707 593.812 19.5254 594.779 19.5254C596.162 19.5254 596.912 20.3516 596.912 21.875V26H595.916V22.127C595.916 20.9785 595.447 20.4395 594.457 20.4395C593.408 20.4395 592.705 21.1719 592.705 22.2559V26H591.709ZM599.414 21.3594C599.414 20.2578 600.352 19.5195 601.752 19.5195C603.076 19.5195 603.973 20.1816 604.09 21.2422H603.129C603.012 20.6855 602.479 20.3457 601.734 20.3457C600.926 20.3457 600.404 20.7207 600.404 21.3008C600.404 21.7871 600.732 22.0625 601.529 22.2383L602.426 22.4434C603.662 22.7246 604.225 23.2637 604.225 24.1836C604.225 25.3555 603.246 26.1172 601.74 26.1172C600.299 26.1172 599.344 25.4434 599.232 24.3535H600.246C600.393 24.9395 600.955 25.2793 601.775 25.2793C602.643 25.2793 603.193 24.8867 603.193 24.2773C603.193 23.7734 602.883 23.5039 602.074 23.3223L601.131 23.1055C599.982 22.8418 599.414 22.2617 599.414 21.3594ZM16.1074 39.5371C17.5781 39.5371 18.5391 40.5977 18.5391 42.2324V43.416C18.5391 45.0449 17.5781 46.1055 16.1074 46.1055C15.1875 46.1055 14.5137 45.7129 14.2383 45.0156H14.127V48.1445H13.1133V39.6426H14.0977V40.6152H14.2031C14.5371 39.9121 15.1992 39.5371 16.1074 39.5371ZM15.8203 40.4512C14.7715 40.4512 14.1035 41.2012 14.1035 42.373V43.2871C14.1035 44.4648 14.7715 45.2148 15.8203 45.2148C16.8691 45.2148 17.5371 44.459 17.5371 43.2871V42.373C17.5371 41.2012 16.8691 40.4512 15.8203 40.4512ZM22.875 43.1523V45.2031H24.8438V46H20.6191V45.2031H21.9023V40.4395H20.4902V39.6426H22.8633V41.2656H22.9922C23.2266 40.0879 24.0176 39.4785 25.2422 39.4785C25.6055 39.4785 25.9512 39.5312 26.1621 39.6191V40.7383C25.8691 40.6328 25.459 40.5625 25.1133 40.5625C23.707 40.5625 22.875 41.5352 22.875 43.1523ZM30.5449 46.1172C28.8633 46.1172 27.791 45.0215 27.791 43.3047V42.3438C27.791 40.627 28.8633 39.5312 30.5449 39.5312C32.2266 39.5312 33.2988 40.627 33.2988 42.3438V43.3047C33.2988 45.0215 32.2266 46.1172 30.5449 46.1172ZM30.5449 40.4102C29.4551 40.4102 28.7754 41.1836 28.7754 42.4316V43.2109C28.7754 44.4648 29.4551 45.2324 30.5449 45.2324C31.6348 45.2324 32.3145 44.4648 32.3145 43.2109V42.4316C32.3145 41.1836 31.6348 40.4102 30.5449 40.4102ZM41.0273 41.3184V46H40.1309V41.6113C40.1309 40.8379 39.8496 40.4336 39.3164 40.4336C38.7598 40.4336 38.4199 40.9199 38.4199 41.7109V46H37.5293V41.6055C37.5293 40.8379 37.248 40.4336 36.709 40.4336C36.1465 40.4336 35.7949 40.9199 35.7949 41.7109V46H34.8984V39.6426H35.7891V40.5391H35.8945C36.0527 39.9004 36.5098 39.5254 37.1074 39.5254C37.7051 39.5254 38.127 39.8945 38.2617 40.5215H38.3672C38.5312 39.9121 39.041 39.5254 39.6797 39.5254C40.5645 39.5254 41.0273 40.1406 41.0273 41.3184ZM45.7793 39.5371C47.25 39.5371 48.2109 40.5977 48.2109 42.2324V43.416C48.2109 45.0449 47.25 46.1055 45.7793 46.1055C44.8594 46.1055 44.1855 45.7129 43.9102 45.0156H43.7988V48.1445H42.7852V39.6426H43.7695V40.6152H43.875C44.209 39.9121 44.8711 39.5371 45.7793 39.5371ZM45.4922 40.4512C44.4434 40.4512 43.7754 41.2012 43.7754 42.373V43.2871C43.7754 44.4648 44.4434 45.2148 45.4922 45.2148C46.541 45.2148 47.209 44.459 47.209 43.2871V42.373C47.209 41.2012 46.541 40.4512 45.4922 40.4512ZM51.7148 37.9375H52.6992V39.6602H55.2773V40.5098H52.7109V44.0957C52.7109 44.7871 53.1973 45.1621 54.0938 45.1621C54.4512 45.1621 55.0898 45.1445 55.2598 45.127V45.9707C55.1016 46 54.3281 46.0293 54.0234 46.0293C52.4473 46.0293 51.7148 45.4316 51.7148 44.1074V40.5098H50.0215V39.6602H51.7148V37.9375ZM59.6836 47.9453H58.7402L59.4668 44.1367H60.7852L59.6836 47.9453ZM77.2383 46L76.5059 43.5742H73.5645L72.8262 46H71.7773L74.502 37.5449H75.6035L78.3281 46H77.2383ZM75.0234 38.7871L73.834 42.6895H76.2363L75.0527 38.7871H75.0234ZM84.6973 46H80.2441V45.0801H81.9551V38.4648H80.2441V37.5449H84.6973V38.4648H82.9863V45.0801H84.6973V46ZM96.9082 46.1055C95.4375 46.1055 94.4766 45.0449 94.4766 43.4102V42.2266C94.4766 40.5977 95.4375 39.5371 96.9082 39.5371C97.8281 39.5371 98.5078 39.9297 98.7832 40.627H98.8887V37.1465H99.9023V46H98.9238V45.0273H98.8125C98.4844 45.7305 97.8164 46.1055 96.9082 46.1055ZM97.2012 45.1973C98.2441 45.1973 98.918 44.4473 98.918 43.2695V42.3555C98.918 41.1836 98.2441 40.4336 97.2012 40.4336C96.1523 40.4336 95.4785 41.1836 95.4785 42.3555V43.2695C95.4785 44.4414 96.1523 45.1973 97.2012 45.1973ZM104.473 43.1523V45.2031H106.441V46H102.217V45.2031H103.5V40.4395H102.088V39.6426H104.461V41.2656H104.59C104.824 40.0879 105.615 39.4785 106.84 39.4785C107.203 39.4785 107.549 39.5312 107.76 39.6191V40.7383C107.467 40.6328 107.057 40.5625 106.711 40.5625C105.305 40.5625 104.473 41.5352 104.473 43.1523ZM111.498 46.1113C110.285 46.1113 109.477 45.3496 109.477 44.1953C109.477 43.0703 110.285 42.4023 111.732 42.3262L113.479 42.2383V41.6641C113.479 40.8672 112.992 40.4277 112.107 40.4277C111.375 40.4277 110.859 40.7383 110.695 41.2832H109.717C109.834 40.2637 110.818 39.5664 112.119 39.5664C113.613 39.5664 114.469 40.3281 114.469 41.6523V46.0059H113.52V45.0508H113.42C113.115 45.7305 112.424 46.1113 111.498 46.1113ZM111.785 45.2383C112.746 45.2383 113.479 44.5996 113.479 43.75V43L111.844 43.0762C110.953 43.1172 110.484 43.498 110.484 44.1602C110.484 44.8281 110.982 45.2383 111.785 45.2383ZM118.623 46V40.5098H116.918V39.6602H118.623V39.0215C118.623 37.791 119.385 37.2168 120.949 37.2168C121.318 37.2168 122.203 37.2461 122.414 37.2754V38.0898C122.139 38.0605 121.318 38.0371 120.961 38.0371C120.076 38.0371 119.607 38.3652 119.607 39.0039V39.6602H122.414V40.5098H119.619V46H118.623ZM125.895 37.9375H126.879V39.6602H129.457V40.5098H126.891V44.0957C126.891 44.7871 127.377 45.1621 128.273 45.1621C128.631 45.1621 129.27 45.1445 129.439 45.127V45.9707C129.281 46 128.508 46.0293 128.203 46.0293C126.627 46.0293 125.895 45.4316 125.895 44.1074V40.5098H124.201V39.6602H125.895V37.9375ZM132.082 41.3594C132.082 40.2578 133.02 39.5195 134.42 39.5195C135.744 39.5195 136.641 40.1816 136.758 41.2422H135.797C135.68 40.6855 135.146 40.3457 134.402 40.3457C133.594 40.3457 133.072 40.7207 133.072 41.3008C133.072 41.7871 133.4 42.0625 134.197 42.2383L135.094 42.4434C136.33 42.7246 136.893 43.2637 136.893 44.1836C136.893 45.3555 135.914 46.1172 134.408 46.1172C132.967 46.1172 132.012 45.4434 131.9 44.3535H132.914C133.061 44.9395 133.623 45.2793 134.443 45.2793C135.311 45.2793 135.861 44.8867 135.861 44.2773C135.861 43.7734 135.551 43.5039 134.742 43.3223L133.799 43.1055C132.65 42.8418 132.082 42.2617 132.082 41.3594ZM141.814 41.5352C141.234 41.5352 140.754 41.043 140.754 40.4512C140.754 39.8594 141.234 39.3672 141.814 39.3672C142.395 39.3672 142.875 39.8594 142.875 40.4512C142.875 41.043 142.395 41.5352 141.814 41.5352ZM141.305 47.9512H140.361L141.088 44.1367H142.406L141.305 47.9512ZM154.043 46V37.1465H155.004V40.7676H155.086C155.42 39.9766 156.152 39.5312 157.125 39.5312C158.508 39.5312 159.258 40.3633 159.258 41.8809V46H158.262V42.1328C158.262 40.9902 157.793 40.4453 156.797 40.4453C155.748 40.4453 155.039 41.1777 155.039 42.2617V46H154.043ZM166.67 39.6426V46H165.715V44.8809H165.633C165.293 45.6719 164.566 46.1172 163.6 46.1172C162.217 46.1172 161.467 45.291 161.467 43.7676V39.6426H162.463V43.5156C162.463 44.6641 162.932 45.2031 163.922 45.2031C164.971 45.2031 165.674 44.4707 165.674 43.3867V39.6426H166.67ZM174.551 41.3184V46H173.654V41.6113C173.654 40.8379 173.373 40.4336 172.84 40.4336C172.283 40.4336 171.943 40.9199 171.943 41.7109V46H171.053V41.6055C171.053 40.8379 170.771 40.4336 170.232 40.4336C169.67 40.4336 169.318 40.9199 169.318 41.7109V46H168.422V39.6426H169.312V40.5391H169.418C169.576 39.9004 170.033 39.5254 170.631 39.5254C171.229 39.5254 171.65 39.8945 171.785 40.5215H171.891C172.055 39.9121 172.564 39.5254 173.203 39.5254C174.088 39.5254 174.551 40.1406 174.551 41.3184ZM178.26 46.1113C177.047 46.1113 176.238 45.3496 176.238 44.1953C176.238 43.0703 177.047 42.4023 178.494 42.3262L180.24 42.2383V41.6641C180.24 40.8672 179.754 40.4277 178.869 40.4277C178.137 40.4277 177.621 40.7383 177.457 41.2832H176.479C176.596 40.2637 177.58 39.5664 178.881 39.5664C180.375 39.5664 181.23 40.3281 181.23 41.6523V46.0059H180.281V45.0508H180.182C179.877 45.7305 179.186 46.1113 178.26 46.1113ZM178.547 45.2383C179.508 45.2383 180.24 44.5996 180.24 43.75V43L178.605 43.0762C177.715 43.1172 177.246 43.498 177.246 44.1602C177.246 44.8281 177.744 45.2383 178.547 45.2383ZM183.721 46V39.6426H184.676V40.7617H184.758C185.098 39.9707 185.824 39.5254 186.791 39.5254C188.174 39.5254 188.924 40.3516 188.924 41.875V46H187.928V42.127C187.928 40.9785 187.459 40.4395 186.469 40.4395C185.42 40.4395 184.717 41.1719 184.717 42.2559V46H183.721ZM191.426 41.3594C191.426 40.2578 192.363 39.5195 193.764 39.5195C195.088 39.5195 195.984 40.1816 196.102 41.2422H195.141C195.023 40.6855 194.49 40.3457 193.746 40.3457C192.938 40.3457 192.416 40.7207 192.416 41.3008C192.416 41.7871 192.744 42.0625 193.541 42.2383L194.438 42.4434C195.674 42.7246 196.236 43.2637 196.236 44.1836C196.236 45.3555 195.258 46.1172 193.752 46.1172C192.311 46.1172 191.355 45.4434 191.244 44.3535H192.258C192.404 44.9395 192.967 45.2793 193.787 45.2793C194.654 45.2793 195.205 44.8867 195.205 44.2773C195.205 43.7734 194.895 43.5039 194.086 43.3223L193.143 43.1055C191.994 42.8418 191.426 42.2617 191.426 41.3594ZM208.324 43.1523V45.2031H210.293V46H206.068V45.2031H207.352V40.4395H205.939V39.6426H208.312V41.2656H208.441C208.676 40.0879 209.467 39.4785 210.691 39.4785C211.055 39.4785 211.4 39.5312 211.611 39.6191V40.7383C211.318 40.6328 210.908 40.5625 210.562 40.5625C209.156 40.5625 208.324 41.5352 208.324 43.1523ZM217.711 44.3594H218.678C218.484 45.4082 217.477 46.1172 216.141 46.1172C214.395 46.1172 213.381 45.0684 213.381 43.2578V42.3027C213.381 40.627 214.453 39.5254 216.07 39.5254C217.723 39.5254 218.695 40.6211 218.695 42.4609V43.082H214.365V43.3398C214.365 44.5059 215.057 45.2559 216.141 45.2559C216.943 45.2559 217.535 44.916 217.711 44.3594ZM216.064 40.3809C215.004 40.3809 214.365 41.1074 214.365 42.3262H217.711C217.711 41.1133 217.09 40.3809 216.064 40.3809ZM222.475 46V40.5098H220.77V39.6602H222.475V39.0215C222.475 37.791 223.236 37.2168 224.801 37.2168C225.17 37.2168 226.055 37.2461 226.266 37.2754V38.0898C225.99 38.0605 225.17 38.0371 224.812 38.0371C223.928 38.0371 223.459 38.3652 223.459 39.0039V39.6602H226.266V40.5098H223.471V46H222.475ZM230.941 38.084C230.473 38.084 230.115 37.7324 230.115 37.2637C230.115 36.8008 230.473 36.4492 230.941 36.4492C231.41 36.4492 231.768 36.8008 231.768 37.2637C231.768 37.7324 231.41 38.084 230.941 38.084ZM233.607 46H228.34V45.1738H230.52V40.4688H228.357V39.6426H231.504V45.1738H233.607V46ZM235.646 46V39.6426H236.602V40.7617H236.684C237.023 39.9707 237.75 39.5254 238.717 39.5254C240.1 39.5254 240.85 40.3516 240.85 41.875V46H239.854V42.127C239.854 40.9785 239.385 40.4395 238.395 40.4395C237.346 40.4395 236.643 41.1719 236.643 42.2559V46H235.646ZM247.383 44.3594H248.35C248.156 45.4082 247.148 46.1172 245.812 46.1172C244.066 46.1172 243.053 45.0684 243.053 43.2578V42.3027C243.053 40.627 244.125 39.5254 245.742 39.5254C247.395 39.5254 248.367 40.6211 248.367 42.4609V43.082H244.037V43.3398C244.037 44.5059 244.729 45.2559 245.812 45.2559C246.615 45.2559 247.207 44.916 247.383 44.3594ZM245.736 40.3809C244.676 40.3809 244.037 41.1074 244.037 42.3262H247.383C247.383 41.1133 246.762 40.3809 245.736 40.3809ZM252.551 47.9453H251.607L252.334 44.1367H253.652L252.551 47.9453ZM270.105 46L269.373 43.5742H266.432L265.693 46H264.645L267.369 37.5449H268.471L271.195 46H270.105ZM267.891 38.7871L266.701 42.6895H269.104L267.92 38.7871H267.891ZM277.564 46H273.111V45.0801H274.822V38.4648H273.111V37.5449H277.564V38.4648H275.854V45.0801H277.564V46ZM289.922 43.1523V45.2031H291.891V46H287.666V45.2031H288.949V40.4395H287.537V39.6426H289.91V41.2656H290.039C290.273 40.0879 291.064 39.4785 292.289 39.4785C292.652 39.4785 292.998 39.5312 293.209 39.6191V40.7383C292.916 40.6328 292.506 40.5625 292.16 40.5625C290.754 40.5625 289.922 41.5352 289.922 43.1523ZM299.309 44.3594H300.275C300.082 45.4082 299.074 46.1172 297.738 46.1172C295.992 46.1172 294.979 45.0684 294.979 43.2578V42.3027C294.979 40.627 296.051 39.5254 297.668 39.5254C299.32 39.5254 300.293 40.6211 300.293 42.4609V43.082H295.963V43.3398C295.963 44.5059 296.654 45.2559 297.738 45.2559C298.541 45.2559 299.133 44.916 299.309 44.3594ZM297.662 40.3809C296.602 40.3809 295.963 41.1074 295.963 42.3262H299.309C299.309 41.1133 298.688 40.3809 297.662 40.3809ZM302.139 39.6426H303.205L304.98 44.9336H305.057L306.82 39.6426H307.881L305.561 46H304.465L302.139 39.6426ZM312.539 38.084C312.07 38.084 311.713 37.7324 311.713 37.2637C311.713 36.8008 312.07 36.4492 312.539 36.4492C313.008 36.4492 313.365 36.8008 313.365 37.2637C313.365 37.7324 313.008 38.084 312.539 38.084ZM315.205 46H309.938V45.1738H312.117V40.4688H309.955V39.6426H313.102V45.1738H315.205V46ZM317.531 41.3594C317.531 40.2578 318.469 39.5195 319.869 39.5195C321.193 39.5195 322.09 40.1816 322.207 41.2422H321.246C321.129 40.6855 320.596 40.3457 319.852 40.3457C319.043 40.3457 318.521 40.7207 318.521 41.3008C318.521 41.7871 318.85 42.0625 319.646 42.2383L320.543 42.4434C321.779 42.7246 322.342 43.2637 322.342 44.1836C322.342 45.3555 321.363 46.1172 319.857 46.1172C318.416 46.1172 317.461 45.4434 317.35 44.3535H318.363C318.51 44.9395 319.072 45.2793 319.893 45.2793C320.76 45.2793 321.311 44.8867 321.311 44.2773C321.311 43.7734 321 43.5039 320.191 43.3223L319.248 43.1055C318.1 42.8418 317.531 42.2617 317.531 41.3594ZM328.98 44.3594H329.947C329.754 45.4082 328.746 46.1172 327.41 46.1172C325.664 46.1172 324.65 45.0684 324.65 43.2578V42.3027C324.65 40.627 325.723 39.5254 327.34 39.5254C328.992 39.5254 329.965 40.6211 329.965 42.4609V43.082H325.635V43.3398C325.635 44.5059 326.326 45.2559 327.41 45.2559C328.213 45.2559 328.805 44.916 328.98 44.3594ZM327.334 40.3809C326.273 40.3809 325.635 41.1074 325.635 42.3262H328.98C328.98 41.1133 328.359 40.3809 327.334 40.3809ZM332.367 41.3594C332.367 40.2578 333.305 39.5195 334.705 39.5195C336.029 39.5195 336.926 40.1816 337.043 41.2422H336.082C335.965 40.6855 335.432 40.3457 334.688 40.3457C333.879 40.3457 333.357 40.7207 333.357 41.3008C333.357 41.7871 333.686 42.0625 334.482 42.2383L335.379 42.4434C336.615 42.7246 337.178 43.2637 337.178 44.1836C337.178 45.3555 336.199 46.1172 334.693 46.1172C333.252 46.1172 332.297 45.4434 332.186 44.3535H333.199C333.346 44.9395 333.908 45.2793 334.729 45.2793C335.596 45.2793 336.146 44.8867 336.146 44.2773C336.146 43.7734 335.836 43.5039 335.027 43.3223L334.084 43.1055C332.936 42.8418 332.367 42.2617 332.367 41.3594ZM353.227 42.7129H345.809V41.7871H353.227V42.7129ZM363.709 46.1113C362.496 46.1113 361.688 45.3496 361.688 44.1953C361.688 43.0703 362.496 42.4023 363.943 42.3262L365.689 42.2383V41.6641C365.689 40.8672 365.203 40.4277 364.318 40.4277C363.586 40.4277 363.07 40.7383 362.906 41.2832H361.928C362.045 40.2637 363.029 39.5664 364.33 39.5664C365.824 39.5664 366.68 40.3281 366.68 41.6523V46.0059H365.73V45.0508H365.631C365.326 45.7305 364.635 46.1113 363.709 46.1113ZM363.996 45.2383C364.957 45.2383 365.689 44.5996 365.689 43.75V43L364.055 43.0762C363.164 43.1172 362.695 43.498 362.695 44.1602C362.695 44.8281 363.193 45.2383 363.996 45.2383ZM374.549 46H369.281V45.1738H371.455V37.9727H369.299V37.1465H372.451V45.1738H374.549V46ZM381.967 46H376.699V45.1738H378.873V37.9727H376.717V37.1465H379.869V45.1738H381.967V46ZM394.025 46.1172C392.344 46.1172 391.271 45.0215 391.271 43.3047V42.3438C391.271 40.627 392.344 39.5312 394.025 39.5312C395.707 39.5312 396.779 40.627 396.779 42.3438V43.3047C396.779 45.0215 395.707 46.1172 394.025 46.1172ZM394.025 40.4102C392.936 40.4102 392.256 41.1836 392.256 42.4316V43.2109C392.256 44.4648 392.936 45.2324 394.025 45.2324C395.115 45.2324 395.795 44.4648 395.795 43.2109V42.4316C395.795 41.1836 395.115 40.4102 394.025 40.4102ZM398.842 46V39.6426H399.797V40.7617H399.879C400.219 39.9707 400.945 39.5254 401.912 39.5254C403.295 39.5254 404.045 40.3516 404.045 41.875V46H403.049V42.127C403.049 40.9785 402.58 40.4395 401.59 40.4395C400.541 40.4395 399.838 41.1719 399.838 42.2559V46H398.842ZM415.195 37.9375H416.18V39.6602H418.758V40.5098H416.191V44.0957C416.191 44.7871 416.678 45.1621 417.574 45.1621C417.932 45.1621 418.57 45.1445 418.74 45.127V45.9707C418.582 46 417.809 46.0293 417.504 46.0293C415.928 46.0293 415.195 45.4316 415.195 44.1074V40.5098H413.502V39.6602H415.195V37.9375ZM421.09 46V37.1465H422.051V40.7676H422.133C422.467 39.9766 423.199 39.5312 424.172 39.5312C425.555 39.5312 426.305 40.3633 426.305 41.8809V46H425.309V42.1328C425.309 40.9902 424.84 40.4453 423.844 40.4453C422.795 40.4453 422.086 41.1777 422.086 42.2617V46H421.09ZM432.832 44.3594H433.799C433.605 45.4082 432.598 46.1172 431.262 46.1172C429.516 46.1172 428.502 45.0684 428.502 43.2578V42.3027C428.502 40.627 429.574 39.5254 431.191 39.5254C432.844 39.5254 433.816 40.6211 433.816 42.4609V43.082H429.486V43.3398C429.486 44.5059 430.178 45.2559 431.262 45.2559C432.064 45.2559 432.656 44.916 432.832 44.3594ZM431.186 40.3809C430.125 40.3809 429.486 41.1074 429.486 42.3262H432.832C432.832 41.1133 432.211 40.3809 431.186 40.3809ZM443.637 41.3594C443.637 40.2578 444.574 39.5195 445.975 39.5195C447.299 39.5195 448.195 40.1816 448.312 41.2422H447.352C447.234 40.6855 446.701 40.3457 445.957 40.3457C445.148 40.3457 444.627 40.7207 444.627 41.3008C444.627 41.7871 444.955 42.0625 445.752 42.2383L446.648 42.4434C447.885 42.7246 448.447 43.2637 448.447 44.1836C448.447 45.3555 447.469 46.1172 445.963 46.1172C444.521 46.1172 443.566 45.4434 443.455 44.3535H444.469C444.615 44.9395 445.178 45.2793 445.998 45.2793C446.865 45.2793 447.416 44.8867 447.416 44.2773C447.416 43.7734 447.105 43.5039 446.297 43.3223L445.354 43.1055C444.205 42.8418 443.637 42.2617 443.637 41.3594ZM452.725 46.1113C451.512 46.1113 450.703 45.3496 450.703 44.1953C450.703 43.0703 451.512 42.4023 452.959 42.3262L454.705 42.2383V41.6641C454.705 40.8672 454.219 40.4277 453.334 40.4277C452.602 40.4277 452.086 40.7383 451.922 41.2832H450.943C451.061 40.2637 452.045 39.5664 453.346 39.5664C454.84 39.5664 455.695 40.3281 455.695 41.6523V46.0059H454.746V45.0508H454.646C454.342 45.7305 453.65 46.1113 452.725 46.1113ZM453.012 45.2383C453.973 45.2383 454.705 44.5996 454.705 43.75V43L453.07 43.0762C452.18 43.1172 451.711 43.498 451.711 44.1602C451.711 44.8281 452.209 45.2383 453.012 45.2383ZM463.852 41.3184V46H462.955V41.6113C462.955 40.8379 462.674 40.4336 462.141 40.4336C461.584 40.4336 461.244 40.9199 461.244 41.7109V46H460.354V41.6055C460.354 40.8379 460.072 40.4336 459.533 40.4336C458.971 40.4336 458.619 40.9199 458.619 41.7109V46H457.723V39.6426H458.613V40.5391H458.719C458.877 39.9004 459.334 39.5254 459.932 39.5254C460.529 39.5254 460.951 39.8945 461.086 40.5215H461.191C461.355 39.9121 461.865 39.5254 462.504 39.5254C463.389 39.5254 463.852 40.1406 463.852 41.3184ZM469.922 44.3594H470.889C470.695 45.4082 469.688 46.1172 468.352 46.1172C466.605 46.1172 465.592 45.0684 465.592 43.2578V42.3027C465.592 40.627 466.664 39.5254 468.281 39.5254C469.934 39.5254 470.906 40.6211 470.906 42.4609V43.082H466.576V43.3398C466.576 44.5059 467.268 45.2559 468.352 45.2559C469.154 45.2559 469.746 44.916 469.922 44.3594ZM468.275 40.3809C467.215 40.3809 466.576 41.1074 466.576 42.3262H469.922C469.922 41.1133 469.301 40.3809 468.275 40.3809ZM482.396 46.1113C481.184 46.1113 480.375 45.3496 480.375 44.1953C480.375 43.0703 481.184 42.4023 482.631 42.3262L484.377 42.2383V41.6641C484.377 40.8672 483.891 40.4277 483.006 40.4277C482.273 40.4277 481.758 40.7383 481.594 41.2832H480.615C480.732 40.2637 481.717 39.5664 483.018 39.5664C484.512 39.5664 485.367 40.3281 485.367 41.6523V46.0059H484.418V45.0508H484.318C484.014 45.7305 483.322 46.1113 482.396 46.1113ZM482.684 45.2383C483.645 45.2383 484.377 44.5996 484.377 43.75V43L482.742 43.0762C481.852 43.1172 481.383 43.498 481.383 44.1602C481.383 44.8281 481.881 45.2383 482.684 45.2383ZM490.207 43.1523V45.2031H492.176V46H487.951V45.2031H489.234V40.4395H487.822V39.6426H490.195V41.2656H490.324C490.559 40.0879 491.35 39.4785 492.574 39.4785C492.938 39.4785 493.283 39.5312 493.494 39.6191V40.7383C493.201 40.6328 492.791 40.5625 492.445 40.5625C491.039 40.5625 490.207 41.5352 490.207 43.1523ZM496.793 37.9375H497.777V39.6602H500.355V40.5098H497.789V44.0957C497.789 44.7871 498.275 45.1621 499.172 45.1621C499.529 45.1621 500.168 45.1445 500.338 45.127V45.9707C500.18 46 499.406 46.0293 499.102 46.0293C497.525 46.0293 496.793 45.4316 496.793 44.1074V40.5098H495.1V39.6602H496.793V37.9375ZM505.406 38.084C504.938 38.084 504.58 37.7324 504.58 37.2637C504.58 36.8008 504.938 36.4492 505.406 36.4492C505.875 36.4492 506.232 36.8008 506.232 37.2637C506.232 37.7324 505.875 38.084 505.406 38.084ZM508.072 46H502.805V45.1738H504.984V40.4688H502.822V39.6426H505.969V45.1738H508.072V46ZM511.775 46V40.5098H510.07V39.6602H511.775V39.0215C511.775 37.791 512.537 37.2168 514.102 37.2168C514.471 37.2168 515.355 37.2461 515.566 37.2754V38.0898C515.291 38.0605 514.471 38.0371 514.113 38.0371C513.229 38.0371 512.76 38.3652 512.76 39.0039V39.6602H515.566V40.5098H512.771V46H511.775ZM519.486 46.1113C518.273 46.1113 517.465 45.3496 517.465 44.1953C517.465 43.0703 518.273 42.4023 519.721 42.3262L521.467 42.2383V41.6641C521.467 40.8672 520.98 40.4277 520.096 40.4277C519.363 40.4277 518.848 40.7383 518.684 41.2832H517.705C517.822 40.2637 518.807 39.5664 520.107 39.5664C521.602 39.5664 522.457 40.3281 522.457 41.6523V46.0059H521.508V45.0508H521.408C521.104 45.7305 520.412 46.1113 519.486 46.1113ZM519.773 45.2383C520.734 45.2383 521.467 44.5996 521.467 43.75V43L519.832 43.0762C518.941 43.1172 518.473 43.498 518.473 44.1602C518.473 44.8281 518.971 45.2383 519.773 45.2383ZM530.197 41.623H529.213C529.09 40.8789 528.469 40.4102 527.648 40.4102C526.541 40.4102 525.926 41.166 525.926 42.5312V43.1055C525.926 44.4707 526.541 45.2207 527.648 45.2207C528.469 45.2207 529.09 44.7578 529.213 44.0312H530.197C530.039 45.3262 529.072 46.1172 527.666 46.1172C525.938 46.1172 524.93 45.0566 524.93 43.2344V42.4023C524.93 40.5801 525.938 39.5195 527.666 39.5195C529.072 39.5195 530.033 40.3164 530.197 41.623ZM533.883 37.9375H534.867V39.6602H537.445V40.5098H534.879V44.0957C534.879 44.7871 535.365 45.1621 536.262 45.1621C536.619 45.1621 537.258 45.1445 537.428 45.127V45.9707C537.27 46 536.496 46.0293 536.191 46.0293C534.615 46.0293 533.883 45.4316 533.883 44.1074V40.5098H532.189V39.6602H533.883V37.9375ZM542.385 46.0352C541.805 46.0352 541.324 45.5488 541.324 44.9512C541.324 44.3594 541.805 43.873 542.385 43.873C542.965 43.873 543.445 44.3594 543.445 44.9512C543.445 45.5488 542.965 46.0352 542.385 46.0352ZM18.8086 82.4551C18.8086 84.793 17.6309 86.1758 15.709 86.1758C13.7871 86.1758 12.6094 84.793 12.6094 82.4551V81.0898C12.6094 78.752 13.7871 77.3691 15.709 77.3691C17.6309 77.3691 18.8086 78.752 18.8086 81.0898V82.4551ZM15.709 85.1973C16.9922 85.1973 17.7656 84.2129 17.7656 82.4492V81.0957C17.7656 79.332 16.9922 78.3477 15.709 78.3477C14.4258 78.3477 13.6523 79.332 13.6523 81.0957V82.4492C13.6523 84.2129 14.4258 85.1973 15.709 85.1973ZM20.5254 86V79.6426H21.4805V80.7617H21.5625C21.9023 79.9707 22.6289 79.5254 23.5957 79.5254C24.9785 79.5254 25.7285 80.3516 25.7285 81.875V86H24.7324V82.127C24.7324 80.9785 24.2637 80.4395 23.2734 80.4395C22.2246 80.4395 21.5215 81.1719 21.5215 82.2559V86H20.5254ZM33.1934 81.623H32.209C32.0859 80.8789 31.4648 80.4102 30.6445 80.4102C29.5371 80.4102 28.9219 81.166 28.9219 82.5312V83.1055C28.9219 84.4707 29.5371 85.2207 30.6445 85.2207C31.4648 85.2207 32.0859 84.7578 32.209 84.0312H33.1934C33.0352 85.3262 32.0684 86.1172 30.6621 86.1172C28.9336 86.1172 27.9258 85.0566 27.9258 83.2344V82.4023C27.9258 80.5801 28.9336 79.5195 30.6621 79.5195C32.0684 79.5195 33.0293 80.3164 33.1934 81.623ZM39.6797 84.3594H40.6465C40.4531 85.4082 39.4453 86.1172 38.1094 86.1172C36.3633 86.1172 35.3496 85.0684 35.3496 83.2578V82.3027C35.3496 80.627 36.4219 79.5254 38.0391 79.5254C39.6914 79.5254 40.6641 80.6211 40.6641 82.4609V83.082H36.334V83.3398C36.334 84.5059 37.0254 85.2559 38.1094 85.2559C38.9121 85.2559 39.5039 84.916 39.6797 84.3594ZM38.0332 80.3809C36.9727 80.3809 36.334 81.1074 36.334 82.3262H39.6797C39.6797 81.1133 39.0586 80.3809 38.0332 80.3809ZM51.0176 88.2617C50.8711 88.2617 50.6777 88.2559 50.5898 88.2441V87.3711C50.666 87.3887 50.8477 87.3945 50.9414 87.3945C51.5391 87.3945 51.8672 87.125 52.1309 86.3867L52.2422 86.041L49.9043 79.6426H50.9883L52.7695 84.9629H52.8457L54.6211 79.6426H55.6816L53.2852 86.2344C52.7285 87.7988 52.1953 88.2617 51.0176 88.2617ZM60.2168 86.1172C58.5352 86.1172 57.4629 85.0215 57.4629 83.3047V82.3438C57.4629 80.627 58.5352 79.5312 60.2168 79.5312C61.8984 79.5312 62.9707 80.627 62.9707 82.3438V83.3047C62.9707 85.0215 61.8984 86.1172 60.2168 86.1172ZM60.2168 80.4102C59.127 80.4102 58.4473 81.1836 58.4473 82.4316V83.2109C58.4473 84.4648 59.127 85.2324 60.2168 85.2324C61.3066 85.2324 61.9863 84.4648 61.9863 83.2109V82.4316C61.9863 81.1836 61.3066 80.4102 60.2168 80.4102ZM70.2363 79.6426V86H69.2812V84.8809H69.1992C68.8594 85.6719 68.1328 86.1172 67.166 86.1172C65.7832 86.1172 65.0332 85.291 65.0332 83.7676V79.6426H66.0293V83.5156C66.0293 84.6641 66.498 85.2031 67.4883 85.2031C68.5371 85.2031 69.2402 84.4707 69.2402 83.3867V79.6426H70.2363ZM85.9043 79.6426L84.5391 86H83.584L82.5059 81.043H82.4355L81.3574 86H80.4023L79.0371 79.6426H80.0098L80.8711 84.7402H80.9766L82.002 79.6484H82.9395L83.9648 84.7402H84.0703L84.9316 79.6426H85.9043ZM89.8887 86.1172C88.207 86.1172 87.1348 85.0215 87.1348 83.3047V82.3438C87.1348 80.627 88.207 79.5312 89.8887 79.5312C91.5703 79.5312 92.6426 80.627 92.6426 82.3438V83.3047C92.6426 85.0215 91.5703 86.1172 89.8887 86.1172ZM89.8887 80.4102C88.7988 80.4102 88.1191 81.1836 88.1191 82.4316V83.2109C88.1191 84.4648 88.7988 85.2324 89.8887 85.2324C90.9785 85.2324 91.6582 84.4648 91.6582 83.2109V82.4316C91.6582 81.1836 90.9785 80.4102 89.8887 80.4102ZM97.0547 83.1523V85.2031H99.0234V86H94.7988V85.2031H96.082V80.4395H94.6699V79.6426H97.043V81.2656H97.1719C97.4062 80.0879 98.1973 79.4785 99.4219 79.4785C99.7852 79.4785 100.131 79.5312 100.342 79.6191V80.7383C100.049 80.6328 99.6387 80.5625 99.293 80.5625C97.8867 80.5625 97.0547 81.5352 97.0547 83.1523ZM103.664 82.4961L106.436 79.6426H107.643L105.176 82.1621L107.818 86H106.635L104.467 82.8418L103.588 83.6855V86H102.592V77.1465H103.588V82.4961H103.664ZM118.477 77.9375H119.461V79.6602H122.039V80.5098H119.473V84.0957C119.473 84.7871 119.959 85.1621 120.855 85.1621C121.213 85.1621 121.852 85.1445 122.021 85.127V85.9707C121.863 86 121.09 86.0293 120.785 86.0293C119.209 86.0293 118.477 85.4316 118.477 84.1074V80.5098H116.783V79.6602H118.477V77.9375ZM124.371 86V77.1465H125.332V80.7676H125.414C125.748 79.9766 126.48 79.5312 127.453 79.5312C128.836 79.5312 129.586 80.3633 129.586 81.8809V86H128.59V82.1328C128.59 80.9902 128.121 80.4453 127.125 80.4453C126.076 80.4453 125.367 81.1777 125.367 82.2617V86H124.371ZM134.508 78.084C134.039 78.084 133.682 77.7324 133.682 77.2637C133.682 76.8008 134.039 76.4492 134.508 76.4492C134.977 76.4492 135.334 76.8008 135.334 77.2637C135.334 77.7324 134.977 78.084 134.508 78.084ZM137.174 86H131.906V85.1738H134.086V80.4688H131.924V79.6426H135.07V85.1738H137.174V86ZM139.5 81.3594C139.5 80.2578 140.438 79.5195 141.838 79.5195C143.162 79.5195 144.059 80.1816 144.176 81.2422H143.215C143.098 80.6855 142.564 80.3457 141.82 80.3457C141.012 80.3457 140.49 80.7207 140.49 81.3008C140.49 81.7871 140.818 82.0625 141.615 82.2383L142.512 82.4434C143.748 82.7246 144.311 83.2637 144.311 84.1836C144.311 85.3555 143.332 86.1172 141.826 86.1172C140.385 86.1172 139.43 85.4434 139.318 84.3535H140.332C140.479 84.9395 141.041 85.2793 141.861 85.2793C142.729 85.2793 143.279 84.8867 143.279 84.2773C143.279 83.7734 142.969 83.5039 142.16 83.3223L141.217 83.1055C140.068 82.8418 139.5 82.2617 139.5 81.3594ZM160.084 79.6426L158.719 86H157.764L156.686 81.043H156.615L155.537 86H154.582L153.217 79.6426H154.189L155.051 84.7402H155.156L156.182 79.6484H157.119L158.145 84.7402H158.25L159.111 79.6426H160.084ZM163.424 86.1113C162.211 86.1113 161.402 85.3496 161.402 84.1953C161.402 83.0703 162.211 82.4023 163.658 82.3262L165.404 82.2383V81.6641C165.404 80.8672 164.918 80.4277 164.033 80.4277C163.301 80.4277 162.785 80.7383 162.621 81.2832H161.643C161.76 80.2637 162.744 79.5664 164.045 79.5664C165.539 79.5664 166.395 80.3281 166.395 81.6523V86.0059H165.445V85.0508H165.346C165.041 85.7305 164.35 86.1113 163.424 86.1113ZM163.711 85.2383C164.672 85.2383 165.404 84.5996 165.404 83.75V83L163.77 83.0762C162.879 83.1172 162.41 83.498 162.41 84.1602C162.41 84.8281 162.908 85.2383 163.711 85.2383ZM169.705 88.2617C169.559 88.2617 169.365 88.2559 169.277 88.2441V87.3711C169.354 87.3887 169.535 87.3945 169.629 87.3945C170.227 87.3945 170.555 87.125 170.818 86.3867L170.93 86.041L168.592 79.6426H169.676L171.457 84.9629H171.533L173.309 79.6426H174.369L171.973 86.2344C171.416 87.7988 170.883 88.2617 169.705 88.2617ZM178.371 87.9453H177.428L178.154 84.1367H179.473L178.371 87.9453ZM193.852 78.084C193.383 78.084 193.025 77.7324 193.025 77.2637C193.025 76.8008 193.383 76.4492 193.852 76.4492C194.32 76.4492 194.678 76.8008 194.678 77.2637C194.678 77.7324 194.32 78.084 193.852 78.084ZM196.518 86H191.25V85.1738H193.43V80.4688H191.268V79.6426H194.414V85.1738H196.518V86ZM200.074 77.9375H201.059V79.6602H203.637V80.5098H201.07V84.0957C201.07 84.7871 201.557 85.1621 202.453 85.1621C202.811 85.1621 203.449 85.1445 203.619 85.127V85.9707C203.461 86 202.688 86.0293 202.383 86.0293C200.807 86.0293 200.074 85.4316 200.074 84.1074V80.5098H198.381V79.6602H200.074V77.9375ZM209.109 81.3594H208.043V77.5449H209.109V81.3594ZM213.68 81.3594C213.68 80.2578 214.617 79.5195 216.018 79.5195C217.342 79.5195 218.238 80.1816 218.355 81.2422H217.395C217.277 80.6855 216.744 80.3457 216 80.3457C215.191 80.3457 214.67 80.7207 214.67 81.3008C214.67 81.7871 214.998 82.0625 215.795 82.2383L216.691 82.4434C217.928 82.7246 218.49 83.2637 218.49 84.1836C218.49 85.3555 217.512 86.1172 216.006 86.1172C214.564 86.1172 213.609 85.4434 213.498 84.3535H214.512C214.658 84.9395 215.221 85.2793 216.041 85.2793C216.908 85.2793 217.459 84.8867 217.459 84.2773C217.459 83.7734 217.148 83.5039 216.34 83.3223L215.396 83.1055C214.248 82.8418 213.68 82.2617 213.68 81.3594ZM228.223 86V77.1465H229.184V80.7676H229.266C229.6 79.9766 230.332 79.5312 231.305 79.5312C232.688 79.5312 233.438 80.3633 233.438 81.8809V86H232.441V82.1328C232.441 80.9902 231.973 80.4453 230.977 80.4453C229.928 80.4453 229.219 81.1777 229.219 82.2617V86H228.223ZM237.604 86.1113C236.391 86.1113 235.582 85.3496 235.582 84.1953C235.582 83.0703 236.391 82.4023 237.838 82.3262L239.584 82.2383V81.6641C239.584 80.8672 239.098 80.4277 238.213 80.4277C237.48 80.4277 236.965 80.7383 236.801 81.2832H235.822C235.939 80.2637 236.924 79.5664 238.225 79.5664C239.719 79.5664 240.574 80.3281 240.574 81.6523V86.0059H239.625V85.0508H239.525C239.221 85.7305 238.529 86.1113 237.604 86.1113ZM237.891 85.2383C238.852 85.2383 239.584 84.5996 239.584 83.75V83L237.949 83.0762C237.059 83.1172 236.59 83.498 236.59 84.1602C236.59 84.8281 237.088 85.2383 237.891 85.2383ZM245.414 83.1523V85.2031H247.383V86H243.158V85.2031H244.441V80.4395H243.029V79.6426H245.402V81.2656H245.531C245.766 80.0879 246.557 79.4785 247.781 79.4785C248.145 79.4785 248.49 79.5312 248.701 79.6191V80.7383C248.408 80.6328 247.998 80.5625 247.652 80.5625C246.246 80.5625 245.414 81.5352 245.414 83.1523ZM252.686 86.1055C251.215 86.1055 250.254 85.0449 250.254 83.4102V82.2266C250.254 80.5977 251.215 79.5371 252.686 79.5371C253.605 79.5371 254.285 79.9297 254.561 80.627H254.666V77.1465H255.68V86H254.701V85.0273H254.59C254.262 85.7305 253.594 86.1055 252.686 86.1055ZM252.979 85.1973C254.021 85.1973 254.695 84.4473 254.695 83.2695V82.3555C254.695 81.1836 254.021 80.4336 252.979 80.4336C251.93 80.4336 251.256 81.1836 251.256 82.3555V83.2695C251.256 84.4414 251.93 85.1973 252.979 85.1973ZM266.836 77.9375H267.82V79.6602H270.398V80.5098H267.832V84.0957C267.832 84.7871 268.318 85.1621 269.215 85.1621C269.572 85.1621 270.211 85.1445 270.381 85.127V85.9707C270.223 86 269.449 86.0293 269.145 86.0293C267.568 86.0293 266.836 85.4316 266.836 84.1074V80.5098H265.143V79.6602H266.836V77.9375ZM275.338 86.1172C273.656 86.1172 272.584 85.0215 272.584 83.3047V82.3438C272.584 80.627 273.656 79.5312 275.338 79.5312C277.02 79.5312 278.092 80.627 278.092 82.3438V83.3047C278.092 85.0215 277.02 86.1172 275.338 86.1172ZM275.338 80.4102C274.248 80.4102 273.568 81.1836 273.568 82.4316V83.2109C273.568 84.4648 274.248 85.2324 275.338 85.2324C276.428 85.2324 277.107 84.4648 277.107 83.2109V82.4316C277.107 81.1836 276.428 80.4102 275.338 80.4102ZM289.986 88.3848C288.516 88.3848 287.531 87.7402 287.402 86.6855H288.387C288.516 87.2129 289.154 87.5586 290.004 87.5586C291.117 87.5586 291.732 86.9961 291.732 85.9766V84.9863H291.627C291.346 85.6543 290.643 86.0586 289.717 86.0586C288.246 86.0586 287.279 84.998 287.279 83.3691V82.2266C287.279 80.5918 288.252 79.5371 289.74 79.5371C290.66 79.5371 291.357 79.9414 291.633 80.627H291.744V79.6426H292.729V86C292.729 87.4941 291.709 88.3848 289.986 88.3848ZM288.281 83.2285C288.281 84.3945 288.961 85.1562 290.016 85.1562C291.064 85.1562 291.738 84.4004 291.738 83.2285V82.3555C291.738 81.1836 291.064 80.4336 290.016 80.4336C288.961 80.4336 288.281 81.1895 288.281 82.3555V83.2285ZM297.592 86.1172C295.91 86.1172 294.838 85.0215 294.838 83.3047V82.3438C294.838 80.627 295.91 79.5312 297.592 79.5312C299.273 79.5312 300.346 80.627 300.346 82.3438V83.3047C300.346 85.0215 299.273 86.1172 297.592 86.1172ZM297.592 80.4102C296.502 80.4102 295.822 81.1836 295.822 82.4316V83.2109C295.822 84.4648 296.502 85.2324 297.592 85.2324C298.682 85.2324 299.361 84.4648 299.361 83.2109V82.4316C299.361 81.1836 298.682 80.4102 297.592 80.4102ZM312.826 86.1055C311.918 86.1055 311.25 85.7305 310.922 85.0273H310.811V86H309.832V77.1465H310.846V80.627H310.951C311.232 79.9297 311.906 79.5371 312.826 79.5371C314.297 79.5371 315.258 80.5977 315.258 82.2266V83.4102C315.258 85.0449 314.297 86.1055 312.826 86.1055ZM312.533 85.1973C313.588 85.1973 314.256 84.4414 314.256 83.2695V82.3555C314.256 81.1836 313.588 80.4336 312.533 80.4336C311.49 80.4336 310.822 81.1836 310.822 82.3555V83.2695C310.822 84.4473 311.49 85.1973 312.533 85.1973ZM319.201 86.1113C317.988 86.1113 317.18 85.3496 317.18 84.1953C317.18 83.0703 317.988 82.4023 319.436 82.3262L321.182 82.2383V81.6641C321.182 80.8672 320.695 80.4277 319.811 80.4277C319.078 80.4277 318.562 80.7383 318.398 81.2832H317.42C317.537 80.2637 318.521 79.5664 319.822 79.5664C321.316 79.5664 322.172 80.3281 322.172 81.6523V86.0059H321.223V85.0508H321.123C320.818 85.7305 320.127 86.1113 319.201 86.1113ZM319.488 85.2383C320.449 85.2383 321.182 84.5996 321.182 83.75V83L319.547 83.0762C318.656 83.1172 318.188 83.498 318.188 84.1602C318.188 84.8281 318.686 85.2383 319.488 85.2383ZM329.912 81.623H328.928C328.805 80.8789 328.184 80.4102 327.363 80.4102C326.256 80.4102 325.641 81.166 325.641 82.5312V83.1055C325.641 84.4707 326.256 85.2207 327.363 85.2207C328.184 85.2207 328.805 84.7578 328.928 84.0312H329.912C329.754 85.3262 328.787 86.1172 327.381 86.1172C325.652 86.1172 324.645 85.0566 324.645 83.2344V82.4023C324.645 80.5801 325.652 79.5195 327.381 79.5195C328.787 79.5195 329.748 80.3164 329.912 81.623ZM333.621 82.4961L336.393 79.6426H337.6L335.133 82.1621L337.775 86H336.592L334.424 82.8418L333.545 83.6855V86H332.549V77.1465H333.545V82.4961H333.621ZM342.1 86.0352C341.52 86.0352 341.039 85.5488 341.039 84.9512C341.039 84.3594 341.52 83.873 342.1 83.873C342.68 83.873 343.16 84.3594 343.16 84.9512C343.16 85.5488 342.68 86.0352 342.1 86.0352ZM359.162 86H354.709V85.0801H356.42V78.4648H354.709V77.5449H359.162V78.4648H357.451V85.0801H359.162V86ZM363.27 77.9375H364.254V79.6602H366.832V80.5098H364.266V84.0957C364.266 84.7871 364.752 85.1621 365.648 85.1621C366.006 85.1621 366.645 85.1445 366.814 85.127V85.9707C366.656 86 365.883 86.0293 365.578 86.0293C364.002 86.0293 363.27 85.4316 363.27 84.1074V80.5098H361.576V79.6602H363.27V77.9375ZM382.254 81.3184V86H381.357V81.6113C381.357 80.8379 381.076 80.4336 380.543 80.4336C379.986 80.4336 379.646 80.9199 379.646 81.7109V86H378.756V81.6055C378.756 80.8379 378.475 80.4336 377.936 80.4336C377.373 80.4336 377.021 80.9199 377.021 81.7109V86H376.125V79.6426H377.016V80.5391H377.121C377.279 79.9004 377.736 79.5254 378.334 79.5254C378.932 79.5254 379.354 79.8945 379.488 80.5215H379.594C379.758 79.9121 380.268 79.5254 380.906 79.5254C381.791 79.5254 382.254 80.1406 382.254 81.3184ZM385.963 86.1113C384.75 86.1113 383.941 85.3496 383.941 84.1953C383.941 83.0703 384.75 82.4023 386.197 82.3262L387.943 82.2383V81.6641C387.943 80.8672 387.457 80.4277 386.572 80.4277C385.84 80.4277 385.324 80.7383 385.16 81.2832H384.182C384.299 80.2637 385.283 79.5664 386.584 79.5664C388.078 79.5664 388.934 80.3281 388.934 81.6523V86.0059H387.984V85.0508H387.885C387.58 85.7305 386.889 86.1113 385.963 86.1113ZM386.25 85.2383C387.211 85.2383 387.943 84.5996 387.943 83.75V83L386.309 83.0762C385.418 83.1172 384.949 83.498 384.949 84.1602C384.949 84.8281 385.447 85.2383 386.25 85.2383ZM392.244 88.2617C392.098 88.2617 391.904 88.2559 391.816 88.2441V87.3711C391.893 87.3887 392.074 87.3945 392.168 87.3945C392.766 87.3945 393.094 87.125 393.357 86.3867L393.469 86.041L391.131 79.6426H392.215L393.996 84.9629H394.072L395.848 79.6426H396.908L394.512 86.2344C393.955 87.7988 393.422 88.2617 392.244 88.2617ZM409.26 86.1055C408.352 86.1055 407.684 85.7305 407.355 85.0273H407.244V86H406.266V77.1465H407.279V80.627H407.385C407.666 79.9297 408.34 79.5371 409.26 79.5371C410.73 79.5371 411.691 80.5977 411.691 82.2266V83.4102C411.691 85.0449 410.73 86.1055 409.26 86.1055ZM408.967 85.1973C410.021 85.1973 410.689 84.4414 410.689 83.2695V82.3555C410.689 81.1836 410.021 80.4336 408.967 80.4336C407.924 80.4336 407.256 81.1836 407.256 82.3555V83.2695C407.256 84.4473 407.924 85.1973 408.967 85.1973ZM417.996 84.3594H418.963C418.77 85.4082 417.762 86.1172 416.426 86.1172C414.68 86.1172 413.666 85.0684 413.666 83.2578V82.3027C413.666 80.627 414.738 79.5254 416.355 79.5254C418.008 79.5254 418.98 80.6211 418.98 82.4609V83.082H414.65V83.3398C414.65 84.5059 415.342 85.2559 416.426 85.2559C417.229 85.2559 417.82 84.916 417.996 84.3594ZM416.35 80.3809C415.289 80.3809 414.65 81.1074 414.65 82.3262H417.996C417.996 81.1133 417.375 80.3809 416.35 80.3809ZM430.031 77.9375H431.016V79.6602H433.594V80.5098H431.027V84.0957C431.027 84.7871 431.514 85.1621 432.41 85.1621C432.768 85.1621 433.406 85.1445 433.576 85.127V85.9707C433.418 86 432.645 86.0293 432.34 86.0293C430.764 86.0293 430.031 85.4316 430.031 84.1074V80.5098H428.338V79.6602H430.031V77.9375ZM435.926 86V77.1465H436.887V80.7676H436.969C437.303 79.9766 438.035 79.5312 439.008 79.5312C440.391 79.5312 441.141 80.3633 441.141 81.8809V86H440.145V82.1328C440.145 80.9902 439.676 80.4453 438.68 80.4453C437.631 80.4453 436.922 81.1777 436.922 82.2617V86H435.926ZM447.668 84.3594H448.635C448.441 85.4082 447.434 86.1172 446.098 86.1172C444.352 86.1172 443.338 85.0684 443.338 83.2578V82.3027C443.338 80.627 444.41 79.5254 446.027 79.5254C447.68 79.5254 448.652 80.6211 448.652 82.4609V83.082H444.322V83.3398C444.322 84.5059 445.014 85.2559 446.098 85.2559C446.9 85.2559 447.492 84.916 447.668 84.3594ZM446.021 80.3809C444.961 80.3809 444.322 81.1074 444.322 82.3262H447.668C447.668 81.1133 447.047 80.3809 446.021 80.3809ZM463.852 81.3184V86H462.955V81.6113C462.955 80.8379 462.674 80.4336 462.141 80.4336C461.584 80.4336 461.244 80.9199 461.244 81.7109V86H460.354V81.6055C460.354 80.8379 460.072 80.4336 459.533 80.4336C458.971 80.4336 458.619 80.9199 458.619 81.7109V86H457.723V79.6426H458.613V80.5391H458.719C458.877 79.9004 459.334 79.5254 459.932 79.5254C460.529 79.5254 460.951 79.8945 461.086 80.5215H461.191C461.355 79.9121 461.865 79.5254 462.504 79.5254C463.389 79.5254 463.852 80.1406 463.852 81.3184ZM468.205 86.1172C466.523 86.1172 465.451 85.0215 465.451 83.3047V82.3438C465.451 80.627 466.523 79.5312 468.205 79.5312C469.887 79.5312 470.959 80.627 470.959 82.3438V83.3047C470.959 85.0215 469.887 86.1172 468.205 86.1172ZM468.205 80.4102C467.115 80.4102 466.436 81.1836 466.436 82.4316V83.2109C466.436 84.4648 467.115 85.2324 468.205 85.2324C469.295 85.2324 469.975 84.4648 469.975 83.2109V82.4316C469.975 81.1836 469.295 80.4102 468.205 80.4102ZM473.309 81.3594C473.309 80.2578 474.246 79.5195 475.646 79.5195C476.971 79.5195 477.867 80.1816 477.984 81.2422H477.023C476.906 80.6855 476.373 80.3457 475.629 80.3457C474.82 80.3457 474.299 80.7207 474.299 81.3008C474.299 81.7871 474.627 82.0625 475.424 82.2383L476.32 82.4434C477.557 82.7246 478.119 83.2637 478.119 84.1836C478.119 85.3555 477.141 86.1172 475.635 86.1172C474.193 86.1172 473.238 85.4434 473.127 84.3535H474.141C474.287 84.9395 474.85 85.2793 475.67 85.2793C476.537 85.2793 477.088 84.8867 477.088 84.2773C477.088 83.7734 476.777 83.5039 475.969 83.3223L475.025 83.1055C473.877 82.8418 473.309 82.2617 473.309 81.3594ZM481.957 77.9375H482.941V79.6602H485.52V80.5098H482.953V84.0957C482.953 84.7871 483.439 85.1621 484.336 85.1621C484.693 85.1621 485.332 85.1445 485.502 85.127V85.9707C485.344 86 484.57 86.0293 484.266 86.0293C482.689 86.0293 481.957 85.4316 481.957 84.1074V80.5098H480.264V79.6602H481.957V77.9375ZM497.988 78.084C497.52 78.084 497.162 77.7324 497.162 77.2637C497.162 76.8008 497.52 76.4492 497.988 76.4492C498.457 76.4492 498.814 76.8008 498.814 77.2637C498.814 77.7324 498.457 78.084 497.988 78.084ZM500.654 86H495.387V85.1738H497.566V80.4688H495.404V79.6426H498.551V85.1738H500.654V86ZM508.359 81.3184V86H507.463V81.6113C507.463 80.8379 507.182 80.4336 506.648 80.4336C506.092 80.4336 505.752 80.9199 505.752 81.7109V86H504.861V81.6055C504.861 80.8379 504.58 80.4336 504.041 80.4336C503.479 80.4336 503.127 80.9199 503.127 81.7109V86H502.23V79.6426H503.121V80.5391H503.227C503.385 79.9004 503.842 79.5254 504.439 79.5254C505.037 79.5254 505.459 79.8945 505.594 80.5215H505.699C505.863 79.9121 506.373 79.5254 507.012 79.5254C507.896 79.5254 508.359 80.1406 508.359 81.3184ZM513.111 79.5371C514.582 79.5371 515.543 80.5977 515.543 82.2324V83.416C515.543 85.0449 514.582 86.1055 513.111 86.1055C512.191 86.1055 511.518 85.7129 511.242 85.0156H511.131V88.1445H510.117V79.6426H511.102V80.6152H511.207C511.541 79.9121 512.203 79.5371 513.111 79.5371ZM512.824 80.4512C511.775 80.4512 511.107 81.2012 511.107 82.373V83.2871C511.107 84.4648 511.775 85.2148 512.824 85.2148C513.873 85.2148 514.541 84.459 514.541 83.2871V82.373C514.541 81.2012 513.873 80.4512 512.824 80.4512ZM520.131 86.1172C518.449 86.1172 517.377 85.0215 517.377 83.3047V82.3438C517.377 80.627 518.449 79.5312 520.131 79.5312C521.812 79.5312 522.885 80.627 522.885 82.3438V83.3047C522.885 85.0215 521.812 86.1172 520.131 86.1172ZM520.131 80.4102C519.041 80.4102 518.361 81.1836 518.361 82.4316V83.2109C518.361 84.4648 519.041 85.2324 520.131 85.2324C521.221 85.2324 521.9 84.4648 521.9 83.2109V82.4316C521.9 81.1836 521.221 80.4102 520.131 80.4102ZM527.297 83.1523V85.2031H529.266V86H525.041V85.2031H526.324V80.4395H524.912V79.6426H527.285V81.2656H527.414C527.648 80.0879 528.439 79.4785 529.664 79.4785C530.027 79.4785 530.373 79.5312 530.584 79.6191V80.7383C530.291 80.6328 529.881 80.5625 529.535 80.5625C528.129 80.5625 527.297 81.5352 527.297 83.1523ZM533.883 77.9375H534.867V79.6602H537.445V80.5098H534.879V84.0957C534.879 84.7871 535.365 85.1621 536.262 85.1621C536.619 85.1621 537.258 85.1445 537.428 85.127V85.9707C537.27 86 536.496 86.0293 536.191 86.0293C534.615 86.0293 533.883 85.4316 533.883 84.1074V80.5098H532.189V79.6602H533.883V77.9375ZM541.74 86.1113C540.527 86.1113 539.719 85.3496 539.719 84.1953C539.719 83.0703 540.527 82.4023 541.975 82.3262L543.721 82.2383V81.6641C543.721 80.8672 543.234 80.4277 542.35 80.4277C541.617 80.4277 541.102 80.7383 540.938 81.2832H539.959C540.076 80.2637 541.061 79.5664 542.361 79.5664C543.855 79.5664 544.711 80.3281 544.711 81.6523V86.0059H543.762V85.0508H543.662C543.357 85.7305 542.666 86.1113 541.74 86.1113ZM542.027 85.2383C542.988 85.2383 543.721 84.5996 543.721 83.75V83L542.086 83.0762C541.195 83.1172 540.727 83.498 540.727 84.1602C540.727 84.8281 541.225 85.2383 542.027 85.2383ZM547.201 86V79.6426H548.156V80.7617H548.238C548.578 79.9707 549.305 79.5254 550.271 79.5254C551.654 79.5254 552.404 80.3516 552.404 81.875V86H551.408V82.127C551.408 80.9785 550.939 80.4395 549.949 80.4395C548.9 80.4395 548.197 81.1719 548.197 82.2559V86H547.201ZM556.137 77.9375H557.121V79.6602H559.699V80.5098H557.133V84.0957C557.133 84.7871 557.619 85.1621 558.516 85.1621C558.873 85.1621 559.512 85.1445 559.682 85.127V85.9707C559.523 86 558.75 86.0293 558.445 86.0293C556.869 86.0293 556.137 85.4316 556.137 84.1074V80.5098H554.443V79.6602H556.137V77.9375ZM569.742 81.3594C569.742 80.2578 570.68 79.5195 572.08 79.5195C573.404 79.5195 574.301 80.1816 574.418 81.2422H573.457C573.34 80.6855 572.807 80.3457 572.062 80.3457C571.254 80.3457 570.732 80.7207 570.732 81.3008C570.732 81.7871 571.061 82.0625 571.857 82.2383L572.754 82.4434C573.99 82.7246 574.553 83.2637 574.553 84.1836C574.553 85.3555 573.574 86.1172 572.068 86.1172C570.627 86.1172 569.672 85.4434 569.561 84.3535H570.574C570.721 84.9395 571.283 85.2793 572.104 85.2793C572.971 85.2793 573.521 84.8867 573.521 84.2773C573.521 83.7734 573.211 83.5039 572.402 83.3223L571.459 83.1055C570.311 82.8418 569.742 82.2617 569.742 81.3594ZM576.867 86V77.1465H577.828V80.7676H577.91C578.244 79.9766 578.977 79.5312 579.949 79.5312C581.332 79.5312 582.082 80.3633 582.082 81.8809V86H581.086V82.1328C581.086 80.9902 580.617 80.4453 579.621 80.4453C578.572 80.4453 577.863 81.1777 577.863 82.2617V86H576.867ZM587.004 78.084C586.535 78.084 586.178 77.7324 586.178 77.2637C586.178 76.8008 586.535 76.4492 587.004 76.4492C587.473 76.4492 587.83 76.8008 587.83 77.2637C587.83 77.7324 587.473 78.084 587.004 78.084ZM589.67 86H584.402V85.1738H586.582V80.4688H584.42V79.6426H587.566V85.1738H589.67V86ZM593.373 86V80.5098H591.668V79.6602H593.373V79.0215C593.373 77.791 594.135 77.2168 595.699 77.2168C596.068 77.2168 596.953 77.2461 597.164 77.2754V78.0898C596.889 78.0605 596.068 78.0371 595.711 78.0371C594.826 78.0371 594.357 78.3652 594.357 79.0039V79.6602H597.164V80.5098H594.369V86H593.373ZM600.645 77.9375H601.629V79.6602H604.207V80.5098H601.641V84.0957C601.641 84.7871 602.127 85.1621 603.023 85.1621C603.381 85.1621 604.02 85.1445 604.189 85.127V85.9707C604.031 86 603.258 86.0293 602.953 86.0293C601.377 86.0293 600.645 85.4316 600.645 84.1074V80.5098H598.951V79.6602H600.645V77.9375ZM13.3945 101.359C13.3945 100.258 14.332 99.5195 15.7324 99.5195C17.0566 99.5195 17.9531 100.182 18.0703 101.242H17.1094C16.9922 100.686 16.459 100.346 15.7148 100.346C14.9062 100.346 14.3848 100.721 14.3848 101.301C14.3848 101.787 14.7129 102.062 15.5098 102.238L16.4062 102.443C17.6426 102.725 18.2051 103.264 18.2051 104.184C18.2051 105.355 17.2266 106.117 15.7207 106.117C14.2793 106.117 13.3242 105.443 13.2129 104.354H14.2266C14.373 104.939 14.9355 105.279 15.7559 105.279C16.623 105.279 17.1738 104.887 17.1738 104.277C17.1738 103.773 16.8633 103.504 16.0547 103.322L15.1113 103.105C13.9629 102.842 13.3945 102.262 13.3945 101.359ZM23.2383 98.084C22.7695 98.084 22.4121 97.7324 22.4121 97.2637C22.4121 96.8008 22.7695 96.4492 23.2383 96.4492C23.707 96.4492 24.0645 96.8008 24.0645 97.2637C24.0645 97.7324 23.707 98.084 23.2383 98.084ZM25.9043 106H20.6367V105.174H22.8164V100.469H20.6543V99.6426H23.8008V105.174H25.9043V106ZM27.9434 106V99.6426H28.8984V100.762H28.9805C29.3203 99.9707 30.0469 99.5254 31.0137 99.5254C32.3965 99.5254 33.1465 100.352 33.1465 101.875V106H32.1504V102.127C32.1504 100.979 31.6816 100.439 30.6914 100.439C29.6426 100.439 28.9395 101.172 28.9395 102.256V106H27.9434ZM40.6113 101.623H39.627C39.5039 100.879 38.8828 100.41 38.0625 100.41C36.9551 100.41 36.3398 101.166 36.3398 102.531V103.105C36.3398 104.471 36.9551 105.221 38.0625 105.221C38.8828 105.221 39.5039 104.758 39.627 104.031H40.6113C40.4531 105.326 39.4863 106.117 38.0801 106.117C36.3516 106.117 35.3438 105.057 35.3438 103.234V102.402C35.3438 100.58 36.3516 99.5195 38.0801 99.5195C39.4863 99.5195 40.4473 100.316 40.6113 101.623ZM47.0977 104.359H48.0645C47.8711 105.408 46.8633 106.117 45.5273 106.117C43.7812 106.117 42.7676 105.068 42.7676 103.258V102.303C42.7676 100.627 43.8398 99.5254 45.457 99.5254C47.1094 99.5254 48.082 100.621 48.082 102.461V103.082H43.752V103.34C43.752 104.506 44.4434 105.256 45.5273 105.256C46.3301 105.256 46.9219 104.916 47.0977 104.359ZM45.4512 100.381C44.3906 100.381 43.752 101.107 43.752 102.326H47.0977C47.0977 101.113 46.4766 100.381 45.4512 100.381ZM59.1328 97.9375H60.1172V99.6602H62.6953V100.51H60.1289V104.096C60.1289 104.787 60.6152 105.162 61.5117 105.162C61.8691 105.162 62.5078 105.145 62.6777 105.127V105.971C62.5195 106 61.7461 106.029 61.4414 106.029C59.8652 106.029 59.1328 105.432 59.1328 104.107V100.51H57.4395V99.6602H59.1328V97.9375ZM65.0273 106V97.1465H65.9883V100.768H66.0703C66.4043 99.9766 67.1367 99.5312 68.1094 99.5312C69.4922 99.5312 70.2422 100.363 70.2422 101.881V106H69.2461V102.133C69.2461 100.99 68.7773 100.445 67.7812 100.445C66.7324 100.445 66.0234 101.178 66.0234 102.262V106H65.0273ZM76.7695 104.359H77.7363C77.543 105.408 76.5352 106.117 75.1992 106.117C73.4531 106.117 72.4395 105.068 72.4395 103.258V102.303C72.4395 100.627 73.5117 99.5254 75.1289 99.5254C76.7812 99.5254 77.7539 100.621 77.7539 102.461V103.082H73.4238V103.34C73.4238 104.506 74.1152 105.256 75.1992 105.256C76.002 105.256 76.5938 104.916 76.7695 104.359ZM75.123 100.381C74.0625 100.381 73.4238 101.107 73.4238 102.326H76.7695C76.7695 101.113 76.1484 100.381 75.123 100.381ZM90.2871 99.5371C91.7578 99.5371 92.7188 100.598 92.7188 102.232V103.416C92.7188 105.045 91.7578 106.105 90.2871 106.105C89.3672 106.105 88.6934 105.713 88.418 105.016H88.3066V108.145H87.293V99.6426H88.2773V100.615H88.3828C88.7168 99.9121 89.3789 99.5371 90.2871 99.5371ZM90 100.451C88.9512 100.451 88.2832 101.201 88.2832 102.373V103.287C88.2832 104.465 88.9512 105.215 90 105.215C91.0488 105.215 91.7168 104.459 91.7168 103.287V102.373C91.7168 101.201 91.0488 100.451 90 100.451ZM99.0234 104.359H99.9902C99.7969 105.408 98.7891 106.117 97.4531 106.117C95.707 106.117 94.6934 105.068 94.6934 103.258V102.303C94.6934 100.627 95.7656 99.5254 97.3828 99.5254C99.0352 99.5254 100.008 100.621 100.008 102.461V103.082H95.6777V103.34C95.6777 104.506 96.3691 105.256 97.4531 105.256C98.2559 105.256 98.8477 104.916 99.0234 104.359ZM97.377 100.381C96.3164 100.381 95.6777 101.107 95.6777 102.326H99.0234C99.0234 101.113 98.4023 100.381 97.377 100.381ZM104.473 103.152V105.203H106.441V106H102.217V105.203H103.5V100.439H102.088V99.6426H104.461V101.266H104.59C104.824 100.088 105.615 99.4785 106.84 99.4785C107.203 99.4785 107.549 99.5312 107.76 99.6191V100.738C107.467 100.633 107.057 100.562 106.711 100.562C105.305 100.562 104.473 101.535 104.473 103.152ZM109.828 101.359C109.828 100.258 110.766 99.5195 112.166 99.5195C113.49 99.5195 114.387 100.182 114.504 101.242H113.543C113.426 100.686 112.893 100.346 112.148 100.346C111.34 100.346 110.818 100.721 110.818 101.301C110.818 101.787 111.146 102.062 111.943 102.238L112.84 102.443C114.076 102.725 114.639 103.264 114.639 104.184C114.639 105.355 113.66 106.117 112.154 106.117C110.713 106.117 109.758 105.443 109.646 104.354H110.66C110.807 104.939 111.369 105.279 112.189 105.279C113.057 105.279 113.607 104.887 113.607 104.277C113.607 103.773 113.297 103.504 112.488 103.322L111.545 103.105C110.396 102.842 109.828 102.262 109.828 101.359ZM119.561 106.117C117.879 106.117 116.807 105.021 116.807 103.305V102.344C116.807 100.627 117.879 99.5312 119.561 99.5312C121.242 99.5312 122.314 100.627 122.314 102.344V103.305C122.314 105.021 121.242 106.117 119.561 106.117ZM119.561 100.41C118.471 100.41 117.791 101.184 117.791 102.432V103.211C117.791 104.465 118.471 105.232 119.561 105.232C120.65 105.232 121.33 104.465 121.33 103.211V102.432C121.33 101.184 120.65 100.41 119.561 100.41ZM124.377 106V99.6426H125.332V100.762H125.414C125.754 99.9707 126.48 99.5254 127.447 99.5254C128.83 99.5254 129.58 100.352 129.58 101.875V106H128.584V102.127C128.584 100.979 128.115 100.439 127.125 100.439C126.076 100.439 125.373 101.172 125.373 102.256V106H124.377ZM133.752 106.111C132.539 106.111 131.73 105.35 131.73 104.195C131.73 103.07 132.539 102.402 133.986 102.326L135.732 102.238V101.664C135.732 100.867 135.246 100.428 134.361 100.428C133.629 100.428 133.113 100.738 132.949 101.283H131.971C132.088 100.264 133.072 99.5664 134.373 99.5664C135.867 99.5664 136.723 100.328 136.723 101.652V106.006H135.773V105.051H135.674C135.369 105.73 134.678 106.111 133.752 106.111ZM134.039 105.238C135 105.238 135.732 104.6 135.732 103.75V103L134.098 103.076C133.207 103.117 132.738 103.498 132.738 104.16C132.738 104.828 133.236 105.238 134.039 105.238ZM144.592 106H139.324V105.174H141.498V97.9727H139.342V97.1465H142.494V105.174H144.592V106ZM159.299 101.623H158.314C158.191 100.879 157.57 100.41 156.75 100.41C155.643 100.41 155.027 101.166 155.027 102.531V103.105C155.027 104.471 155.643 105.221 156.75 105.221C157.57 105.221 158.191 104.758 158.314 104.031H159.299C159.141 105.326 158.174 106.117 156.768 106.117C155.039 106.117 154.031 105.057 154.031 103.234V102.402C154.031 100.58 155.039 99.5195 156.768 99.5195C158.174 99.5195 159.135 100.316 159.299 101.623ZM164.068 106.117C162.387 106.117 161.314 105.021 161.314 103.305V102.344C161.314 100.627 162.387 99.5312 164.068 99.5312C165.75 99.5312 166.822 100.627 166.822 102.344V103.305C166.822 105.021 165.75 106.117 164.068 106.117ZM164.068 100.41C162.979 100.41 162.299 101.184 162.299 102.432V103.211C162.299 104.465 162.979 105.232 164.068 105.232C165.158 105.232 165.838 104.465 165.838 103.211V102.432C165.838 101.184 165.158 100.41 164.068 100.41ZM174.551 101.318V106H173.654V101.611C173.654 100.838 173.373 100.434 172.84 100.434C172.283 100.434 171.943 100.92 171.943 101.711V106H171.053V101.605C171.053 100.838 170.771 100.434 170.232 100.434C169.67 100.434 169.318 100.92 169.318 101.711V106H168.422V99.6426H169.312V100.539H169.418C169.576 99.9004 170.033 99.5254 170.631 99.5254C171.229 99.5254 171.65 99.8945 171.785 100.521H171.891C172.055 99.9121 172.564 99.5254 173.203 99.5254C174.088 99.5254 174.551 100.141 174.551 101.318ZM179.303 99.5371C180.773 99.5371 181.734 100.598 181.734 102.232V103.416C181.734 105.045 180.773 106.105 179.303 106.105C178.383 106.105 177.709 105.713 177.434 105.016H177.322V108.145H176.309V99.6426H177.293V100.615H177.398C177.732 99.9121 178.395 99.5371 179.303 99.5371ZM179.016 100.451C177.967 100.451 177.299 101.201 177.299 102.373V103.287C177.299 104.465 177.967 105.215 179.016 105.215C180.064 105.215 180.732 104.459 180.732 103.287V102.373C180.732 101.201 180.064 100.451 179.016 100.451ZM188.924 99.6426V106H187.969V104.881H187.887C187.547 105.672 186.82 106.117 185.854 106.117C184.471 106.117 183.721 105.291 183.721 103.768V99.6426H184.717V103.516C184.717 104.664 185.186 105.203 186.176 105.203C187.225 105.203 187.928 104.471 187.928 103.387V99.6426H188.924ZM192.656 97.9375H193.641V99.6602H196.219V100.51H193.652V104.096C193.652 104.787 194.139 105.162 195.035 105.162C195.393 105.162 196.031 105.145 196.201 105.127V105.971C196.043 106 195.27 106.029 194.965 106.029C193.389 106.029 192.656 105.432 192.656 104.107V100.51H190.963V99.6602H192.656V97.9375ZM202.875 104.359H203.842C203.648 105.408 202.641 106.117 201.305 106.117C199.559 106.117 198.545 105.068 198.545 103.258V102.303C198.545 100.627 199.617 99.5254 201.234 99.5254C202.887 99.5254 203.859 100.621 203.859 102.461V103.082H199.529V103.34C199.529 104.506 200.221 105.256 201.305 105.256C202.107 105.256 202.699 104.916 202.875 104.359ZM201.229 100.381C200.168 100.381 199.529 101.107 199.529 102.326H202.875C202.875 101.113 202.254 100.381 201.229 100.381ZM208.324 103.152V105.203H210.293V106H206.068V105.203H207.352V100.439H205.939V99.6426H208.312V101.266H208.441C208.676 100.088 209.467 99.4785 210.691 99.4785C211.055 99.4785 211.4 99.5312 211.611 99.6191V100.738C211.318 100.633 210.908 100.562 210.562 100.562C209.156 100.562 208.324 101.535 208.324 103.152ZM223.412 106.035C222.832 106.035 222.352 105.549 222.352 104.951C222.352 104.359 222.832 103.873 223.412 103.873C223.992 103.873 224.473 104.359 224.473 104.951C224.473 105.549 223.992 106.035 223.412 106.035Z" fill="#EDE5C4"/>
</svg>
