<svg width="283" height="80" viewBox="0 0 283 80" fill="none" xmlns="http://www.w3.org/2000/svg">
<rect x="0.5" y="0.5" width="282" height="79" rx="3.5" fill="black"/>
<rect x="0.5" y="0.5" width="282" height="79" rx="3.5" stroke="#3A3A3A"/>
<path d="M16.2246 26H15.1934V18.4941H12.6387V17.5449H18.7793V18.4941H16.2246V26ZM20.5195 26V17.1465H21.4805V20.7676H21.5625C21.8965 19.9766 22.6289 19.5312 23.6016 19.5312C24.9844 19.5312 25.7344 20.3633 25.7344 21.8809V26H24.7383V22.1328C24.7383 20.9902 24.2695 20.4453 23.2734 20.4453C22.2246 20.4453 21.5156 21.1777 21.5156 22.2617V26H20.5195ZM30.6562 18.084C30.1875 18.084 29.8301 17.7324 29.8301 17.2637C29.8301 16.8008 30.1875 16.4492 30.6562 16.4492C31.125 16.4492 31.4824 16.8008 31.4824 17.2637C31.4824 17.7324 31.125 18.084 30.6562 18.084ZM33.3223 26H28.0547V25.1738H30.2344V20.4688H28.0723V19.6426H31.2188V25.1738H33.3223V26ZM35.6484 21.3594C35.6484 20.2578 36.5859 19.5195 37.9863 19.5195C39.3105 19.5195 40.207 20.1816 40.3242 21.2422H39.3633C39.2461 20.6855 38.7129 20.3457 37.9688 20.3457C37.1602 20.3457 36.6387 20.7207 36.6387 21.3008C36.6387 21.7871 36.9668 22.0625 37.7637 22.2383L38.6602 22.4434C39.8965 22.7246 40.459 23.2637 40.459 24.1836C40.459 25.3555 39.4805 26.1172 37.9746 26.1172C36.5332 26.1172 35.5781 25.4434 35.4668 24.3535H36.4805C36.627 24.9395 37.1895 25.2793 38.0098 25.2793C38.877 25.2793 39.4277 24.8867 39.4277 24.2773C39.4277 23.7734 39.1172 23.5039 38.3086 23.3223L37.3652 23.1055C36.2168 22.8418 35.6484 22.2617 35.6484 21.3594ZM52.9102 18.084C52.4414 18.084 52.084 17.7324 52.084 17.2637C52.084 16.8008 52.4414 16.4492 52.9102 16.4492C53.3789 16.4492 53.7363 16.8008 53.7363 17.2637C53.7363 17.7324 53.3789 18.084 52.9102 18.084ZM55.5762 26H50.3086V25.1738H52.4883V20.4688H50.3262V19.6426H53.4727V25.1738H55.5762V26ZM57.9023 21.3594C57.9023 20.2578 58.8398 19.5195 60.2402 19.5195C61.5645 19.5195 62.4609 20.1816 62.5781 21.2422H61.6172C61.5 20.6855 60.9668 20.3457 60.2227 20.3457C59.4141 20.3457 58.8926 20.7207 58.8926 21.3008C58.8926 21.7871 59.2207 22.0625 60.0176 22.2383L60.9141 22.4434C62.1504 22.7246 62.7129 23.2637 62.7129 24.1836C62.7129 25.3555 61.7344 26.1172 60.2285 26.1172C58.7871 26.1172 57.832 25.4434 57.7207 24.3535H58.7344C58.8809 24.9395 59.4434 25.2793 60.2637 25.2793C61.1309 25.2793 61.6816 24.8867 61.6816 24.2773C61.6816 23.7734 61.3711 23.5039 60.5625 23.3223L59.6191 23.1055C58.4707 22.8418 57.9023 22.2617 57.9023 21.3594ZM74.4082 26.1113C73.1953 26.1113 72.3867 25.3496 72.3867 24.1953C72.3867 23.0703 73.1953 22.4023 74.6426 22.3262L76.3887 22.2383V21.6641C76.3887 20.8672 75.9023 20.4277 75.0176 20.4277C74.2852 20.4277 73.7695 20.7383 73.6055 21.2832H72.627C72.7441 20.2637 73.7285 19.5664 75.0293 19.5664C76.5234 19.5664 77.3789 20.3281 77.3789 21.6523V26.0059H76.4297V25.0508H76.3301C76.0254 25.7305 75.334 26.1113 74.4082 26.1113ZM74.6953 25.2383C75.6562 25.2383 76.3887 24.5996 76.3887 23.75V23L74.7539 23.0762C73.8633 23.1172 73.3945 23.498 73.3945 24.1602C73.3945 24.8281 73.8926 25.2383 74.6953 25.2383ZM92.9531 21.3184V26H92.0566V21.6113C92.0566 20.8379 91.7754 20.4336 91.2422 20.4336C90.6855 20.4336 90.3457 20.9199 90.3457 21.7109V26H89.4551V21.6055C89.4551 20.8379 89.1738 20.4336 88.6348 20.4336C88.0723 20.4336 87.7207 20.9199 87.7207 21.7109V26H86.8242V19.6426H87.7148V20.5391H87.8203C87.9785 19.9004 88.4355 19.5254 89.0332 19.5254C89.6309 19.5254 90.0527 19.8945 90.1875 20.5215H90.293C90.457 19.9121 90.9668 19.5254 91.6055 19.5254C92.4902 19.5254 92.9531 20.1406 92.9531 21.3184ZM99.0234 24.3594H99.9902C99.7969 25.4082 98.7891 26.1172 97.4531 26.1172C95.707 26.1172 94.6934 25.0684 94.6934 23.2578V22.3027C94.6934 20.627 95.7656 19.5254 97.3828 19.5254C99.0352 19.5254 100.008 20.6211 100.008 22.4609V23.082H95.6777V23.3398C95.6777 24.5059 96.3691 25.2559 97.4531 25.2559C98.2559 25.2559 98.8477 24.916 99.0234 24.3594ZM97.377 20.3809C96.3164 20.3809 95.6777 21.1074 95.6777 22.3262H99.0234C99.0234 21.1133 98.4023 20.3809 97.377 20.3809ZM102.41 21.3594C102.41 20.2578 103.348 19.5195 104.748 19.5195C106.072 19.5195 106.969 20.1816 107.086 21.2422H106.125C106.008 20.6855 105.475 20.3457 104.73 20.3457C103.922 20.3457 103.4 20.7207 103.4 21.3008C103.4 21.7871 103.729 22.0625 104.525 22.2383L105.422 22.4434C106.658 22.7246 107.221 23.2637 107.221 24.1836C107.221 25.3555 106.242 26.1172 104.736 26.1172C103.295 26.1172 102.34 25.4434 102.229 24.3535H103.242C103.389 24.9395 103.951 25.2793 104.771 25.2793C105.639 25.2793 106.189 24.8867 106.189 24.2773C106.189 23.7734 105.879 23.5039 105.07 23.3223L104.127 23.1055C102.979 22.8418 102.41 22.2617 102.41 21.3594ZM109.828 21.3594C109.828 20.2578 110.766 19.5195 112.166 19.5195C113.49 19.5195 114.387 20.1816 114.504 21.2422H113.543C113.426 20.6855 112.893 20.3457 112.148 20.3457C111.34 20.3457 110.818 20.7207 110.818 21.3008C110.818 21.7871 111.146 22.0625 111.943 22.2383L112.84 22.4434C114.076 22.7246 114.639 23.2637 114.639 24.1836C114.639 25.3555 113.66 26.1172 112.154 26.1172C110.713 26.1172 109.758 25.4434 109.646 24.3535H110.66C110.807 24.9395 111.369 25.2793 112.189 25.2793C113.057 25.2793 113.607 24.8867 113.607 24.2773C113.607 23.7734 113.297 23.5039 112.488 23.3223L111.545 23.1055C110.396 22.8418 109.828 22.2617 109.828 21.3594ZM118.916 26.1113C117.703 26.1113 116.895 25.3496 116.895 24.1953C116.895 23.0703 117.703 22.4023 119.15 22.3262L120.896 22.2383V21.6641C120.896 20.8672 120.41 20.4277 119.525 20.4277C118.793 20.4277 118.277 20.7383 118.113 21.2832H117.135C117.252 20.2637 118.236 19.5664 119.537 19.5664C121.031 19.5664 121.887 20.3281 121.887 21.6523V26.0059H120.938V25.0508H120.838C120.533 25.7305 119.842 26.1113 118.916 26.1113ZM119.203 25.2383C120.164 25.2383 120.896 24.5996 120.896 23.75V23L119.262 23.0762C118.371 23.1172 117.902 23.498 117.902 24.1602C117.902 24.8281 118.4 25.2383 119.203 25.2383ZM126.791 28.3848C125.32 28.3848 124.336 27.7402 124.207 26.6855H125.191C125.32 27.2129 125.959 27.5586 126.809 27.5586C127.922 27.5586 128.537 26.9961 128.537 25.9766V24.9863H128.432C128.15 25.6543 127.447 26.0586 126.521 26.0586C125.051 26.0586 124.084 24.998 124.084 23.3691V22.2266C124.084 20.5918 125.057 19.5371 126.545 19.5371C127.465 19.5371 128.162 19.9414 128.438 20.627H128.549V19.6426H129.533V26C129.533 27.4941 128.514 28.3848 126.791 28.3848ZM125.086 23.2285C125.086 24.3945 125.766 25.1562 126.82 25.1562C127.869 25.1562 128.543 24.4004 128.543 23.2285V22.3555C128.543 21.1836 127.869 20.4336 126.82 20.4336C125.766 20.4336 125.086 21.1895 125.086 22.3555V23.2285ZM136.113 24.3594H137.08C136.887 25.4082 135.879 26.1172 134.543 26.1172C132.797 26.1172 131.783 25.0684 131.783 23.2578V22.3027C131.783 20.627 132.855 19.5254 134.473 19.5254C136.125 19.5254 137.098 20.6211 137.098 22.4609V23.082H132.768V23.3398C132.768 24.5059 133.459 25.2559 134.543 25.2559C135.346 25.2559 135.938 24.916 136.113 24.3594ZM134.467 20.3809C133.406 20.3809 132.768 21.1074 132.768 22.3262H136.113C136.113 21.1133 135.492 20.3809 134.467 20.3809Z" fill="#EDE5C4"/>
<rect x="133.5" y="42.5" width="64" height="25" rx="3.5" stroke="#353535"/>
<path d="M149.574 58.0391V59H144.541V50.5449H145.566V58.0391H149.574ZM157.227 55.4551C157.227 57.793 156.049 59.1758 154.127 59.1758C152.205 59.1758 151.027 57.793 151.027 55.4551V54.0898C151.027 51.752 152.205 50.3691 154.127 50.3691C156.049 50.3691 157.227 51.752 157.227 54.0898V55.4551ZM154.127 58.1973C155.41 58.1973 156.184 57.2129 156.184 55.4492V54.0957C156.184 52.332 155.41 51.3477 154.127 51.3477C152.844 51.3477 152.07 52.332 152.07 54.0957V55.4492C152.07 57.2129 152.844 58.1973 154.127 58.1973ZM163.555 56.4102V55.584H161.604V54.6992H164.598V56.498C164.598 58.0859 163.402 59.1758 161.697 59.1758C159.711 59.1758 158.562 57.8398 158.562 55.5254V54.0195C158.562 51.7051 159.711 50.3691 161.697 50.3691C163.455 50.3691 164.557 51.4414 164.598 53.1934H163.555C163.508 52.0918 162.758 51.3477 161.68 51.3477C160.314 51.3477 159.605 52.2676 159.605 54.0195V55.5254C159.605 57.2773 160.32 58.1973 161.686 58.1973C162.84 58.1973 163.555 57.5176 163.555 56.4102ZM178.607 59H174.154V58.0801H175.865V51.4648H174.154V50.5449H178.607V51.4648H176.896V58.0801H178.607V59ZM181.918 59H180.986V50.5449H181.977L185.598 57.125H185.68V50.5449H186.611V59H185.633L182 52.4023H181.918V59Z" fill="#EDE5C4"/>
<rect x="206" y="42" width="65" height="26" rx="4" fill="#EDE5C4"/>
<path d="M222.574 58.0391V59H217.541V50.5449H218.566V58.0391H222.574ZM230.227 55.4551C230.227 57.793 229.049 59.1758 227.127 59.1758C225.205 59.1758 224.027 57.793 224.027 55.4551V54.0898C224.027 51.752 225.205 50.3691 227.127 50.3691C229.049 50.3691 230.227 51.752 230.227 54.0898V55.4551ZM227.127 58.1973C228.41 58.1973 229.184 57.2129 229.184 55.4492V54.0957C229.184 52.332 228.41 51.3477 227.127 51.3477C225.844 51.3477 225.07 52.332 225.07 54.0957V55.4492C225.07 57.2129 225.844 58.1973 227.127 58.1973ZM236.555 56.4102V55.584H234.604V54.6992H237.598V56.498C237.598 58.0859 236.402 59.1758 234.697 59.1758C232.711 59.1758 231.562 57.8398 231.562 55.5254V54.0195C231.562 51.7051 232.711 50.3691 234.697 50.3691C236.455 50.3691 237.557 51.4414 237.598 53.1934H236.555C236.508 52.0918 235.758 51.3477 234.68 51.3477C233.314 51.3477 232.605 52.2676 232.605 54.0195V55.5254C232.605 57.2773 233.32 58.1973 234.686 58.1973C235.84 58.1973 236.555 57.5176 236.555 56.4102ZM251.607 59H247.154V58.0801H248.865V51.4648H247.154V50.5449H251.607V51.4648H249.896V58.0801H251.607V59ZM254.918 59H253.986V50.5449H254.977L258.598 57.125H258.68V50.5449H259.611V59H258.633L255 52.4023H254.918V59Z" fill="black"/>
</svg>
