<svg width="624" height="122" viewBox="0 0 624 122" fill="none" xmlns="http://www.w3.org/2000/svg">
<rect width="624" height="122" rx="4" fill="#EDE5C4"/>
<path d="M16.2246 23H15.1934V15.4941H12.6387V14.5449H18.7793V15.4941H16.2246V23ZM25.3535 23H20.9004V22.0801H22.6113V15.4648H20.9004V14.5449H25.3535V15.4648H23.6426V22.0801H25.3535V23ZM31.0605 23H30.0293V15.4941H27.4746V14.5449H33.6152V15.4941H31.0605V23ZM40.8281 22.0391V23H35.7949V14.5449H36.8203V22.0391H40.8281ZM48.0117 22.0508V23H43.0195V14.5449H48.0117V15.4941H44.0566V18.2363H47.7949V19.1445H44.0566V22.0508H48.0117ZM60.7324 23H59.7012V15.4941H57.1465V14.5449H63.2871V15.4941H60.7324V23ZM70.2656 22.0508V23H65.2734V14.5449H70.2656V15.4941H66.3105V18.2363H70.0488V19.1445H66.3105V22.0508H70.2656ZM71.7598 23L74.4434 18.752L71.7773 14.5449H72.9492L75.0703 17.9434H75.1172L77.2559 14.5449H78.3457L75.627 18.7812L78.3047 23H77.1562L75.0234 19.6426H74.9824L72.832 23H71.7598ZM82.9863 23H81.9551V15.4941H79.4004V14.5449H85.541V15.4941H82.9863V23Z" fill="black"/>
<path d="M460.814 20.75H461.822C461.928 21.6758 462.672 22.2383 463.797 22.2383C464.922 22.2383 465.66 21.6523 465.66 20.7441C465.66 20.0117 465.168 19.5723 464.025 19.291L463.299 19.1094C461.729 18.7109 461.02 17.9668 461.02 16.7422C461.02 15.3008 462.104 14.3691 463.791 14.3691C465.385 14.3691 466.48 15.2891 466.551 16.6953H465.543C465.438 15.8223 464.793 15.3066 463.797 15.3066C462.713 15.3066 462.062 15.8223 462.062 16.6836C462.062 17.416 462.531 17.8379 463.633 18.1133L464.371 18.3008C466.012 18.7051 466.703 19.4199 466.703 20.6914C466.703 22.209 465.561 23.1758 463.791 23.1758C462.045 23.1758 460.902 22.25 460.814 20.75ZM474.227 19.4551C474.227 21.793 473.049 23.1758 471.127 23.1758C469.205 23.1758 468.027 21.793 468.027 19.4551V18.0898C468.027 15.752 469.205 14.3691 471.127 14.3691C473.049 14.3691 474.227 15.752 474.227 18.0898V19.4551ZM471.127 22.1973C472.41 22.1973 473.184 21.2129 473.184 19.4492V18.0957C473.184 16.332 472.41 15.3477 471.127 15.3477C469.844 15.3477 469.07 16.332 469.07 18.0957V19.4492C469.07 21.2129 469.844 22.1973 471.127 22.1973ZM476.418 19.7539V23H475.498V14.5449H476.652L478.51 19.7949H478.586L480.432 14.5449H481.592V23H480.672V19.7539L480.725 16.332H480.648L478.949 21.0137H478.141L476.441 16.332H476.365L476.418 19.7539ZM488.594 22.0508V23H483.602V14.5449H488.594V15.4941H484.639V18.2363H488.377V19.1445H484.639V22.0508H488.594ZM498.672 19.7539V23H497.752V14.5449H498.906L500.764 19.7949H500.84L502.686 14.5449H503.846V23H502.926V19.7539L502.979 16.332H502.902L501.203 21.0137H500.395L498.695 16.332H498.619L498.672 19.7539ZM511.316 19.4551C511.316 21.793 510.139 23.1758 508.217 23.1758C506.295 23.1758 505.117 21.793 505.117 19.4551V18.0898C505.117 15.752 506.295 14.3691 508.217 14.3691C510.139 14.3691 511.316 15.752 511.316 18.0898V19.4551ZM508.217 22.1973C509.5 22.1973 510.273 21.2129 510.273 19.4492V18.0957C510.273 16.332 509.5 15.3477 508.217 15.3477C506.934 15.3477 506.16 16.332 506.16 18.0957V19.4492C506.16 21.2129 506.934 22.1973 508.217 22.1973ZM515.957 19.6309H514.012V23H512.992V14.5449H515.828C517.504 14.5449 518.553 15.5176 518.553 17.0879C518.553 18.1953 517.938 19.1035 516.977 19.4199L518.699 23H517.533L515.957 19.6309ZM514.012 15.4648V18.7578H515.688C516.854 18.7578 517.51 18.166 517.51 17.1113C517.51 16.0625 516.865 15.4648 515.734 15.4648H514.012ZM525.684 22.0508V23H520.691V14.5449H525.684V15.4941H521.729V18.2363H525.467V19.1445H521.729V22.0508H525.684ZM538.404 23H537.373V15.4941H534.818V14.5449H540.959V15.4941H538.404V23ZM547.938 22.0508V23H542.945V14.5449H547.938V15.4941H543.982V18.2363H547.721V19.1445H543.982V22.0508H547.938ZM549.432 23L552.115 18.752L549.449 14.5449H550.621L552.742 17.9434H552.789L554.928 14.5449H556.018L553.299 18.7812L555.977 23H554.828L552.695 19.6426H552.654L550.504 23H549.432ZM560.658 23H559.627V15.4941H557.072V14.5449H563.213V15.4941H560.658V23Z" fill="#777362"/>
<g clip-path="url(#clip0_31_938)">
<path fill-rule="evenodd" clip-rule="evenodd" d="M582 14.5C579.515 14.5 577.5 16.5147 577.5 19C577.5 21.4853 579.515 23.5 582 23.5C584.485 23.5 586.5 21.4853 586.5 19C586.5 16.5147 584.485 14.5 582 14.5ZM576.5 19C576.5 15.9624 578.962 13.5 582 13.5C585.038 13.5 587.5 15.9624 587.5 19C587.5 22.0376 585.038 24.5 582 24.5C578.962 24.5 576.5 22.0376 576.5 19Z" fill="#777362"/>
<path fill-rule="evenodd" clip-rule="evenodd" d="M582 13.5C582.137 13.5 582.268 13.5561 582.362 13.6552C583.734 15.0962 584.5 17.01 584.5 19C584.5 20.99 583.734 22.9038 582.362 24.3448C582.268 24.4439 582.137 24.5 582 24.5C581.863 24.5 581.732 24.4439 581.638 24.3448C580.266 22.9038 579.5 20.99 579.5 19C579.5 17.01 580.266 15.0962 581.638 13.6552C581.732 13.5561 581.863 13.5 582 13.5ZM582 14.7573C581.033 15.954 580.5 17.4504 580.5 19C580.5 20.5496 581.033 22.046 582 23.2427C582.967 22.046 583.5 20.5496 583.5 19C583.5 17.4504 582.967 15.954 582 14.7573Z" fill="#777362"/>
<path fill-rule="evenodd" clip-rule="evenodd" d="M576.5 19C576.5 18.7239 576.724 18.5 577 18.5H587C587.276 18.5 587.5 18.7239 587.5 19C587.5 19.2761 587.276 19.5 587 19.5H577C576.724 19.5 576.5 19.2761 576.5 19Z" fill="#777362"/>
</g>
<g clip-path="url(#clip1_31_938)">
<path fill-rule="evenodd" clip-rule="evenodd" d="M606.387 14.3753C606.953 13.8289 607.71 13.5265 608.497 13.5333C609.284 13.5402 610.036 13.8557 610.592 14.4119C611.148 14.9681 611.464 15.7205 611.471 16.5071C611.478 17.2937 611.175 18.0515 610.629 18.6173C610.627 18.6194 610.625 18.6215 610.623 18.6235L609.123 20.1235C609.123 20.1235 609.123 20.1235 609.123 20.1235C608.819 20.4277 608.453 20.663 608.05 20.8133C607.646 20.9637 607.216 21.0256 606.787 20.9949C606.358 20.9641 605.94 20.8415 605.563 20.6352C605.185 20.429 604.856 20.1439 604.599 19.7995C604.433 19.5783 604.479 19.265 604.7 19.0996C604.921 18.9342 605.234 18.9794 605.4 19.2005C605.571 19.4301 605.79 19.6202 606.042 19.7577C606.294 19.8952 606.572 19.9769 606.858 19.9974C607.144 20.0179 607.431 19.9766 607.7 19.8764C607.969 19.7762 608.213 19.6193 608.416 19.4165L609.912 17.9197C610.275 17.5428 610.475 17.0388 610.471 16.5158C610.466 15.9914 610.256 15.4898 609.885 15.119C609.514 14.7482 609.013 14.5378 608.488 14.5333C607.965 14.5287 607.461 14.7294 607.084 15.0923L606.227 15.9446C606.031 16.1393 605.714 16.1383 605.52 15.9425C605.325 15.7467 605.326 15.4301 605.522 15.2354L606.382 14.3804C606.383 14.3787 606.385 14.377 606.387 14.3753Z" fill="#777362"/>
<path fill-rule="evenodd" clip-rule="evenodd" d="M603.949 17.1866C604.352 17.0363 604.782 16.9744 605.212 17.0051C605.641 17.0358 606.058 17.1585 606.436 17.3647C606.813 17.571 607.142 17.856 607.4 18.2005C607.565 18.4216 607.52 18.735 607.299 18.9004C607.077 19.0658 606.764 19.0206 606.599 18.7995C606.427 18.5698 606.208 18.3798 605.956 18.2423C605.704 18.1048 605.426 18.023 605.14 18.0025C604.854 17.982 604.567 18.0233 604.298 18.1236C604.029 18.2238 603.785 18.3806 603.583 18.5835L602.086 20.0803C601.723 20.4572 601.523 20.9611 601.527 21.4841C601.532 22.0085 601.742 22.5102 602.113 22.881C602.484 23.2518 602.986 23.4621 603.51 23.4667C604.033 23.4712 604.537 23.2707 604.914 22.9082L605.766 22.0564C605.961 21.8612 606.277 21.8612 606.473 22.0564C606.668 22.2517 606.668 22.5683 606.473 22.7635L605.618 23.6185C605.616 23.6206 605.614 23.6226 605.611 23.6246C605.046 24.1711 604.288 24.4735 603.501 24.4666C602.715 24.4598 601.962 24.1443 601.406 23.5881C600.85 23.0319 600.534 22.2794 600.527 21.4928C600.521 20.7062 600.823 19.9484 601.369 19.3826C601.371 19.3805 601.374 19.3785 601.376 19.3764L602.876 17.8765C602.875 17.8765 602.876 17.8765 602.876 17.8765C603.18 17.5723 603.546 17.337 603.949 17.1866Z" fill="#777362"/>
</g>
<path d="M18.8086 48.4551C18.8086 50.793 17.6309 52.1758 15.709 52.1758C13.7871 52.1758 12.6094 50.793 12.6094 48.4551V47.0898C12.6094 44.752 13.7871 43.3691 15.709 43.3691C17.6309 43.3691 18.8086 44.752 18.8086 47.0898V48.4551ZM15.709 51.1973C16.9922 51.1973 17.7656 50.2129 17.7656 48.4492V47.0957C17.7656 45.332 16.9922 44.3477 15.709 44.3477C14.4258 44.3477 13.6523 45.332 13.6523 47.0957V48.4492C13.6523 50.2129 14.4258 51.1973 15.709 51.1973ZM20.5254 52V45.6426H21.4805V46.7617H21.5625C21.9023 45.9707 22.6289 45.5254 23.5957 45.5254C24.9785 45.5254 25.7285 46.3516 25.7285 47.875V52H24.7324V48.127C24.7324 46.9785 24.2637 46.4395 23.2734 46.4395C22.2246 46.4395 21.5215 47.1719 21.5215 48.2559V52H20.5254ZM33.1934 47.623H32.209C32.0859 46.8789 31.4648 46.4102 30.6445 46.4102C29.5371 46.4102 28.9219 47.166 28.9219 48.5312V49.1055C28.9219 50.4707 29.5371 51.2207 30.6445 51.2207C31.4648 51.2207 32.0859 50.7578 32.209 50.0312H33.1934C33.0352 51.3262 32.0684 52.1172 30.6621 52.1172C28.9336 52.1172 27.9258 51.0566 27.9258 49.2344V48.4023C27.9258 46.5801 28.9336 45.5195 30.6621 45.5195C32.0684 45.5195 33.0293 46.3164 33.1934 47.623ZM39.6797 50.3594H40.6465C40.4531 51.4082 39.4453 52.1172 38.1094 52.1172C36.3633 52.1172 35.3496 51.0684 35.3496 49.2578V48.3027C35.3496 46.627 36.4219 45.5254 38.0391 45.5254C39.6914 45.5254 40.6641 46.6211 40.6641 48.4609V49.082H36.334V49.3398C36.334 50.5059 37.0254 51.2559 38.1094 51.2559C38.9121 51.2559 39.5039 50.916 39.6797 50.3594ZM38.0332 46.3809C36.9727 46.3809 36.334 47.1074 36.334 48.3262H39.6797C39.6797 47.1133 39.0586 46.3809 38.0332 46.3809ZM51.0176 54.2617C50.8711 54.2617 50.6777 54.2559 50.5898 54.2441V53.3711C50.666 53.3887 50.8477 53.3945 50.9414 53.3945C51.5391 53.3945 51.8672 53.125 52.1309 52.3867L52.2422 52.041L49.9043 45.6426H50.9883L52.7695 50.9629H52.8457L54.6211 45.6426H55.6816L53.2852 52.2344C52.7285 53.7988 52.1953 54.2617 51.0176 54.2617ZM60.2168 52.1172C58.5352 52.1172 57.4629 51.0215 57.4629 49.3047V48.3438C57.4629 46.627 58.5352 45.5312 60.2168 45.5312C61.8984 45.5312 62.9707 46.627 62.9707 48.3438V49.3047C62.9707 51.0215 61.8984 52.1172 60.2168 52.1172ZM60.2168 46.4102C59.127 46.4102 58.4473 47.1836 58.4473 48.4316V49.2109C58.4473 50.4648 59.127 51.2324 60.2168 51.2324C61.3066 51.2324 61.9863 50.4648 61.9863 49.2109V48.4316C61.9863 47.1836 61.3066 46.4102 60.2168 46.4102ZM70.2363 45.6426V52H69.2812V50.8809H69.1992C68.8594 51.6719 68.1328 52.1172 67.166 52.1172C65.7832 52.1172 65.0332 51.291 65.0332 49.7676V45.6426H66.0293V49.5156C66.0293 50.6641 66.498 51.2031 67.4883 51.2031C68.5371 51.2031 69.2402 50.4707 69.2402 49.3867V45.6426H70.2363ZM85.9043 45.6426L84.5391 52H83.584L82.5059 47.043H82.4355L81.3574 52H80.4023L79.0371 45.6426H80.0098L80.8711 50.7402H80.9766L82.002 45.6484H82.9395L83.9648 50.7402H84.0703L84.9316 45.6426H85.9043ZM89.8887 52.1172C88.207 52.1172 87.1348 51.0215 87.1348 49.3047V48.3438C87.1348 46.627 88.207 45.5312 89.8887 45.5312C91.5703 45.5312 92.6426 46.627 92.6426 48.3438V49.3047C92.6426 51.0215 91.5703 52.1172 89.8887 52.1172ZM89.8887 46.4102C88.7988 46.4102 88.1191 47.1836 88.1191 48.4316V49.2109C88.1191 50.4648 88.7988 51.2324 89.8887 51.2324C90.9785 51.2324 91.6582 50.4648 91.6582 49.2109V48.4316C91.6582 47.1836 90.9785 46.4102 89.8887 46.4102ZM97.0547 49.1523V51.2031H99.0234V52H94.7988V51.2031H96.082V46.4395H94.6699V45.6426H97.043V47.2656H97.1719C97.4062 46.0879 98.1973 45.4785 99.4219 45.4785C99.7852 45.4785 100.131 45.5312 100.342 45.6191V46.7383C100.049 46.6328 99.6387 46.5625 99.293 46.5625C97.8867 46.5625 97.0547 47.5352 97.0547 49.1523ZM103.664 48.4961L106.436 45.6426H107.643L105.176 48.1621L107.818 52H106.635L104.467 48.8418L103.588 49.6855V52H102.592V43.1465H103.588V48.4961H103.664ZM118.477 43.9375H119.461V45.6602H122.039V46.5098H119.473V50.0957C119.473 50.7871 119.959 51.1621 120.855 51.1621C121.213 51.1621 121.852 51.1445 122.021 51.127V51.9707C121.863 52 121.09 52.0293 120.785 52.0293C119.209 52.0293 118.477 51.4316 118.477 50.1074V46.5098H116.783V45.6602H118.477V43.9375ZM124.371 52V43.1465H125.332V46.7676H125.414C125.748 45.9766 126.48 45.5312 127.453 45.5312C128.836 45.5312 129.586 46.3633 129.586 47.8809V52H128.59V48.1328C128.59 46.9902 128.121 46.4453 127.125 46.4453C126.076 46.4453 125.367 47.1777 125.367 48.2617V52H124.371ZM134.508 44.084C134.039 44.084 133.682 43.7324 133.682 43.2637C133.682 42.8008 134.039 42.4492 134.508 42.4492C134.977 42.4492 135.334 42.8008 135.334 43.2637C135.334 43.7324 134.977 44.084 134.508 44.084ZM137.174 52H131.906V51.1738H134.086V46.4688H131.924V45.6426H135.07V51.1738H137.174V52ZM139.5 47.3594C139.5 46.2578 140.438 45.5195 141.838 45.5195C143.162 45.5195 144.059 46.1816 144.176 47.2422H143.215C143.098 46.6855 142.564 46.3457 141.82 46.3457C141.012 46.3457 140.49 46.7207 140.49 47.3008C140.49 47.7871 140.818 48.0625 141.615 48.2383L142.512 48.4434C143.748 48.7246 144.311 49.2637 144.311 50.1836C144.311 51.3555 143.332 52.1172 141.826 52.1172C140.385 52.1172 139.43 51.4434 139.318 50.3535H140.332C140.479 50.9395 141.041 51.2793 141.861 51.2793C142.729 51.2793 143.279 50.8867 143.279 50.2773C143.279 49.7734 142.969 49.5039 142.16 49.3223L141.217 49.1055C140.068 48.8418 139.5 48.2617 139.5 47.3594ZM160.084 45.6426L158.719 52H157.764L156.686 47.043H156.615L155.537 52H154.582L153.217 45.6426H154.189L155.051 50.7402H155.156L156.182 45.6484H157.119L158.145 50.7402H158.25L159.111 45.6426H160.084ZM163.424 52.1113C162.211 52.1113 161.402 51.3496 161.402 50.1953C161.402 49.0703 162.211 48.4023 163.658 48.3262L165.404 48.2383V47.6641C165.404 46.8672 164.918 46.4277 164.033 46.4277C163.301 46.4277 162.785 46.7383 162.621 47.2832H161.643C161.76 46.2637 162.744 45.5664 164.045 45.5664C165.539 45.5664 166.395 46.3281 166.395 47.6523V52.0059H165.445V51.0508H165.346C165.041 51.7305 164.35 52.1113 163.424 52.1113ZM163.711 51.2383C164.672 51.2383 165.404 50.5996 165.404 49.75V49L163.77 49.0762C162.879 49.1172 162.41 49.498 162.41 50.1602C162.41 50.8281 162.908 51.2383 163.711 51.2383ZM169.705 54.2617C169.559 54.2617 169.365 54.2559 169.277 54.2441V53.3711C169.354 53.3887 169.535 53.3945 169.629 53.3945C170.227 53.3945 170.555 53.125 170.818 52.3867L170.93 52.041L168.592 45.6426H169.676L171.457 50.9629H171.533L173.309 45.6426H174.369L171.973 52.2344C171.416 53.7988 170.883 54.2617 169.705 54.2617ZM178.371 53.9453H177.428L178.154 50.1367H179.473L178.371 53.9453ZM193.852 44.084C193.383 44.084 193.025 43.7324 193.025 43.2637C193.025 42.8008 193.383 42.4492 193.852 42.4492C194.32 42.4492 194.678 42.8008 194.678 43.2637C194.678 43.7324 194.32 44.084 193.852 44.084ZM196.518 52H191.25V51.1738H193.43V46.4688H191.268V45.6426H194.414V51.1738H196.518V52ZM200.074 43.9375H201.059V45.6602H203.637V46.5098H201.07V50.0957C201.07 50.7871 201.557 51.1621 202.453 51.1621C202.811 51.1621 203.449 51.1445 203.619 51.127V51.9707C203.461 52 202.688 52.0293 202.383 52.0293C200.807 52.0293 200.074 51.4316 200.074 50.1074V46.5098H198.381V45.6602H200.074V43.9375ZM209.109 47.3594H208.043V43.5449H209.109V47.3594ZM213.68 47.3594C213.68 46.2578 214.617 45.5195 216.018 45.5195C217.342 45.5195 218.238 46.1816 218.355 47.2422H217.395C217.277 46.6855 216.744 46.3457 216 46.3457C215.191 46.3457 214.67 46.7207 214.67 47.3008C214.67 47.7871 214.998 48.0625 215.795 48.2383L216.691 48.4434C217.928 48.7246 218.49 49.2637 218.49 50.1836C218.49 51.3555 217.512 52.1172 216.006 52.1172C214.564 52.1172 213.609 51.4434 213.498 50.3535H214.512C214.658 50.9395 215.221 51.2793 216.041 51.2793C216.908 51.2793 217.459 50.8867 217.459 50.2773C217.459 49.7734 217.148 49.5039 216.34 49.3223L215.396 49.1055C214.248 48.8418 213.68 48.2617 213.68 47.3594ZM228.223 52V43.1465H229.184V46.7676H229.266C229.6 45.9766 230.332 45.5312 231.305 45.5312C232.688 45.5312 233.438 46.3633 233.438 47.8809V52H232.441V48.1328C232.441 46.9902 231.973 46.4453 230.977 46.4453C229.928 46.4453 229.219 47.1777 229.219 48.2617V52H228.223ZM237.604 52.1113C236.391 52.1113 235.582 51.3496 235.582 50.1953C235.582 49.0703 236.391 48.4023 237.838 48.3262L239.584 48.2383V47.6641C239.584 46.8672 239.098 46.4277 238.213 46.4277C237.48 46.4277 236.965 46.7383 236.801 47.2832H235.822C235.939 46.2637 236.924 45.5664 238.225 45.5664C239.719 45.5664 240.574 46.3281 240.574 47.6523V52.0059H239.625V51.0508H239.525C239.221 51.7305 238.529 52.1113 237.604 52.1113ZM237.891 51.2383C238.852 51.2383 239.584 50.5996 239.584 49.75V49L237.949 49.0762C237.059 49.1172 236.59 49.498 236.59 50.1602C236.59 50.8281 237.088 51.2383 237.891 51.2383ZM245.414 49.1523V51.2031H247.383V52H243.158V51.2031H244.441V46.4395H243.029V45.6426H245.402V47.2656H245.531C245.766 46.0879 246.557 45.4785 247.781 45.4785C248.145 45.4785 248.49 45.5312 248.701 45.6191V46.7383C248.408 46.6328 247.998 46.5625 247.652 46.5625C246.246 46.5625 245.414 47.5352 245.414 49.1523ZM252.686 52.1055C251.215 52.1055 250.254 51.0449 250.254 49.4102V48.2266C250.254 46.5977 251.215 45.5371 252.686 45.5371C253.605 45.5371 254.285 45.9297 254.561 46.627H254.666V43.1465H255.68V52H254.701V51.0273H254.59C254.262 51.7305 253.594 52.1055 252.686 52.1055ZM252.979 51.1973C254.021 51.1973 254.695 50.4473 254.695 49.2695V48.3555C254.695 47.1836 254.021 46.4336 252.979 46.4336C251.93 46.4336 251.256 47.1836 251.256 48.3555V49.2695C251.256 50.4414 251.93 51.1973 252.979 51.1973ZM266.836 43.9375H267.82V45.6602H270.398V46.5098H267.832V50.0957C267.832 50.7871 268.318 51.1621 269.215 51.1621C269.572 51.1621 270.211 51.1445 270.381 51.127V51.9707C270.223 52 269.449 52.0293 269.145 52.0293C267.568 52.0293 266.836 51.4316 266.836 50.1074V46.5098H265.143V45.6602H266.836V43.9375ZM275.338 52.1172C273.656 52.1172 272.584 51.0215 272.584 49.3047V48.3438C272.584 46.627 273.656 45.5312 275.338 45.5312C277.02 45.5312 278.092 46.627 278.092 48.3438V49.3047C278.092 51.0215 277.02 52.1172 275.338 52.1172ZM275.338 46.4102C274.248 46.4102 273.568 47.1836 273.568 48.4316V49.2109C273.568 50.4648 274.248 51.2324 275.338 51.2324C276.428 51.2324 277.107 50.4648 277.107 49.2109V48.4316C277.107 47.1836 276.428 46.4102 275.338 46.4102ZM289.986 54.3848C288.516 54.3848 287.531 53.7402 287.402 52.6855H288.387C288.516 53.2129 289.154 53.5586 290.004 53.5586C291.117 53.5586 291.732 52.9961 291.732 51.9766V50.9863H291.627C291.346 51.6543 290.643 52.0586 289.717 52.0586C288.246 52.0586 287.279 50.998 287.279 49.3691V48.2266C287.279 46.5918 288.252 45.5371 289.74 45.5371C290.66 45.5371 291.357 45.9414 291.633 46.627H291.744V45.6426H292.729V52C292.729 53.4941 291.709 54.3848 289.986 54.3848ZM288.281 49.2285C288.281 50.3945 288.961 51.1562 290.016 51.1562C291.064 51.1562 291.738 50.4004 291.738 49.2285V48.3555C291.738 47.1836 291.064 46.4336 290.016 46.4336C288.961 46.4336 288.281 47.1895 288.281 48.3555V49.2285ZM297.592 52.1172C295.91 52.1172 294.838 51.0215 294.838 49.3047V48.3438C294.838 46.627 295.91 45.5312 297.592 45.5312C299.273 45.5312 300.346 46.627 300.346 48.3438V49.3047C300.346 51.0215 299.273 52.1172 297.592 52.1172ZM297.592 46.4102C296.502 46.4102 295.822 47.1836 295.822 48.4316V49.2109C295.822 50.4648 296.502 51.2324 297.592 51.2324C298.682 51.2324 299.361 50.4648 299.361 49.2109V48.4316C299.361 47.1836 298.682 46.4102 297.592 46.4102ZM312.826 52.1055C311.918 52.1055 311.25 51.7305 310.922 51.0273H310.811V52H309.832V43.1465H310.846V46.627H310.951C311.232 45.9297 311.906 45.5371 312.826 45.5371C314.297 45.5371 315.258 46.5977 315.258 48.2266V49.4102C315.258 51.0449 314.297 52.1055 312.826 52.1055ZM312.533 51.1973C313.588 51.1973 314.256 50.4414 314.256 49.2695V48.3555C314.256 47.1836 313.588 46.4336 312.533 46.4336C311.49 46.4336 310.822 47.1836 310.822 48.3555V49.2695C310.822 50.4473 311.49 51.1973 312.533 51.1973ZM319.201 52.1113C317.988 52.1113 317.18 51.3496 317.18 50.1953C317.18 49.0703 317.988 48.4023 319.436 48.3262L321.182 48.2383V47.6641C321.182 46.8672 320.695 46.4277 319.811 46.4277C319.078 46.4277 318.562 46.7383 318.398 47.2832H317.42C317.537 46.2637 318.521 45.5664 319.822 45.5664C321.316 45.5664 322.172 46.3281 322.172 47.6523V52.0059H321.223V51.0508H321.123C320.818 51.7305 320.127 52.1113 319.201 52.1113ZM319.488 51.2383C320.449 51.2383 321.182 50.5996 321.182 49.75V49L319.547 49.0762C318.656 49.1172 318.188 49.498 318.188 50.1602C318.188 50.8281 318.686 51.2383 319.488 51.2383ZM329.912 47.623H328.928C328.805 46.8789 328.184 46.4102 327.363 46.4102C326.256 46.4102 325.641 47.166 325.641 48.5312V49.1055C325.641 50.4707 326.256 51.2207 327.363 51.2207C328.184 51.2207 328.805 50.7578 328.928 50.0312H329.912C329.754 51.3262 328.787 52.1172 327.381 52.1172C325.652 52.1172 324.645 51.0566 324.645 49.2344V48.4023C324.645 46.5801 325.652 45.5195 327.381 45.5195C328.787 45.5195 329.748 46.3164 329.912 47.623ZM333.621 48.4961L336.393 45.6426H337.6L335.133 48.1621L337.775 52H336.592L334.424 48.8418L333.545 49.6855V52H332.549V43.1465H333.545V48.4961H333.621ZM342.1 52.0352C341.52 52.0352 341.039 51.5488 341.039 50.9512C341.039 50.3594 341.52 49.873 342.1 49.873C342.68 49.873 343.16 50.3594 343.16 50.9512C343.16 51.5488 342.68 52.0352 342.1 52.0352ZM359.162 52H354.709V51.0801H356.42V44.4648H354.709V43.5449H359.162V44.4648H357.451V51.0801H359.162V52ZM363.27 43.9375H364.254V45.6602H366.832V46.5098H364.266V50.0957C364.266 50.7871 364.752 51.1621 365.648 51.1621C366.006 51.1621 366.645 51.1445 366.814 51.127V51.9707C366.656 52 365.883 52.0293 365.578 52.0293C364.002 52.0293 363.27 51.4316 363.27 50.1074V46.5098H361.576V45.6602H363.27V43.9375ZM382.254 47.3184V52H381.357V47.6113C381.357 46.8379 381.076 46.4336 380.543 46.4336C379.986 46.4336 379.646 46.9199 379.646 47.7109V52H378.756V47.6055C378.756 46.8379 378.475 46.4336 377.936 46.4336C377.373 46.4336 377.021 46.9199 377.021 47.7109V52H376.125V45.6426H377.016V46.5391H377.121C377.279 45.9004 377.736 45.5254 378.334 45.5254C378.932 45.5254 379.354 45.8945 379.488 46.5215H379.594C379.758 45.9121 380.268 45.5254 380.906 45.5254C381.791 45.5254 382.254 46.1406 382.254 47.3184ZM385.963 52.1113C384.75 52.1113 383.941 51.3496 383.941 50.1953C383.941 49.0703 384.75 48.4023 386.197 48.3262L387.943 48.2383V47.6641C387.943 46.8672 387.457 46.4277 386.572 46.4277C385.84 46.4277 385.324 46.7383 385.16 47.2832H384.182C384.299 46.2637 385.283 45.5664 386.584 45.5664C388.078 45.5664 388.934 46.3281 388.934 47.6523V52.0059H387.984V51.0508H387.885C387.58 51.7305 386.889 52.1113 385.963 52.1113ZM386.25 51.2383C387.211 51.2383 387.943 50.5996 387.943 49.75V49L386.309 49.0762C385.418 49.1172 384.949 49.498 384.949 50.1602C384.949 50.8281 385.447 51.2383 386.25 51.2383ZM392.244 54.2617C392.098 54.2617 391.904 54.2559 391.816 54.2441V53.3711C391.893 53.3887 392.074 53.3945 392.168 53.3945C392.766 53.3945 393.094 53.125 393.357 52.3867L393.469 52.041L391.131 45.6426H392.215L393.996 50.9629H394.072L395.848 45.6426H396.908L394.512 52.2344C393.955 53.7988 393.422 54.2617 392.244 54.2617ZM409.26 52.1055C408.352 52.1055 407.684 51.7305 407.355 51.0273H407.244V52H406.266V43.1465H407.279V46.627H407.385C407.666 45.9297 408.34 45.5371 409.26 45.5371C410.73 45.5371 411.691 46.5977 411.691 48.2266V49.4102C411.691 51.0449 410.73 52.1055 409.26 52.1055ZM408.967 51.1973C410.021 51.1973 410.689 50.4414 410.689 49.2695V48.3555C410.689 47.1836 410.021 46.4336 408.967 46.4336C407.924 46.4336 407.256 47.1836 407.256 48.3555V49.2695C407.256 50.4473 407.924 51.1973 408.967 51.1973ZM417.996 50.3594H418.963C418.77 51.4082 417.762 52.1172 416.426 52.1172C414.68 52.1172 413.666 51.0684 413.666 49.2578V48.3027C413.666 46.627 414.738 45.5254 416.355 45.5254C418.008 45.5254 418.98 46.6211 418.98 48.4609V49.082H414.65V49.3398C414.65 50.5059 415.342 51.2559 416.426 51.2559C417.229 51.2559 417.82 50.916 417.996 50.3594ZM416.35 46.3809C415.289 46.3809 414.65 47.1074 414.65 48.3262H417.996C417.996 47.1133 417.375 46.3809 416.35 46.3809ZM430.031 43.9375H431.016V45.6602H433.594V46.5098H431.027V50.0957C431.027 50.7871 431.514 51.1621 432.41 51.1621C432.768 51.1621 433.406 51.1445 433.576 51.127V51.9707C433.418 52 432.645 52.0293 432.34 52.0293C430.764 52.0293 430.031 51.4316 430.031 50.1074V46.5098H428.338V45.6602H430.031V43.9375ZM435.926 52V43.1465H436.887V46.7676H436.969C437.303 45.9766 438.035 45.5312 439.008 45.5312C440.391 45.5312 441.141 46.3633 441.141 47.8809V52H440.145V48.1328C440.145 46.9902 439.676 46.4453 438.68 46.4453C437.631 46.4453 436.922 47.1777 436.922 48.2617V52H435.926ZM447.668 50.3594H448.635C448.441 51.4082 447.434 52.1172 446.098 52.1172C444.352 52.1172 443.338 51.0684 443.338 49.2578V48.3027C443.338 46.627 444.41 45.5254 446.027 45.5254C447.68 45.5254 448.652 46.6211 448.652 48.4609V49.082H444.322V49.3398C444.322 50.5059 445.014 51.2559 446.098 51.2559C446.9 51.2559 447.492 50.916 447.668 50.3594ZM446.021 46.3809C444.961 46.3809 444.322 47.1074 444.322 48.3262H447.668C447.668 47.1133 447.047 46.3809 446.021 46.3809ZM463.852 47.3184V52H462.955V47.6113C462.955 46.8379 462.674 46.4336 462.141 46.4336C461.584 46.4336 461.244 46.9199 461.244 47.7109V52H460.354V47.6055C460.354 46.8379 460.072 46.4336 459.533 46.4336C458.971 46.4336 458.619 46.9199 458.619 47.7109V52H457.723V45.6426H458.613V46.5391H458.719C458.877 45.9004 459.334 45.5254 459.932 45.5254C460.529 45.5254 460.951 45.8945 461.086 46.5215H461.191C461.355 45.9121 461.865 45.5254 462.504 45.5254C463.389 45.5254 463.852 46.1406 463.852 47.3184ZM468.205 52.1172C466.523 52.1172 465.451 51.0215 465.451 49.3047V48.3438C465.451 46.627 466.523 45.5312 468.205 45.5312C469.887 45.5312 470.959 46.627 470.959 48.3438V49.3047C470.959 51.0215 469.887 52.1172 468.205 52.1172ZM468.205 46.4102C467.115 46.4102 466.436 47.1836 466.436 48.4316V49.2109C466.436 50.4648 467.115 51.2324 468.205 51.2324C469.295 51.2324 469.975 50.4648 469.975 49.2109V48.4316C469.975 47.1836 469.295 46.4102 468.205 46.4102ZM473.309 47.3594C473.309 46.2578 474.246 45.5195 475.646 45.5195C476.971 45.5195 477.867 46.1816 477.984 47.2422H477.023C476.906 46.6855 476.373 46.3457 475.629 46.3457C474.82 46.3457 474.299 46.7207 474.299 47.3008C474.299 47.7871 474.627 48.0625 475.424 48.2383L476.32 48.4434C477.557 48.7246 478.119 49.2637 478.119 50.1836C478.119 51.3555 477.141 52.1172 475.635 52.1172C474.193 52.1172 473.238 51.4434 473.127 50.3535H474.141C474.287 50.9395 474.85 51.2793 475.67 51.2793C476.537 51.2793 477.088 50.8867 477.088 50.2773C477.088 49.7734 476.777 49.5039 475.969 49.3223L475.025 49.1055C473.877 48.8418 473.309 48.2617 473.309 47.3594ZM481.957 43.9375H482.941V45.6602H485.52V46.5098H482.953V50.0957C482.953 50.7871 483.439 51.1621 484.336 51.1621C484.693 51.1621 485.332 51.1445 485.502 51.127V51.9707C485.344 52 484.57 52.0293 484.266 52.0293C482.689 52.0293 481.957 51.4316 481.957 50.1074V46.5098H480.264V45.6602H481.957V43.9375ZM497.988 44.084C497.52 44.084 497.162 43.7324 497.162 43.2637C497.162 42.8008 497.52 42.4492 497.988 42.4492C498.457 42.4492 498.814 42.8008 498.814 43.2637C498.814 43.7324 498.457 44.084 497.988 44.084ZM500.654 52H495.387V51.1738H497.566V46.4688H495.404V45.6426H498.551V51.1738H500.654V52ZM508.359 47.3184V52H507.463V47.6113C507.463 46.8379 507.182 46.4336 506.648 46.4336C506.092 46.4336 505.752 46.9199 505.752 47.7109V52H504.861V47.6055C504.861 46.8379 504.58 46.4336 504.041 46.4336C503.479 46.4336 503.127 46.9199 503.127 47.7109V52H502.23V45.6426H503.121V46.5391H503.227C503.385 45.9004 503.842 45.5254 504.439 45.5254C505.037 45.5254 505.459 45.8945 505.594 46.5215H505.699C505.863 45.9121 506.373 45.5254 507.012 45.5254C507.896 45.5254 508.359 46.1406 508.359 47.3184ZM513.111 45.5371C514.582 45.5371 515.543 46.5977 515.543 48.2324V49.416C515.543 51.0449 514.582 52.1055 513.111 52.1055C512.191 52.1055 511.518 51.7129 511.242 51.0156H511.131V54.1445H510.117V45.6426H511.102V46.6152H511.207C511.541 45.9121 512.203 45.5371 513.111 45.5371ZM512.824 46.4512C511.775 46.4512 511.107 47.2012 511.107 48.373V49.2871C511.107 50.4648 511.775 51.2148 512.824 51.2148C513.873 51.2148 514.541 50.459 514.541 49.2871V48.373C514.541 47.2012 513.873 46.4512 512.824 46.4512ZM520.131 52.1172C518.449 52.1172 517.377 51.0215 517.377 49.3047V48.3438C517.377 46.627 518.449 45.5312 520.131 45.5312C521.812 45.5312 522.885 46.627 522.885 48.3438V49.3047C522.885 51.0215 521.812 52.1172 520.131 52.1172ZM520.131 46.4102C519.041 46.4102 518.361 47.1836 518.361 48.4316V49.2109C518.361 50.4648 519.041 51.2324 520.131 51.2324C521.221 51.2324 521.9 50.4648 521.9 49.2109V48.4316C521.9 47.1836 521.221 46.4102 520.131 46.4102ZM527.297 49.1523V51.2031H529.266V52H525.041V51.2031H526.324V46.4395H524.912V45.6426H527.285V47.2656H527.414C527.648 46.0879 528.439 45.4785 529.664 45.4785C530.027 45.4785 530.373 45.5312 530.584 45.6191V46.7383C530.291 46.6328 529.881 46.5625 529.535 46.5625C528.129 46.5625 527.297 47.5352 527.297 49.1523ZM533.883 43.9375H534.867V45.6602H537.445V46.5098H534.879V50.0957C534.879 50.7871 535.365 51.1621 536.262 51.1621C536.619 51.1621 537.258 51.1445 537.428 51.127V51.9707C537.27 52 536.496 52.0293 536.191 52.0293C534.615 52.0293 533.883 51.4316 533.883 50.1074V46.5098H532.189V45.6602H533.883V43.9375ZM541.74 52.1113C540.527 52.1113 539.719 51.3496 539.719 50.1953C539.719 49.0703 540.527 48.4023 541.975 48.3262L543.721 48.2383V47.6641C543.721 46.8672 543.234 46.4277 542.35 46.4277C541.617 46.4277 541.102 46.7383 540.938 47.2832H539.959C540.076 46.2637 541.061 45.5664 542.361 45.5664C543.855 45.5664 544.711 46.3281 544.711 47.6523V52.0059H543.762V51.0508H543.662C543.357 51.7305 542.666 52.1113 541.74 52.1113ZM542.027 51.2383C542.988 51.2383 543.721 50.5996 543.721 49.75V49L542.086 49.0762C541.195 49.1172 540.727 49.498 540.727 50.1602C540.727 50.8281 541.225 51.2383 542.027 51.2383ZM547.201 52V45.6426H548.156V46.7617H548.238C548.578 45.9707 549.305 45.5254 550.271 45.5254C551.654 45.5254 552.404 46.3516 552.404 47.875V52H551.408V48.127C551.408 46.9785 550.939 46.4395 549.949 46.4395C548.9 46.4395 548.197 47.1719 548.197 48.2559V52H547.201ZM556.137 43.9375H557.121V45.6602H559.699V46.5098H557.133V50.0957C557.133 50.7871 557.619 51.1621 558.516 51.1621C558.873 51.1621 559.512 51.1445 559.682 51.127V51.9707C559.523 52 558.75 52.0293 558.445 52.0293C556.869 52.0293 556.137 51.4316 556.137 50.1074V46.5098H554.443V45.6602H556.137V43.9375ZM569.742 47.3594C569.742 46.2578 570.68 45.5195 572.08 45.5195C573.404 45.5195 574.301 46.1816 574.418 47.2422H573.457C573.34 46.6855 572.807 46.3457 572.062 46.3457C571.254 46.3457 570.732 46.7207 570.732 47.3008C570.732 47.7871 571.061 48.0625 571.857 48.2383L572.754 48.4434C573.99 48.7246 574.553 49.2637 574.553 50.1836C574.553 51.3555 573.574 52.1172 572.068 52.1172C570.627 52.1172 569.672 51.4434 569.561 50.3535H570.574C570.721 50.9395 571.283 51.2793 572.104 51.2793C572.971 51.2793 573.521 50.8867 573.521 50.2773C573.521 49.7734 573.211 49.5039 572.402 49.3223L571.459 49.1055C570.311 48.8418 569.742 48.2617 569.742 47.3594ZM576.867 52V43.1465H577.828V46.7676H577.91C578.244 45.9766 578.977 45.5312 579.949 45.5312C581.332 45.5312 582.082 46.3633 582.082 47.8809V52H581.086V48.1328C581.086 46.9902 580.617 46.4453 579.621 46.4453C578.572 46.4453 577.863 47.1777 577.863 48.2617V52H576.867ZM587.004 44.084C586.535 44.084 586.178 43.7324 586.178 43.2637C586.178 42.8008 586.535 42.4492 587.004 42.4492C587.473 42.4492 587.83 42.8008 587.83 43.2637C587.83 43.7324 587.473 44.084 587.004 44.084ZM589.67 52H584.402V51.1738H586.582V46.4688H584.42V45.6426H587.566V51.1738H589.67V52ZM593.373 52V46.5098H591.668V45.6602H593.373V45.0215C593.373 43.791 594.135 43.2168 595.699 43.2168C596.068 43.2168 596.953 43.2461 597.164 43.2754V44.0898C596.889 44.0605 596.068 44.0371 595.711 44.0371C594.826 44.0371 594.357 44.3652 594.357 45.0039V45.6602H597.164V46.5098H594.369V52H593.373ZM600.645 43.9375H601.629V45.6602H604.207V46.5098H601.641V50.0957C601.641 50.7871 602.127 51.1621 603.023 51.1621C603.381 51.1621 604.02 51.1445 604.189 51.127V51.9707C604.031 52 603.258 52.0293 602.953 52.0293C601.377 52.0293 600.645 51.4316 600.645 50.1074V46.5098H598.951V45.6602H600.645V43.9375ZM13.3945 67.3594C13.3945 66.2578 14.332 65.5195 15.7324 65.5195C17.0566 65.5195 17.9531 66.1816 18.0703 67.2422H17.1094C16.9922 66.6855 16.459 66.3457 15.7148 66.3457C14.9062 66.3457 14.3848 66.7207 14.3848 67.3008C14.3848 67.7871 14.7129 68.0625 15.5098 68.2383L16.4062 68.4434C17.6426 68.7246 18.2051 69.2637 18.2051 70.1836C18.2051 71.3555 17.2266 72.1172 15.7207 72.1172C14.2793 72.1172 13.3242 71.4434 13.2129 70.3535H14.2266C14.373 70.9395 14.9355 71.2793 15.7559 71.2793C16.623 71.2793 17.1738 70.8867 17.1738 70.2773C17.1738 69.7734 16.8633 69.5039 16.0547 69.3223L15.1113 69.1055C13.9629 68.8418 13.3945 68.2617 13.3945 67.3594ZM23.2383 64.084C22.7695 64.084 22.4121 63.7324 22.4121 63.2637C22.4121 62.8008 22.7695 62.4492 23.2383 62.4492C23.707 62.4492 24.0645 62.8008 24.0645 63.2637C24.0645 63.7324 23.707 64.084 23.2383 64.084ZM25.9043 72H20.6367V71.1738H22.8164V66.4688H20.6543V65.6426H23.8008V71.1738H25.9043V72ZM27.9434 72V65.6426H28.8984V66.7617H28.9805C29.3203 65.9707 30.0469 65.5254 31.0137 65.5254C32.3965 65.5254 33.1465 66.3516 33.1465 67.875V72H32.1504V68.127C32.1504 66.9785 31.6816 66.4395 30.6914 66.4395C29.6426 66.4395 28.9395 67.1719 28.9395 68.2559V72H27.9434ZM40.6113 67.623H39.627C39.5039 66.8789 38.8828 66.4102 38.0625 66.4102C36.9551 66.4102 36.3398 67.166 36.3398 68.5312V69.1055C36.3398 70.4707 36.9551 71.2207 38.0625 71.2207C38.8828 71.2207 39.5039 70.7578 39.627 70.0312H40.6113C40.4531 71.3262 39.4863 72.1172 38.0801 72.1172C36.3516 72.1172 35.3438 71.0566 35.3438 69.2344V68.4023C35.3438 66.5801 36.3516 65.5195 38.0801 65.5195C39.4863 65.5195 40.4473 66.3164 40.6113 67.623ZM47.0977 70.3594H48.0645C47.8711 71.4082 46.8633 72.1172 45.5273 72.1172C43.7812 72.1172 42.7676 71.0684 42.7676 69.2578V68.3027C42.7676 66.627 43.8398 65.5254 45.457 65.5254C47.1094 65.5254 48.082 66.6211 48.082 68.4609V69.082H43.752V69.3398C43.752 70.5059 44.4434 71.2559 45.5273 71.2559C46.3301 71.2559 46.9219 70.916 47.0977 70.3594ZM45.4512 66.3809C44.3906 66.3809 43.752 67.1074 43.752 68.3262H47.0977C47.0977 67.1133 46.4766 66.3809 45.4512 66.3809ZM59.1328 63.9375H60.1172V65.6602H62.6953V66.5098H60.1289V70.0957C60.1289 70.7871 60.6152 71.1621 61.5117 71.1621C61.8691 71.1621 62.5078 71.1445 62.6777 71.127V71.9707C62.5195 72 61.7461 72.0293 61.4414 72.0293C59.8652 72.0293 59.1328 71.4316 59.1328 70.1074V66.5098H57.4395V65.6602H59.1328V63.9375ZM65.0273 72V63.1465H65.9883V66.7676H66.0703C66.4043 65.9766 67.1367 65.5312 68.1094 65.5312C69.4922 65.5312 70.2422 66.3633 70.2422 67.8809V72H69.2461V68.1328C69.2461 66.9902 68.7773 66.4453 67.7812 66.4453C66.7324 66.4453 66.0234 67.1777 66.0234 68.2617V72H65.0273ZM76.7695 70.3594H77.7363C77.543 71.4082 76.5352 72.1172 75.1992 72.1172C73.4531 72.1172 72.4395 71.0684 72.4395 69.2578V68.3027C72.4395 66.627 73.5117 65.5254 75.1289 65.5254C76.7812 65.5254 77.7539 66.6211 77.7539 68.4609V69.082H73.4238V69.3398C73.4238 70.5059 74.1152 71.2559 75.1992 71.2559C76.002 71.2559 76.5938 70.916 76.7695 70.3594ZM75.123 66.3809C74.0625 66.3809 73.4238 67.1074 73.4238 68.3262H76.7695C76.7695 67.1133 76.1484 66.3809 75.123 66.3809ZM90.2871 65.5371C91.7578 65.5371 92.7188 66.5977 92.7188 68.2324V69.416C92.7188 71.0449 91.7578 72.1055 90.2871 72.1055C89.3672 72.1055 88.6934 71.7129 88.418 71.0156H88.3066V74.1445H87.293V65.6426H88.2773V66.6152H88.3828C88.7168 65.9121 89.3789 65.5371 90.2871 65.5371ZM90 66.4512C88.9512 66.4512 88.2832 67.2012 88.2832 68.373V69.2871C88.2832 70.4648 88.9512 71.2148 90 71.2148C91.0488 71.2148 91.7168 70.459 91.7168 69.2871V68.373C91.7168 67.2012 91.0488 66.4512 90 66.4512ZM99.0234 70.3594H99.9902C99.7969 71.4082 98.7891 72.1172 97.4531 72.1172C95.707 72.1172 94.6934 71.0684 94.6934 69.2578V68.3027C94.6934 66.627 95.7656 65.5254 97.3828 65.5254C99.0352 65.5254 100.008 66.6211 100.008 68.4609V69.082H95.6777V69.3398C95.6777 70.5059 96.3691 71.2559 97.4531 71.2559C98.2559 71.2559 98.8477 70.916 99.0234 70.3594ZM97.377 66.3809C96.3164 66.3809 95.6777 67.1074 95.6777 68.3262H99.0234C99.0234 67.1133 98.4023 66.3809 97.377 66.3809ZM104.473 69.1523V71.2031H106.441V72H102.217V71.2031H103.5V66.4395H102.088V65.6426H104.461V67.2656H104.59C104.824 66.0879 105.615 65.4785 106.84 65.4785C107.203 65.4785 107.549 65.5312 107.76 65.6191V66.7383C107.467 66.6328 107.057 66.5625 106.711 66.5625C105.305 66.5625 104.473 67.5352 104.473 69.1523ZM109.828 67.3594C109.828 66.2578 110.766 65.5195 112.166 65.5195C113.49 65.5195 114.387 66.1816 114.504 67.2422H113.543C113.426 66.6855 112.893 66.3457 112.148 66.3457C111.34 66.3457 110.818 66.7207 110.818 67.3008C110.818 67.7871 111.146 68.0625 111.943 68.2383L112.84 68.4434C114.076 68.7246 114.639 69.2637 114.639 70.1836C114.639 71.3555 113.66 72.1172 112.154 72.1172C110.713 72.1172 109.758 71.4434 109.646 70.3535H110.66C110.807 70.9395 111.369 71.2793 112.189 71.2793C113.057 71.2793 113.607 70.8867 113.607 70.2773C113.607 69.7734 113.297 69.5039 112.488 69.3223L111.545 69.1055C110.396 68.8418 109.828 68.2617 109.828 67.3594ZM119.561 72.1172C117.879 72.1172 116.807 71.0215 116.807 69.3047V68.3438C116.807 66.627 117.879 65.5312 119.561 65.5312C121.242 65.5312 122.314 66.627 122.314 68.3438V69.3047C122.314 71.0215 121.242 72.1172 119.561 72.1172ZM119.561 66.4102C118.471 66.4102 117.791 67.1836 117.791 68.4316V69.2109C117.791 70.4648 118.471 71.2324 119.561 71.2324C120.65 71.2324 121.33 70.4648 121.33 69.2109V68.4316C121.33 67.1836 120.65 66.4102 119.561 66.4102ZM124.377 72V65.6426H125.332V66.7617H125.414C125.754 65.9707 126.48 65.5254 127.447 65.5254C128.83 65.5254 129.58 66.3516 129.58 67.875V72H128.584V68.127C128.584 66.9785 128.115 66.4395 127.125 66.4395C126.076 66.4395 125.373 67.1719 125.373 68.2559V72H124.377ZM133.752 72.1113C132.539 72.1113 131.73 71.3496 131.73 70.1953C131.73 69.0703 132.539 68.4023 133.986 68.3262L135.732 68.2383V67.6641C135.732 66.8672 135.246 66.4277 134.361 66.4277C133.629 66.4277 133.113 66.7383 132.949 67.2832H131.971C132.088 66.2637 133.072 65.5664 134.373 65.5664C135.867 65.5664 136.723 66.3281 136.723 67.6523V72.0059H135.773V71.0508H135.674C135.369 71.7305 134.678 72.1113 133.752 72.1113ZM134.039 71.2383C135 71.2383 135.732 70.5996 135.732 69.75V69L134.098 69.0762C133.207 69.1172 132.738 69.498 132.738 70.1602C132.738 70.8281 133.236 71.2383 134.039 71.2383ZM144.592 72H139.324V71.1738H141.498V63.9727H139.342V63.1465H142.494V71.1738H144.592V72ZM159.299 67.623H158.314C158.191 66.8789 157.57 66.4102 156.75 66.4102C155.643 66.4102 155.027 67.166 155.027 68.5312V69.1055C155.027 70.4707 155.643 71.2207 156.75 71.2207C157.57 71.2207 158.191 70.7578 158.314 70.0312H159.299C159.141 71.3262 158.174 72.1172 156.768 72.1172C155.039 72.1172 154.031 71.0566 154.031 69.2344V68.4023C154.031 66.5801 155.039 65.5195 156.768 65.5195C158.174 65.5195 159.135 66.3164 159.299 67.623ZM164.068 72.1172C162.387 72.1172 161.314 71.0215 161.314 69.3047V68.3438C161.314 66.627 162.387 65.5312 164.068 65.5312C165.75 65.5312 166.822 66.627 166.822 68.3438V69.3047C166.822 71.0215 165.75 72.1172 164.068 72.1172ZM164.068 66.4102C162.979 66.4102 162.299 67.1836 162.299 68.4316V69.2109C162.299 70.4648 162.979 71.2324 164.068 71.2324C165.158 71.2324 165.838 70.4648 165.838 69.2109V68.4316C165.838 67.1836 165.158 66.4102 164.068 66.4102ZM174.551 67.3184V72H173.654V67.6113C173.654 66.8379 173.373 66.4336 172.84 66.4336C172.283 66.4336 171.943 66.9199 171.943 67.7109V72H171.053V67.6055C171.053 66.8379 170.771 66.4336 170.232 66.4336C169.67 66.4336 169.318 66.9199 169.318 67.7109V72H168.422V65.6426H169.312V66.5391H169.418C169.576 65.9004 170.033 65.5254 170.631 65.5254C171.229 65.5254 171.65 65.8945 171.785 66.5215H171.891C172.055 65.9121 172.564 65.5254 173.203 65.5254C174.088 65.5254 174.551 66.1406 174.551 67.3184ZM179.303 65.5371C180.773 65.5371 181.734 66.5977 181.734 68.2324V69.416C181.734 71.0449 180.773 72.1055 179.303 72.1055C178.383 72.1055 177.709 71.7129 177.434 71.0156H177.322V74.1445H176.309V65.6426H177.293V66.6152H177.398C177.732 65.9121 178.395 65.5371 179.303 65.5371ZM179.016 66.4512C177.967 66.4512 177.299 67.2012 177.299 68.373V69.2871C177.299 70.4648 177.967 71.2148 179.016 71.2148C180.064 71.2148 180.732 70.459 180.732 69.2871V68.373C180.732 67.2012 180.064 66.4512 179.016 66.4512ZM188.924 65.6426V72H187.969V70.8809H187.887C187.547 71.6719 186.82 72.1172 185.854 72.1172C184.471 72.1172 183.721 71.291 183.721 69.7676V65.6426H184.717V69.5156C184.717 70.6641 185.186 71.2031 186.176 71.2031C187.225 71.2031 187.928 70.4707 187.928 69.3867V65.6426H188.924ZM192.656 63.9375H193.641V65.6602H196.219V66.5098H193.652V70.0957C193.652 70.7871 194.139 71.1621 195.035 71.1621C195.393 71.1621 196.031 71.1445 196.201 71.127V71.9707C196.043 72 195.27 72.0293 194.965 72.0293C193.389 72.0293 192.656 71.4316 192.656 70.1074V66.5098H190.963V65.6602H192.656V63.9375ZM202.875 70.3594H203.842C203.648 71.4082 202.641 72.1172 201.305 72.1172C199.559 72.1172 198.545 71.0684 198.545 69.2578V68.3027C198.545 66.627 199.617 65.5254 201.234 65.5254C202.887 65.5254 203.859 66.6211 203.859 68.4609V69.082H199.529V69.3398C199.529 70.5059 200.221 71.2559 201.305 71.2559C202.107 71.2559 202.699 70.916 202.875 70.3594ZM201.229 66.3809C200.168 66.3809 199.529 67.1074 199.529 68.3262H202.875C202.875 67.1133 202.254 66.3809 201.229 66.3809ZM208.324 69.1523V71.2031H210.293V72H206.068V71.2031H207.352V66.4395H205.939V65.6426H208.312V67.2656H208.441C208.676 66.0879 209.467 65.4785 210.691 65.4785C211.055 65.4785 211.4 65.5312 211.611 65.6191V66.7383C211.318 66.6328 210.908 66.5625 210.562 66.5625C209.156 66.5625 208.324 67.5352 208.324 69.1523ZM223.412 72.0352C222.832 72.0352 222.352 71.5488 222.352 70.9512C222.352 70.3594 222.832 69.873 223.412 69.873C223.992 69.873 224.473 70.3594 224.473 70.9512C224.473 71.5488 223.992 72.0352 223.412 72.0352Z" fill="black"/>
<mask id="path-7-inside-1_31_938" fill="white">
<path d="M12 88H612V118H12V88Z"/>
</mask>
<path d="M12 88V89H612V88V87H12V88Z" fill="#777362" mask="url(#path-7-inside-1_31_938)"/>
<path d="M14.1855 97.7422H17.2734V98.5449H15.1523V107H17.2852V107.803H14.1855V97.7422ZM19.834 107L22.5176 102.752L19.8516 98.5449H21.0234L23.1445 101.943H23.1914L25.3301 98.5449H26.4199L23.7012 102.781L26.3789 107H25.2305L23.0977 103.643H23.0566L20.9062 107H19.834ZM32.1211 97.7422V107.803H29.0215V107H31.1484V98.5449H29.0332V97.7422H32.1211ZM45.5742 106.197C46.6992 106.197 47.4141 105.523 47.4434 104.434H48.4863C48.4863 106.068 47.3027 107.176 45.5742 107.176C43.5879 107.176 42.4336 105.834 42.4336 103.525V102.02C42.4336 99.7109 43.5879 98.3691 45.5742 98.3691C47.3555 98.3691 48.457 99.4531 48.4922 101.258H47.4434C47.4082 100.115 46.6523 99.3477 45.5684 99.3477C44.2031 99.3477 43.4883 100.268 43.4883 102.02V103.525C43.4883 105.277 44.2031 106.197 45.5742 106.197ZM55.6641 106.039V107H50.6309V98.5449H51.6562V106.039H55.6641ZM63.3164 103.455C63.3164 105.793 62.1387 107.176 60.2168 107.176C58.2949 107.176 57.1172 105.793 57.1172 103.455V102.09C57.1172 99.752 58.2949 98.3691 60.2168 98.3691C62.1387 98.3691 63.3164 99.752 63.3164 102.09V103.455ZM60.2168 106.197C61.5 106.197 62.2734 105.213 62.2734 103.449V102.096C62.2734 100.332 61.5 99.3477 60.2168 99.3477C58.9336 99.3477 58.1602 100.332 58.1602 102.096V103.449C58.1602 105.213 58.9336 106.197 60.2168 106.197ZM64.7402 104.75H65.748C65.8535 105.676 66.5977 106.238 67.7227 106.238C68.8477 106.238 69.5859 105.652 69.5859 104.744C69.5859 104.012 69.0938 103.572 67.9512 103.291L67.2246 103.109C65.6543 102.711 64.9453 101.967 64.9453 100.742C64.9453 99.3008 66.0293 98.3691 67.7168 98.3691C69.3105 98.3691 70.4062 99.2891 70.4766 100.695H69.4688C69.3633 99.8223 68.7188 99.3066 67.7227 99.3066C66.6387 99.3066 65.9883 99.8223 65.9883 100.684C65.9883 101.416 66.457 101.838 67.5586 102.113L68.2969 102.301C69.9375 102.705 70.6289 103.42 70.6289 104.691C70.6289 106.209 69.4863 107.176 67.7168 107.176C65.9707 107.176 64.8281 106.25 64.7402 104.75ZM77.6836 106.051V107H72.6914V98.5449H77.6836V99.4941H73.7285V102.236H77.4668V103.145H73.7285V106.051H77.6836Z" fill="#777362"/>
<path d="M93.1855 97.7422H96.2734V98.5449H94.1523V107H96.2852V107.803H93.1855V97.7422ZM99.2324 104.75H100.24C100.346 105.676 101.09 106.238 102.215 106.238C103.34 106.238 104.078 105.652 104.078 104.744C104.078 104.012 103.586 103.572 102.443 103.291L101.717 103.109C100.146 102.711 99.4375 101.967 99.4375 100.742C99.4375 99.3008 100.521 98.3691 102.209 98.3691C103.803 98.3691 104.898 99.2891 104.969 100.695H103.961C103.855 99.8223 103.211 99.3066 102.215 99.3066C101.131 99.3066 100.48 99.8223 100.48 100.684C100.48 101.416 100.949 101.838 102.051 102.113L102.789 102.301C104.43 102.705 105.121 103.42 105.121 104.691C105.121 106.209 103.979 107.176 102.209 107.176C100.463 107.176 99.3203 106.25 99.2324 104.75ZM111.121 97.7422V107.803H108.021V107H110.148V98.5449H108.033V97.7422H111.121ZM121.486 104.75H122.494C122.6 105.676 123.344 106.238 124.469 106.238C125.594 106.238 126.332 105.652 126.332 104.744C126.332 104.012 125.84 103.572 124.697 103.291L123.971 103.109C122.4 102.711 121.691 101.967 121.691 100.742C121.691 99.3008 122.775 98.3691 124.463 98.3691C126.057 98.3691 127.152 99.2891 127.223 100.695H126.215C126.109 99.8223 125.465 99.3066 124.469 99.3066C123.385 99.3066 122.734 99.8223 122.734 100.684C122.734 101.416 123.203 101.838 124.305 102.113L125.043 102.301C126.684 102.705 127.375 103.42 127.375 104.691C127.375 106.209 126.232 107.176 124.463 107.176C122.717 107.176 121.574 106.25 121.486 104.75ZM133.984 107L133.252 104.574H130.311L129.572 107H128.523L131.248 98.5449H132.35L135.074 107H133.984ZM131.77 99.7871L130.58 103.689H132.982L131.799 99.7871H131.77ZM139.246 105.758L141.449 98.5449H142.492L139.768 107H138.666L135.941 98.5449H137.025L139.217 105.758H139.246ZM149.266 106.051V107H144.273V98.5449H149.266V99.4941H145.311V102.236H149.049V103.145H145.311V106.051H149.266Z" fill="#777362"/>
<path fill-rule="evenodd" clip-rule="evenodd" d="M600.939 97.4393C601.221 97.158 601.602 97 602 97H606.5C606.776 97 607 97.2239 607 97.5C607 97.7761 606.776 98 606.5 98H602C601.867 98 601.74 98.0527 601.646 98.1464C601.553 98.2402 601.5 98.3674 601.5 98.5V103.5C601.5 103.633 601.553 103.76 601.646 103.854C601.74 103.947 601.867 104 602 104H610C610.133 104 610.26 103.947 610.354 103.854C610.447 103.76 610.5 103.633 610.5 103.5V102C610.5 101.724 610.724 101.5 611 101.5C611.276 101.5 611.5 101.724 611.5 102V103.5C611.5 103.898 611.342 104.279 611.061 104.561C610.779 104.842 610.398 105 610 105H602C601.602 105 601.221 104.842 600.939 104.561C600.658 104.279 600.5 103.898 600.5 103.5V98.5C600.5 98.1022 600.658 97.7206 600.939 97.4393Z" fill="#777362"/>
<path fill-rule="evenodd" clip-rule="evenodd" d="M603.5 106.5C603.5 106.224 603.724 106 604 106H608C608.276 106 608.5 106.224 608.5 106.5C608.5 106.776 608.276 107 608 107H604C603.724 107 603.5 106.776 603.5 106.5Z" fill="#777362"/>
<path fill-rule="evenodd" clip-rule="evenodd" d="M606 104C606.276 104 606.5 104.224 606.5 104.5V106.5C606.5 106.776 606.276 107 606 107C605.724 107 605.5 106.776 605.5 106.5V104.5C605.5 104.224 605.724 104 606 104Z" fill="#777362"/>
<path fill-rule="evenodd" clip-rule="evenodd" d="M611.354 97.1464C611.549 97.3417 611.549 97.6583 611.354 97.8536L608.854 100.354C608.658 100.549 608.342 100.549 608.146 100.354C607.951 100.158 607.951 99.8417 608.146 99.6464L610.646 97.1464C610.842 96.9512 611.158 96.9512 611.354 97.1464Z" fill="#777362"/>
<path fill-rule="evenodd" clip-rule="evenodd" d="M608.146 97.1464C608.342 96.9512 608.658 96.9512 608.854 97.1464L611.354 99.6464C611.549 99.8417 611.549 100.158 611.354 100.354C611.158 100.549 610.842 100.549 610.646 100.354L608.146 97.8536C607.951 97.6583 607.951 97.3417 608.146 97.1464Z" fill="#777362"/>
<defs>
<clipPath id="clip0_31_938">
<rect width="12" height="12" fill="white" transform="translate(576 13)"/>
</clipPath>
<clipPath id="clip1_31_938">
<rect width="12" height="12" fill="white" transform="translate(600 13)"/>
</clipPath>
</defs>
</svg>
