<svg width="98" height="146" viewBox="0 0 98 146" fill="none" xmlns="http://www.w3.org/2000/svg">
<rect width="98" height="26" rx="4" fill="#EDE5C4"/>
<path d="M10.9375 8.54492H13.3047C15.7012 8.54492 16.9082 9.95703 16.9082 12.7578C16.9082 15.582 15.7012 17 13.3047 17H10.9375V8.54492ZM11.9746 9.49414V16.0508H13.2109C15.0039 16.0508 15.8535 15.002 15.8535 12.7637C15.8535 10.5488 14.998 9.49414 13.2109 9.49414H11.9746ZM21.4492 13.6309H19.5039V17H18.4844V8.54492H21.3203C22.9961 8.54492 24.0449 9.51758 24.0449 11.0879C24.0449 12.1953 23.4297 13.1035 22.4688 13.4199L24.1914 17H23.0254L21.4492 13.6309ZM19.5039 9.46484V12.7578H21.1797C22.3457 12.7578 23.002 12.166 23.002 11.1113C23.002 10.0625 22.3574 9.46484 21.2266 9.46484H19.5039ZM31.6445 13.4551C31.6445 15.793 30.4668 17.1758 28.5449 17.1758C26.623 17.1758 25.4453 15.793 25.4453 13.4551V12.0898C25.4453 9.75195 26.623 8.36914 28.5449 8.36914C30.4668 8.36914 31.6445 9.75195 31.6445 12.0898V13.4551ZM28.5449 16.1973C29.8281 16.1973 30.6016 15.2129 30.6016 13.4492V12.0957C30.6016 10.332 29.8281 9.34766 28.5449 9.34766C27.2617 9.34766 26.4883 10.332 26.4883 12.0957V13.4492C26.4883 15.2129 27.2617 16.1973 28.5449 16.1973ZM33.4141 8.54492H36.2266C37.8672 8.54492 38.9395 9.61719 38.9395 11.2578C38.9395 12.8926 37.8555 13.9648 36.2031 13.9648H34.4512V17H33.4141V8.54492ZM34.4512 9.46484V13.0449H35.9688C37.1992 13.0449 37.8906 12.4062 37.8906 11.2578C37.8906 10.1035 37.1992 9.46484 35.9688 9.46484H34.4512ZM40.6094 8.54492H42.9766C45.373 8.54492 46.5801 9.95703 46.5801 12.7578C46.5801 15.582 45.373 17 42.9766 17H40.6094V8.54492ZM41.6465 9.49414V16.0508H42.8828C44.6758 16.0508 45.5254 15.002 45.5254 12.7637C45.5254 10.5488 44.6699 9.49414 42.8828 9.49414H41.6465ZM53.8984 13.4551C53.8984 15.793 52.7207 17.1758 50.7988 17.1758C48.877 17.1758 47.6992 15.793 47.6992 13.4551V12.0898C47.6992 9.75195 48.877 8.36914 50.7988 8.36914C52.7207 8.36914 53.8984 9.75195 53.8984 12.0898V13.4551ZM50.7988 16.1973C52.082 16.1973 52.8555 15.2129 52.8555 13.4492V12.0957C52.8555 10.332 52.082 9.34766 50.7988 9.34766C49.5156 9.34766 48.7422 10.332 48.7422 12.0957V13.4492C48.7422 15.2129 49.5156 16.1973 50.7988 16.1973ZM58.252 11.7559H58.1816L56.9336 17H55.9609L54.5078 8.54492H55.4863L55.9961 11.9316L56.5059 15.4531H56.5703L57.7539 10.4785H58.6797L59.8633 15.4531H59.9277L60.4375 11.9316L60.9473 8.54492H61.9258L60.4727 17H59.5L58.252 11.7559ZM63.7539 17H62.8223V8.54492H63.8125L67.4336 15.125H67.5156V8.54492H68.4473V17H67.4688L63.8359 10.4023H63.7539V17Z" fill="black"/>
<path fill-rule="evenodd" clip-rule="evenodd" d="M78.6464 11.1464C78.8417 10.9512 79.1583 10.9512 79.3536 11.1464L82 13.7929L84.6464 11.1464C84.8417 10.9512 85.1583 10.9512 85.3536 11.1464C85.5488 11.3417 85.5488 11.6583 85.3536 11.8536L82.3536 14.8536C82.1583 15.0488 81.8417 15.0488 81.6464 14.8536L78.6464 11.8536C78.4512 11.6583 78.4512 11.3417 78.6464 11.1464Z" fill="black"/>
<rect x="0.5" y="34.5" width="97" height="111" rx="3.5" fill="black"/>
<rect x="0.5" y="34.5" width="97" height="111" rx="3.5" stroke="#3A3A3A"/>
<path fill-rule="evenodd" clip-rule="evenodd" d="M13.4393 46.4393C13.7206 46.158 14.1022 46 14.5 46C14.7761 46 15 46.2239 15 46.5C15 46.7761 14.7761 47 14.5 47C14.3674 47 14.2402 47.0527 14.1464 47.1464C14.0527 47.2402 14 47.3674 14 47.5C14 47.7761 13.7761 48 13.5 48C13.2239 48 13 47.7761 13 47.5C13 47.1022 13.158 46.7206 13.4393 46.4393Z" fill="#686359"/>
<path fill-rule="evenodd" clip-rule="evenodd" d="M21 46.5C21 46.2239 21.2239 46 21.5 46C21.8978 46 22.2794 46.158 22.5607 46.4393C22.842 46.7206 23 47.1022 23 47.5C23 47.7761 22.7761 48 22.5 48C22.2239 48 22 47.7761 22 47.5C22 47.3674 21.9473 47.2402 21.8536 47.1464C21.7598 47.0527 21.6326 47 21.5 47C21.2239 47 21 46.7761 21 46.5Z" fill="#686359"/>
<path fill-rule="evenodd" clip-rule="evenodd" d="M22.5 54C22.7761 54 23 54.2239 23 54.5C23 54.8978 22.842 55.2794 22.5607 55.5607C22.2794 55.842 21.8978 56 21.5 56C21.2239 56 21 55.7761 21 55.5C21 55.2239 21.2239 55 21.5 55C21.6326 55 21.7598 54.9473 21.8536 54.8536C21.9473 54.7598 22 54.6326 22 54.5C22 54.2239 22.2239 54 22.5 54Z" fill="#686359"/>
<path fill-rule="evenodd" clip-rule="evenodd" d="M13.5 54C13.7761 54 14 54.2239 14 54.5C14 54.6326 14.0527 54.7598 14.1464 54.8536C14.2402 54.9473 14.3674 55 14.5 55C14.7761 55 15 55.2239 15 55.5C15 55.7761 14.7761 56 14.5 56C14.1022 56 13.7206 55.842 13.4393 55.5607C13.158 55.2794 13 54.8978 13 54.5C13 54.2239 13.2239 54 13.5 54Z" fill="#686359"/>
<path fill-rule="evenodd" clip-rule="evenodd" d="M16 46.5C16 46.2239 16.2239 46 16.5 46H17C17.2761 46 17.5 46.2239 17.5 46.5C17.5 46.7761 17.2761 47 17 47H16.5C16.2239 47 16 46.7761 16 46.5Z" fill="#686359"/>
<path fill-rule="evenodd" clip-rule="evenodd" d="M16 55.5C16 55.2239 16.2239 55 16.5 55H17C17.2761 55 17.5 55.2239 17.5 55.5C17.5 55.7761 17.2761 56 17 56H16.5C16.2239 56 16 55.7761 16 55.5Z" fill="#686359"/>
<path fill-rule="evenodd" clip-rule="evenodd" d="M18.5 46.5C18.5 46.2239 18.7239 46 19 46H19.5C19.7761 46 20 46.2239 20 46.5C20 46.7761 19.7761 47 19.5 47H19C18.7239 47 18.5 46.7761 18.5 46.5Z" fill="#686359"/>
<path fill-rule="evenodd" clip-rule="evenodd" d="M18.5 55.5C18.5 55.2239 18.7239 55 19 55H19.5C19.7761 55 20 55.2239 20 55.5C20 55.7761 19.7761 56 19.5 56H19C18.7239 56 18.5 55.7761 18.5 55.5Z" fill="#686359"/>
<path fill-rule="evenodd" clip-rule="evenodd" d="M13.5 49C13.7761 49 14 49.2239 14 49.5V50C14 50.2761 13.7761 50.5 13.5 50.5C13.2239 50.5 13 50.2761 13 50V49.5C13 49.2239 13.2239 49 13.5 49Z" fill="#686359"/>
<path fill-rule="evenodd" clip-rule="evenodd" d="M22.5 49C22.7761 49 23 49.2239 23 49.5V50C23 50.2761 22.7761 50.5 22.5 50.5C22.2239 50.5 22 50.2761 22 50V49.5C22 49.2239 22.2239 49 22.5 49Z" fill="#686359"/>
<path fill-rule="evenodd" clip-rule="evenodd" d="M13.5 51.5C13.7761 51.5 14 51.7239 14 52V52.5C14 52.7761 13.7761 53 13.5 53C13.2239 53 13 52.7761 13 52.5V52C13 51.7239 13.2239 51.5 13.5 51.5Z" fill="#686359"/>
<path fill-rule="evenodd" clip-rule="evenodd" d="M22.5 51.5C22.7761 51.5 23 51.7239 23 52V52.5C23 52.7761 22.7761 53 22.5 53C22.2239 53 22 52.7761 22 52.5V52C22 51.7239 22.2239 51.5 22.5 51.5Z" fill="#686359"/>
<path d="M36.3398 54.0508V55H31.3477V46.5449H36.3398V47.4941H32.3848V50.2363H36.123V51.1445H32.3848V54.0508H36.3398ZM44.1914 50.3184V55H43.2949V50.6113C43.2949 49.8379 43.0137 49.4336 42.4805 49.4336C41.9238 49.4336 41.584 49.9199 41.584 50.7109V55H40.6934V50.6055C40.6934 49.8379 40.4121 49.4336 39.873 49.4336C39.3105 49.4336 38.959 49.9199 38.959 50.7109V55H38.0625V48.6426H38.9531V49.5391H39.0586C39.2168 48.9004 39.6738 48.5254 40.2715 48.5254C40.8691 48.5254 41.291 48.8945 41.4258 49.5215H41.5312C41.6953 48.9121 42.2051 48.5254 42.8438 48.5254C43.7285 48.5254 44.1914 49.1406 44.1914 50.3184ZM48.9434 48.5371C50.4141 48.5371 51.375 49.5977 51.375 51.2324V52.416C51.375 54.0449 50.4141 55.1055 48.9434 55.1055C48.0234 55.1055 47.3496 54.7129 47.0742 54.0156H46.9629V57.1445H45.9492V48.6426H46.9336V49.6152H47.0391C47.373 48.9121 48.0352 48.5371 48.9434 48.5371ZM48.6562 49.4512C47.6074 49.4512 46.9395 50.2012 46.9395 51.373V52.2871C46.9395 53.4648 47.6074 54.2148 48.6562 54.2148C49.7051 54.2148 50.373 53.459 50.373 52.2871V51.373C50.373 50.2012 49.7051 49.4512 48.6562 49.4512ZM54.8789 46.9375H55.8633V48.6602H58.4414V49.5098H55.875V53.0957C55.875 53.7871 56.3613 54.1621 57.2578 54.1621C57.6152 54.1621 58.2539 54.1445 58.4238 54.127V54.9707C58.2656 55 57.4922 55.0293 57.1875 55.0293C55.6113 55.0293 54.8789 54.4316 54.8789 53.1074V49.5098H53.1855V48.6602H54.8789V46.9375ZM61.5996 57.2617C61.4531 57.2617 61.2598 57.2559 61.1719 57.2441V56.3711C61.248 56.3887 61.4297 56.3945 61.5234 56.3945C62.1211 56.3945 62.4492 56.125 62.7129 55.3867L62.8242 55.041L60.4863 48.6426H61.5703L63.3516 53.9629H63.4277L65.2031 48.6426H66.2637L63.8672 55.2344C63.3105 56.7988 62.7773 57.2617 61.5996 57.2617Z" fill="#A59A86"/>
<path fill-rule="evenodd" clip-rule="evenodd" d="M13.4393 72.4393C13.7206 72.158 14.1022 72 14.5 72C14.7761 72 15 72.2239 15 72.5C15 72.7761 14.7761 73 14.5 73C14.3674 73 14.2402 73.0527 14.1464 73.1464C14.0527 73.2402 14 73.3674 14 73.5C14 73.7761 13.7761 74 13.5 74C13.2239 74 13 73.7761 13 73.5C13 73.1022 13.158 72.7206 13.4393 72.4393Z" fill="#686359"/>
<path fill-rule="evenodd" clip-rule="evenodd" d="M21 72.5C21 72.2239 21.2239 72 21.5 72C21.8978 72 22.2794 72.158 22.5607 72.4393C22.842 72.7206 23 73.1022 23 73.5C23 73.7761 22.7761 74 22.5 74C22.2239 74 22 73.7761 22 73.5C22 73.3674 21.9473 73.2402 21.8536 73.1464C21.7598 73.0527 21.6326 73 21.5 73C21.2239 73 21 72.7761 21 72.5Z" fill="#686359"/>
<path fill-rule="evenodd" clip-rule="evenodd" d="M22.5 80C22.7761 80 23 80.2239 23 80.5C23 80.8978 22.842 81.2794 22.5607 81.5607C22.2794 81.842 21.8978 82 21.5 82C21.2239 82 21 81.7761 21 81.5C21 81.2239 21.2239 81 21.5 81C21.6326 81 21.7598 80.9473 21.8536 80.8536C21.9473 80.7598 22 80.6326 22 80.5C22 80.2239 22.2239 80 22.5 80Z" fill="#686359"/>
<path fill-rule="evenodd" clip-rule="evenodd" d="M13.5 80C13.7761 80 14 80.2239 14 80.5C14 80.6326 14.0527 80.7598 14.1464 80.8536C14.2402 80.9473 14.3674 81 14.5 81C14.7761 81 15 81.2239 15 81.5C15 81.7761 14.7761 82 14.5 82C14.1022 82 13.7206 81.842 13.4393 81.5607C13.158 81.2794 13 80.8978 13 80.5C13 80.2239 13.2239 80 13.5 80Z" fill="#686359"/>
<path fill-rule="evenodd" clip-rule="evenodd" d="M16 72.5C16 72.2239 16.2239 72 16.5 72H17C17.2761 72 17.5 72.2239 17.5 72.5C17.5 72.7761 17.2761 73 17 73H16.5C16.2239 73 16 72.7761 16 72.5Z" fill="#686359"/>
<path fill-rule="evenodd" clip-rule="evenodd" d="M16 81.5C16 81.2239 16.2239 81 16.5 81H17C17.2761 81 17.5 81.2239 17.5 81.5C17.5 81.7761 17.2761 82 17 82H16.5C16.2239 82 16 81.7761 16 81.5Z" fill="#686359"/>
<path fill-rule="evenodd" clip-rule="evenodd" d="M18.5 72.5C18.5 72.2239 18.7239 72 19 72H19.5C19.7761 72 20 72.2239 20 72.5C20 72.7761 19.7761 73 19.5 73H19C18.7239 73 18.5 72.7761 18.5 72.5Z" fill="#686359"/>
<path fill-rule="evenodd" clip-rule="evenodd" d="M18.5 81.5C18.5 81.2239 18.7239 81 19 81H19.5C19.7761 81 20 81.2239 20 81.5C20 81.7761 19.7761 82 19.5 82H19C18.7239 82 18.5 81.7761 18.5 81.5Z" fill="#686359"/>
<path fill-rule="evenodd" clip-rule="evenodd" d="M13.5 75C13.7761 75 14 75.2239 14 75.5V76C14 76.2761 13.7761 76.5 13.5 76.5C13.2239 76.5 13 76.2761 13 76V75.5C13 75.2239 13.2239 75 13.5 75Z" fill="#686359"/>
<path fill-rule="evenodd" clip-rule="evenodd" d="M22.5 75C22.7761 75 23 75.2239 23 75.5V76C23 76.2761 22.7761 76.5 22.5 76.5C22.2239 76.5 22 76.2761 22 76V75.5C22 75.2239 22.2239 75 22.5 75Z" fill="#686359"/>
<path fill-rule="evenodd" clip-rule="evenodd" d="M13.5 77.5C13.7761 77.5 14 77.7239 14 78V78.5C14 78.7761 13.7761 79 13.5 79C13.2239 79 13 78.7761 13 78.5V78C13 77.7239 13.2239 77.5 13.5 77.5Z" fill="#686359"/>
<path fill-rule="evenodd" clip-rule="evenodd" d="M22.5 77.5C22.7761 77.5 23 77.7239 23 78V78.5C23 78.7761 22.7761 79 22.5 79C22.2239 79 22 78.7761 22 78.5V78C22 77.7239 22.2239 77.5 22.5 77.5Z" fill="#686359"/>
<path d="M36.3398 80.0508V81H31.3477V72.5449H36.3398V73.4941H32.3848V76.2363H36.123V77.1445H32.3848V80.0508H36.3398ZM44.1914 76.3184V81H43.2949V76.6113C43.2949 75.8379 43.0137 75.4336 42.4805 75.4336C41.9238 75.4336 41.584 75.9199 41.584 76.7109V81H40.6934V76.6055C40.6934 75.8379 40.4121 75.4336 39.873 75.4336C39.3105 75.4336 38.959 75.9199 38.959 76.7109V81H38.0625V74.6426H38.9531V75.5391H39.0586C39.2168 74.9004 39.6738 74.5254 40.2715 74.5254C40.8691 74.5254 41.291 74.8945 41.4258 75.5215H41.5312C41.6953 74.9121 42.2051 74.5254 42.8438 74.5254C43.7285 74.5254 44.1914 75.1406 44.1914 76.3184ZM48.9434 74.5371C50.4141 74.5371 51.375 75.5977 51.375 77.2324V78.416C51.375 80.0449 50.4141 81.1055 48.9434 81.1055C48.0234 81.1055 47.3496 80.7129 47.0742 80.0156H46.9629V83.1445H45.9492V74.6426H46.9336V75.6152H47.0391C47.373 74.9121 48.0352 74.5371 48.9434 74.5371ZM48.6562 75.4512C47.6074 75.4512 46.9395 76.2012 46.9395 77.373V78.2871C46.9395 79.4648 47.6074 80.2148 48.6562 80.2148C49.7051 80.2148 50.373 79.459 50.373 78.2871V77.373C50.373 76.2012 49.7051 75.4512 48.6562 75.4512ZM54.8789 72.9375H55.8633V74.6602H58.4414V75.5098H55.875V79.0957C55.875 79.7871 56.3613 80.1621 57.2578 80.1621C57.6152 80.1621 58.2539 80.1445 58.4238 80.127V80.9707C58.2656 81 57.4922 81.0293 57.1875 81.0293C55.6113 81.0293 54.8789 80.4316 54.8789 79.1074V75.5098H53.1855V74.6602H54.8789V72.9375ZM61.5996 83.2617C61.4531 83.2617 61.2598 83.2559 61.1719 83.2441V82.3711C61.248 82.3887 61.4297 82.3945 61.5234 82.3945C62.1211 82.3945 62.4492 82.125 62.7129 81.3867L62.8242 81.041L60.4863 74.6426H61.5703L63.3516 79.9629H63.4277L65.2031 74.6426H66.2637L63.8672 81.2344C63.3105 82.7988 62.7773 83.2617 61.5996 83.2617Z" fill="#A59A86"/>
<path fill-rule="evenodd" clip-rule="evenodd" d="M13.4393 98.4393C13.7206 98.158 14.1022 98 14.5 98C14.7761 98 15 98.2239 15 98.5C15 98.7761 14.7761 99 14.5 99C14.3674 99 14.2402 99.0527 14.1464 99.1464C14.0527 99.2402 14 99.3674 14 99.5C14 99.7761 13.7761 100 13.5 100C13.2239 100 13 99.7761 13 99.5C13 99.1022 13.158 98.7206 13.4393 98.4393Z" fill="#686359"/>
<path fill-rule="evenodd" clip-rule="evenodd" d="M21 98.5C21 98.2239 21.2239 98 21.5 98C21.8978 98 22.2794 98.158 22.5607 98.4393C22.842 98.7206 23 99.1022 23 99.5C23 99.7761 22.7761 100 22.5 100C22.2239 100 22 99.7761 22 99.5C22 99.3674 21.9473 99.2402 21.8536 99.1464C21.7598 99.0527 21.6326 99 21.5 99C21.2239 99 21 98.7761 21 98.5Z" fill="#686359"/>
<path fill-rule="evenodd" clip-rule="evenodd" d="M22.5 106C22.7761 106 23 106.224 23 106.5C23 106.898 22.842 107.279 22.5607 107.561C22.2794 107.842 21.8978 108 21.5 108C21.2239 108 21 107.776 21 107.5C21 107.224 21.2239 107 21.5 107C21.6326 107 21.7598 106.947 21.8536 106.854C21.9473 106.76 22 106.633 22 106.5C22 106.224 22.2239 106 22.5 106Z" fill="#686359"/>
<path fill-rule="evenodd" clip-rule="evenodd" d="M13.5 106C13.7761 106 14 106.224 14 106.5C14 106.633 14.0527 106.76 14.1464 106.854C14.2402 106.947 14.3674 107 14.5 107C14.7761 107 15 107.224 15 107.5C15 107.776 14.7761 108 14.5 108C14.1022 108 13.7206 107.842 13.4393 107.561C13.158 107.279 13 106.898 13 106.5C13 106.224 13.2239 106 13.5 106Z" fill="#686359"/>
<path fill-rule="evenodd" clip-rule="evenodd" d="M16 98.5C16 98.2239 16.2239 98 16.5 98H17C17.2761 98 17.5 98.2239 17.5 98.5C17.5 98.7761 17.2761 99 17 99H16.5C16.2239 99 16 98.7761 16 98.5Z" fill="#686359"/>
<path fill-rule="evenodd" clip-rule="evenodd" d="M16 107.5C16 107.224 16.2239 107 16.5 107H17C17.2761 107 17.5 107.224 17.5 107.5C17.5 107.776 17.2761 108 17 108H16.5C16.2239 108 16 107.776 16 107.5Z" fill="#686359"/>
<path fill-rule="evenodd" clip-rule="evenodd" d="M18.5 98.5C18.5 98.2239 18.7239 98 19 98H19.5C19.7761 98 20 98.2239 20 98.5C20 98.7761 19.7761 99 19.5 99H19C18.7239 99 18.5 98.7761 18.5 98.5Z" fill="#686359"/>
<path fill-rule="evenodd" clip-rule="evenodd" d="M18.5 107.5C18.5 107.224 18.7239 107 19 107H19.5C19.7761 107 20 107.224 20 107.5C20 107.776 19.7761 108 19.5 108H19C18.7239 108 18.5 107.776 18.5 107.5Z" fill="#686359"/>
<path fill-rule="evenodd" clip-rule="evenodd" d="M13.5 101C13.7761 101 14 101.224 14 101.5V102C14 102.276 13.7761 102.5 13.5 102.5C13.2239 102.5 13 102.276 13 102V101.5C13 101.224 13.2239 101 13.5 101Z" fill="#686359"/>
<path fill-rule="evenodd" clip-rule="evenodd" d="M22.5 101C22.7761 101 23 101.224 23 101.5V102C23 102.276 22.7761 102.5 22.5 102.5C22.2239 102.5 22 102.276 22 102V101.5C22 101.224 22.2239 101 22.5 101Z" fill="#686359"/>
<path fill-rule="evenodd" clip-rule="evenodd" d="M13.5 103.5C13.7761 103.5 14 103.724 14 104V104.5C14 104.776 13.7761 105 13.5 105C13.2239 105 13 104.776 13 104.5V104C13 103.724 13.2239 103.5 13.5 103.5Z" fill="#686359"/>
<path fill-rule="evenodd" clip-rule="evenodd" d="M22.5 103.5C22.7761 103.5 23 103.724 23 104V104.5C23 104.776 22.7761 105 22.5 105C22.2239 105 22 104.776 22 104.5V104C22 103.724 22.2239 103.5 22.5 103.5Z" fill="#686359"/>
<path d="M36.3398 106.051V107H31.3477V98.5449H36.3398V99.4941H32.3848V102.236H36.123V103.145H32.3848V106.051H36.3398ZM44.1914 102.318V107H43.2949V102.611C43.2949 101.838 43.0137 101.434 42.4805 101.434C41.9238 101.434 41.584 101.92 41.584 102.711V107H40.6934V102.605C40.6934 101.838 40.4121 101.434 39.873 101.434C39.3105 101.434 38.959 101.92 38.959 102.711V107H38.0625V100.643H38.9531V101.539H39.0586C39.2168 100.9 39.6738 100.525 40.2715 100.525C40.8691 100.525 41.291 100.895 41.4258 101.521H41.5312C41.6953 100.912 42.2051 100.525 42.8438 100.525C43.7285 100.525 44.1914 101.141 44.1914 102.318ZM48.9434 100.537C50.4141 100.537 51.375 101.598 51.375 103.232V104.416C51.375 106.045 50.4141 107.105 48.9434 107.105C48.0234 107.105 47.3496 106.713 47.0742 106.016H46.9629V109.145H45.9492V100.643H46.9336V101.615H47.0391C47.373 100.912 48.0352 100.537 48.9434 100.537ZM48.6562 101.451C47.6074 101.451 46.9395 102.201 46.9395 103.373V104.287C46.9395 105.465 47.6074 106.215 48.6562 106.215C49.7051 106.215 50.373 105.459 50.373 104.287V103.373C50.373 102.201 49.7051 101.451 48.6562 101.451ZM54.8789 98.9375H55.8633V100.66H58.4414V101.51H55.875V105.096C55.875 105.787 56.3613 106.162 57.2578 106.162C57.6152 106.162 58.2539 106.145 58.4238 106.127V106.971C58.2656 107 57.4922 107.029 57.1875 107.029C55.6113 107.029 54.8789 106.432 54.8789 105.107V101.51H53.1855V100.66H54.8789V98.9375ZM61.5996 109.262C61.4531 109.262 61.2598 109.256 61.1719 109.244V108.371C61.248 108.389 61.4297 108.395 61.5234 108.395C62.1211 108.395 62.4492 108.125 62.7129 107.387L62.8242 107.041L60.4863 100.643H61.5703L63.3516 105.963H63.4277L65.2031 100.643H66.2637L63.8672 107.234C63.3105 108.799 62.7773 109.262 61.5996 109.262Z" fill="#A59A86"/>
<path fill-rule="evenodd" clip-rule="evenodd" d="M14.5 125C14.2239 125 14 125.224 14 125.5V132.5C14 132.776 14.2239 133 14.5 133H21.5C21.7761 133 22 132.776 22 132.5V125.5C22 125.224 21.7761 125 21.5 125H14.5ZM13 125.5C13 124.672 13.6716 124 14.5 124H21.5C22.3284 124 23 124.672 23 125.5V132.5C23 133.328 22.3284 134 21.5 134H14.5C13.6716 134 13 133.328 13 132.5V125.5Z" fill="#EDE5C4"/>
<path fill-rule="evenodd" clip-rule="evenodd" d="M19.8536 127.646C20.0488 127.842 20.0488 128.158 19.8536 128.354L17.8536 130.354C17.6583 130.549 17.3417 130.549 17.1464 130.354L16.1464 129.354C15.9512 129.158 15.9512 128.842 16.1464 128.646C16.3417 128.451 16.6583 128.451 16.8536 128.646L17.5 129.293L19.1464 127.646C19.3417 127.451 19.6583 127.451 19.8536 127.646Z" fill="#EDE5C4"/>
<path d="M32.5254 133H31.4883V124.545H36.4746V125.494H32.5254V128.395H36.1348V129.314H32.5254V133ZM41.2383 125.084C40.7695 125.084 40.4121 124.732 40.4121 124.264C40.4121 123.801 40.7695 123.449 41.2383 123.449C41.707 123.449 42.0645 123.801 42.0645 124.264C42.0645 124.732 41.707 125.084 41.2383 125.084ZM43.9043 133H38.6367V132.174H40.8164V127.469H38.6543V126.643H41.8008V132.174H43.9043V133ZM51.3223 133H46.0547V132.174H48.2285V124.973H46.0723V124.146H49.2246V132.174H51.3223V133ZM58.7402 133H53.4727V132.174H55.6465V124.973H53.4902V124.146H56.6426V132.174H58.7402V133ZM65.0977 131.359H66.0645C65.8711 132.408 64.8633 133.117 63.5273 133.117C61.7812 133.117 60.7676 132.068 60.7676 130.258V129.303C60.7676 127.627 61.8398 126.525 63.457 126.525C65.1094 126.525 66.082 127.621 66.082 129.461V130.082H61.752V130.34C61.752 131.506 62.4434 132.256 63.5273 132.256C64.3301 132.256 64.9219 131.916 65.0977 131.359ZM63.4512 127.381C62.3906 127.381 61.752 128.107 61.752 129.326H65.0977C65.0977 128.113 64.4766 127.381 63.4512 127.381ZM70.4004 133.105C68.9297 133.105 67.9688 132.045 67.9688 130.41V129.227C67.9688 127.598 68.9297 126.537 70.4004 126.537C71.3203 126.537 72 126.93 72.2754 127.627H72.3809V124.146H73.3945V133H72.416V132.027H72.3047C71.9766 132.73 71.3086 133.105 70.4004 133.105ZM70.6934 132.197C71.7363 132.197 72.4102 131.447 72.4102 130.27V129.355C72.4102 128.184 71.7363 127.434 70.6934 127.434C69.6445 127.434 68.9707 128.184 68.9707 129.355V130.27C68.9707 131.441 69.6445 132.197 70.6934 132.197Z" fill="#A59A86"/>
</svg>
