<svg width="259" height="36" viewBox="0 0 259 36" fill="none" xmlns="http://www.w3.org/2000/svg">
<path d="M2.10449 7.0459H1.24023V0H5.39551V0.791016H2.10449V3.20801H5.1123V3.97461H2.10449V7.0459ZM11.1279 7.0459H7.41699V6.2793H8.84277V0.766602H7.41699V0H11.1279V0.766602H9.70215V6.2793H11.1279V7.0459ZM17.6465 6.25488V7.0459H13.4863V0H17.6465V0.791016H14.3506V3.07617H17.4658V3.83301H14.3506V6.25488H17.6465ZM24.0234 6.24512V7.0459H19.8291V0H20.6836V6.24512H24.0234ZM25.5078 0H27.4805C29.4775 0 30.4834 1.17676 30.4834 3.51074C30.4834 5.86426 29.4775 7.0459 27.4805 7.0459H25.5078V0ZM26.3721 0.791016V6.25488H27.4023C28.8965 6.25488 29.6045 5.38086 29.6045 3.51562C29.6045 1.66992 28.8916 0.791016 27.4023 0.791016H26.3721ZM40.6104 7.0459H39.751V0.791016H37.6221V0H42.7393V0.791016H40.6104V7.0459ZM48.2178 7.0459H44.5068V6.2793H45.9326V0.766602H44.5068V0H48.2178V0.766602H46.792V6.2793H48.2178V7.0459ZM52.9736 7.0459H52.1143V0.791016H49.9854V0H55.1025V0.791016H52.9736V7.0459ZM61.1133 6.24512V7.0459H56.9189V0H57.7734V6.24512H61.1133ZM67.0996 6.25488V7.0459H62.9395V0H67.0996V0.791016H63.8037V3.07617H66.9189V3.83301H63.8037V6.25488H67.0996Z" fill="#7F776A"/>
<rect x="0.5" y="9.5459" width="258" height="25" rx="3.5" stroke="#353535"/>
<path d="M16.3398 25.0967V26.0459H11.3477V17.5908H16.3398V18.54H12.3848V21.2822H16.123V22.1904H12.3848V25.0967H16.3398ZM18.5254 26.0459V19.6885H19.4805V20.8076H19.5625C19.9023 20.0166 20.6289 19.5713 21.5957 19.5713C22.9785 19.5713 23.7285 20.3975 23.7285 21.9209V26.0459H22.7324V22.1729C22.7324 21.0244 22.2637 20.4854 21.2734 20.4854C20.2246 20.4854 19.5215 21.2178 19.5215 22.3018V26.0459H18.5254ZM27.4609 17.9834H28.4453V19.7061H31.0234V20.5557H28.457V24.1416C28.457 24.833 28.9434 25.208 29.8398 25.208C30.1973 25.208 30.8359 25.1904 31.0059 25.1729V26.0166C30.8477 26.0459 30.0742 26.0752 29.7695 26.0752C28.1934 26.0752 27.4609 25.4775 27.4609 24.1533V20.5557H25.7676V19.7061H27.4609V17.9834ZM37.6797 24.4053H38.6465C38.4531 25.4541 37.4453 26.1631 36.1094 26.1631C34.3633 26.1631 33.3496 25.1143 33.3496 23.3037V22.3486C33.3496 20.6729 34.4219 19.5713 36.0391 19.5713C37.6914 19.5713 38.6641 20.667 38.6641 22.5068V23.1279H34.334V23.3857C34.334 24.5518 35.0254 25.3018 36.1094 25.3018C36.9121 25.3018 37.5039 24.9619 37.6797 24.4053ZM36.0332 20.4268C34.9727 20.4268 34.334 21.1533 34.334 22.3721H37.6797C37.6797 21.1592 37.0586 20.4268 36.0332 20.4268ZM43.1289 23.1982V25.249H45.0977V26.0459H40.873V25.249H42.1562V20.4854H40.7441V19.6885H43.1172V21.3115H43.2461C43.4805 20.1338 44.2715 19.5244 45.4961 19.5244C45.8594 19.5244 46.2051 19.5771 46.416 19.665V20.7842C46.123 20.6787 45.7129 20.6084 45.3672 20.6084C43.9609 20.6084 43.1289 21.5811 43.1289 23.1982ZM55.9023 21.4053C55.9023 20.3037 56.8398 19.5654 58.2402 19.5654C59.5645 19.5654 60.4609 20.2275 60.5781 21.2881H59.6172C59.5 20.7314 58.9668 20.3916 58.2227 20.3916C57.4141 20.3916 56.8926 20.7666 56.8926 21.3467C56.8926 21.833 57.2207 22.1084 58.0176 22.2842L58.9141 22.4893C60.1504 22.7705 60.7129 23.3096 60.7129 24.2295C60.7129 25.4014 59.7344 26.1631 58.2285 26.1631C56.7871 26.1631 55.832 25.4893 55.7207 24.3994H56.7344C56.8809 24.9854 57.4434 25.3252 58.2637 25.3252C59.1309 25.3252 59.6816 24.9326 59.6816 24.3232C59.6816 23.8193 59.3711 23.5498 58.5625 23.3682L57.6191 23.1514C56.4707 22.8877 55.9023 22.3076 55.9023 21.4053ZM65.6348 26.1631C63.9531 26.1631 62.8809 25.0674 62.8809 23.3506V22.3896C62.8809 20.6729 63.9531 19.5771 65.6348 19.5771C67.3164 19.5771 68.3887 20.6729 68.3887 22.3896V23.3506C68.3887 25.0674 67.3164 26.1631 65.6348 26.1631ZM65.6348 20.4561C64.5449 20.4561 63.8652 21.2295 63.8652 22.4775V23.2568C63.8652 24.5107 64.5449 25.2783 65.6348 25.2783C66.7246 25.2783 67.4043 24.5107 67.4043 23.2568V22.4775C67.4043 21.2295 66.7246 20.4561 65.6348 20.4561ZM76.1172 21.3643V26.0459H75.2207V21.6572C75.2207 20.8838 74.9395 20.4795 74.4062 20.4795C73.8496 20.4795 73.5098 20.9658 73.5098 21.7568V26.0459H72.6191V21.6514C72.6191 20.8838 72.3379 20.4795 71.7988 20.4795C71.2363 20.4795 70.8848 20.9658 70.8848 21.7568V26.0459H69.9883V19.6885H70.8789V20.585H70.9844C71.1426 19.9463 71.5996 19.5713 72.1973 19.5713C72.7949 19.5713 73.2168 19.9404 73.3516 20.5674H73.457C73.6211 19.958 74.1309 19.5713 74.7695 19.5713C75.6543 19.5713 76.1172 20.1865 76.1172 21.3643ZM82.1875 24.4053H83.1543C82.9609 25.4541 81.9531 26.1631 80.6172 26.1631C78.8711 26.1631 77.8574 25.1143 77.8574 23.3037V22.3486C77.8574 20.6729 78.9297 19.5713 80.5469 19.5713C82.1992 19.5713 83.1719 20.667 83.1719 22.5068V23.1279H78.8418V23.3857C78.8418 24.5518 79.5332 25.3018 80.6172 25.3018C81.4199 25.3018 82.0117 24.9619 82.1875 24.4053ZM80.541 20.4268C79.4805 20.4268 78.8418 21.1533 78.8418 22.3721H82.1875C82.1875 21.1592 81.5664 20.4268 80.541 20.4268ZM94.2227 17.9834H95.207V19.7061H97.7852V20.5557H95.2188V24.1416C95.2188 24.833 95.7051 25.208 96.6016 25.208C96.959 25.208 97.5977 25.1904 97.7676 25.1729V26.0166C97.6094 26.0459 96.8359 26.0752 96.5312 26.0752C94.9551 26.0752 94.2227 25.4775 94.2227 24.1533V20.5557H92.5293V19.7061H94.2227V17.9834ZM104.441 24.4053H105.408C105.215 25.4541 104.207 26.1631 102.871 26.1631C101.125 26.1631 100.111 25.1143 100.111 23.3037V22.3486C100.111 20.6729 101.184 19.5713 102.801 19.5713C104.453 19.5713 105.426 20.667 105.426 22.5068V23.1279H101.096V23.3857C101.096 24.5518 101.787 25.3018 102.871 25.3018C103.674 25.3018 104.266 24.9619 104.441 24.4053ZM102.795 20.4268C101.734 20.4268 101.096 21.1533 101.096 22.3721H104.441C104.441 21.1592 103.82 20.4268 102.795 20.4268ZM110.166 23.5967H110.09L108.484 26.0459H107.383L109.562 22.8643L107.365 19.6885H108.543L110.125 22.0967H110.207L111.783 19.6885H112.902L110.729 22.8232L112.92 26.0459H111.766L110.166 23.5967ZM116.477 17.9834H117.461V19.7061H120.039V20.5557H117.473V24.1416C117.473 24.833 117.959 25.208 118.855 25.208C119.213 25.208 119.852 25.1904 120.021 25.1729V26.0166C119.863 26.0459 119.09 26.0752 118.785 26.0752C117.209 26.0752 116.477 25.4775 116.477 24.1533V20.5557H114.783V19.7061H116.477V17.9834ZM124.445 27.9912H123.502L124.229 24.1826H125.547L124.445 27.9912ZM138.033 28.3076C137.887 28.3076 137.693 28.3018 137.605 28.29V27.417C137.682 27.4346 137.863 27.4404 137.957 27.4404C138.555 27.4404 138.883 27.1709 139.146 26.4326L139.258 26.0869L136.92 19.6885H138.004L139.785 25.0088H139.861L141.637 19.6885H142.697L140.301 26.2803C139.744 27.8447 139.211 28.3076 138.033 28.3076ZM147.232 26.1631C145.551 26.1631 144.479 25.0674 144.479 23.3506V22.3896C144.479 20.6729 145.551 19.5771 147.232 19.5771C148.914 19.5771 149.986 20.6729 149.986 22.3896V23.3506C149.986 25.0674 148.914 26.1631 147.232 26.1631ZM147.232 20.4561C146.143 20.4561 145.463 21.2295 145.463 22.4775V23.2568C145.463 24.5107 146.143 25.2783 147.232 25.2783C148.322 25.2783 149.002 24.5107 149.002 23.2568V22.4775C149.002 21.2295 148.322 20.4561 147.232 20.4561Z" fill="#A59A86"/>
</svg>
