<svg width="283" height="80" viewBox="0 0 283 80" fill="none" xmlns="http://www.w3.org/2000/svg">
<rect x="0.5" y="0.5" width="282" height="79" rx="3.5" fill="black"/>
<rect x="0.5" y="0.5" width="282" height="79" rx="3.5" stroke="#3A3A3A"/>
<path d="M82.6719 26H81.6406V18.4941H79.0859V17.5449H85.2266V18.4941H82.6719V26ZM86.9668 26V17.1465H87.9277V20.7676H88.0098C88.3438 19.9766 89.0762 19.5312 90.0488 19.5312C91.4316 19.5312 92.1816 20.3633 92.1816 21.8809V26H91.1855V22.1328C91.1855 20.9902 90.7168 20.4453 89.7207 20.4453C88.6719 20.4453 87.9629 21.1777 87.9629 22.2617V26H86.9668ZM97.1035 18.084C96.6348 18.084 96.2773 17.7324 96.2773 17.2637C96.2773 16.8008 96.6348 16.4492 97.1035 16.4492C97.5723 16.4492 97.9297 16.8008 97.9297 17.2637C97.9297 17.7324 97.5723 18.084 97.1035 18.084ZM99.7695 26H94.502V25.1738H96.6816V20.4688H94.5195V19.6426H97.666V25.1738H99.7695V26ZM102.096 21.3594C102.096 20.2578 103.033 19.5195 104.434 19.5195C105.758 19.5195 106.654 20.1816 106.771 21.2422H105.811C105.693 20.6855 105.16 20.3457 104.416 20.3457C103.607 20.3457 103.086 20.7207 103.086 21.3008C103.086 21.7871 103.414 22.0625 104.211 22.2383L105.107 22.4434C106.344 22.7246 106.906 23.2637 106.906 24.1836C106.906 25.3555 105.928 26.1172 104.422 26.1172C102.98 26.1172 102.025 25.4434 101.914 24.3535H102.928C103.074 24.9395 103.637 25.2793 104.457 25.2793C105.324 25.2793 105.875 24.8867 105.875 24.2773C105.875 23.7734 105.564 23.5039 104.756 23.3223L103.812 23.1055C102.664 22.8418 102.096 22.2617 102.096 21.3594ZM119.357 18.084C118.889 18.084 118.531 17.7324 118.531 17.2637C118.531 16.8008 118.889 16.4492 119.357 16.4492C119.826 16.4492 120.184 16.8008 120.184 17.2637C120.184 17.7324 119.826 18.084 119.357 18.084ZM122.023 26H116.756V25.1738H118.936V20.4688H116.773V19.6426H119.92V25.1738H122.023V26ZM124.35 21.3594C124.35 20.2578 125.287 19.5195 126.688 19.5195C128.012 19.5195 128.908 20.1816 129.025 21.2422H128.064C127.947 20.6855 127.414 20.3457 126.67 20.3457C125.861 20.3457 125.34 20.7207 125.34 21.3008C125.34 21.7871 125.668 22.0625 126.465 22.2383L127.361 22.4434C128.598 22.7246 129.16 23.2637 129.16 24.1836C129.16 25.3555 128.182 26.1172 126.676 26.1172C125.234 26.1172 124.279 25.4434 124.168 24.3535H125.182C125.328 24.9395 125.891 25.2793 126.711 25.2793C127.578 25.2793 128.129 24.8867 128.129 24.2773C128.129 23.7734 127.818 23.5039 127.01 23.3223L126.066 23.1055C124.918 22.8418 124.35 22.2617 124.35 21.3594ZM140.855 26.1113C139.643 26.1113 138.834 25.3496 138.834 24.1953C138.834 23.0703 139.643 22.4023 141.09 22.3262L142.836 22.2383V21.6641C142.836 20.8672 142.35 20.4277 141.465 20.4277C140.732 20.4277 140.217 20.7383 140.053 21.2832H139.074C139.191 20.2637 140.176 19.5664 141.477 19.5664C142.971 19.5664 143.826 20.3281 143.826 21.6523V26.0059H142.877V25.0508H142.777C142.473 25.7305 141.781 26.1113 140.855 26.1113ZM141.143 25.2383C142.104 25.2383 142.836 24.5996 142.836 23.75V23L141.201 23.0762C140.311 23.1172 139.842 23.498 139.842 24.1602C139.842 24.8281 140.34 25.2383 141.143 25.2383ZM159.4 21.3184V26H158.504V21.6113C158.504 20.8379 158.223 20.4336 157.689 20.4336C157.133 20.4336 156.793 20.9199 156.793 21.7109V26H155.902V21.6055C155.902 20.8379 155.621 20.4336 155.082 20.4336C154.52 20.4336 154.168 20.9199 154.168 21.7109V26H153.271V19.6426H154.162V20.5391H154.268C154.426 19.9004 154.883 19.5254 155.48 19.5254C156.078 19.5254 156.5 19.8945 156.635 20.5215H156.74C156.904 19.9121 157.414 19.5254 158.053 19.5254C158.938 19.5254 159.4 20.1406 159.4 21.3184ZM165.471 24.3594H166.438C166.244 25.4082 165.236 26.1172 163.9 26.1172C162.154 26.1172 161.141 25.0684 161.141 23.2578V22.3027C161.141 20.627 162.213 19.5254 163.83 19.5254C165.482 19.5254 166.455 20.6211 166.455 22.4609V23.082H162.125V23.3398C162.125 24.5059 162.816 25.2559 163.9 25.2559C164.703 25.2559 165.295 24.916 165.471 24.3594ZM163.824 20.3809C162.764 20.3809 162.125 21.1074 162.125 22.3262H165.471C165.471 21.1133 164.85 20.3809 163.824 20.3809ZM168.857 21.3594C168.857 20.2578 169.795 19.5195 171.195 19.5195C172.52 19.5195 173.416 20.1816 173.533 21.2422H172.572C172.455 20.6855 171.922 20.3457 171.178 20.3457C170.369 20.3457 169.848 20.7207 169.848 21.3008C169.848 21.7871 170.176 22.0625 170.973 22.2383L171.869 22.4434C173.105 22.7246 173.668 23.2637 173.668 24.1836C173.668 25.3555 172.689 26.1172 171.184 26.1172C169.742 26.1172 168.787 25.4434 168.676 24.3535H169.689C169.836 24.9395 170.398 25.2793 171.219 25.2793C172.086 25.2793 172.637 24.8867 172.637 24.2773C172.637 23.7734 172.326 23.5039 171.518 23.3223L170.574 23.1055C169.426 22.8418 168.857 22.2617 168.857 21.3594ZM176.275 21.3594C176.275 20.2578 177.213 19.5195 178.613 19.5195C179.938 19.5195 180.834 20.1816 180.951 21.2422H179.99C179.873 20.6855 179.34 20.3457 178.596 20.3457C177.787 20.3457 177.266 20.7207 177.266 21.3008C177.266 21.7871 177.594 22.0625 178.391 22.2383L179.287 22.4434C180.523 22.7246 181.086 23.2637 181.086 24.1836C181.086 25.3555 180.107 26.1172 178.602 26.1172C177.16 26.1172 176.205 25.4434 176.094 24.3535H177.107C177.254 24.9395 177.816 25.2793 178.637 25.2793C179.504 25.2793 180.055 24.8867 180.055 24.2773C180.055 23.7734 179.744 23.5039 178.936 23.3223L177.992 23.1055C176.844 22.8418 176.275 22.2617 176.275 21.3594ZM185.363 26.1113C184.15 26.1113 183.342 25.3496 183.342 24.1953C183.342 23.0703 184.15 22.4023 185.598 22.3262L187.344 22.2383V21.6641C187.344 20.8672 186.857 20.4277 185.973 20.4277C185.24 20.4277 184.725 20.7383 184.561 21.2832H183.582C183.699 20.2637 184.684 19.5664 185.984 19.5664C187.479 19.5664 188.334 20.3281 188.334 21.6523V26.0059H187.385V25.0508H187.285C186.98 25.7305 186.289 26.1113 185.363 26.1113ZM185.65 25.2383C186.611 25.2383 187.344 24.5996 187.344 23.75V23L185.709 23.0762C184.818 23.1172 184.35 23.498 184.35 24.1602C184.35 24.8281 184.848 25.2383 185.65 25.2383ZM193.238 28.3848C191.768 28.3848 190.783 27.7402 190.654 26.6855H191.639C191.768 27.2129 192.406 27.5586 193.256 27.5586C194.369 27.5586 194.984 26.9961 194.984 25.9766V24.9863H194.879C194.598 25.6543 193.895 26.0586 192.969 26.0586C191.498 26.0586 190.531 24.998 190.531 23.3691V22.2266C190.531 20.5918 191.504 19.5371 192.992 19.5371C193.912 19.5371 194.609 19.9414 194.885 20.627H194.996V19.6426H195.98V26C195.98 27.4941 194.961 28.3848 193.238 28.3848ZM191.533 23.2285C191.533 24.3945 192.213 25.1562 193.268 25.1562C194.316 25.1562 194.99 24.4004 194.99 23.2285V22.3555C194.99 21.1836 194.316 20.4336 193.268 20.4336C192.213 20.4336 191.533 21.1895 191.533 22.3555V23.2285ZM202.561 24.3594H203.527C203.334 25.4082 202.326 26.1172 200.99 26.1172C199.244 26.1172 198.23 25.0684 198.23 23.2578V22.3027C198.23 20.627 199.303 19.5254 200.92 19.5254C202.572 19.5254 203.545 20.6211 203.545 22.4609V23.082H199.215V23.3398C199.215 24.5059 199.906 25.2559 200.99 25.2559C201.793 25.2559 202.385 24.916 202.561 24.3594ZM200.914 20.3809C199.854 20.3809 199.215 21.1074 199.215 22.3262H202.561C202.561 21.1133 201.939 20.3809 200.914 20.3809Z" fill="#EDE5C4"/>
<rect x="73" y="42.5" width="64" height="25" rx="3.5" stroke="#353535"/>
<path d="M89.0742 58.0391V59H84.041V50.5449H85.0664V58.0391H89.0742ZM96.7266 55.4551C96.7266 57.793 95.5488 59.1758 93.627 59.1758C91.7051 59.1758 90.5273 57.793 90.5273 55.4551V54.0898C90.5273 51.752 91.7051 50.3691 93.627 50.3691C95.5488 50.3691 96.7266 51.752 96.7266 54.0898V55.4551ZM93.627 58.1973C94.9102 58.1973 95.6836 57.2129 95.6836 55.4492V54.0957C95.6836 52.332 94.9102 51.3477 93.627 51.3477C92.3438 51.3477 91.5703 52.332 91.5703 54.0957V55.4492C91.5703 57.2129 92.3438 58.1973 93.627 58.1973ZM103.055 56.4102V55.584H101.104V54.6992H104.098V56.498C104.098 58.0859 102.902 59.1758 101.197 59.1758C99.2109 59.1758 98.0625 57.8398 98.0625 55.5254V54.0195C98.0625 51.7051 99.2109 50.3691 101.197 50.3691C102.955 50.3691 104.057 51.4414 104.098 53.1934H103.055C103.008 52.0918 102.258 51.3477 101.18 51.3477C99.8145 51.3477 99.1055 52.2676 99.1055 54.0195V55.5254C99.1055 57.2773 99.8203 58.1973 101.186 58.1973C102.34 58.1973 103.055 57.5176 103.055 56.4102ZM118.107 59H113.654V58.0801H115.365V51.4648H113.654V50.5449H118.107V51.4648H116.396V58.0801H118.107V59ZM121.418 59H120.486V50.5449H121.477L125.098 57.125H125.18V50.5449H126.111V59H125.133L121.5 52.4023H121.418V59Z" fill="#EDE5C4"/>
<rect x="145.5" y="42" width="65" height="26" rx="4" fill="#EDE5C4"/>
<path d="M162.074 58.0391V59H157.041V50.5449H158.066V58.0391H162.074ZM169.727 55.4551C169.727 57.793 168.549 59.1758 166.627 59.1758C164.705 59.1758 163.527 57.793 163.527 55.4551V54.0898C163.527 51.752 164.705 50.3691 166.627 50.3691C168.549 50.3691 169.727 51.752 169.727 54.0898V55.4551ZM166.627 58.1973C167.91 58.1973 168.684 57.2129 168.684 55.4492V54.0957C168.684 52.332 167.91 51.3477 166.627 51.3477C165.344 51.3477 164.57 52.332 164.57 54.0957V55.4492C164.57 57.2129 165.344 58.1973 166.627 58.1973ZM176.055 56.4102V55.584H174.104V54.6992H177.098V56.498C177.098 58.0859 175.902 59.1758 174.197 59.1758C172.211 59.1758 171.062 57.8398 171.062 55.5254V54.0195C171.062 51.7051 172.211 50.3691 174.197 50.3691C175.955 50.3691 177.057 51.4414 177.098 53.1934H176.055C176.008 52.0918 175.258 51.3477 174.18 51.3477C172.814 51.3477 172.105 52.2676 172.105 54.0195V55.5254C172.105 57.2773 172.82 58.1973 174.186 58.1973C175.34 58.1973 176.055 57.5176 176.055 56.4102ZM191.107 59H186.654V58.0801H188.365V51.4648H186.654V50.5449H191.107V51.4648H189.396V58.0801H191.107V59ZM194.418 59H193.486V50.5449H194.477L198.098 57.125H198.18V50.5449H199.111V59H198.133L194.5 52.4023H194.418V59Z" fill="black"/>
</svg>
