<svg width="283" height="254" viewBox="0 0 283 254" fill="none" xmlns="http://www.w3.org/2000/svg">
<rect x="0.5" y="0.5" width="282" height="253" rx="3.5" fill="black"/>
<rect x="0.5" y="0.5" width="282" height="253" rx="3.5" stroke="#3A3A3A"/>
<path d="M13.582 19.7539V23H12.6621V14.5449H13.8164L15.6738 19.7949H15.75L17.5957 14.5449H18.7559V23H17.8359V19.7539L17.8887 16.332H17.8125L16.1133 21.0137H15.3047L13.6055 16.332H13.5293L13.582 19.7539ZM26.2266 19.4551C26.2266 21.793 25.0488 23.1758 23.127 23.1758C21.2051 23.1758 20.0273 21.793 20.0273 19.4551V18.0898C20.0273 15.752 21.2051 14.3691 23.127 14.3691C25.0488 14.3691 26.2266 15.752 26.2266 18.0898V19.4551ZM23.127 22.1973C24.4102 22.1973 25.1836 21.2129 25.1836 19.4492V18.0957C25.1836 16.332 24.4102 15.3477 23.127 15.3477C21.8438 15.3477 21.0703 16.332 21.0703 18.0957V19.4492C21.0703 21.2129 21.8438 22.1973 23.127 22.1973ZM27.7734 14.5449H30.1406C32.5371 14.5449 33.7441 15.957 33.7441 18.7578C33.7441 21.582 32.5371 23 30.1406 23H27.7734V14.5449ZM28.8105 15.4941V22.0508H30.0469C31.8398 22.0508 32.6895 21.002 32.6895 18.7637C32.6895 16.5488 31.834 15.4941 30.0469 15.4941H28.8105ZM40.1484 23L39.416 20.5742H36.4746L35.7363 23H34.6875L37.4121 14.5449H38.5137L41.2383 23H40.1484ZM37.9336 15.7871L36.7441 19.6895H39.1465L37.9629 15.7871H37.9336ZM48.2461 22.0391V23H43.2129V14.5449H44.2383V22.0391H48.2461ZM60.7324 23H59.7012V15.4941H57.1465V14.5449H63.2871V15.4941H60.7324V23ZM69.8613 23H65.4082V22.0801H67.1191V15.4648H65.4082V14.5449H69.8613V15.4648H68.1504V22.0801H69.8613V23ZM75.5684 23H74.5371V15.4941H71.9824V14.5449H78.123V15.4941H75.5684V23ZM85.3359 22.0391V23H80.3027V14.5449H81.3281V22.0391H85.3359ZM92.5195 22.0508V23H87.5273V14.5449H92.5195V15.4941H88.5645V18.2363H92.3027V19.1445H88.5645V22.0508H92.5195Z" fill="#EDE5C4"/>
<path d="M217.186 13.7422H220.273V14.5449H218.152V23H220.285V23.8027H217.186V13.7422ZM228.758 22.0508V23H223.766V14.5449H228.758V15.4941H224.803V18.2363H228.541V19.1445H224.803V22.0508H228.758ZM230.65 20.75H231.658C231.764 21.6758 232.508 22.2383 233.633 22.2383C234.758 22.2383 235.496 21.6523 235.496 20.7441C235.496 20.0117 235.004 19.5723 233.861 19.291L233.135 19.1094C231.564 18.7109 230.855 17.9668 230.855 16.7422C230.855 15.3008 231.939 14.3691 233.627 14.3691C235.221 14.3691 236.316 15.2891 236.387 16.6953H235.379C235.273 15.8223 234.629 15.3066 233.633 15.3066C232.549 15.3066 231.898 15.8223 231.898 16.6836C231.898 17.416 232.367 17.8379 233.469 18.1133L234.207 18.3008C235.848 18.7051 236.539 19.4199 236.539 20.6914C236.539 22.209 235.396 23.1758 233.627 23.1758C231.881 23.1758 230.738 22.25 230.65 20.75ZM241.156 22.1973C242.281 22.1973 242.996 21.5234 243.025 20.4336H244.068C244.068 22.0684 242.885 23.1758 241.156 23.1758C239.17 23.1758 238.016 21.834 238.016 19.5254V18.0195C238.016 15.7109 239.17 14.3691 241.156 14.3691C242.938 14.3691 244.039 15.4531 244.074 17.2578H243.025C242.99 16.1152 242.234 15.3477 241.15 15.3477C239.785 15.3477 239.07 16.2676 239.07 18.0195V19.5254C239.07 21.2773 239.785 22.1973 241.156 22.1973ZM249.957 13.7422V23.8027H246.857V23H248.984V14.5449H246.869V13.7422H249.957Z" fill="#A59A86"/>
<path fill-rule="evenodd" clip-rule="evenodd" d="M268.354 15.6464C268.549 15.8417 268.549 16.1583 268.354 16.3536L262.354 22.3536C262.158 22.5488 261.842 22.5488 261.646 22.3536C261.451 22.1583 261.451 21.8417 261.646 21.6464L267.646 15.6464C267.842 15.4512 268.158 15.4512 268.354 15.6464Z" fill="#A59A86"/>
<path fill-rule="evenodd" clip-rule="evenodd" d="M261.646 15.6464C261.842 15.4512 262.158 15.4512 262.354 15.6464L268.354 21.6464C268.549 21.8417 268.549 22.1583 268.354 22.3536C268.158 22.5488 267.842 22.5488 267.646 22.3536L261.646 16.3536C261.451 16.1583 261.451 15.8417 261.646 15.6464Z" fill="#A59A86"/>
<path d="M14.1045 56H13.2402V48.9541H17.3955V49.7451H14.1045V52.1621H17.1123V52.9287H14.1045V56ZM23.1279 56H19.417V55.2334H20.8428V49.7207H19.417V48.9541H23.1279V49.7207H21.7021V55.2334H23.1279V56ZM29.6465 55.209V56H25.4863V48.9541H29.6465V49.7451H26.3506V52.0303H29.4658V52.7871H26.3506V55.209H29.6465ZM36.0234 55.1992V56H31.8291V48.9541H32.6836V55.1992H36.0234ZM37.5078 48.9541H39.4805C41.4775 48.9541 42.4834 50.1309 42.4834 52.4648C42.4834 54.8184 41.4775 56 39.4805 56H37.5078V48.9541ZM38.3721 49.7451V55.209H39.4023C40.8965 55.209 41.6045 54.335 41.6045 52.4697C41.6045 50.624 40.8916 49.7451 39.4023 49.7451H38.3721ZM52.6104 56H51.751V49.7451H49.6221V48.9541H54.7393V49.7451H52.6104V56ZM60.2178 56H56.5068V55.2334H57.9326V49.7207H56.5068V48.9541H60.2178V49.7207H58.792V55.2334H60.2178V56ZM64.9736 56H64.1143V49.7451H61.9854V48.9541H67.1025V49.7451H64.9736V56ZM73.1133 55.1992V56H68.9189V48.9541H69.7734V55.1992H73.1133ZM79.0996 55.209V56H74.9395V48.9541H79.0996V49.7451H75.8037V52.0303H78.9189V52.7871H75.8037V55.209H79.0996Z" fill="#7F776A"/>
<rect x="12.5" y="60.5" width="258" height="25" rx="3.5" stroke="#353535"/>
<path d="M22.8145 74.75H23.8223C23.9277 75.6758 24.6719 76.2383 25.7969 76.2383C26.9219 76.2383 27.6602 75.6523 27.6602 74.7441C27.6602 74.0117 27.168 73.5723 26.0254 73.291L25.2988 73.1094C23.7285 72.7109 23.0195 71.9668 23.0195 70.7422C23.0195 69.3008 24.1035 68.3691 25.791 68.3691C27.3848 68.3691 28.4805 69.2891 28.5508 70.6953H27.543C27.4375 69.8223 26.793 69.3066 25.7969 69.3066C24.7129 69.3066 24.0625 69.8223 24.0625 70.6836C24.0625 71.416 24.5312 71.8379 25.6328 72.1133L26.3711 72.3008C28.0117 72.7051 28.7031 73.4199 28.7031 74.6914C28.7031 76.209 27.5605 77.1758 25.791 77.1758C24.0449 77.1758 22.9023 76.25 22.8145 74.75ZM34.8438 75.3594H35.8105C35.6172 76.4082 34.6094 77.1172 33.2734 77.1172C31.5273 77.1172 30.5137 76.0684 30.5137 74.2578V73.3027C30.5137 71.627 31.5859 70.5254 33.2031 70.5254C34.8555 70.5254 35.8281 71.6211 35.8281 73.4609V74.082H31.498V74.3398C31.498 75.5059 32.1895 76.2559 33.2734 76.2559C34.0762 76.2559 34.668 75.916 34.8438 75.3594ZM33.1973 71.3809C32.1367 71.3809 31.498 72.1074 31.498 73.3262H34.8438C34.8438 72.1133 34.2227 71.3809 33.1973 71.3809ZM39.9004 77.1113C38.6875 77.1113 37.8789 76.3496 37.8789 75.1953C37.8789 74.0703 38.6875 73.4023 40.1348 73.3262L41.8809 73.2383V72.6641C41.8809 71.8672 41.3945 71.4277 40.5098 71.4277C39.7773 71.4277 39.2617 71.7383 39.0977 72.2832H38.1191C38.2363 71.2637 39.2207 70.5664 40.5215 70.5664C42.0156 70.5664 42.8711 71.3281 42.8711 72.6523V77.0059H41.9219V76.0508H41.8223C41.5176 76.7305 40.8262 77.1113 39.9004 77.1113ZM40.1875 76.2383C41.1484 76.2383 41.8809 75.5996 41.8809 74.75V74L40.2461 74.0762C39.3555 74.1172 38.8867 74.498 38.8867 75.1602C38.8867 75.8281 39.3848 76.2383 40.1875 76.2383ZM47.7109 74.1523V76.2031H49.6797V77H45.4551V76.2031H46.7383V71.4395H45.3262V70.6426H47.6992V72.2656H47.8281C48.0625 71.0879 48.8535 70.4785 50.0781 70.4785C50.4414 70.4785 50.7871 70.5312 50.998 70.6191V71.7383C50.7051 71.6328 50.2949 71.5625 49.9492 71.5625C48.543 71.5625 47.7109 72.5352 47.7109 74.1523ZM58.0293 72.623H57.0449C56.9219 71.8789 56.3008 71.4102 55.4805 71.4102C54.373 71.4102 53.7578 72.166 53.7578 73.5312V74.1055C53.7578 75.4707 54.373 76.2207 55.4805 76.2207C56.3008 76.2207 56.9219 75.7578 57.0449 75.0312H58.0293C57.8711 76.3262 56.9043 77.1172 55.498 77.1172C53.7695 77.1172 52.7617 76.0566 52.7617 74.2344V73.4023C52.7617 71.5801 53.7695 70.5195 55.498 70.5195C56.9043 70.5195 57.8652 71.3164 58.0293 72.623ZM60.1914 77V68.1465H61.1523V71.7676H61.2344C61.5684 70.9766 62.3008 70.5312 63.2734 70.5312C64.6562 70.5312 65.4062 71.3633 65.4062 72.8809V77H64.4102V73.1328C64.4102 71.9902 63.9414 71.4453 62.9453 71.4453C61.8965 71.4453 61.1875 72.1777 61.1875 73.2617V77H60.1914ZM76.6973 77V71.5098H74.9922V70.6602H76.6973V70.0215C76.6973 68.791 77.459 68.2168 79.0234 68.2168C79.3926 68.2168 80.2773 68.2461 80.4883 68.2754V69.0898C80.2129 69.0605 79.3926 69.0371 79.0352 69.0371C78.1504 69.0371 77.6816 69.3652 77.6816 70.0039V70.6602H80.4883V71.5098H77.6934V77H76.6973ZM85.0527 77.1172C83.3711 77.1172 82.2988 76.0215 82.2988 74.3047V73.3438C82.2988 71.627 83.3711 70.5312 85.0527 70.5312C86.7344 70.5312 87.8066 71.627 87.8066 73.3438V74.3047C87.8066 76.0215 86.7344 77.1172 85.0527 77.1172ZM85.0527 71.4102C83.9629 71.4102 83.2832 72.1836 83.2832 73.4316V74.2109C83.2832 75.4648 83.9629 76.2324 85.0527 76.2324C86.1426 76.2324 86.8223 75.4648 86.8223 74.2109V73.4316C86.8223 72.1836 86.1426 71.4102 85.0527 71.4102ZM92.2188 74.1523V76.2031H94.1875V77H89.9629V76.2031H91.2461V71.4395H89.834V70.6426H92.207V72.2656H92.3359C92.5703 71.0879 93.3613 70.4785 94.5859 70.4785C94.9492 70.4785 95.2949 70.5312 95.5059 70.6191V71.7383C95.2129 71.6328 94.8027 71.5625 94.457 71.5625C93.0508 71.5625 92.2188 72.5352 92.2188 74.1523ZM104.992 72.3594C104.992 71.2578 105.93 70.5195 107.33 70.5195C108.654 70.5195 109.551 71.1816 109.668 72.2422H108.707C108.59 71.6855 108.057 71.3457 107.312 71.3457C106.504 71.3457 105.982 71.7207 105.982 72.3008C105.982 72.7871 106.311 73.0625 107.107 73.2383L108.004 73.4434C109.24 73.7246 109.803 74.2637 109.803 75.1836C109.803 76.3555 108.824 77.1172 107.318 77.1172C105.877 77.1172 104.922 76.4434 104.811 75.3535H105.824C105.971 75.9395 106.533 76.2793 107.354 76.2793C108.221 76.2793 108.771 75.8867 108.771 75.2773C108.771 74.7734 108.461 74.5039 107.652 74.3223L106.709 74.1055C105.561 73.8418 104.992 73.2617 104.992 72.3594ZM114.725 77.1172C113.043 77.1172 111.971 76.0215 111.971 74.3047V73.3438C111.971 71.627 113.043 70.5312 114.725 70.5312C116.406 70.5312 117.479 71.627 117.479 73.3438V74.3047C117.479 76.0215 116.406 77.1172 114.725 77.1172ZM114.725 71.4102C113.635 71.4102 112.955 72.1836 112.955 73.4316V74.2109C112.955 75.4648 113.635 76.2324 114.725 76.2324C115.814 76.2324 116.494 75.4648 116.494 74.2109V73.4316C116.494 72.1836 115.814 71.4102 114.725 71.4102ZM125.207 72.3184V77H124.311V72.6113C124.311 71.8379 124.029 71.4336 123.496 71.4336C122.939 71.4336 122.6 71.9199 122.6 72.7109V77H121.709V72.6055C121.709 71.8379 121.428 71.4336 120.889 71.4336C120.326 71.4336 119.975 71.9199 119.975 72.7109V77H119.078V70.6426H119.969V71.5391H120.074C120.232 70.9004 120.689 70.5254 121.287 70.5254C121.885 70.5254 122.307 70.8945 122.441 71.5215H122.547C122.711 70.9121 123.221 70.5254 123.859 70.5254C124.744 70.5254 125.207 71.1406 125.207 72.3184ZM131.277 75.3594H132.244C132.051 76.4082 131.043 77.1172 129.707 77.1172C127.961 77.1172 126.947 76.0684 126.947 74.2578V73.3027C126.947 71.627 128.02 70.5254 129.637 70.5254C131.289 70.5254 132.262 71.6211 132.262 73.4609V74.082H127.932V74.3398C127.932 75.5059 128.623 76.2559 129.707 76.2559C130.51 76.2559 131.102 75.916 131.277 75.3594ZM129.631 71.3809C128.57 71.3809 127.932 72.1074 127.932 73.3262H131.277C131.277 72.1133 130.656 71.3809 129.631 71.3809ZM143.312 68.9375H144.297V70.6602H146.875V71.5098H144.309V75.0957C144.309 75.7871 144.795 76.1621 145.691 76.1621C146.049 76.1621 146.688 76.1445 146.857 76.127V76.9707C146.699 77 145.926 77.0293 145.621 77.0293C144.045 77.0293 143.312 76.4316 143.312 75.1074V71.5098H141.619V70.6602H143.312V68.9375ZM149.207 77V68.1465H150.168V71.7676H150.25C150.584 70.9766 151.316 70.5312 152.289 70.5312C153.672 70.5312 154.422 71.3633 154.422 72.8809V77H153.426V73.1328C153.426 71.9902 152.957 71.4453 151.961 71.4453C150.912 71.4453 150.203 72.1777 150.203 73.2617V77H149.207ZM159.344 69.084C158.875 69.084 158.518 68.7324 158.518 68.2637C158.518 67.8008 158.875 67.4492 159.344 67.4492C159.812 67.4492 160.17 67.8008 160.17 68.2637C160.17 68.7324 159.812 69.084 159.344 69.084ZM162.01 77H156.742V76.1738H158.922V71.4688H156.76V70.6426H159.906V76.1738H162.01V77ZM164.049 77V70.6426H165.004V71.7617H165.086C165.426 70.9707 166.152 70.5254 167.119 70.5254C168.502 70.5254 169.252 71.3516 169.252 72.875V77H168.256V73.127C168.256 71.9785 167.787 71.4395 166.797 71.4395C165.748 71.4395 165.045 72.1719 165.045 73.2559V77H164.049ZM173.881 79.3848C172.41 79.3848 171.426 78.7402 171.297 77.6855H172.281C172.41 78.2129 173.049 78.5586 173.898 78.5586C175.012 78.5586 175.627 77.9961 175.627 76.9766V75.9863H175.521C175.24 76.6543 174.537 77.0586 173.611 77.0586C172.141 77.0586 171.174 75.998 171.174 74.3691V73.2266C171.174 71.5918 172.146 70.5371 173.635 70.5371C174.555 70.5371 175.252 70.9414 175.527 71.627H175.639V70.6426H176.623V77C176.623 78.4941 175.604 79.3848 173.881 79.3848ZM172.176 74.2285C172.176 75.3945 172.855 76.1562 173.91 76.1562C174.959 76.1562 175.633 75.4004 175.633 74.2285V73.3555C175.633 72.1836 174.959 71.4336 173.91 71.4336C172.855 71.4336 172.176 72.1895 172.176 73.3555V74.2285Z" fill="#A59A86"/>
<path d="M14.1045 106H13.2402V98.9541H17.3955V99.7451H14.1045V102.162H17.1123V102.929H14.1045V106ZM23.1279 106H19.417V105.233H20.8428V99.7207H19.417V98.9541H23.1279V99.7207H21.7021V105.233H23.1279V106ZM29.6465 105.209V106H25.4863V98.9541H29.6465V99.7451H26.3506V102.03H29.4658V102.787H26.3506V105.209H29.6465ZM36.0234 105.199V106H31.8291V98.9541H32.6836V105.199H36.0234ZM37.5078 98.9541H39.4805C41.4775 98.9541 42.4834 100.131 42.4834 102.465C42.4834 104.818 41.4775 106 39.4805 106H37.5078V98.9541ZM38.3721 99.7451V105.209H39.4023C40.8965 105.209 41.6045 104.335 41.6045 102.47C41.6045 100.624 40.8916 99.7451 39.4023 99.7451H38.3721ZM52.6104 106H51.751V99.7451H49.6221V98.9541H54.7393V99.7451H52.6104V106ZM60.2178 106H56.5068V105.233H57.9326V99.7207H56.5068V98.9541H60.2178V99.7207H58.792V105.233H60.2178V106ZM64.9736 106H64.1143V99.7451H61.9854V98.9541H67.1025V99.7451H64.9736V106ZM73.1133 105.199V106H68.9189V98.9541H69.7734V105.199H73.1133ZM79.0996 105.209V106H74.9395V98.9541H79.0996V99.7451H75.8037V102.03H78.9189V102.787H75.8037V105.209H79.0996Z" fill="#7F776A"/>
<rect x="12.5" y="110.5" width="258" height="25" rx="3.5" stroke="#353535"/>
<path d="M22.8145 124.75H23.8223C23.9277 125.676 24.6719 126.238 25.7969 126.238C26.9219 126.238 27.6602 125.652 27.6602 124.744C27.6602 124.012 27.168 123.572 26.0254 123.291L25.2988 123.109C23.7285 122.711 23.0195 121.967 23.0195 120.742C23.0195 119.301 24.1035 118.369 25.791 118.369C27.3848 118.369 28.4805 119.289 28.5508 120.695H27.543C27.4375 119.822 26.793 119.307 25.7969 119.307C24.7129 119.307 24.0625 119.822 24.0625 120.684C24.0625 121.416 24.5312 121.838 25.6328 122.113L26.3711 122.301C28.0117 122.705 28.7031 123.42 28.7031 124.691C28.7031 126.209 27.5605 127.176 25.791 127.176C24.0449 127.176 22.9023 126.25 22.8145 124.75ZM34.8438 125.359H35.8105C35.6172 126.408 34.6094 127.117 33.2734 127.117C31.5273 127.117 30.5137 126.068 30.5137 124.258V123.303C30.5137 121.627 31.5859 120.525 33.2031 120.525C34.8555 120.525 35.8281 121.621 35.8281 123.461V124.082H31.498V124.34C31.498 125.506 32.1895 126.256 33.2734 126.256C34.0762 126.256 34.668 125.916 34.8438 125.359ZM33.1973 121.381C32.1367 121.381 31.498 122.107 31.498 123.326H34.8438C34.8438 122.113 34.2227 121.381 33.1973 121.381ZM39.9004 127.111C38.6875 127.111 37.8789 126.35 37.8789 125.195C37.8789 124.07 38.6875 123.402 40.1348 123.326L41.8809 123.238V122.664C41.8809 121.867 41.3945 121.428 40.5098 121.428C39.7773 121.428 39.2617 121.738 39.0977 122.283H38.1191C38.2363 121.264 39.2207 120.566 40.5215 120.566C42.0156 120.566 42.8711 121.328 42.8711 122.652V127.006H41.9219V126.051H41.8223C41.5176 126.73 40.8262 127.111 39.9004 127.111ZM40.1875 126.238C41.1484 126.238 41.8809 125.6 41.8809 124.75V124L40.2461 124.076C39.3555 124.117 38.8867 124.498 38.8867 125.16C38.8867 125.828 39.3848 126.238 40.1875 126.238ZM47.7109 124.152V126.203H49.6797V127H45.4551V126.203H46.7383V121.439H45.3262V120.643H47.6992V122.266H47.8281C48.0625 121.088 48.8535 120.479 50.0781 120.479C50.4414 120.479 50.7871 120.531 50.998 120.619V121.738C50.7051 121.633 50.2949 121.562 49.9492 121.562C48.543 121.562 47.7109 122.535 47.7109 124.152ZM58.0293 122.623H57.0449C56.9219 121.879 56.3008 121.41 55.4805 121.41C54.373 121.41 53.7578 122.166 53.7578 123.531V124.105C53.7578 125.471 54.373 126.221 55.4805 126.221C56.3008 126.221 56.9219 125.758 57.0449 125.031H58.0293C57.8711 126.326 56.9043 127.117 55.498 127.117C53.7695 127.117 52.7617 126.057 52.7617 124.234V123.402C52.7617 121.58 53.7695 120.52 55.498 120.52C56.9043 120.52 57.8652 121.316 58.0293 122.623ZM60.1914 127V118.146H61.1523V121.768H61.2344C61.5684 120.977 62.3008 120.531 63.2734 120.531C64.6562 120.531 65.4062 121.363 65.4062 122.881V127H64.4102V123.133C64.4102 121.99 63.9414 121.445 62.9453 121.445C61.8965 121.445 61.1875 122.178 61.1875 123.262V127H60.1914ZM76.6973 127V121.51H74.9922V120.66H76.6973V120.021C76.6973 118.791 77.459 118.217 79.0234 118.217C79.3926 118.217 80.2773 118.246 80.4883 118.275V119.09C80.2129 119.061 79.3926 119.037 79.0352 119.037C78.1504 119.037 77.6816 119.365 77.6816 120.004V120.66H80.4883V121.51H77.6934V127H76.6973ZM85.0527 127.117C83.3711 127.117 82.2988 126.021 82.2988 124.305V123.344C82.2988 121.627 83.3711 120.531 85.0527 120.531C86.7344 120.531 87.8066 121.627 87.8066 123.344V124.305C87.8066 126.021 86.7344 127.117 85.0527 127.117ZM85.0527 121.41C83.9629 121.41 83.2832 122.184 83.2832 123.432V124.211C83.2832 125.465 83.9629 126.232 85.0527 126.232C86.1426 126.232 86.8223 125.465 86.8223 124.211V123.432C86.8223 122.184 86.1426 121.41 85.0527 121.41ZM92.2188 124.152V126.203H94.1875V127H89.9629V126.203H91.2461V121.439H89.834V120.643H92.207V122.266H92.3359C92.5703 121.088 93.3613 120.479 94.5859 120.479C94.9492 120.479 95.2949 120.531 95.5059 120.619V121.738C95.2129 121.633 94.8027 121.562 94.457 121.562C93.0508 121.562 92.2188 122.535 92.2188 124.152ZM104.992 122.359C104.992 121.258 105.93 120.52 107.33 120.52C108.654 120.52 109.551 121.182 109.668 122.242H108.707C108.59 121.686 108.057 121.346 107.312 121.346C106.504 121.346 105.982 121.721 105.982 122.301C105.982 122.787 106.311 123.062 107.107 123.238L108.004 123.443C109.24 123.725 109.803 124.264 109.803 125.184C109.803 126.355 108.824 127.117 107.318 127.117C105.877 127.117 104.922 126.443 104.811 125.354H105.824C105.971 125.939 106.533 126.279 107.354 126.279C108.221 126.279 108.771 125.887 108.771 125.277C108.771 124.773 108.461 124.504 107.652 124.322L106.709 124.105C105.561 123.842 104.992 123.262 104.992 122.359ZM114.725 127.117C113.043 127.117 111.971 126.021 111.971 124.305V123.344C111.971 121.627 113.043 120.531 114.725 120.531C116.406 120.531 117.479 121.627 117.479 123.344V124.305C117.479 126.021 116.406 127.117 114.725 127.117ZM114.725 121.41C113.635 121.41 112.955 122.184 112.955 123.432V124.211C112.955 125.465 113.635 126.232 114.725 126.232C115.814 126.232 116.494 125.465 116.494 124.211V123.432C116.494 122.184 115.814 121.41 114.725 121.41ZM125.207 122.318V127H124.311V122.611C124.311 121.838 124.029 121.434 123.496 121.434C122.939 121.434 122.6 121.92 122.6 122.711V127H121.709V122.605C121.709 121.838 121.428 121.434 120.889 121.434C120.326 121.434 119.975 121.92 119.975 122.711V127H119.078V120.643H119.969V121.539H120.074C120.232 120.9 120.689 120.525 121.287 120.525C121.885 120.525 122.307 120.895 122.441 121.521H122.547C122.711 120.912 123.221 120.525 123.859 120.525C124.744 120.525 125.207 121.141 125.207 122.318ZM131.277 125.359H132.244C132.051 126.408 131.043 127.117 129.707 127.117C127.961 127.117 126.947 126.068 126.947 124.258V123.303C126.947 121.627 128.02 120.525 129.637 120.525C131.289 120.525 132.262 121.621 132.262 123.461V124.082H127.932V124.34C127.932 125.506 128.623 126.256 129.707 126.256C130.51 126.256 131.102 125.916 131.277 125.359ZM129.631 121.381C128.57 121.381 127.932 122.107 127.932 123.326H131.277C131.277 122.113 130.656 121.381 129.631 121.381ZM143.312 118.938H144.297V120.66H146.875V121.51H144.309V125.096C144.309 125.787 144.795 126.162 145.691 126.162C146.049 126.162 146.688 126.145 146.857 126.127V126.971C146.699 127 145.926 127.029 145.621 127.029C144.045 127.029 143.312 126.432 143.312 125.107V121.51H141.619V120.66H143.312V118.938ZM149.207 127V118.146H150.168V121.768H150.25C150.584 120.977 151.316 120.531 152.289 120.531C153.672 120.531 154.422 121.363 154.422 122.881V127H153.426V123.133C153.426 121.99 152.957 121.445 151.961 121.445C150.912 121.445 150.203 122.178 150.203 123.262V127H149.207ZM159.344 119.084C158.875 119.084 158.518 118.732 158.518 118.264C158.518 117.801 158.875 117.449 159.344 117.449C159.812 117.449 160.17 117.801 160.17 118.264C160.17 118.732 159.812 119.084 159.344 119.084ZM162.01 127H156.742V126.174H158.922V121.469H156.76V120.643H159.906V126.174H162.01V127ZM164.049 127V120.643H165.004V121.762H165.086C165.426 120.971 166.152 120.525 167.119 120.525C168.502 120.525 169.252 121.352 169.252 122.875V127H168.256V123.127C168.256 121.979 167.787 121.439 166.797 121.439C165.748 121.439 165.045 122.172 165.045 123.256V127H164.049ZM173.881 129.385C172.41 129.385 171.426 128.74 171.297 127.686H172.281C172.41 128.213 173.049 128.559 173.898 128.559C175.012 128.559 175.627 127.996 175.627 126.977V125.986H175.521C175.24 126.654 174.537 127.059 173.611 127.059C172.141 127.059 171.174 125.998 171.174 124.369V123.227C171.174 121.592 172.146 120.537 173.635 120.537C174.555 120.537 175.252 120.941 175.527 121.627H175.639V120.643H176.623V127C176.623 128.494 175.604 129.385 173.881 129.385ZM172.176 124.229C172.176 125.395 172.855 126.156 173.91 126.156C174.959 126.156 175.633 125.4 175.633 124.229V123.355C175.633 122.184 174.959 121.434 173.91 121.434C172.855 121.434 172.176 122.189 172.176 123.355V124.229Z" fill="#A59A86"/>
<path d="M14.2793 160H13.2656V151.545H14.2793V155.752H14.3555L17.7773 151.545H18.9844L15.8555 155.283L19.2891 160H18.0059L15.1582 156.08L14.2793 157.123V160ZM20.5254 160V153.643H21.4805V154.762H21.5625C21.9023 153.971 22.6289 153.525 23.5957 153.525C24.9785 153.525 25.7285 154.352 25.7285 155.875V160H24.7324V156.127C24.7324 154.979 24.2637 154.439 23.2734 154.439C22.2246 154.439 21.5215 155.172 21.5215 156.256V160H20.5254ZM30.5449 160.117C28.8633 160.117 27.791 159.021 27.791 157.305V156.344C27.791 154.627 28.8633 153.531 30.5449 153.531C32.2266 153.531 33.2988 154.627 33.2988 156.344V157.305C33.2988 159.021 32.2266 160.117 30.5449 160.117ZM30.5449 154.41C29.4551 154.41 28.7754 155.184 28.7754 156.432V157.211C28.7754 158.465 29.4551 159.232 30.5449 159.232C31.6348 159.232 32.3145 158.465 32.3145 157.211V156.432C32.3145 155.184 31.6348 154.41 30.5449 154.41ZM41.3965 153.643L40.0312 160H39.0762L37.998 155.043H37.9277L36.8496 160H35.8945L34.5293 153.643H35.502L36.3633 158.74H36.4688L37.4941 153.648H38.4316L39.457 158.74H39.5625L40.4238 153.643H41.3965ZM48.1582 160H42.8906V159.174H45.0645V151.973H42.9082V151.146H46.0605V159.174H48.1582V160ZM54.5156 158.359H55.4824C55.2891 159.408 54.2812 160.117 52.9453 160.117C51.1992 160.117 50.1855 159.068 50.1855 157.258V156.303C50.1855 154.627 51.2578 153.525 52.875 153.525C54.5273 153.525 55.5 154.621 55.5 156.461V157.082H51.1699V157.34C51.1699 158.506 51.8613 159.256 52.9453 159.256C53.748 159.256 54.3398 158.916 54.5156 158.359ZM52.8691 154.381C51.8086 154.381 51.1699 155.107 51.1699 156.326H54.5156C54.5156 155.113 53.8945 154.381 52.8691 154.381ZM59.8184 160.105C58.3477 160.105 57.3867 159.045 57.3867 157.41V156.227C57.3867 154.598 58.3477 153.537 59.8184 153.537C60.7383 153.537 61.418 153.93 61.6934 154.627H61.7988V151.146H62.8125V160H61.834V159.027H61.7227C61.3945 159.73 60.7266 160.105 59.8184 160.105ZM60.1113 159.197C61.1543 159.197 61.8281 158.447 61.8281 157.27V156.355C61.8281 155.184 61.1543 154.434 60.1113 154.434C59.0625 154.434 58.3887 155.184 58.3887 156.355V157.27C58.3887 158.441 59.0625 159.197 60.1113 159.197ZM67.4473 162.385C65.9766 162.385 64.9922 161.74 64.8633 160.686H65.8477C65.9766 161.213 66.6152 161.559 67.4648 161.559C68.5781 161.559 69.1934 160.996 69.1934 159.977V158.986H69.0879C68.8066 159.654 68.1035 160.059 67.1777 160.059C65.707 160.059 64.7402 158.998 64.7402 157.369V156.227C64.7402 154.592 65.7129 153.537 67.2012 153.537C68.1211 153.537 68.8184 153.941 69.0938 154.627H69.2051V153.643H70.1895V160C70.1895 161.494 69.1699 162.385 67.4473 162.385ZM65.7422 157.229C65.7422 158.395 66.4219 159.156 67.4766 159.156C68.5254 159.156 69.1992 158.4 69.1992 157.229V156.355C69.1992 155.184 68.5254 154.434 67.4766 154.434C66.4219 154.434 65.7422 155.189 65.7422 156.355V157.229ZM76.7695 158.359H77.7363C77.543 159.408 76.5352 160.117 75.1992 160.117C73.4531 160.117 72.4395 159.068 72.4395 157.258V156.303C72.4395 154.627 73.5117 153.525 75.1289 153.525C76.7812 153.525 77.7539 154.621 77.7539 156.461V157.082H73.4238V157.34C73.4238 158.506 74.1152 159.256 75.1992 159.256C76.002 159.256 76.5938 158.916 76.7695 158.359ZM75.123 154.381C74.0625 154.381 73.4238 155.107 73.4238 156.326H76.7695C76.7695 155.113 76.1484 154.381 75.123 154.381ZM93.3223 153.643L91.957 160H91.002L89.9238 155.043H89.8535L88.7754 160H87.8203L86.4551 153.643H87.4277L88.2891 158.74H88.3945L89.4199 153.648H90.3574L91.3828 158.74H91.4883L92.3496 153.643H93.3223ZM97.3066 160.117C95.625 160.117 94.5527 159.021 94.5527 157.305V156.344C94.5527 154.627 95.625 153.531 97.3066 153.531C98.9883 153.531 100.061 154.627 100.061 156.344V157.305C100.061 159.021 98.9883 160.117 97.3066 160.117ZM97.3066 154.41C96.2168 154.41 95.5371 155.184 95.5371 156.432V157.211C95.5371 158.465 96.2168 159.232 97.3066 159.232C98.3965 159.232 99.0762 158.465 99.0762 157.211V156.432C99.0762 155.184 98.3965 154.41 97.3066 154.41ZM104.473 157.152V159.203H106.441V160H102.217V159.203H103.5V154.439H102.088V153.643H104.461V155.266H104.59C104.824 154.088 105.615 153.479 106.84 153.479C107.203 153.479 107.549 153.531 107.76 153.619V154.738C107.467 154.633 107.057 154.562 106.711 154.562C105.305 154.562 104.473 155.535 104.473 157.152ZM111.082 156.496L113.854 153.643H115.061L112.594 156.162L115.236 160H114.053L111.885 156.842L111.006 157.686V160H110.01V151.146H111.006V156.496H111.082ZM127.09 152.084C126.621 152.084 126.264 151.732 126.264 151.264C126.264 150.801 126.621 150.449 127.09 150.449C127.559 150.449 127.916 150.801 127.916 151.264C127.916 151.732 127.559 152.084 127.09 152.084ZM129.756 160H124.488V159.174H126.668V154.469H124.506V153.643H127.652V159.174H129.756V160ZM132.082 155.359C132.082 154.258 133.02 153.52 134.42 153.52C135.744 153.52 136.641 154.182 136.758 155.242H135.797C135.68 154.686 135.146 154.346 134.402 154.346C133.594 154.346 133.072 154.721 133.072 155.301C133.072 155.787 133.4 156.062 134.197 156.238L135.094 156.443C136.33 156.725 136.893 157.264 136.893 158.184C136.893 159.355 135.914 160.117 134.408 160.117C132.967 160.117 132.012 159.443 131.9 158.354H132.914C133.061 158.939 133.623 159.279 134.443 159.279C135.311 159.279 135.861 158.887 135.861 158.277C135.861 157.773 135.551 157.504 134.742 157.322L133.799 157.105C132.65 156.842 132.082 156.262 132.082 155.359ZM146.918 155.359C146.918 154.258 147.855 153.52 149.256 153.52C150.58 153.52 151.477 154.182 151.594 155.242H150.633C150.516 154.686 149.982 154.346 149.238 154.346C148.43 154.346 147.908 154.721 147.908 155.301C147.908 155.787 148.236 156.062 149.033 156.238L149.93 156.443C151.166 156.725 151.729 157.264 151.729 158.184C151.729 159.355 150.75 160.117 149.244 160.117C147.803 160.117 146.848 159.443 146.736 158.354H147.75C147.896 158.939 148.459 159.279 149.279 159.279C150.146 159.279 150.697 158.887 150.697 158.277C150.697 157.773 150.387 157.504 149.578 157.322L148.635 157.105C147.486 156.842 146.918 156.262 146.918 155.359ZM154.043 160V151.146H155.004V154.768H155.086C155.42 153.977 156.152 153.531 157.125 153.531C158.508 153.531 159.258 154.363 159.258 155.881V160H158.262V156.133C158.262 154.99 157.793 154.445 156.797 154.445C155.748 154.445 155.039 155.178 155.039 156.262V160H154.043ZM164.18 152.084C163.711 152.084 163.354 151.732 163.354 151.264C163.354 150.801 163.711 150.449 164.18 150.449C164.648 150.449 165.006 150.801 165.006 151.264C165.006 151.732 164.648 152.084 164.18 152.084ZM166.846 160H161.578V159.174H163.758V154.469H161.596V153.643H164.742V159.174H166.846V160ZM170.549 160V154.51H168.844V153.66H170.549V153.021C170.549 151.791 171.311 151.217 172.875 151.217C173.244 151.217 174.129 151.246 174.34 151.275V152.09C174.064 152.061 173.244 152.037 172.887 152.037C172.002 152.037 171.533 152.365 171.533 153.004V153.66H174.34V154.51H171.545V160H170.549ZM177.82 151.938H178.805V153.66H181.383V154.51H178.816V158.096C178.816 158.787 179.303 159.162 180.199 159.162C180.557 159.162 181.195 159.145 181.365 159.127V159.971C181.207 160 180.434 160.029 180.129 160.029C178.553 160.029 177.82 159.432 177.82 158.107V154.51H176.127V153.66H177.82V151.938ZM186.434 152.084C185.965 152.084 185.607 151.732 185.607 151.264C185.607 150.801 185.965 150.449 186.434 150.449C186.902 150.449 187.26 150.801 187.26 151.264C187.26 151.732 186.902 152.084 186.434 152.084ZM189.1 160H183.832V159.174H186.012V154.469H183.85V153.643H186.996V159.174H189.1V160ZM191.139 160V153.643H192.094V154.762H192.176C192.516 153.971 193.242 153.525 194.209 153.525C195.592 153.525 196.342 154.352 196.342 155.875V160H195.346V156.127C195.346 154.979 194.877 154.439 193.887 154.439C192.838 154.439 192.135 155.172 192.135 156.256V160H191.139ZM200.971 162.385C199.5 162.385 198.516 161.74 198.387 160.686H199.371C199.5 161.213 200.139 161.559 200.988 161.559C202.102 161.559 202.717 160.996 202.717 159.977V158.986H202.611C202.33 159.654 201.627 160.059 200.701 160.059C199.23 160.059 198.264 158.998 198.264 157.369V156.227C198.264 154.592 199.236 153.537 200.725 153.537C201.645 153.537 202.342 153.941 202.617 154.627H202.729V153.643H203.713V160C203.713 161.494 202.693 162.385 200.971 162.385ZM199.266 157.229C199.266 158.395 199.945 159.156 201 159.156C202.049 159.156 202.723 158.4 202.723 157.229V156.355C202.723 155.184 202.049 154.434 201 154.434C199.945 154.434 199.266 155.189 199.266 156.355V157.229ZM215.057 160V154.51H213.352V153.66H215.057V153.021C215.057 151.791 215.818 151.217 217.383 151.217C217.752 151.217 218.637 151.246 218.848 151.275V152.09C218.572 152.061 217.752 152.037 217.395 152.037C216.51 152.037 216.041 152.365 216.041 153.004V153.66H218.848V154.51H216.053V160H215.057ZM223.16 157.152V159.203H225.129V160H220.904V159.203H222.188V154.439H220.775V153.643H223.148V155.266H223.277C223.512 154.088 224.303 153.479 225.527 153.479C225.891 153.479 226.236 153.531 226.447 153.619V154.738C226.154 154.633 225.744 154.562 225.398 154.562C223.992 154.562 223.16 155.535 223.16 157.152ZM230.83 160.117C229.148 160.117 228.076 159.021 228.076 157.305V156.344C228.076 154.627 229.148 153.531 230.83 153.531C232.512 153.531 233.584 154.627 233.584 156.344V157.305C233.584 159.021 232.512 160.117 230.83 160.117ZM230.83 154.41C229.74 154.41 229.061 155.184 229.061 156.432V157.211C229.061 158.465 229.74 159.232 230.83 159.232C231.92 159.232 232.6 158.465 232.6 157.211V156.432C232.6 155.184 231.92 154.41 230.83 154.41ZM241.312 155.318V160H240.416V155.611C240.416 154.838 240.135 154.434 239.602 154.434C239.045 154.434 238.705 154.92 238.705 155.711V160H237.814V155.605C237.814 154.838 237.533 154.434 236.994 154.434C236.432 154.434 236.08 154.92 236.08 155.711V160H235.184V153.643H236.074V154.539H236.18C236.338 153.9 236.795 153.525 237.393 153.525C237.99 153.525 238.412 153.895 238.547 154.521H238.652C238.816 153.912 239.326 153.525 239.965 153.525C240.85 153.525 241.312 154.141 241.312 155.318ZM15.8203 172.084C15.3516 172.084 14.9941 171.732 14.9941 171.264C14.9941 170.801 15.3516 170.449 15.8203 170.449C16.2891 170.449 16.6465 170.801 16.6465 171.264C16.6465 171.732 16.2891 172.084 15.8203 172.084ZM18.4863 180H13.2188V179.174H15.3984V174.469H13.2363V173.643H16.3828V179.174H18.4863V180ZM26.1914 175.318V180H25.2949V175.611C25.2949 174.838 25.0137 174.434 24.4805 174.434C23.9238 174.434 23.584 174.92 23.584 175.711V180H22.6934V175.605C22.6934 174.838 22.4121 174.434 21.873 174.434C21.3105 174.434 20.959 174.92 20.959 175.711V180H20.0625V173.643H20.9531V174.539H21.0586C21.2168 173.9 21.6738 173.525 22.2715 173.525C22.8691 173.525 23.291 173.895 23.4258 174.521H23.5312C23.6953 173.912 24.2051 173.525 24.8438 173.525C25.7285 173.525 26.1914 174.141 26.1914 175.318ZM30.9434 173.537C32.4141 173.537 33.375 174.598 33.375 176.232V177.416C33.375 179.045 32.4141 180.105 30.9434 180.105C30.0234 180.105 29.3496 179.713 29.0742 179.016H28.9629V182.145H27.9492V173.643H28.9336V174.615H29.0391C29.373 173.912 30.0352 173.537 30.9434 173.537ZM30.6562 174.451C29.6074 174.451 28.9395 175.201 28.9395 176.373V177.287C28.9395 178.465 29.6074 179.215 30.6562 179.215C31.7051 179.215 32.373 178.459 32.373 177.287V176.373C32.373 175.201 31.7051 174.451 30.6562 174.451ZM39.6797 178.359H40.6465C40.4531 179.408 39.4453 180.117 38.1094 180.117C36.3633 180.117 35.3496 179.068 35.3496 177.258V176.303C35.3496 174.627 36.4219 173.525 38.0391 173.525C39.6914 173.525 40.6641 174.621 40.6641 176.461V177.082H36.334V177.34C36.334 178.506 37.0254 179.256 38.1094 179.256C38.9121 179.256 39.5039 178.916 39.6797 178.359ZM38.0332 174.381C36.9727 174.381 36.334 175.107 36.334 176.326H39.6797C39.6797 175.113 39.0586 174.381 38.0332 174.381ZM45.1289 177.152V179.203H47.0977V180H42.873V179.203H44.1562V174.439H42.7441V173.643H45.1172V175.266H45.2461C45.4805 174.088 46.2715 173.479 47.4961 173.479C47.8594 173.479 48.2051 173.531 48.416 173.619V174.738C48.123 174.633 47.7129 174.562 47.3672 174.562C45.9609 174.562 45.1289 175.535 45.1289 177.152ZM52.1543 180.111C50.9414 180.111 50.1328 179.35 50.1328 178.195C50.1328 177.07 50.9414 176.402 52.3887 176.326L54.1348 176.238V175.664C54.1348 174.867 53.6484 174.428 52.7637 174.428C52.0312 174.428 51.5156 174.738 51.3516 175.283H50.373C50.4902 174.264 51.4746 173.566 52.7754 173.566C54.2695 173.566 55.125 174.328 55.125 175.652V180.006H54.1758V179.051H54.0762C53.7715 179.73 53.0801 180.111 52.1543 180.111ZM52.4414 179.238C53.4023 179.238 54.1348 178.6 54.1348 177.75V177L52.5 177.076C51.6094 177.117 51.1406 177.498 51.1406 178.16C51.1406 178.828 51.6387 179.238 52.4414 179.238ZM59.1328 171.938H60.1172V173.66H62.6953V174.51H60.1289V178.096C60.1289 178.787 60.6152 179.162 61.5117 179.162C61.8691 179.162 62.5078 179.145 62.6777 179.127V179.971C62.5195 180 61.7461 180.029 61.4414 180.029C59.8652 180.029 59.1328 179.432 59.1328 178.107V174.51H57.4395V173.66H59.1328V171.938ZM67.7461 172.084C67.2773 172.084 66.9199 171.732 66.9199 171.264C66.9199 170.801 67.2773 170.449 67.7461 170.449C68.2148 170.449 68.5723 170.801 68.5723 171.264C68.5723 171.732 68.2148 172.084 67.7461 172.084ZM70.4121 180H65.1445V179.174H67.3242V174.469H65.1621V173.643H68.3086V179.174H70.4121V180ZM72.1816 173.643H73.248L75.0234 178.934H75.0996L76.8633 173.643H77.9238L75.6035 180H74.5078L72.1816 173.643ZM84.1875 178.359H85.1543C84.9609 179.408 83.9531 180.117 82.6172 180.117C80.8711 180.117 79.8574 179.068 79.8574 177.258V176.303C79.8574 174.627 80.9297 173.525 82.5469 173.525C84.1992 173.525 85.1719 174.621 85.1719 176.461V177.082H80.8418V177.34C80.8418 178.506 81.5332 179.256 82.6172 179.256C83.4199 179.256 84.0117 178.916 84.1875 178.359ZM82.541 174.381C81.4805 174.381 80.8418 175.107 80.8418 176.326H84.1875C84.1875 175.113 83.5664 174.381 82.541 174.381ZM100.084 180H94.8164V179.174H96.9902V171.973H94.834V171.146H97.9863V179.174H100.084V180ZM104.08 180.111C102.867 180.111 102.059 179.35 102.059 178.195C102.059 177.07 102.867 176.402 104.314 176.326L106.061 176.238V175.664C106.061 174.867 105.574 174.428 104.689 174.428C103.957 174.428 103.441 174.738 103.277 175.283H102.299C102.416 174.264 103.4 173.566 104.701 173.566C106.195 173.566 107.051 174.328 107.051 175.652V180.006H106.102V179.051H106.002C105.697 179.73 105.006 180.111 104.08 180.111ZM104.367 179.238C105.328 179.238 106.061 178.6 106.061 177.75V177L104.426 177.076C103.535 177.117 103.066 177.498 103.066 178.16C103.066 178.828 103.564 179.238 104.367 179.238ZM112.541 180.105C111.633 180.105 110.965 179.73 110.637 179.027H110.525V180H109.547V171.146H110.561V174.627H110.666C110.947 173.93 111.621 173.537 112.541 173.537C114.012 173.537 114.973 174.598 114.973 176.227V177.41C114.973 179.045 114.012 180.105 112.541 180.105ZM112.248 179.197C113.303 179.197 113.971 178.441 113.971 177.27V176.355C113.971 175.184 113.303 174.434 112.248 174.434C111.205 174.434 110.537 175.184 110.537 176.355V177.27C110.537 178.447 111.205 179.197 112.248 179.197ZM119.561 180.117C117.879 180.117 116.807 179.021 116.807 177.305V176.344C116.807 174.627 117.879 173.531 119.561 173.531C121.242 173.531 122.314 174.627 122.314 176.344V177.305C122.314 179.021 121.242 180.117 119.561 180.117ZM119.561 174.41C118.471 174.41 117.791 175.184 117.791 176.432V177.211C117.791 178.465 118.471 179.232 119.561 179.232C120.65 179.232 121.33 178.465 121.33 177.211V176.432C121.33 175.184 120.65 174.41 119.561 174.41ZM126.727 177.152V179.203H128.695V180H124.471V179.203H125.754V174.439H124.342V173.643H126.715V175.266H126.844C127.078 174.088 127.869 173.479 129.094 173.479C129.457 173.479 129.803 173.531 130.014 173.619V174.738C129.721 174.633 129.311 174.562 128.965 174.562C127.559 174.562 126.727 175.535 126.727 177.152ZM140.73 171.938H141.715V173.66H144.293V174.51H141.727V178.096C141.727 178.787 142.213 179.162 143.109 179.162C143.467 179.162 144.105 179.145 144.275 179.127V179.971C144.117 180 143.344 180.029 143.039 180.029C141.463 180.029 140.73 179.432 140.73 178.107V174.51H139.037V173.66H140.73V171.938ZM149.232 180.117C147.551 180.117 146.479 179.021 146.479 177.305V176.344C146.479 174.627 147.551 173.531 149.232 173.531C150.914 173.531 151.986 174.627 151.986 176.344V177.305C151.986 179.021 150.914 180.117 149.232 180.117ZM149.232 174.41C148.143 174.41 147.463 175.184 147.463 176.432V177.211C147.463 178.465 148.143 179.232 149.232 179.232C150.322 179.232 151.002 178.465 151.002 177.211V176.432C151.002 175.184 150.322 174.41 149.232 174.41ZM163.67 180.105C162.199 180.105 161.238 179.045 161.238 177.41V176.227C161.238 174.598 162.199 173.537 163.67 173.537C164.59 173.537 165.27 173.93 165.545 174.627H165.65V171.146H166.664V180H165.686V179.027H165.574C165.246 179.73 164.578 180.105 163.67 180.105ZM163.963 179.197C165.006 179.197 165.68 178.447 165.68 177.27V176.355C165.68 175.184 165.006 174.434 163.963 174.434C162.914 174.434 162.24 175.184 162.24 176.355V177.27C162.24 178.441 162.914 179.197 163.963 179.197ZM173.203 178.359H174.17C173.977 179.408 172.969 180.117 171.633 180.117C169.887 180.117 168.873 179.068 168.873 177.258V176.303C168.873 174.627 169.945 173.525 171.562 173.525C173.215 173.525 174.188 174.621 174.188 176.461V177.082H169.857V177.34C169.857 178.506 170.549 179.256 171.633 179.256C172.436 179.256 173.027 178.916 173.203 178.359ZM171.557 174.381C170.496 174.381 169.857 175.107 169.857 176.326H173.203C173.203 175.113 172.582 174.381 171.557 174.381ZM181.553 175.623H180.568C180.445 174.879 179.824 174.41 179.004 174.41C177.896 174.41 177.281 175.166 177.281 176.531V177.105C177.281 178.471 177.896 179.221 179.004 179.221C179.824 179.221 180.445 178.758 180.568 178.031H181.553C181.395 179.326 180.428 180.117 179.021 180.117C177.293 180.117 176.285 179.057 176.285 177.234V176.402C176.285 174.58 177.293 173.52 179.021 173.52C180.428 173.52 181.389 174.316 181.553 175.623ZM189.1 180H183.832V179.174H186.006V171.973H183.85V171.146H187.002V179.174H189.1V180ZM193.096 180.111C191.883 180.111 191.074 179.35 191.074 178.195C191.074 177.07 191.883 176.402 193.33 176.326L195.076 176.238V175.664C195.076 174.867 194.59 174.428 193.705 174.428C192.973 174.428 192.457 174.738 192.293 175.283H191.314C191.432 174.264 192.416 173.566 193.717 173.566C195.211 173.566 196.066 174.328 196.066 175.652V180.006H195.117V179.051H195.018C194.713 179.73 194.021 180.111 193.096 180.111ZM193.383 179.238C194.344 179.238 195.076 178.6 195.076 177.75V177L193.441 177.076C192.551 177.117 192.082 177.498 192.082 178.16C192.082 178.828 192.58 179.238 193.383 179.238ZM200.906 177.152V179.203H202.875V180H198.65V179.203H199.934V174.439H198.521V173.643H200.895V175.266H201.023C201.258 174.088 202.049 173.479 203.273 173.479C203.637 173.479 203.982 173.531 204.193 173.619V174.738C203.9 174.633 203.49 174.562 203.145 174.562C201.738 174.562 200.906 175.535 200.906 177.152ZM207.932 180.111C206.719 180.111 205.91 179.35 205.91 178.195C205.91 177.07 206.719 176.402 208.166 176.326L209.912 176.238V175.664C209.912 174.867 209.426 174.428 208.541 174.428C207.809 174.428 207.293 174.738 207.129 175.283H206.15C206.268 174.264 207.252 173.566 208.553 173.566C210.047 173.566 210.902 174.328 210.902 175.652V180.006H209.953V179.051H209.854C209.549 179.73 208.857 180.111 207.932 180.111ZM208.219 179.238C209.18 179.238 209.912 178.6 209.912 177.75V177L208.277 177.076C207.387 177.117 206.918 177.498 206.918 178.16C206.918 178.828 207.416 179.238 208.219 179.238ZM214.91 171.938H215.895V173.66H218.473V174.51H215.906V178.096C215.906 178.787 216.393 179.162 217.289 179.162C217.646 179.162 218.285 179.145 218.455 179.127V179.971C218.297 180 217.523 180.029 217.219 180.029C215.643 180.029 214.91 179.432 214.91 178.107V174.51H213.217V173.66H214.91V171.938ZM223.523 172.084C223.055 172.084 222.697 171.732 222.697 171.264C222.697 170.801 223.055 170.449 223.523 170.449C223.992 170.449 224.35 170.801 224.35 171.264C224.35 171.732 223.992 172.084 223.523 172.084ZM226.189 180H220.922V179.174H223.102V174.469H220.939V173.643H224.086V179.174H226.189V180ZM227.959 173.643H229.025L230.801 178.934H230.877L232.641 173.643H233.701L231.381 180H230.285L227.959 173.643ZM239.965 178.359H240.932C240.738 179.408 239.73 180.117 238.395 180.117C236.648 180.117 235.635 179.068 235.635 177.258V176.303C235.635 174.627 236.707 173.525 238.324 173.525C239.977 173.525 240.949 174.621 240.949 176.461V177.082H236.619V177.34C236.619 178.506 237.311 179.256 238.395 179.256C239.197 179.256 239.789 178.916 239.965 178.359ZM238.318 174.381C237.258 174.381 236.619 175.107 236.619 176.326H239.965C239.965 175.113 239.344 174.381 238.318 174.381ZM15.3105 200.105C13.8398 200.105 12.8789 199.045 12.8789 197.41V196.227C12.8789 194.598 13.8398 193.537 15.3105 193.537C16.2305 193.537 16.9102 193.93 17.1855 194.627H17.291V191.146H18.3047V200H17.3262V199.027H17.2148C16.8867 199.73 16.2188 200.105 15.3105 200.105ZM15.6035 199.197C16.6465 199.197 17.3203 198.447 17.3203 197.27V196.355C17.3203 195.184 16.6465 194.434 15.6035 194.434C14.5547 194.434 13.8809 195.184 13.8809 196.355V197.27C13.8809 198.441 14.5547 199.197 15.6035 199.197ZM23.2383 192.084C22.7695 192.084 22.4121 191.732 22.4121 191.264C22.4121 190.801 22.7695 190.449 23.2383 190.449C23.707 190.449 24.0645 190.801 24.0645 191.264C24.0645 191.732 23.707 192.084 23.2383 192.084ZM25.9043 200H20.6367V199.174H22.8164V194.469H20.6543V193.643H23.8008V199.174H25.9043V200ZM29.9004 200.111C28.6875 200.111 27.8789 199.35 27.8789 198.195C27.8789 197.07 28.6875 196.402 30.1348 196.326L31.8809 196.238V195.664C31.8809 194.867 31.3945 194.428 30.5098 194.428C29.7773 194.428 29.2617 194.738 29.0977 195.283H28.1191C28.2363 194.264 29.2207 193.566 30.5215 193.566C32.0156 193.566 32.8711 194.328 32.8711 195.652V200.006H31.9219V199.051H31.8223C31.5176 199.73 30.8262 200.111 29.9004 200.111ZM30.1875 199.238C31.1484 199.238 31.8809 198.6 31.8809 197.75V197L30.2461 197.076C29.3555 197.117 28.8867 197.498 28.8867 198.16C28.8867 198.828 29.3848 199.238 30.1875 199.238ZM40.7402 200H35.4727V199.174H37.6465V191.973H35.4902V191.146H38.6426V199.174H40.7402V200ZM45.3809 200.117C43.6992 200.117 42.627 199.021 42.627 197.305V196.344C42.627 194.627 43.6992 193.531 45.3809 193.531C47.0625 193.531 48.1348 194.627 48.1348 196.344V197.305C48.1348 199.021 47.0625 200.117 45.3809 200.117ZM45.3809 194.41C44.291 194.41 43.6113 195.184 43.6113 196.432V197.211C43.6113 198.465 44.291 199.232 45.3809 199.232C46.4707 199.232 47.1504 198.465 47.1504 197.211V196.432C47.1504 195.184 46.4707 194.41 45.3809 194.41ZM52.6113 202.385C51.1406 202.385 50.1562 201.74 50.0273 200.686H51.0117C51.1406 201.213 51.7793 201.559 52.6289 201.559C53.7422 201.559 54.3574 200.996 54.3574 199.977V198.986H54.252C53.9707 199.654 53.2676 200.059 52.3418 200.059C50.8711 200.059 49.9043 198.998 49.9043 197.369V196.227C49.9043 194.592 50.877 193.537 52.3652 193.537C53.2852 193.537 53.9824 193.941 54.2578 194.627H54.3691V193.643H55.3535V200C55.3535 201.494 54.334 202.385 52.6113 202.385ZM50.9062 197.229C50.9062 198.395 51.5859 199.156 52.6406 199.156C53.6895 199.156 54.3633 198.4 54.3633 197.229V196.355C54.3633 195.184 53.6895 194.434 52.6406 194.434C51.5859 194.434 50.9062 195.189 50.9062 196.355V197.229ZM62.8184 193.643V200H61.8633V198.881H61.7812C61.4414 199.672 60.7148 200.117 59.748 200.117C58.3652 200.117 57.6152 199.291 57.6152 197.768V193.643H58.6113V197.516C58.6113 198.664 59.0801 199.203 60.0703 199.203C61.1191 199.203 61.8223 198.471 61.8223 197.387V193.643H62.8184ZM69.3516 198.359H70.3184C70.125 199.408 69.1172 200.117 67.7812 200.117C66.0352 200.117 65.0215 199.068 65.0215 197.258V196.303C65.0215 194.627 66.0938 193.525 67.7109 193.525C69.3633 193.525 70.3359 194.621 70.3359 196.461V197.082H66.0059V197.34C66.0059 198.506 66.6973 199.256 67.7812 199.256C68.584 199.256 69.1758 198.916 69.3516 198.359ZM67.7051 194.381C66.6445 194.381 66.0059 195.107 66.0059 196.326H69.3516C69.3516 195.113 68.7305 194.381 67.7051 194.381Z" fill="#EDE5C4"/>
<rect x="133.5" y="216.5" width="64" height="25" rx="3.5" stroke="#353535"/>
<path d="M149.574 232.039V233H144.541V224.545H145.566V232.039H149.574ZM157.227 229.455C157.227 231.793 156.049 233.176 154.127 233.176C152.205 233.176 151.027 231.793 151.027 229.455V228.09C151.027 225.752 152.205 224.369 154.127 224.369C156.049 224.369 157.227 225.752 157.227 228.09V229.455ZM154.127 232.197C155.41 232.197 156.184 231.213 156.184 229.449V228.096C156.184 226.332 155.41 225.348 154.127 225.348C152.844 225.348 152.07 226.332 152.07 228.096V229.449C152.07 231.213 152.844 232.197 154.127 232.197ZM163.555 230.41V229.584H161.604V228.699H164.598V230.498C164.598 232.086 163.402 233.176 161.697 233.176C159.711 233.176 158.562 231.84 158.562 229.525V228.02C158.562 225.705 159.711 224.369 161.697 224.369C163.455 224.369 164.557 225.441 164.598 227.193H163.555C163.508 226.092 162.758 225.348 161.68 225.348C160.314 225.348 159.605 226.268 159.605 228.02V229.525C159.605 231.277 160.32 232.197 161.686 232.197C162.84 232.197 163.555 231.518 163.555 230.41ZM178.607 233H174.154V232.08H175.865V225.465H174.154V224.545H178.607V225.465H176.896V232.08H178.607V233ZM181.918 233H180.986V224.545H181.977L185.598 231.125H185.68V224.545H186.611V233H185.633L182 226.402H181.918V233Z" fill="#EDE5C4"/>
<rect x="206" y="216" width="65" height="26" rx="4" fill="#EDE5C4"/>
<path d="M222.574 232.039V233H217.541V224.545H218.566V232.039H222.574ZM230.227 229.455C230.227 231.793 229.049 233.176 227.127 233.176C225.205 233.176 224.027 231.793 224.027 229.455V228.09C224.027 225.752 225.205 224.369 227.127 224.369C229.049 224.369 230.227 225.752 230.227 228.09V229.455ZM227.127 232.197C228.41 232.197 229.184 231.213 229.184 229.449V228.096C229.184 226.332 228.41 225.348 227.127 225.348C225.844 225.348 225.07 226.332 225.07 228.096V229.449C225.07 231.213 225.844 232.197 227.127 232.197ZM236.555 230.41V229.584H234.604V228.699H237.598V230.498C237.598 232.086 236.402 233.176 234.697 233.176C232.711 233.176 231.562 231.84 231.562 229.525V228.02C231.562 225.705 232.711 224.369 234.697 224.369C236.455 224.369 237.557 225.441 237.598 227.193H236.555C236.508 226.092 235.758 225.348 234.68 225.348C233.314 225.348 232.605 226.268 232.605 228.02V229.525C232.605 231.277 233.32 232.197 234.686 232.197C235.84 232.197 236.555 231.518 236.555 230.41ZM251.607 233H247.154V232.08H248.865V225.465H247.154V224.545H251.607V225.465H249.896V232.08H251.607V233ZM254.918 233H253.986V224.545H254.977L258.598 231.125H258.68V224.545H259.611V233H258.633L255 226.402H254.918V233Z" fill="black"/>
</svg>
