<svg width="283" height="154" viewBox="0 0 283 154" fill="none" xmlns="http://www.w3.org/2000/svg">
<rect x="0.5" y="0.5" width="282" height="153" rx="3.5" fill="black"/>
<rect x="0.5" y="0.5" width="282" height="153" rx="3.5" stroke="#3A3A3A"/>
<mask id="path-2-inside-1_32_1336" fill="white">
<path d="M12 4H271V36H12V4Z"/>
</mask>
<path d="M271 36V35H12V36V37H271V36Z" fill="#3A3A3A" mask="url(#path-2-inside-1_32_1336)"/>
<path d="M13.582 19.7539V23H12.6621V14.5449H13.8164L15.6738 19.7949H15.75L17.5957 14.5449H18.7559V23H17.8359V19.7539L17.8887 16.332H17.8125L16.1133 21.0137H15.3047L13.6055 16.332H13.5293L13.582 19.7539ZM26.2266 19.4551C26.2266 21.793 25.0488 23.1758 23.127 23.1758C21.2051 23.1758 20.0273 21.793 20.0273 19.4551V18.0898C20.0273 15.752 21.2051 14.3691 23.127 14.3691C25.0488 14.3691 26.2266 15.752 26.2266 18.0898V19.4551ZM23.127 22.1973C24.4102 22.1973 25.1836 21.2129 25.1836 19.4492V18.0957C25.1836 16.332 24.4102 15.3477 23.127 15.3477C21.8438 15.3477 21.0703 16.332 21.0703 18.0957V19.4492C21.0703 21.2129 21.8438 22.1973 23.127 22.1973ZM27.7734 14.5449H30.1406C32.5371 14.5449 33.7441 15.957 33.7441 18.7578C33.7441 21.582 32.5371 23 30.1406 23H27.7734V14.5449ZM28.8105 15.4941V22.0508H30.0469C31.8398 22.0508 32.6895 21.002 32.6895 18.7637C32.6895 16.5488 31.834 15.4941 30.0469 15.4941H28.8105ZM40.1484 23L39.416 20.5742H36.4746L35.7363 23H34.6875L37.4121 14.5449H38.5137L41.2383 23H40.1484ZM37.9336 15.7871L36.7441 19.6895H39.1465L37.9629 15.7871H37.9336ZM48.2461 22.0391V23H43.2129V14.5449H44.2383V22.0391H48.2461ZM60.7324 23H59.7012V15.4941H57.1465V14.5449H63.2871V15.4941H60.7324V23ZM69.8613 23H65.4082V22.0801H67.1191V15.4648H65.4082V14.5449H69.8613V15.4648H68.1504V22.0801H69.8613V23ZM75.5684 23H74.5371V15.4941H71.9824V14.5449H78.123V15.4941H75.5684V23ZM85.3359 22.0391V23H80.3027V14.5449H81.3281V22.0391H85.3359ZM92.5195 22.0508V23H87.5273V14.5449H92.5195V15.4941H88.5645V18.2363H92.3027V19.1445H88.5645V22.0508H92.5195Z" fill="#EDE5C4"/>
<path d="M14.2793 60H13.2656V51.5449H14.2793V55.752H14.3555L17.7773 51.5449H18.9844L15.8555 55.2832L19.2891 60H18.0059L15.1582 56.0801L14.2793 57.123V60ZM20.5254 60V53.6426H21.4805V54.7617H21.5625C21.9023 53.9707 22.6289 53.5254 23.5957 53.5254C24.9785 53.5254 25.7285 54.3516 25.7285 55.875V60H24.7324V56.127C24.7324 54.9785 24.2637 54.4395 23.2734 54.4395C22.2246 54.4395 21.5215 55.1719 21.5215 56.2559V60H20.5254ZM30.5449 60.1172C28.8633 60.1172 27.791 59.0215 27.791 57.3047V56.3438C27.791 54.627 28.8633 53.5312 30.5449 53.5312C32.2266 53.5312 33.2988 54.627 33.2988 56.3438V57.3047C33.2988 59.0215 32.2266 60.1172 30.5449 60.1172ZM30.5449 54.4102C29.4551 54.4102 28.7754 55.1836 28.7754 56.4316V57.2109C28.7754 58.4648 29.4551 59.2324 30.5449 59.2324C31.6348 59.2324 32.3145 58.4648 32.3145 57.2109V56.4316C32.3145 55.1836 31.6348 54.4102 30.5449 54.4102ZM41.3965 53.6426L40.0312 60H39.0762L37.998 55.043H37.9277L36.8496 60H35.8945L34.5293 53.6426H35.502L36.3633 58.7402H36.4688L37.4941 53.6484H38.4316L39.457 58.7402H39.5625L40.4238 53.6426H41.3965ZM48.1582 60H42.8906V59.1738H45.0645V51.9727H42.9082V51.1465H46.0605V59.1738H48.1582V60ZM54.5156 58.3594H55.4824C55.2891 59.4082 54.2812 60.1172 52.9453 60.1172C51.1992 60.1172 50.1855 59.0684 50.1855 57.2578V56.3027C50.1855 54.627 51.2578 53.5254 52.875 53.5254C54.5273 53.5254 55.5 54.6211 55.5 56.4609V57.082H51.1699V57.3398C51.1699 58.5059 51.8613 59.2559 52.9453 59.2559C53.748 59.2559 54.3398 58.916 54.5156 58.3594ZM52.8691 54.3809C51.8086 54.3809 51.1699 55.1074 51.1699 56.3262H54.5156C54.5156 55.1133 53.8945 54.3809 52.8691 54.3809ZM59.8184 60.1055C58.3477 60.1055 57.3867 59.0449 57.3867 57.4102V56.2266C57.3867 54.5977 58.3477 53.5371 59.8184 53.5371C60.7383 53.5371 61.418 53.9297 61.6934 54.627H61.7988V51.1465H62.8125V60H61.834V59.0273H61.7227C61.3945 59.7305 60.7266 60.1055 59.8184 60.1055ZM60.1113 59.1973C61.1543 59.1973 61.8281 58.4473 61.8281 57.2695V56.3555C61.8281 55.1836 61.1543 54.4336 60.1113 54.4336C59.0625 54.4336 58.3887 55.1836 58.3887 56.3555V57.2695C58.3887 58.4414 59.0625 59.1973 60.1113 59.1973ZM67.4473 62.3848C65.9766 62.3848 64.9922 61.7402 64.8633 60.6855H65.8477C65.9766 61.2129 66.6152 61.5586 67.4648 61.5586C68.5781 61.5586 69.1934 60.9961 69.1934 59.9766V58.9863H69.0879C68.8066 59.6543 68.1035 60.0586 67.1777 60.0586C65.707 60.0586 64.7402 58.998 64.7402 57.3691V56.2266C64.7402 54.5918 65.7129 53.5371 67.2012 53.5371C68.1211 53.5371 68.8184 53.9414 69.0938 54.627H69.2051V53.6426H70.1895V60C70.1895 61.4941 69.1699 62.3848 67.4473 62.3848ZM65.7422 57.2285C65.7422 58.3945 66.4219 59.1562 67.4766 59.1562C68.5254 59.1562 69.1992 58.4004 69.1992 57.2285V56.3555C69.1992 55.1836 68.5254 54.4336 67.4766 54.4336C66.4219 54.4336 65.7422 55.1895 65.7422 56.3555V57.2285ZM76.7695 58.3594H77.7363C77.543 59.4082 76.5352 60.1172 75.1992 60.1172C73.4531 60.1172 72.4395 59.0684 72.4395 57.2578V56.3027C72.4395 54.627 73.5117 53.5254 75.1289 53.5254C76.7812 53.5254 77.7539 54.6211 77.7539 56.4609V57.082H73.4238V57.3398C73.4238 58.5059 74.1152 59.2559 75.1992 59.2559C76.002 59.2559 76.5938 58.916 76.7695 58.3594ZM75.123 54.3809C74.0625 54.3809 73.4238 55.1074 73.4238 56.3262H76.7695C76.7695 55.1133 76.1484 54.3809 75.123 54.3809ZM93.3223 53.6426L91.957 60H91.002L89.9238 55.043H89.8535L88.7754 60H87.8203L86.4551 53.6426H87.4277L88.2891 58.7402H88.3945L89.4199 53.6484H90.3574L91.3828 58.7402H91.4883L92.3496 53.6426H93.3223ZM97.3066 60.1172C95.625 60.1172 94.5527 59.0215 94.5527 57.3047V56.3438C94.5527 54.627 95.625 53.5312 97.3066 53.5312C98.9883 53.5312 100.061 54.627 100.061 56.3438V57.3047C100.061 59.0215 98.9883 60.1172 97.3066 60.1172ZM97.3066 54.4102C96.2168 54.4102 95.5371 55.1836 95.5371 56.4316V57.2109C95.5371 58.4648 96.2168 59.2324 97.3066 59.2324C98.3965 59.2324 99.0762 58.4648 99.0762 57.2109V56.4316C99.0762 55.1836 98.3965 54.4102 97.3066 54.4102ZM104.473 57.1523V59.2031H106.441V60H102.217V59.2031H103.5V54.4395H102.088V53.6426H104.461V55.2656H104.59C104.824 54.0879 105.615 53.4785 106.84 53.4785C107.203 53.4785 107.549 53.5312 107.76 53.6191V54.7383C107.467 54.6328 107.057 54.5625 106.711 54.5625C105.305 54.5625 104.473 55.5352 104.473 57.1523ZM111.082 56.4961L113.854 53.6426H115.061L112.594 56.1621L115.236 60H114.053L111.885 56.8418L111.006 57.6855V60H110.01V51.1465H111.006V56.4961H111.082ZM127.09 52.084C126.621 52.084 126.264 51.7324 126.264 51.2637C126.264 50.8008 126.621 50.4492 127.09 50.4492C127.559 50.4492 127.916 50.8008 127.916 51.2637C127.916 51.7324 127.559 52.084 127.09 52.084ZM129.756 60H124.488V59.1738H126.668V54.4688H124.506V53.6426H127.652V59.1738H129.756V60ZM132.082 55.3594C132.082 54.2578 133.02 53.5195 134.42 53.5195C135.744 53.5195 136.641 54.1816 136.758 55.2422H135.797C135.68 54.6855 135.146 54.3457 134.402 54.3457C133.594 54.3457 133.072 54.7207 133.072 55.3008C133.072 55.7871 133.4 56.0625 134.197 56.2383L135.094 56.4434C136.33 56.7246 136.893 57.2637 136.893 58.1836C136.893 59.3555 135.914 60.1172 134.408 60.1172C132.967 60.1172 132.012 59.4434 131.9 58.3535H132.914C133.061 58.9395 133.623 59.2793 134.443 59.2793C135.311 59.2793 135.861 58.8867 135.861 58.2773C135.861 57.7734 135.551 57.5039 134.742 57.3223L133.799 57.1055C132.65 56.8418 132.082 56.2617 132.082 55.3594ZM146.918 55.3594C146.918 54.2578 147.855 53.5195 149.256 53.5195C150.58 53.5195 151.477 54.1816 151.594 55.2422H150.633C150.516 54.6855 149.982 54.3457 149.238 54.3457C148.43 54.3457 147.908 54.7207 147.908 55.3008C147.908 55.7871 148.236 56.0625 149.033 56.2383L149.93 56.4434C151.166 56.7246 151.729 57.2637 151.729 58.1836C151.729 59.3555 150.75 60.1172 149.244 60.1172C147.803 60.1172 146.848 59.4434 146.736 58.3535H147.75C147.896 58.9395 148.459 59.2793 149.279 59.2793C150.146 59.2793 150.697 58.8867 150.697 58.2773C150.697 57.7734 150.387 57.5039 149.578 57.3223L148.635 57.1055C147.486 56.8418 146.918 56.2617 146.918 55.3594ZM154.043 60V51.1465H155.004V54.7676H155.086C155.42 53.9766 156.152 53.5312 157.125 53.5312C158.508 53.5312 159.258 54.3633 159.258 55.8809V60H158.262V56.1328C158.262 54.9902 157.793 54.4453 156.797 54.4453C155.748 54.4453 155.039 55.1777 155.039 56.2617V60H154.043ZM164.18 52.084C163.711 52.084 163.354 51.7324 163.354 51.2637C163.354 50.8008 163.711 50.4492 164.18 50.4492C164.648 50.4492 165.006 50.8008 165.006 51.2637C165.006 51.7324 164.648 52.084 164.18 52.084ZM166.846 60H161.578V59.1738H163.758V54.4688H161.596V53.6426H164.742V59.1738H166.846V60ZM170.549 60V54.5098H168.844V53.6602H170.549V53.0215C170.549 51.791 171.311 51.2168 172.875 51.2168C173.244 51.2168 174.129 51.2461 174.34 51.2754V52.0898C174.064 52.0605 173.244 52.0371 172.887 52.0371C172.002 52.0371 171.533 52.3652 171.533 53.0039V53.6602H174.34V54.5098H171.545V60H170.549ZM177.82 51.9375H178.805V53.6602H181.383V54.5098H178.816V58.0957C178.816 58.7871 179.303 59.1621 180.199 59.1621C180.557 59.1621 181.195 59.1445 181.365 59.127V59.9707C181.207 60 180.434 60.0293 180.129 60.0293C178.553 60.0293 177.82 59.4316 177.82 58.1074V54.5098H176.127V53.6602H177.82V51.9375ZM186.434 52.084C185.965 52.084 185.607 51.7324 185.607 51.2637C185.607 50.8008 185.965 50.4492 186.434 50.4492C186.902 50.4492 187.26 50.8008 187.26 51.2637C187.26 51.7324 186.902 52.084 186.434 52.084ZM189.1 60H183.832V59.1738H186.012V54.4688H183.85V53.6426H186.996V59.1738H189.1V60ZM191.139 60V53.6426H192.094V54.7617H192.176C192.516 53.9707 193.242 53.5254 194.209 53.5254C195.592 53.5254 196.342 54.3516 196.342 55.875V60H195.346V56.127C195.346 54.9785 194.877 54.4395 193.887 54.4395C192.838 54.4395 192.135 55.1719 192.135 56.2559V60H191.139ZM200.971 62.3848C199.5 62.3848 198.516 61.7402 198.387 60.6855H199.371C199.5 61.2129 200.139 61.5586 200.988 61.5586C202.102 61.5586 202.717 60.9961 202.717 59.9766V58.9863H202.611C202.33 59.6543 201.627 60.0586 200.701 60.0586C199.23 60.0586 198.264 58.998 198.264 57.3691V56.2266C198.264 54.5918 199.236 53.5371 200.725 53.5371C201.645 53.5371 202.342 53.9414 202.617 54.627H202.729V53.6426H203.713V60C203.713 61.4941 202.693 62.3848 200.971 62.3848ZM199.266 57.2285C199.266 58.3945 199.945 59.1562 201 59.1562C202.049 59.1562 202.723 58.4004 202.723 57.2285V56.3555C202.723 55.1836 202.049 54.4336 201 54.4336C199.945 54.4336 199.266 55.1895 199.266 56.3555V57.2285ZM215.057 60V54.5098H213.352V53.6602H215.057V53.0215C215.057 51.791 215.818 51.2168 217.383 51.2168C217.752 51.2168 218.637 51.2461 218.848 51.2754V52.0898C218.572 52.0605 217.752 52.0371 217.395 52.0371C216.51 52.0371 216.041 52.3652 216.041 53.0039V53.6602H218.848V54.5098H216.053V60H215.057ZM223.16 57.1523V59.2031H225.129V60H220.904V59.2031H222.188V54.4395H220.775V53.6426H223.148V55.2656H223.277C223.512 54.0879 224.303 53.4785 225.527 53.4785C225.891 53.4785 226.236 53.5312 226.447 53.6191V54.7383C226.154 54.6328 225.744 54.5625 225.398 54.5625C223.992 54.5625 223.16 55.5352 223.16 57.1523ZM230.83 60.1172C229.148 60.1172 228.076 59.0215 228.076 57.3047V56.3438C228.076 54.627 229.148 53.5312 230.83 53.5312C232.512 53.5312 233.584 54.627 233.584 56.3438V57.3047C233.584 59.0215 232.512 60.1172 230.83 60.1172ZM230.83 54.4102C229.74 54.4102 229.061 55.1836 229.061 56.4316V57.2109C229.061 58.4648 229.74 59.2324 230.83 59.2324C231.92 59.2324 232.6 58.4648 232.6 57.2109V56.4316C232.6 55.1836 231.92 54.4102 230.83 54.4102ZM241.312 55.3184V60H240.416V55.6113C240.416 54.8379 240.135 54.4336 239.602 54.4336C239.045 54.4336 238.705 54.9199 238.705 55.7109V60H237.814V55.6055C237.814 54.8379 237.533 54.4336 236.994 54.4336C236.432 54.4336 236.08 54.9199 236.08 55.7109V60H235.184V53.6426H236.074V54.5391H236.18C236.338 53.9004 236.795 53.5254 237.393 53.5254C237.99 53.5254 238.412 53.8945 238.547 54.5215H238.652C238.816 53.9121 239.326 53.5254 239.965 53.5254C240.85 53.5254 241.312 54.1406 241.312 55.3184ZM15.8203 72.084C15.3516 72.084 14.9941 71.7324 14.9941 71.2637C14.9941 70.8008 15.3516 70.4492 15.8203 70.4492C16.2891 70.4492 16.6465 70.8008 16.6465 71.2637C16.6465 71.7324 16.2891 72.084 15.8203 72.084ZM18.4863 80H13.2188V79.1738H15.3984V74.4688H13.2363V73.6426H16.3828V79.1738H18.4863V80ZM26.1914 75.3184V80H25.2949V75.6113C25.2949 74.8379 25.0137 74.4336 24.4805 74.4336C23.9238 74.4336 23.584 74.9199 23.584 75.7109V80H22.6934V75.6055C22.6934 74.8379 22.4121 74.4336 21.873 74.4336C21.3105 74.4336 20.959 74.9199 20.959 75.7109V80H20.0625V73.6426H20.9531V74.5391H21.0586C21.2168 73.9004 21.6738 73.5254 22.2715 73.5254C22.8691 73.5254 23.291 73.8945 23.4258 74.5215H23.5312C23.6953 73.9121 24.2051 73.5254 24.8438 73.5254C25.7285 73.5254 26.1914 74.1406 26.1914 75.3184ZM30.9434 73.5371C32.4141 73.5371 33.375 74.5977 33.375 76.2324V77.416C33.375 79.0449 32.4141 80.1055 30.9434 80.1055C30.0234 80.1055 29.3496 79.7129 29.0742 79.0156H28.9629V82.1445H27.9492V73.6426H28.9336V74.6152H29.0391C29.373 73.9121 30.0352 73.5371 30.9434 73.5371ZM30.6562 74.4512C29.6074 74.4512 28.9395 75.2012 28.9395 76.373V77.2871C28.9395 78.4648 29.6074 79.2148 30.6562 79.2148C31.7051 79.2148 32.373 78.459 32.373 77.2871V76.373C32.373 75.2012 31.7051 74.4512 30.6562 74.4512ZM39.6797 78.3594H40.6465C40.4531 79.4082 39.4453 80.1172 38.1094 80.1172C36.3633 80.1172 35.3496 79.0684 35.3496 77.2578V76.3027C35.3496 74.627 36.4219 73.5254 38.0391 73.5254C39.6914 73.5254 40.6641 74.6211 40.6641 76.4609V77.082H36.334V77.3398C36.334 78.5059 37.0254 79.2559 38.1094 79.2559C38.9121 79.2559 39.5039 78.916 39.6797 78.3594ZM38.0332 74.3809C36.9727 74.3809 36.334 75.1074 36.334 76.3262H39.6797C39.6797 75.1133 39.0586 74.3809 38.0332 74.3809ZM45.1289 77.1523V79.2031H47.0977V80H42.873V79.2031H44.1562V74.4395H42.7441V73.6426H45.1172V75.2656H45.2461C45.4805 74.0879 46.2715 73.4785 47.4961 73.4785C47.8594 73.4785 48.2051 73.5312 48.416 73.6191V74.7383C48.123 74.6328 47.7129 74.5625 47.3672 74.5625C45.9609 74.5625 45.1289 75.5352 45.1289 77.1523ZM52.1543 80.1113C50.9414 80.1113 50.1328 79.3496 50.1328 78.1953C50.1328 77.0703 50.9414 76.4023 52.3887 76.3262L54.1348 76.2383V75.6641C54.1348 74.8672 53.6484 74.4277 52.7637 74.4277C52.0312 74.4277 51.5156 74.7383 51.3516 75.2832H50.373C50.4902 74.2637 51.4746 73.5664 52.7754 73.5664C54.2695 73.5664 55.125 74.3281 55.125 75.6523V80.0059H54.1758V79.0508H54.0762C53.7715 79.7305 53.0801 80.1113 52.1543 80.1113ZM52.4414 79.2383C53.4023 79.2383 54.1348 78.5996 54.1348 77.75V77L52.5 77.0762C51.6094 77.1172 51.1406 77.498 51.1406 78.1602C51.1406 78.8281 51.6387 79.2383 52.4414 79.2383ZM59.1328 71.9375H60.1172V73.6602H62.6953V74.5098H60.1289V78.0957C60.1289 78.7871 60.6152 79.1621 61.5117 79.1621C61.8691 79.1621 62.5078 79.1445 62.6777 79.127V79.9707C62.5195 80 61.7461 80.0293 61.4414 80.0293C59.8652 80.0293 59.1328 79.4316 59.1328 78.1074V74.5098H57.4395V73.6602H59.1328V71.9375ZM67.7461 72.084C67.2773 72.084 66.9199 71.7324 66.9199 71.2637C66.9199 70.8008 67.2773 70.4492 67.7461 70.4492C68.2148 70.4492 68.5723 70.8008 68.5723 71.2637C68.5723 71.7324 68.2148 72.084 67.7461 72.084ZM70.4121 80H65.1445V79.1738H67.3242V74.4688H65.1621V73.6426H68.3086V79.1738H70.4121V80ZM72.1816 73.6426H73.248L75.0234 78.9336H75.0996L76.8633 73.6426H77.9238L75.6035 80H74.5078L72.1816 73.6426ZM84.1875 78.3594H85.1543C84.9609 79.4082 83.9531 80.1172 82.6172 80.1172C80.8711 80.1172 79.8574 79.0684 79.8574 77.2578V76.3027C79.8574 74.627 80.9297 73.5254 82.5469 73.5254C84.1992 73.5254 85.1719 74.6211 85.1719 76.4609V77.082H80.8418V77.3398C80.8418 78.5059 81.5332 79.2559 82.6172 79.2559C83.4199 79.2559 84.0117 78.916 84.1875 78.3594ZM82.541 74.3809C81.4805 74.3809 80.8418 75.1074 80.8418 76.3262H84.1875C84.1875 75.1133 83.5664 74.3809 82.541 74.3809ZM100.084 80H94.8164V79.1738H96.9902V71.9727H94.834V71.1465H97.9863V79.1738H100.084V80ZM104.08 80.1113C102.867 80.1113 102.059 79.3496 102.059 78.1953C102.059 77.0703 102.867 76.4023 104.314 76.3262L106.061 76.2383V75.6641C106.061 74.8672 105.574 74.4277 104.689 74.4277C103.957 74.4277 103.441 74.7383 103.277 75.2832H102.299C102.416 74.2637 103.4 73.5664 104.701 73.5664C106.195 73.5664 107.051 74.3281 107.051 75.6523V80.0059H106.102V79.0508H106.002C105.697 79.7305 105.006 80.1113 104.08 80.1113ZM104.367 79.2383C105.328 79.2383 106.061 78.5996 106.061 77.75V77L104.426 77.0762C103.535 77.1172 103.066 77.498 103.066 78.1602C103.066 78.8281 103.564 79.2383 104.367 79.2383ZM112.541 80.1055C111.633 80.1055 110.965 79.7305 110.637 79.0273H110.525V80H109.547V71.1465H110.561V74.627H110.666C110.947 73.9297 111.621 73.5371 112.541 73.5371C114.012 73.5371 114.973 74.5977 114.973 76.2266V77.4102C114.973 79.0449 114.012 80.1055 112.541 80.1055ZM112.248 79.1973C113.303 79.1973 113.971 78.4414 113.971 77.2695V76.3555C113.971 75.1836 113.303 74.4336 112.248 74.4336C111.205 74.4336 110.537 75.1836 110.537 76.3555V77.2695C110.537 78.4473 111.205 79.1973 112.248 79.1973ZM119.561 80.1172C117.879 80.1172 116.807 79.0215 116.807 77.3047V76.3438C116.807 74.627 117.879 73.5312 119.561 73.5312C121.242 73.5312 122.314 74.627 122.314 76.3438V77.3047C122.314 79.0215 121.242 80.1172 119.561 80.1172ZM119.561 74.4102C118.471 74.4102 117.791 75.1836 117.791 76.4316V77.2109C117.791 78.4648 118.471 79.2324 119.561 79.2324C120.65 79.2324 121.33 78.4648 121.33 77.2109V76.4316C121.33 75.1836 120.65 74.4102 119.561 74.4102ZM126.727 77.1523V79.2031H128.695V80H124.471V79.2031H125.754V74.4395H124.342V73.6426H126.715V75.2656H126.844C127.078 74.0879 127.869 73.4785 129.094 73.4785C129.457 73.4785 129.803 73.5312 130.014 73.6191V74.7383C129.721 74.6328 129.311 74.5625 128.965 74.5625C127.559 74.5625 126.727 75.5352 126.727 77.1523ZM140.73 71.9375H141.715V73.6602H144.293V74.5098H141.727V78.0957C141.727 78.7871 142.213 79.1621 143.109 79.1621C143.467 79.1621 144.105 79.1445 144.275 79.127V79.9707C144.117 80 143.344 80.0293 143.039 80.0293C141.463 80.0293 140.73 79.4316 140.73 78.1074V74.5098H139.037V73.6602H140.73V71.9375ZM149.232 80.1172C147.551 80.1172 146.479 79.0215 146.479 77.3047V76.3438C146.479 74.627 147.551 73.5312 149.232 73.5312C150.914 73.5312 151.986 74.627 151.986 76.3438V77.3047C151.986 79.0215 150.914 80.1172 149.232 80.1172ZM149.232 74.4102C148.143 74.4102 147.463 75.1836 147.463 76.4316V77.2109C147.463 78.4648 148.143 79.2324 149.232 79.2324C150.322 79.2324 151.002 78.4648 151.002 77.2109V76.4316C151.002 75.1836 150.322 74.4102 149.232 74.4102ZM163.67 80.1055C162.199 80.1055 161.238 79.0449 161.238 77.4102V76.2266C161.238 74.5977 162.199 73.5371 163.67 73.5371C164.59 73.5371 165.27 73.9297 165.545 74.627H165.65V71.1465H166.664V80H165.686V79.0273H165.574C165.246 79.7305 164.578 80.1055 163.67 80.1055ZM163.963 79.1973C165.006 79.1973 165.68 78.4473 165.68 77.2695V76.3555C165.68 75.1836 165.006 74.4336 163.963 74.4336C162.914 74.4336 162.24 75.1836 162.24 76.3555V77.2695C162.24 78.4414 162.914 79.1973 163.963 79.1973ZM173.203 78.3594H174.17C173.977 79.4082 172.969 80.1172 171.633 80.1172C169.887 80.1172 168.873 79.0684 168.873 77.2578V76.3027C168.873 74.627 169.945 73.5254 171.562 73.5254C173.215 73.5254 174.188 74.6211 174.188 76.4609V77.082H169.857V77.3398C169.857 78.5059 170.549 79.2559 171.633 79.2559C172.436 79.2559 173.027 78.916 173.203 78.3594ZM171.557 74.3809C170.496 74.3809 169.857 75.1074 169.857 76.3262H173.203C173.203 75.1133 172.582 74.3809 171.557 74.3809ZM181.553 75.623H180.568C180.445 74.8789 179.824 74.4102 179.004 74.4102C177.896 74.4102 177.281 75.166 177.281 76.5312V77.1055C177.281 78.4707 177.896 79.2207 179.004 79.2207C179.824 79.2207 180.445 78.7578 180.568 78.0312H181.553C181.395 79.3262 180.428 80.1172 179.021 80.1172C177.293 80.1172 176.285 79.0566 176.285 77.2344V76.4023C176.285 74.5801 177.293 73.5195 179.021 73.5195C180.428 73.5195 181.389 74.3164 181.553 75.623ZM189.1 80H183.832V79.1738H186.006V71.9727H183.85V71.1465H187.002V79.1738H189.1V80ZM193.096 80.1113C191.883 80.1113 191.074 79.3496 191.074 78.1953C191.074 77.0703 191.883 76.4023 193.33 76.3262L195.076 76.2383V75.6641C195.076 74.8672 194.59 74.4277 193.705 74.4277C192.973 74.4277 192.457 74.7383 192.293 75.2832H191.314C191.432 74.2637 192.416 73.5664 193.717 73.5664C195.211 73.5664 196.066 74.3281 196.066 75.6523V80.0059H195.117V79.0508H195.018C194.713 79.7305 194.021 80.1113 193.096 80.1113ZM193.383 79.2383C194.344 79.2383 195.076 78.5996 195.076 77.75V77L193.441 77.0762C192.551 77.1172 192.082 77.498 192.082 78.1602C192.082 78.8281 192.58 79.2383 193.383 79.2383ZM200.906 77.1523V79.2031H202.875V80H198.65V79.2031H199.934V74.4395H198.521V73.6426H200.895V75.2656H201.023C201.258 74.0879 202.049 73.4785 203.273 73.4785C203.637 73.4785 203.982 73.5312 204.193 73.6191V74.7383C203.9 74.6328 203.49 74.5625 203.145 74.5625C201.738 74.5625 200.906 75.5352 200.906 77.1523ZM207.932 80.1113C206.719 80.1113 205.91 79.3496 205.91 78.1953C205.91 77.0703 206.719 76.4023 208.166 76.3262L209.912 76.2383V75.6641C209.912 74.8672 209.426 74.4277 208.541 74.4277C207.809 74.4277 207.293 74.7383 207.129 75.2832H206.15C206.268 74.2637 207.252 73.5664 208.553 73.5664C210.047 73.5664 210.902 74.3281 210.902 75.6523V80.0059H209.953V79.0508H209.854C209.549 79.7305 208.857 80.1113 207.932 80.1113ZM208.219 79.2383C209.18 79.2383 209.912 78.5996 209.912 77.75V77L208.277 77.0762C207.387 77.1172 206.918 77.498 206.918 78.1602C206.918 78.8281 207.416 79.2383 208.219 79.2383ZM214.91 71.9375H215.895V73.6602H218.473V74.5098H215.906V78.0957C215.906 78.7871 216.393 79.1621 217.289 79.1621C217.646 79.1621 218.285 79.1445 218.455 79.127V79.9707C218.297 80 217.523 80.0293 217.219 80.0293C215.643 80.0293 214.91 79.4316 214.91 78.1074V74.5098H213.217V73.6602H214.91V71.9375ZM223.523 72.084C223.055 72.084 222.697 71.7324 222.697 71.2637C222.697 70.8008 223.055 70.4492 223.523 70.4492C223.992 70.4492 224.35 70.8008 224.35 71.2637C224.35 71.7324 223.992 72.084 223.523 72.084ZM226.189 80H220.922V79.1738H223.102V74.4688H220.939V73.6426H224.086V79.1738H226.189V80ZM227.959 73.6426H229.025L230.801 78.9336H230.877L232.641 73.6426H233.701L231.381 80H230.285L227.959 73.6426ZM239.965 78.3594H240.932C240.738 79.4082 239.73 80.1172 238.395 80.1172C236.648 80.1172 235.635 79.0684 235.635 77.2578V76.3027C235.635 74.627 236.707 73.5254 238.324 73.5254C239.977 73.5254 240.949 74.6211 240.949 76.4609V77.082H236.619V77.3398C236.619 78.5059 237.311 79.2559 238.395 79.2559C239.197 79.2559 239.789 78.916 239.965 78.3594ZM238.318 74.3809C237.258 74.3809 236.619 75.1074 236.619 76.3262H239.965C239.965 75.1133 239.344 74.3809 238.318 74.3809ZM15.3105 100.105C13.8398 100.105 12.8789 99.0449 12.8789 97.4102V96.2266C12.8789 94.5977 13.8398 93.5371 15.3105 93.5371C16.2305 93.5371 16.9102 93.9297 17.1855 94.627H17.291V91.1465H18.3047V100H17.3262V99.0273H17.2148C16.8867 99.7305 16.2188 100.105 15.3105 100.105ZM15.6035 99.1973C16.6465 99.1973 17.3203 98.4473 17.3203 97.2695V96.3555C17.3203 95.1836 16.6465 94.4336 15.6035 94.4336C14.5547 94.4336 13.8809 95.1836 13.8809 96.3555V97.2695C13.8809 98.4414 14.5547 99.1973 15.6035 99.1973ZM23.2383 92.084C22.7695 92.084 22.4121 91.7324 22.4121 91.2637C22.4121 90.8008 22.7695 90.4492 23.2383 90.4492C23.707 90.4492 24.0645 90.8008 24.0645 91.2637C24.0645 91.7324 23.707 92.084 23.2383 92.084ZM25.9043 100H20.6367V99.1738H22.8164V94.4688H20.6543V93.6426H23.8008V99.1738H25.9043V100ZM29.9004 100.111C28.6875 100.111 27.8789 99.3496 27.8789 98.1953C27.8789 97.0703 28.6875 96.4023 30.1348 96.3262L31.8809 96.2383V95.6641C31.8809 94.8672 31.3945 94.4277 30.5098 94.4277C29.7773 94.4277 29.2617 94.7383 29.0977 95.2832H28.1191C28.2363 94.2637 29.2207 93.5664 30.5215 93.5664C32.0156 93.5664 32.8711 94.3281 32.8711 95.6523V100.006H31.9219V99.0508H31.8223C31.5176 99.7305 30.8262 100.111 29.9004 100.111ZM30.1875 99.2383C31.1484 99.2383 31.8809 98.5996 31.8809 97.75V97L30.2461 97.0762C29.3555 97.1172 28.8867 97.498 28.8867 98.1602C28.8867 98.8281 29.3848 99.2383 30.1875 99.2383ZM40.7402 100H35.4727V99.1738H37.6465V91.9727H35.4902V91.1465H38.6426V99.1738H40.7402V100ZM45.3809 100.117C43.6992 100.117 42.627 99.0215 42.627 97.3047V96.3438C42.627 94.627 43.6992 93.5312 45.3809 93.5312C47.0625 93.5312 48.1348 94.627 48.1348 96.3438V97.3047C48.1348 99.0215 47.0625 100.117 45.3809 100.117ZM45.3809 94.4102C44.291 94.4102 43.6113 95.1836 43.6113 96.4316V97.2109C43.6113 98.4648 44.291 99.2324 45.3809 99.2324C46.4707 99.2324 47.1504 98.4648 47.1504 97.2109V96.4316C47.1504 95.1836 46.4707 94.4102 45.3809 94.4102ZM52.6113 102.385C51.1406 102.385 50.1562 101.74 50.0273 100.686H51.0117C51.1406 101.213 51.7793 101.559 52.6289 101.559C53.7422 101.559 54.3574 100.996 54.3574 99.9766V98.9863H54.252C53.9707 99.6543 53.2676 100.059 52.3418 100.059C50.8711 100.059 49.9043 98.998 49.9043 97.3691V96.2266C49.9043 94.5918 50.877 93.5371 52.3652 93.5371C53.2852 93.5371 53.9824 93.9414 54.2578 94.627H54.3691V93.6426H55.3535V100C55.3535 101.494 54.334 102.385 52.6113 102.385ZM50.9062 97.2285C50.9062 98.3945 51.5859 99.1562 52.6406 99.1562C53.6895 99.1562 54.3633 98.4004 54.3633 97.2285V96.3555C54.3633 95.1836 53.6895 94.4336 52.6406 94.4336C51.5859 94.4336 50.9062 95.1895 50.9062 96.3555V97.2285ZM62.8184 93.6426V100H61.8633V98.8809H61.7812C61.4414 99.6719 60.7148 100.117 59.748 100.117C58.3652 100.117 57.6152 99.291 57.6152 97.7676V93.6426H58.6113V97.5156C58.6113 98.6641 59.0801 99.2031 60.0703 99.2031C61.1191 99.2031 61.8223 98.4707 61.8223 97.3867V93.6426H62.8184ZM69.3516 98.3594H70.3184C70.125 99.4082 69.1172 100.117 67.7812 100.117C66.0352 100.117 65.0215 99.0684 65.0215 97.2578V96.3027C65.0215 94.627 66.0938 93.5254 67.7109 93.5254C69.3633 93.5254 70.3359 94.6211 70.3359 96.4609V97.082H66.0059V97.3398C66.0059 98.5059 66.6973 99.2559 67.7812 99.2559C68.584 99.2559 69.1758 98.916 69.3516 98.3594ZM67.7051 94.3809C66.6445 94.3809 66.0059 95.1074 66.0059 96.3262H69.3516C69.3516 95.1133 68.7305 94.3809 67.7051 94.3809Z" fill="#EDE5C4"/>
<rect x="133.5" y="116.5" width="64" height="25" rx="3.5" stroke="#353535"/>
<path d="M149.574 132.039V133H144.541V124.545H145.566V132.039H149.574ZM157.227 129.455C157.227 131.793 156.049 133.176 154.127 133.176C152.205 133.176 151.027 131.793 151.027 129.455V128.09C151.027 125.752 152.205 124.369 154.127 124.369C156.049 124.369 157.227 125.752 157.227 128.09V129.455ZM154.127 132.197C155.41 132.197 156.184 131.213 156.184 129.449V128.096C156.184 126.332 155.41 125.348 154.127 125.348C152.844 125.348 152.07 126.332 152.07 128.096V129.449C152.07 131.213 152.844 132.197 154.127 132.197ZM163.555 130.41V129.584H161.604V128.699H164.598V130.498C164.598 132.086 163.402 133.176 161.697 133.176C159.711 133.176 158.562 131.84 158.562 129.525V128.02C158.562 125.705 159.711 124.369 161.697 124.369C163.455 124.369 164.557 125.441 164.598 127.193H163.555C163.508 126.092 162.758 125.348 161.68 125.348C160.314 125.348 159.605 126.268 159.605 128.02V129.525C159.605 131.277 160.32 132.197 161.686 132.197C162.84 132.197 163.555 131.518 163.555 130.41ZM178.607 133H174.154V132.08H175.865V125.465H174.154V124.545H178.607V125.465H176.896V132.08H178.607V133ZM181.918 133H180.986V124.545H181.977L185.598 131.125H185.68V124.545H186.611V133H185.633L182 126.402H181.918V133Z" fill="#EDE5C4"/>
<rect x="206" y="116" width="65" height="26" rx="4" fill="#EDE5C4"/>
<path d="M222.574 132.039V133H217.541V124.545H218.566V132.039H222.574ZM230.227 129.455C230.227 131.793 229.049 133.176 227.127 133.176C225.205 133.176 224.027 131.793 224.027 129.455V128.09C224.027 125.752 225.205 124.369 227.127 124.369C229.049 124.369 230.227 125.752 230.227 128.09V129.455ZM227.127 132.197C228.41 132.197 229.184 131.213 229.184 129.449V128.096C229.184 126.332 228.41 125.348 227.127 125.348C225.844 125.348 225.07 126.332 225.07 128.096V129.449C225.07 131.213 225.844 132.197 227.127 132.197ZM236.555 130.41V129.584H234.604V128.699H237.598V130.498C237.598 132.086 236.402 133.176 234.697 133.176C232.711 133.176 231.562 131.84 231.562 129.525V128.02C231.562 125.705 232.711 124.369 234.697 124.369C236.455 124.369 237.557 125.441 237.598 127.193H236.555C236.508 126.092 235.758 125.348 234.68 125.348C233.314 125.348 232.605 126.268 232.605 128.02V129.525C232.605 131.277 233.32 132.197 234.686 132.197C235.84 132.197 236.555 131.518 236.555 130.41ZM251.607 133H247.154V132.08H248.865V125.465H247.154V124.545H251.607V125.465H249.896V132.08H251.607V133ZM254.918 133H253.986V124.545H254.977L258.598 131.125H258.68V124.545H259.611V133H258.633L255 126.402H254.918V133Z" fill="black"/>
</svg>
