<svg width="299" height="14" viewBox="0 0 299 14" fill="none" xmlns="http://www.w3.org/2000/svg">
<path d="M4.22461 11H3.19336V3.49414H0.638672V2.54492H6.7793V3.49414H4.22461V11ZM11.4492 7.63086H9.50391V11H8.48438V2.54492H11.3203C12.9961 2.54492 14.0449 3.51758 14.0449 5.08789C14.0449 6.19531 13.4297 7.10352 12.4688 7.41992L14.1914 11H13.0254L11.4492 7.63086ZM9.50391 3.46484V6.75781H11.1797C12.3457 6.75781 13.002 6.16602 13.002 5.11133C13.002 4.0625 12.3574 3.46484 11.2266 3.46484H9.50391ZM20.7305 11L19.998 8.57422H17.0566L16.3184 11H15.2695L17.9941 2.54492H19.0957L21.8203 11H20.7305ZM18.5156 3.78711L17.3262 7.68945H19.7285L18.5449 3.78711H18.5156ZM24.082 11H23.1504V2.54492H24.1406L27.7617 9.125H27.8438V2.54492H28.7754V11H27.7969L24.1641 4.40234H24.082V11ZM30.4863 8.75H31.4941C31.5996 9.67578 32.3438 10.2383 33.4688 10.2383C34.5938 10.2383 35.332 9.65234 35.332 8.74414C35.332 8.01172 34.8398 7.57227 33.6973 7.29102L32.9707 7.10938C31.4004 6.71094 30.6914 5.9668 30.6914 4.74219C30.6914 3.30078 31.7754 2.36914 33.4629 2.36914C35.0566 2.36914 36.1523 3.28906 36.2227 4.69531H35.2148C35.1094 3.82227 34.4648 3.30664 33.4688 3.30664C32.3848 3.30664 31.7344 3.82227 31.7344 4.68359C31.7344 5.41602 32.2031 5.83789 33.3047 6.11328L34.043 6.30078C35.6836 6.70508 36.375 7.41992 36.375 8.69141C36.375 10.209 35.2324 11.1758 33.4629 11.1758C31.7168 11.1758 30.5742 10.25 30.4863 8.75ZM39.6152 11H38.5781V2.54492H43.5645V3.49414H39.6152V6.39453H43.2246V7.31445H39.6152V11ZM50.8477 10.0508V11H45.8555V2.54492H50.8477V3.49414H46.8926V6.23633H50.6309V7.14453H46.8926V10.0508H50.8477ZM55.957 7.63086H54.0117V11H52.9922V2.54492H55.8281C57.5039 2.54492 58.5527 3.51758 58.5527 5.08789C58.5527 6.19531 57.9375 7.10352 56.9766 7.41992L58.6992 11H57.5332L55.957 7.63086ZM54.0117 3.46484V6.75781H55.6875C56.8535 6.75781 57.5098 6.16602 57.5098 5.11133C57.5098 4.0625 56.8652 3.46484 55.7344 3.46484H54.0117Z" fill="#A59A86"/>
<path d="M64 13.7188V1.71875H71.418V13.7188H64ZM71.418 13.7188V1.71875H78.8359V13.7188H71.418ZM78.8359 13.7188V1.71875H86.2539V13.7188H78.8359ZM86.2539 13.7188V1.71875H93.6719V13.7188H86.2539ZM93.6719 13.7188V1.71875H101.09V13.7188H93.6719ZM101.09 13.7188V1.71875H108.508V13.7188H101.09ZM108.508 13.7188V1.71875H115.926V13.7188H108.508ZM115.926 13.7188V1.71875H123.344V13.7188H115.926ZM123.344 13.7188V1.71875H130.762V13.7188H123.344ZM130.762 13.7188V1.71875H138.18V13.7188H130.762ZM138.18 13.7188V1.71875H145.598V13.7188H138.18ZM145.598 13.7188V1.71875H153.016V13.7188H145.598ZM153.016 13.7188V1.71875H160.434V13.7188H153.016ZM167.852 1.8418V2.45703H167.23V1.8418H167.852ZM165.379 1.8418V2.45703H164.764V1.8418H165.379ZM162.906 1.8418V2.45703H162.285V1.8418H162.906ZM166.615 3.07227V3.69336H165.994V3.07227H166.615ZM164.143 3.07227V3.69336H163.527V3.07227H164.143ZM161.676 3.07227V3.69336H161.055V3.07227H161.676ZM162.906 4.30859V4.92969H162.285V4.30859H162.906ZM165.379 4.30859V4.92969H164.764V4.30859H165.379ZM167.852 4.30859V4.92969H167.23V4.30859H167.852ZM161.676 5.54492V6.16016H161.055V5.54492H161.676ZM164.143 5.54492V6.16016H163.527V5.54492H164.143ZM166.615 5.54492V6.16016H165.994V5.54492H166.615ZM167.852 6.78125V7.40234H167.23V6.78125H167.852ZM165.379 6.78125V7.40234H164.764V6.78125H165.379ZM162.906 6.78125V7.40234H162.285V6.78125H162.906ZM161.676 8.01758V8.63867H161.055V8.01758H161.676ZM164.143 8.01758V8.63867H163.527V8.01758H164.143ZM166.615 8.01758V8.63867H165.994V8.01758H166.615ZM167.852 9.24805V9.86914H167.23V9.24805H167.852ZM165.379 9.24805V9.86914H164.764V9.24805H165.379ZM162.906 9.24805V9.86914H162.285V9.24805H162.906ZM166.615 10.4902V11.1055H165.994V10.4902H166.615ZM164.143 10.4902V11.1055H163.527V10.4902H164.143ZM161.676 10.4902V11.1055H161.055V10.4902H161.676ZM162.906 11.7266V12.3418H162.285V11.7266H162.906ZM165.379 11.7266V12.3418H164.764V11.7266H165.379ZM167.852 11.7266V12.3418H167.23V11.7266H167.852ZM166.615 12.957V13.5781H165.994V12.957H166.615ZM164.143 12.957V13.5781H163.527V12.957H164.143ZM161.676 12.957V13.5781H161.055V12.957H161.676ZM175.27 1.8418V2.45703H174.648V1.8418H175.27ZM172.797 1.8418V2.45703H172.182V1.8418H172.797ZM170.324 1.8418V2.45703H169.703V1.8418H170.324ZM174.033 3.07227V3.69336H173.412V3.07227H174.033ZM171.561 3.07227V3.69336H170.945V3.07227H171.561ZM169.094 3.07227V3.69336H168.473V3.07227H169.094ZM170.324 4.30859V4.92969H169.703V4.30859H170.324ZM172.797 4.30859V4.92969H172.182V4.30859H172.797ZM175.27 4.30859V4.92969H174.648V4.30859H175.27ZM169.094 5.54492V6.16016H168.473V5.54492H169.094ZM171.561 5.54492V6.16016H170.945V5.54492H171.561ZM174.033 5.54492V6.16016H173.412V5.54492H174.033ZM175.27 6.78125V7.40234H174.648V6.78125H175.27ZM172.797 6.78125V7.40234H172.182V6.78125H172.797ZM170.324 6.78125V7.40234H169.703V6.78125H170.324ZM169.094 8.01758V8.63867H168.473V8.01758H169.094ZM171.561 8.01758V8.63867H170.945V8.01758H171.561ZM174.033 8.01758V8.63867H173.412V8.01758H174.033ZM175.27 9.24805V9.86914H174.648V9.24805H175.27ZM172.797 9.24805V9.86914H172.182V9.24805H172.797ZM170.324 9.24805V9.86914H169.703V9.24805H170.324ZM174.033 10.4902V11.1055H173.412V10.4902H174.033ZM171.561 10.4902V11.1055H170.945V10.4902H171.561ZM169.094 10.4902V11.1055H168.473V10.4902H169.094ZM170.324 11.7266V12.3418H169.703V11.7266H170.324ZM172.797 11.7266V12.3418H172.182V11.7266H172.797ZM175.27 11.7266V12.3418H174.648V11.7266H175.27ZM174.033 12.957V13.5781H173.412V12.957H174.033ZM171.561 12.957V13.5781H170.945V12.957H171.561ZM169.094 12.957V13.5781H168.473V12.957H169.094ZM182.688 1.8418V2.45703H182.066V1.8418H182.688ZM180.215 1.8418V2.45703H179.6V1.8418H180.215ZM177.742 1.8418V2.45703H177.121V1.8418H177.742ZM181.451 3.07227V3.69336H180.83V3.07227H181.451ZM178.979 3.07227V3.69336H178.363V3.07227H178.979ZM176.512 3.07227V3.69336H175.891V3.07227H176.512ZM177.742 4.30859V4.92969H177.121V4.30859H177.742ZM180.215 4.30859V4.92969H179.6V4.30859H180.215ZM182.688 4.30859V4.92969H182.066V4.30859H182.688ZM176.512 5.54492V6.16016H175.891V5.54492H176.512ZM178.979 5.54492V6.16016H178.363V5.54492H178.979ZM181.451 5.54492V6.16016H180.83V5.54492H181.451ZM182.688 6.78125V7.40234H182.066V6.78125H182.688ZM180.215 6.78125V7.40234H179.6V6.78125H180.215ZM177.742 6.78125V7.40234H177.121V6.78125H177.742ZM176.512 8.01758V8.63867H175.891V8.01758H176.512ZM178.979 8.01758V8.63867H178.363V8.01758H178.979ZM181.451 8.01758V8.63867H180.83V8.01758H181.451ZM182.688 9.24805V9.86914H182.066V9.24805H182.688ZM180.215 9.24805V9.86914H179.6V9.24805H180.215ZM177.742 9.24805V9.86914H177.121V9.24805H177.742ZM181.451 10.4902V11.1055H180.83V10.4902H181.451ZM178.979 10.4902V11.1055H178.363V10.4902H178.979ZM176.512 10.4902V11.1055H175.891V10.4902H176.512ZM177.742 11.7266V12.3418H177.121V11.7266H177.742ZM180.215 11.7266V12.3418H179.6V11.7266H180.215ZM182.688 11.7266V12.3418H182.066V11.7266H182.688ZM181.451 12.957V13.5781H180.83V12.957H181.451ZM178.979 12.957V13.5781H178.363V12.957H178.979ZM176.512 12.957V13.5781H175.891V12.957H176.512ZM190.105 1.8418V2.45703H189.484V1.8418H190.105ZM187.633 1.8418V2.45703H187.018V1.8418H187.633ZM185.16 1.8418V2.45703H184.539V1.8418H185.16ZM188.869 3.07227V3.69336H188.248V3.07227H188.869ZM186.396 3.07227V3.69336H185.781V3.07227H186.396ZM183.93 3.07227V3.69336H183.309V3.07227H183.93ZM185.16 4.30859V4.92969H184.539V4.30859H185.16ZM187.633 4.30859V4.92969H187.018V4.30859H187.633ZM190.105 4.30859V4.92969H189.484V4.30859H190.105ZM183.93 5.54492V6.16016H183.309V5.54492H183.93ZM186.396 5.54492V6.16016H185.781V5.54492H186.396ZM188.869 5.54492V6.16016H188.248V5.54492H188.869ZM190.105 6.78125V7.40234H189.484V6.78125H190.105ZM187.633 6.78125V7.40234H187.018V6.78125H187.633ZM185.16 6.78125V7.40234H184.539V6.78125H185.16ZM183.93 8.01758V8.63867H183.309V8.01758H183.93ZM186.396 8.01758V8.63867H185.781V8.01758H186.396ZM188.869 8.01758V8.63867H188.248V8.01758H188.869ZM190.105 9.24805V9.86914H189.484V9.24805H190.105ZM187.633 9.24805V9.86914H187.018V9.24805H187.633ZM185.16 9.24805V9.86914H184.539V9.24805H185.16ZM188.869 10.4902V11.1055H188.248V10.4902H188.869ZM186.396 10.4902V11.1055H185.781V10.4902H186.396ZM183.93 10.4902V11.1055H183.309V10.4902H183.93ZM185.16 11.7266V12.3418H184.539V11.7266H185.16ZM187.633 11.7266V12.3418H187.018V11.7266H187.633ZM190.105 11.7266V12.3418H189.484V11.7266H190.105ZM188.869 12.957V13.5781H188.248V12.957H188.869ZM186.396 12.957V13.5781H185.781V12.957H186.396ZM183.93 12.957V13.5781H183.309V12.957H183.93ZM197.523 1.8418V2.45703H196.902V1.8418H197.523ZM195.051 1.8418V2.45703H194.436V1.8418H195.051ZM192.578 1.8418V2.45703H191.957V1.8418H192.578ZM196.287 3.07227V3.69336H195.666V3.07227H196.287ZM193.814 3.07227V3.69336H193.199V3.07227H193.814ZM191.348 3.07227V3.69336H190.727V3.07227H191.348ZM192.578 4.30859V4.92969H191.957V4.30859H192.578ZM195.051 4.30859V4.92969H194.436V4.30859H195.051ZM197.523 4.30859V4.92969H196.902V4.30859H197.523ZM191.348 5.54492V6.16016H190.727V5.54492H191.348ZM193.814 5.54492V6.16016H193.199V5.54492H193.814ZM196.287 5.54492V6.16016H195.666V5.54492H196.287ZM197.523 6.78125V7.40234H196.902V6.78125H197.523ZM195.051 6.78125V7.40234H194.436V6.78125H195.051ZM192.578 6.78125V7.40234H191.957V6.78125H192.578ZM191.348 8.01758V8.63867H190.727V8.01758H191.348ZM193.814 8.01758V8.63867H193.199V8.01758H193.814ZM196.287 8.01758V8.63867H195.666V8.01758H196.287ZM197.523 9.24805V9.86914H196.902V9.24805H197.523ZM195.051 9.24805V9.86914H194.436V9.24805H195.051ZM192.578 9.24805V9.86914H191.957V9.24805H192.578ZM196.287 10.4902V11.1055H195.666V10.4902H196.287ZM193.814 10.4902V11.1055H193.199V10.4902H193.814ZM191.348 10.4902V11.1055H190.727V10.4902H191.348ZM192.578 11.7266V12.3418H191.957V11.7266H192.578ZM195.051 11.7266V12.3418H194.436V11.7266H195.051ZM197.523 11.7266V12.3418H196.902V11.7266H197.523ZM196.287 12.957V13.5781H195.666V12.957H196.287ZM193.814 12.957V13.5781H193.199V12.957H193.814ZM191.348 12.957V13.5781H190.727V12.957H191.348ZM204.941 1.8418V2.45703H204.32V1.8418H204.941ZM202.469 1.8418V2.45703H201.854V1.8418H202.469ZM199.996 1.8418V2.45703H199.375V1.8418H199.996ZM203.705 3.07227V3.69336H203.084V3.07227H203.705ZM201.232 3.07227V3.69336H200.617V3.07227H201.232ZM198.766 3.07227V3.69336H198.145V3.07227H198.766ZM199.996 4.30859V4.92969H199.375V4.30859H199.996ZM202.469 4.30859V4.92969H201.854V4.30859H202.469ZM204.941 4.30859V4.92969H204.32V4.30859H204.941ZM198.766 5.54492V6.16016H198.145V5.54492H198.766ZM201.232 5.54492V6.16016H200.617V5.54492H201.232ZM203.705 5.54492V6.16016H203.084V5.54492H203.705ZM204.941 6.78125V7.40234H204.32V6.78125H204.941ZM202.469 6.78125V7.40234H201.854V6.78125H202.469ZM199.996 6.78125V7.40234H199.375V6.78125H199.996ZM198.766 8.01758V8.63867H198.145V8.01758H198.766ZM201.232 8.01758V8.63867H200.617V8.01758H201.232ZM203.705 8.01758V8.63867H203.084V8.01758H203.705ZM204.941 9.24805V9.86914H204.32V9.24805H204.941ZM202.469 9.24805V9.86914H201.854V9.24805H202.469ZM199.996 9.24805V9.86914H199.375V9.24805H199.996ZM203.705 10.4902V11.1055H203.084V10.4902H203.705ZM201.232 10.4902V11.1055H200.617V10.4902H201.232ZM198.766 10.4902V11.1055H198.145V10.4902H198.766ZM199.996 11.7266V12.3418H199.375V11.7266H199.996ZM202.469 11.7266V12.3418H201.854V11.7266H202.469ZM204.941 11.7266V12.3418H204.32V11.7266H204.941ZM203.705 12.957V13.5781H203.084V12.957H203.705ZM201.232 12.957V13.5781H200.617V12.957H201.232ZM198.766 12.957V13.5781H198.145V12.957H198.766ZM212.359 1.8418V2.45703H211.738V1.8418H212.359ZM209.887 1.8418V2.45703H209.271V1.8418H209.887ZM207.414 1.8418V2.45703H206.793V1.8418H207.414ZM211.123 3.07227V3.69336H210.502V3.07227H211.123ZM208.65 3.07227V3.69336H208.035V3.07227H208.65ZM206.184 3.07227V3.69336H205.562V3.07227H206.184ZM207.414 4.30859V4.92969H206.793V4.30859H207.414ZM209.887 4.30859V4.92969H209.271V4.30859H209.887ZM212.359 4.30859V4.92969H211.738V4.30859H212.359ZM206.184 5.54492V6.16016H205.562V5.54492H206.184ZM208.65 5.54492V6.16016H208.035V5.54492H208.65ZM211.123 5.54492V6.16016H210.502V5.54492H211.123ZM212.359 6.78125V7.40234H211.738V6.78125H212.359ZM209.887 6.78125V7.40234H209.271V6.78125H209.887ZM207.414 6.78125V7.40234H206.793V6.78125H207.414ZM206.184 8.01758V8.63867H205.562V8.01758H206.184ZM208.65 8.01758V8.63867H208.035V8.01758H208.65ZM211.123 8.01758V8.63867H210.502V8.01758H211.123ZM212.359 9.24805V9.86914H211.738V9.24805H212.359ZM209.887 9.24805V9.86914H209.271V9.24805H209.887ZM207.414 9.24805V9.86914H206.793V9.24805H207.414ZM211.123 10.4902V11.1055H210.502V10.4902H211.123ZM208.65 10.4902V11.1055H208.035V10.4902H208.65ZM206.184 10.4902V11.1055H205.562V10.4902H206.184ZM207.414 11.7266V12.3418H206.793V11.7266H207.414ZM209.887 11.7266V12.3418H209.271V11.7266H209.887ZM212.359 11.7266V12.3418H211.738V11.7266H212.359ZM211.123 12.957V13.5781H210.502V12.957H211.123ZM208.65 12.957V13.5781H208.035V12.957H208.65ZM206.184 12.957V13.5781H205.562V12.957H206.184ZM219.777 1.8418V2.45703H219.156V1.8418H219.777ZM217.305 1.8418V2.45703H216.689V1.8418H217.305ZM214.832 1.8418V2.45703H214.211V1.8418H214.832ZM218.541 3.07227V3.69336H217.92V3.07227H218.541ZM216.068 3.07227V3.69336H215.453V3.07227H216.068ZM213.602 3.07227V3.69336H212.98V3.07227H213.602ZM214.832 4.30859V4.92969H214.211V4.30859H214.832ZM217.305 4.30859V4.92969H216.689V4.30859H217.305ZM219.777 4.30859V4.92969H219.156V4.30859H219.777ZM213.602 5.54492V6.16016H212.98V5.54492H213.602ZM216.068 5.54492V6.16016H215.453V5.54492H216.068ZM218.541 5.54492V6.16016H217.92V5.54492H218.541ZM219.777 6.78125V7.40234H219.156V6.78125H219.777ZM217.305 6.78125V7.40234H216.689V6.78125H217.305ZM214.832 6.78125V7.40234H214.211V6.78125H214.832ZM213.602 8.01758V8.63867H212.98V8.01758H213.602ZM216.068 8.01758V8.63867H215.453V8.01758H216.068ZM218.541 8.01758V8.63867H217.92V8.01758H218.541ZM219.777 9.24805V9.86914H219.156V9.24805H219.777ZM217.305 9.24805V9.86914H216.689V9.24805H217.305ZM214.832 9.24805V9.86914H214.211V9.24805H214.832ZM218.541 10.4902V11.1055H217.92V10.4902H218.541ZM216.068 10.4902V11.1055H215.453V10.4902H216.068ZM213.602 10.4902V11.1055H212.98V10.4902H213.602ZM214.832 11.7266V12.3418H214.211V11.7266H214.832ZM217.305 11.7266V12.3418H216.689V11.7266H217.305ZM219.777 11.7266V12.3418H219.156V11.7266H219.777ZM218.541 12.957V13.5781H217.92V12.957H218.541ZM216.068 12.957V13.5781H215.453V12.957H216.068ZM213.602 12.957V13.5781H212.98V12.957H213.602ZM227.195 1.8418V2.45703H226.574V1.8418H227.195ZM224.723 1.8418V2.45703H224.107V1.8418H224.723ZM222.25 1.8418V2.45703H221.629V1.8418H222.25ZM225.959 3.07227V3.69336H225.338V3.07227H225.959ZM223.486 3.07227V3.69336H222.871V3.07227H223.486ZM221.02 3.07227V3.69336H220.398V3.07227H221.02ZM222.25 4.30859V4.92969H221.629V4.30859H222.25ZM224.723 4.30859V4.92969H224.107V4.30859H224.723ZM227.195 4.30859V4.92969H226.574V4.30859H227.195ZM221.02 5.54492V6.16016H220.398V5.54492H221.02ZM223.486 5.54492V6.16016H222.871V5.54492H223.486ZM225.959 5.54492V6.16016H225.338V5.54492H225.959ZM227.195 6.78125V7.40234H226.574V6.78125H227.195ZM224.723 6.78125V7.40234H224.107V6.78125H224.723ZM222.25 6.78125V7.40234H221.629V6.78125H222.25ZM221.02 8.01758V8.63867H220.398V8.01758H221.02ZM223.486 8.01758V8.63867H222.871V8.01758H223.486ZM225.959 8.01758V8.63867H225.338V8.01758H225.959ZM227.195 9.24805V9.86914H226.574V9.24805H227.195ZM224.723 9.24805V9.86914H224.107V9.24805H224.723ZM222.25 9.24805V9.86914H221.629V9.24805H222.25ZM225.959 10.4902V11.1055H225.338V10.4902H225.959ZM223.486 10.4902V11.1055H222.871V10.4902H223.486ZM221.02 10.4902V11.1055H220.398V10.4902H221.02ZM222.25 11.7266V12.3418H221.629V11.7266H222.25ZM224.723 11.7266V12.3418H224.107V11.7266H224.723ZM227.195 11.7266V12.3418H226.574V11.7266H227.195ZM225.959 12.957V13.5781H225.338V12.957H225.959ZM223.486 12.957V13.5781H222.871V12.957H223.486ZM221.02 12.957V13.5781H220.398V12.957H221.02ZM234.613 1.8418V2.45703H233.992V1.8418H234.613ZM232.141 1.8418V2.45703H231.525V1.8418H232.141ZM229.668 1.8418V2.45703H229.047V1.8418H229.668ZM233.377 3.07227V3.69336H232.756V3.07227H233.377ZM230.904 3.07227V3.69336H230.289V3.07227H230.904ZM228.438 3.07227V3.69336H227.816V3.07227H228.438ZM229.668 4.30859V4.92969H229.047V4.30859H229.668ZM232.141 4.30859V4.92969H231.525V4.30859H232.141ZM234.613 4.30859V4.92969H233.992V4.30859H234.613ZM228.438 5.54492V6.16016H227.816V5.54492H228.438ZM230.904 5.54492V6.16016H230.289V5.54492H230.904ZM233.377 5.54492V6.16016H232.756V5.54492H233.377ZM234.613 6.78125V7.40234H233.992V6.78125H234.613ZM232.141 6.78125V7.40234H231.525V6.78125H232.141ZM229.668 6.78125V7.40234H229.047V6.78125H229.668ZM228.438 8.01758V8.63867H227.816V8.01758H228.438ZM230.904 8.01758V8.63867H230.289V8.01758H230.904ZM233.377 8.01758V8.63867H232.756V8.01758H233.377ZM234.613 9.24805V9.86914H233.992V9.24805H234.613ZM232.141 9.24805V9.86914H231.525V9.24805H232.141ZM229.668 9.24805V9.86914H229.047V9.24805H229.668ZM233.377 10.4902V11.1055H232.756V10.4902H233.377ZM230.904 10.4902V11.1055H230.289V10.4902H230.904ZM228.438 10.4902V11.1055H227.816V10.4902H228.438ZM229.668 11.7266V12.3418H229.047V11.7266H229.668ZM232.141 11.7266V12.3418H231.525V11.7266H232.141ZM234.613 11.7266V12.3418H233.992V11.7266H234.613ZM233.377 12.957V13.5781H232.756V12.957H233.377ZM230.904 12.957V13.5781H230.289V12.957H230.904ZM228.438 12.957V13.5781H227.816V12.957H228.438ZM242.031 1.8418V2.45703H241.41V1.8418H242.031ZM239.559 1.8418V2.45703H238.943V1.8418H239.559ZM237.086 1.8418V2.45703H236.465V1.8418H237.086ZM240.795 3.07227V3.69336H240.174V3.07227H240.795ZM238.322 3.07227V3.69336H237.707V3.07227H238.322ZM235.855 3.07227V3.69336H235.234V3.07227H235.855ZM237.086 4.30859V4.92969H236.465V4.30859H237.086ZM239.559 4.30859V4.92969H238.943V4.30859H239.559ZM242.031 4.30859V4.92969H241.41V4.30859H242.031ZM235.855 5.54492V6.16016H235.234V5.54492H235.855ZM238.322 5.54492V6.16016H237.707V5.54492H238.322ZM240.795 5.54492V6.16016H240.174V5.54492H240.795ZM242.031 6.78125V7.40234H241.41V6.78125H242.031ZM239.559 6.78125V7.40234H238.943V6.78125H239.559ZM237.086 6.78125V7.40234H236.465V6.78125H237.086ZM235.855 8.01758V8.63867H235.234V8.01758H235.855ZM238.322 8.01758V8.63867H237.707V8.01758H238.322ZM240.795 8.01758V8.63867H240.174V8.01758H240.795ZM242.031 9.24805V9.86914H241.41V9.24805H242.031ZM239.559 9.24805V9.86914H238.943V9.24805H239.559ZM237.086 9.24805V9.86914H236.465V9.24805H237.086ZM240.795 10.4902V11.1055H240.174V10.4902H240.795ZM238.322 10.4902V11.1055H237.707V10.4902H238.322ZM235.855 10.4902V11.1055H235.234V10.4902H235.855ZM237.086 11.7266V12.3418H236.465V11.7266H237.086ZM239.559 11.7266V12.3418H238.943V11.7266H239.559ZM242.031 11.7266V12.3418H241.41V11.7266H242.031ZM240.795 12.957V13.5781H240.174V12.957H240.795ZM238.322 12.957V13.5781H237.707V12.957H238.322ZM235.855 12.957V13.5781H235.234V12.957H235.855ZM249.449 1.8418V2.45703H248.828V1.8418H249.449ZM246.977 1.8418V2.45703H246.361V1.8418H246.977ZM244.504 1.8418V2.45703H243.883V1.8418H244.504ZM248.213 3.07227V3.69336H247.592V3.07227H248.213ZM245.74 3.07227V3.69336H245.125V3.07227H245.74ZM243.273 3.07227V3.69336H242.652V3.07227H243.273ZM244.504 4.30859V4.92969H243.883V4.30859H244.504ZM246.977 4.30859V4.92969H246.361V4.30859H246.977ZM249.449 4.30859V4.92969H248.828V4.30859H249.449ZM243.273 5.54492V6.16016H242.652V5.54492H243.273ZM245.74 5.54492V6.16016H245.125V5.54492H245.74ZM248.213 5.54492V6.16016H247.592V5.54492H248.213ZM249.449 6.78125V7.40234H248.828V6.78125H249.449ZM246.977 6.78125V7.40234H246.361V6.78125H246.977ZM244.504 6.78125V7.40234H243.883V6.78125H244.504ZM243.273 8.01758V8.63867H242.652V8.01758H243.273ZM245.74 8.01758V8.63867H245.125V8.01758H245.74ZM248.213 8.01758V8.63867H247.592V8.01758H248.213ZM249.449 9.24805V9.86914H248.828V9.24805H249.449ZM246.977 9.24805V9.86914H246.361V9.24805H246.977ZM244.504 9.24805V9.86914H243.883V9.24805H244.504ZM248.213 10.4902V11.1055H247.592V10.4902H248.213ZM245.74 10.4902V11.1055H245.125V10.4902H245.74ZM243.273 10.4902V11.1055H242.652V10.4902H243.273ZM244.504 11.7266V12.3418H243.883V11.7266H244.504ZM246.977 11.7266V12.3418H246.361V11.7266H246.977ZM249.449 11.7266V12.3418H248.828V11.7266H249.449ZM248.213 12.957V13.5781H247.592V12.957H248.213ZM245.74 12.957V13.5781H245.125V12.957H245.74ZM243.273 12.957V13.5781H242.652V12.957H243.273ZM256.867 1.8418V2.45703H256.246V1.8418H256.867ZM254.395 1.8418V2.45703H253.779V1.8418H254.395ZM251.922 1.8418V2.45703H251.301V1.8418H251.922ZM255.631 3.07227V3.69336H255.01V3.07227H255.631ZM253.158 3.07227V3.69336H252.543V3.07227H253.158ZM250.691 3.07227V3.69336H250.07V3.07227H250.691ZM251.922 4.30859V4.92969H251.301V4.30859H251.922ZM254.395 4.30859V4.92969H253.779V4.30859H254.395ZM256.867 4.30859V4.92969H256.246V4.30859H256.867ZM250.691 5.54492V6.16016H250.07V5.54492H250.691ZM253.158 5.54492V6.16016H252.543V5.54492H253.158ZM255.631 5.54492V6.16016H255.01V5.54492H255.631ZM256.867 6.78125V7.40234H256.246V6.78125H256.867ZM254.395 6.78125V7.40234H253.779V6.78125H254.395ZM251.922 6.78125V7.40234H251.301V6.78125H251.922ZM250.691 8.01758V8.63867H250.07V8.01758H250.691ZM253.158 8.01758V8.63867H252.543V8.01758H253.158ZM255.631 8.01758V8.63867H255.01V8.01758H255.631ZM256.867 9.24805V9.86914H256.246V9.24805H256.867ZM254.395 9.24805V9.86914H253.779V9.24805H254.395ZM251.922 9.24805V9.86914H251.301V9.24805H251.922ZM255.631 10.4902V11.1055H255.01V10.4902H255.631ZM253.158 10.4902V11.1055H252.543V10.4902H253.158ZM250.691 10.4902V11.1055H250.07V10.4902H250.691ZM251.922 11.7266V12.3418H251.301V11.7266H251.922ZM254.395 11.7266V12.3418H253.779V11.7266H254.395ZM256.867 11.7266V12.3418H256.246V11.7266H256.867ZM255.631 12.957V13.5781H255.01V12.957H255.631ZM253.158 12.957V13.5781H252.543V12.957H253.158ZM250.691 12.957V13.5781H250.07V12.957H250.691ZM264.285 1.8418V2.45703H263.664V1.8418H264.285ZM261.812 1.8418V2.45703H261.197V1.8418H261.812ZM259.34 1.8418V2.45703H258.719V1.8418H259.34ZM263.049 3.07227V3.69336H262.428V3.07227H263.049ZM260.576 3.07227V3.69336H259.961V3.07227H260.576ZM258.109 3.07227V3.69336H257.488V3.07227H258.109ZM259.34 4.30859V4.92969H258.719V4.30859H259.34ZM261.812 4.30859V4.92969H261.197V4.30859H261.812ZM264.285 4.30859V4.92969H263.664V4.30859H264.285ZM258.109 5.54492V6.16016H257.488V5.54492H258.109ZM260.576 5.54492V6.16016H259.961V5.54492H260.576ZM263.049 5.54492V6.16016H262.428V5.54492H263.049ZM264.285 6.78125V7.40234H263.664V6.78125H264.285ZM261.812 6.78125V7.40234H261.197V6.78125H261.812ZM259.34 6.78125V7.40234H258.719V6.78125H259.34ZM258.109 8.01758V8.63867H257.488V8.01758H258.109ZM260.576 8.01758V8.63867H259.961V8.01758H260.576ZM263.049 8.01758V8.63867H262.428V8.01758H263.049ZM264.285 9.24805V9.86914H263.664V9.24805H264.285ZM261.812 9.24805V9.86914H261.197V9.24805H261.812ZM259.34 9.24805V9.86914H258.719V9.24805H259.34ZM263.049 10.4902V11.1055H262.428V10.4902H263.049ZM260.576 10.4902V11.1055H259.961V10.4902H260.576ZM258.109 10.4902V11.1055H257.488V10.4902H258.109ZM259.34 11.7266V12.3418H258.719V11.7266H259.34ZM261.812 11.7266V12.3418H261.197V11.7266H261.812ZM264.285 11.7266V12.3418H263.664V11.7266H264.285ZM263.049 12.957V13.5781H262.428V12.957H263.049ZM260.576 12.957V13.5781H259.961V12.957H260.576ZM258.109 12.957V13.5781H257.488V12.957H258.109ZM271.703 1.8418V2.45703H271.082V1.8418H271.703ZM269.23 1.8418V2.45703H268.615V1.8418H269.23ZM266.758 1.8418V2.45703H266.137V1.8418H266.758ZM270.467 3.07227V3.69336H269.846V3.07227H270.467ZM267.994 3.07227V3.69336H267.379V3.07227H267.994ZM265.527 3.07227V3.69336H264.906V3.07227H265.527ZM266.758 4.30859V4.92969H266.137V4.30859H266.758ZM269.23 4.30859V4.92969H268.615V4.30859H269.23ZM271.703 4.30859V4.92969H271.082V4.30859H271.703ZM265.527 5.54492V6.16016H264.906V5.54492H265.527ZM267.994 5.54492V6.16016H267.379V5.54492H267.994ZM270.467 5.54492V6.16016H269.846V5.54492H270.467ZM271.703 6.78125V7.40234H271.082V6.78125H271.703ZM269.23 6.78125V7.40234H268.615V6.78125H269.23ZM266.758 6.78125V7.40234H266.137V6.78125H266.758ZM265.527 8.01758V8.63867H264.906V8.01758H265.527ZM267.994 8.01758V8.63867H267.379V8.01758H267.994ZM270.467 8.01758V8.63867H269.846V8.01758H270.467ZM271.703 9.24805V9.86914H271.082V9.24805H271.703ZM269.23 9.24805V9.86914H268.615V9.24805H269.23ZM266.758 9.24805V9.86914H266.137V9.24805H266.758ZM270.467 10.4902V11.1055H269.846V10.4902H270.467ZM267.994 10.4902V11.1055H267.379V10.4902H267.994ZM265.527 10.4902V11.1055H264.906V10.4902H265.527ZM266.758 11.7266V12.3418H266.137V11.7266H266.758ZM269.23 11.7266V12.3418H268.615V11.7266H269.23ZM271.703 11.7266V12.3418H271.082V11.7266H271.703ZM270.467 12.957V13.5781H269.846V12.957H270.467ZM267.994 12.957V13.5781H267.379V12.957H267.994ZM265.527 12.957V13.5781H264.906V12.957H265.527Z" fill="#A59A86"/>
<path d="M280.699 11V9.21289H276.844V8.375L279.715 2.54492H280.77L277.939 8.24023V8.31641H280.711V5.90234H281.648V8.30469H282.938V9.21289H281.643V11H280.699ZM290.027 8.28711C290.027 9.96289 288.82 11.1758 287.145 11.1758C285.48 11.1758 284.279 9.96875 284.279 8.28711C284.279 7.29688 284.613 6.40039 285.422 5.22266C285.498 5.09375 287.256 2.63281 287.314 2.54492H288.504L286.195 5.71484C285.938 6.07812 285.961 6.05469 285.92 6.14844L286.008 6.19531C286.26 5.85547 286.869 5.60352 287.408 5.60352C288.914 5.60352 290.027 6.74609 290.027 8.28711ZM287.15 10.2559C288.217 10.2559 289.025 9.42383 289.025 8.33984C289.025 7.25 288.217 6.41797 287.15 6.41797C286.09 6.41797 285.281 7.25 285.281 8.33984C285.281 9.42383 286.09 10.2559 287.15 10.2559ZM292.459 6.62305C291.469 6.62305 290.854 5.93164 290.854 4.82422V4.2207C290.854 3.125 291.475 2.43359 292.459 2.43359C293.443 2.43359 294.059 3.125 294.059 4.2207V4.82422C294.059 5.93164 293.449 6.62305 292.459 6.62305ZM298.254 2.54492V3.45312L290.836 11V10.0918L298.254 2.54492ZM292.459 5.88477C293.016 5.88477 293.309 5.48047 293.309 4.71289V4.34375C293.309 3.57617 293.016 3.17188 292.459 3.17188C291.896 3.17188 291.604 3.57617 291.604 4.34375V4.71289C291.604 5.48047 291.896 5.88477 292.459 5.88477ZM296.631 11.1113C295.641 11.1113 295.031 10.4199 295.031 9.3125V8.70898C295.031 7.61914 295.646 6.92188 296.631 6.92188C297.615 6.92188 298.236 7.61914 298.236 8.70898V9.3125C298.236 10.4199 297.621 11.1113 296.631 11.1113ZM296.631 10.3789C297.193 10.3789 297.486 9.96875 297.486 9.20117V8.83203C297.486 8.06445 297.193 7.66016 296.631 7.66016C296.074 7.66016 295.781 8.06445 295.781 8.83203V9.20117C295.781 9.96875 296.074 10.3789 296.631 10.3789Z" fill="#A59A86"/>
</svg>
