<svg width="259" height="26" viewBox="0 0 259 26" fill="none" xmlns="http://www.w3.org/2000/svg">
<path d="M0 4C0 1.79086 1.79086 0 4 0H87V26H4C1.79086 26 0 24.2091 0 22V4Z" fill="#EDE5C4"/>
<path d="M10.8145 14.75H11.8223C11.9277 15.6758 12.6719 16.2383 13.7969 16.2383C14.9219 16.2383 15.6602 15.6523 15.6602 14.7441C15.6602 14.0117 15.168 13.5723 14.0254 13.291L13.2988 13.1094C11.7285 12.7109 11.0195 11.9668 11.0195 10.7422C11.0195 9.30078 12.1035 8.36914 13.791 8.36914C15.3848 8.36914 16.4805 9.28906 16.5508 10.6953H15.543C15.4375 9.82227 14.793 9.30664 13.7969 9.30664C12.7129 9.30664 12.0625 9.82227 12.0625 10.6836C12.0625 11.416 12.5312 11.8379 13.6328 12.1133L14.3711 12.3008C16.0117 12.7051 16.7031 13.4199 16.7031 14.6914C16.7031 16.209 15.5605 17.1758 13.791 17.1758C12.0449 17.1758 10.9023 16.25 10.8145 14.75ZM23.7578 16.0508V17H18.7656V8.54492H23.7578V9.49414H19.8027V12.2363H23.541V13.1445H19.8027V16.0508H23.7578ZM30.5547 14.4102V13.584H28.6035V12.6992H31.5977V14.498C31.5977 16.0859 30.4023 17.1758 28.6973 17.1758C26.7109 17.1758 25.5625 15.8398 25.5625 13.5254V12.0195C25.5625 9.70508 26.7109 8.36914 28.6973 8.36914C30.4551 8.36914 31.5566 9.44141 31.5977 11.1934H30.5547C30.5078 10.0918 29.7578 9.34766 28.6797 9.34766C27.3145 9.34766 26.6055 10.2676 26.6055 12.0195V13.5254C26.6055 15.2773 27.3203 16.1973 28.6855 16.1973C29.8398 16.1973 30.5547 15.5176 30.5547 14.4102ZM33.8359 13.7539V17H32.916V8.54492H34.0703L35.9277 13.7949H36.0039L37.8496 8.54492H39.0098V17H38.0898V13.7539L38.1426 10.332H38.0664L36.3672 15.0137H35.5586L33.8594 10.332H33.7832L33.8359 13.7539ZM46.0117 16.0508V17H41.0195V8.54492H46.0117V9.49414H42.0566V12.2363H45.7949V13.1445H42.0566V16.0508H46.0117ZM48.918 17H47.9863V8.54492H48.9766L52.5977 15.125H52.6797V8.54492H53.6113V17H52.6328L49 10.4023H48.918V17ZM58.7324 17H57.7012V9.49414H55.1465V8.54492H61.2871V9.49414H58.7324V17ZM75.2383 17L74.5059 14.5742H71.5645L70.8262 17H69.7773L72.502 8.54492H73.6035L76.3281 17H75.2383ZM73.0234 9.78711L71.834 13.6895H74.2363L73.0527 9.78711H73.0234Z" fill="black"/>
<rect x="86.5" y="0.5" width="86" height="25" stroke="#353535"/>
<path d="M96.8145 14.75H97.8223C97.9277 15.6758 98.6719 16.2383 99.7969 16.2383C100.922 16.2383 101.66 15.6523 101.66 14.7441C101.66 14.0117 101.168 13.5723 100.025 13.291L99.2988 13.1094C97.7285 12.7109 97.0195 11.9668 97.0195 10.7422C97.0195 9.30078 98.1035 8.36914 99.791 8.36914C101.385 8.36914 102.48 9.28906 102.551 10.6953H101.543C101.438 9.82227 100.793 9.30664 99.7969 9.30664C98.7129 9.30664 98.0625 9.82227 98.0625 10.6836C98.0625 11.416 98.5312 11.8379 99.6328 12.1133L100.371 12.3008C102.012 12.7051 102.703 13.4199 102.703 14.6914C102.703 16.209 101.561 17.1758 99.791 17.1758C98.0449 17.1758 96.9023 16.25 96.8145 14.75ZM109.758 16.0508V17H104.766V8.54492H109.758V9.49414H105.803V12.2363H109.541V13.1445H105.803V16.0508H109.758ZM116.555 14.4102V13.584H114.604V12.6992H117.598V14.498C117.598 16.0859 116.402 17.1758 114.697 17.1758C112.711 17.1758 111.562 15.8398 111.562 13.5254V12.0195C111.562 9.70508 112.711 8.36914 114.697 8.36914C116.455 8.36914 117.557 9.44141 117.598 11.1934H116.555C116.508 10.0918 115.758 9.34766 114.68 9.34766C113.314 9.34766 112.605 10.2676 112.605 12.0195V13.5254C112.605 15.2773 113.32 16.1973 114.686 16.1973C115.84 16.1973 116.555 15.5176 116.555 14.4102ZM119.836 13.7539V17H118.916V8.54492H120.07L121.928 13.7949H122.004L123.85 8.54492H125.01V17H124.09V13.7539L124.143 10.332H124.066L122.367 15.0137H121.559L119.859 10.332H119.783L119.836 13.7539ZM132.012 16.0508V17H127.02V8.54492H132.012V9.49414H128.057V12.2363H131.795V13.1445H128.057V16.0508H132.012ZM134.918 17H133.986V8.54492H134.977L138.598 15.125H138.68V8.54492H139.611V17H138.633L135 10.4023H134.918V17ZM144.732 17H143.701V9.49414H141.146V8.54492H147.287V9.49414H144.732V17ZM159.211 17H156.445V8.54492H159.182C160.74 8.54492 161.678 9.32422 161.678 10.6367C161.678 11.5684 161.074 12.3359 160.225 12.4824V12.5703C161.361 12.6816 162.105 13.5078 162.105 14.6387C162.105 16.1211 161.027 17 159.211 17ZM157.471 9.43555V12.1953H158.789C159.99 12.1953 160.635 11.709 160.635 10.8184C160.635 9.93359 160.025 9.43555 158.947 9.43555H157.471ZM157.471 16.1035H158.988C160.33 16.1035 161.033 15.5762 161.033 14.5684C161.033 13.5723 160.324 13.0566 158.953 13.0566H157.471V16.1035Z" fill="#EDE5C4"/>
<path d="M255 0.5C256.933 0.5 258.5 2.067 258.5 4V22C258.5 23.933 256.933 25.5 255 25.5H172.5V0.5H255Z" stroke="#353535"/>
<path d="M182.814 14.75H183.822C183.928 15.6758 184.672 16.2383 185.797 16.2383C186.922 16.2383 187.66 15.6523 187.66 14.7441C187.66 14.0117 187.168 13.5723 186.025 13.291L185.299 13.1094C183.729 12.7109 183.02 11.9668 183.02 10.7422C183.02 9.30078 184.104 8.36914 185.791 8.36914C187.385 8.36914 188.48 9.28906 188.551 10.6953H187.543C187.438 9.82227 186.793 9.30664 185.797 9.30664C184.713 9.30664 184.062 9.82227 184.062 10.6836C184.062 11.416 184.531 11.8379 185.633 12.1133L186.371 12.3008C188.012 12.7051 188.703 13.4199 188.703 14.6914C188.703 16.209 187.561 17.1758 185.791 17.1758C184.045 17.1758 182.902 16.25 182.814 14.75ZM195.758 16.0508V17H190.766V8.54492H195.758V9.49414H191.803V12.2363H195.541V13.1445H191.803V16.0508H195.758ZM202.555 14.4102V13.584H200.604V12.6992H203.598V14.498C203.598 16.0859 202.402 17.1758 200.697 17.1758C198.711 17.1758 197.562 15.8398 197.562 13.5254V12.0195C197.562 9.70508 198.711 8.36914 200.697 8.36914C202.455 8.36914 203.557 9.44141 203.598 11.1934H202.555C202.508 10.0918 201.758 9.34766 200.68 9.34766C199.314 9.34766 198.605 10.2676 198.605 12.0195V13.5254C198.605 15.2773 199.32 16.1973 200.686 16.1973C201.84 16.1973 202.555 15.5176 202.555 14.4102ZM205.836 13.7539V17H204.916V8.54492H206.07L207.928 13.7949H208.004L209.85 8.54492H211.01V17H210.09V13.7539L210.143 10.332H210.066L208.367 15.0137H207.559L205.859 10.332H205.783L205.836 13.7539ZM218.012 16.0508V17H213.02V8.54492H218.012V9.49414H214.057V12.2363H217.795V13.1445H214.057V16.0508H218.012ZM220.918 17H219.986V8.54492H220.977L224.598 15.125H224.68V8.54492H225.611V17H224.633L221 10.4023H220.918V17ZM230.732 17H229.701V9.49414H227.146V8.54492H233.287V9.49414H230.732V17ZM245.246 16.1973C246.371 16.1973 247.086 15.5234 247.115 14.4336H248.158C248.158 16.0684 246.975 17.1758 245.246 17.1758C243.26 17.1758 242.105 15.834 242.105 13.5254V12.0195C242.105 9.71094 243.26 8.36914 245.246 8.36914C247.027 8.36914 248.129 9.45312 248.164 11.2578H247.115C247.08 10.1152 246.324 9.34766 245.24 9.34766C243.875 9.34766 243.16 10.2676 243.16 12.0195V13.5254C243.16 15.2773 243.875 16.1973 245.246 16.1973Z" fill="#EDE5C4"/>
</svg>
