<svg width="118" height="636" viewBox="0 0 118 636" fill="none" xmlns="http://www.w3.org/2000/svg">
<g clip-path="url(#clip0_31_869)">
<rect width="118" height="636" fill="black"/>
<rect x="0.5" y="0.5" width="117" height="31" stroke="#353535"/>
<g clip-path="url(#clip1_31_869)">
<path fill-rule="evenodd" clip-rule="evenodd" d="M22 11.5C19.5147 11.5 17.5 13.5147 17.5 16C17.5 18.4853 19.5147 20.5 22 20.5C24.4853 20.5 26.5 18.4853 26.5 16C26.5 13.5147 24.4853 11.5 22 11.5ZM16.5 16C16.5 12.9624 18.9624 10.5 22 10.5C25.0376 10.5 27.5 12.9624 27.5 16C27.5 19.0376 25.0376 21.5 22 21.5C18.9624 21.5 16.5 19.0376 16.5 16Z" fill="#A59A86"/>
<path fill-rule="evenodd" clip-rule="evenodd" d="M22 10.5C22.1368 10.5 22.2677 10.5561 22.3621 10.6552C23.7345 12.0962 24.5 14.01 24.5 16C24.5 17.99 23.7345 19.9038 22.3621 21.3448C22.2677 21.4439 22.1368 21.5 22 21.5C21.8632 21.5 21.7323 21.4439 21.6379 21.3448C20.2655 19.9038 19.5 17.99 19.5 16C19.5 14.01 20.2655 12.0962 21.6379 10.6552C21.7323 10.5561 21.8632 10.5 22 10.5ZM22 11.7573C21.0329 12.954 20.5 14.4504 20.5 16C20.5 17.5496 21.0329 19.046 22 20.2427C22.9671 19.046 23.5 17.5496 23.5 16C23.5 14.4504 22.9671 12.954 22 11.7573Z" fill="#A59A86"/>
<path fill-rule="evenodd" clip-rule="evenodd" d="M16.5 16C16.5 15.7239 16.7239 15.5 17 15.5H27C27.2761 15.5 27.5 15.7239 27.5 16C27.5 16.2761 27.2761 16.5 27 16.5H17C16.7239 16.5 16.5 16.2761 16.5 16Z" fill="#A59A86"/>
</g>
<path d="M36.8145 17.75H37.8223C37.9277 18.6758 38.6719 19.2383 39.7969 19.2383C40.9219 19.2383 41.6602 18.6523 41.6602 17.7441C41.6602 17.0117 41.168 16.5723 40.0254 16.291L39.2988 16.1094C37.7285 15.7109 37.0195 14.9668 37.0195 13.7422C37.0195 12.3008 38.1035 11.3691 39.791 11.3691C41.3848 11.3691 42.4805 12.2891 42.5508 13.6953H41.543C41.4375 12.8223 40.793 12.3066 39.7969 12.3066C38.7129 12.3066 38.0625 12.8223 38.0625 13.6836C38.0625 14.416 38.5312 14.8379 39.6328 15.1133L40.3711 15.3008C42.0117 15.7051 42.7031 16.4199 42.7031 17.6914C42.7031 19.209 41.5605 20.1758 39.791 20.1758C38.0449 20.1758 36.9023 19.25 36.8145 17.75ZM49.7578 19.0508V20H44.7656V11.5449H49.7578V12.4941H45.8027V15.2363H49.541V16.1445H45.8027V19.0508H49.7578ZM54.7383 19.1973C55.8633 19.1973 56.5781 18.5234 56.6074 17.4336H57.6504C57.6504 19.0684 56.4668 20.1758 54.7383 20.1758C52.752 20.1758 51.5977 18.834 51.5977 16.5254V15.0195C51.5977 12.7109 52.752 11.3691 54.7383 11.3691C56.5195 11.3691 57.6211 12.4531 57.6562 14.2578H56.6074C56.5723 13.1152 55.8164 12.3477 54.7324 12.3477C53.3672 12.3477 52.6523 13.2676 52.6523 15.0195V16.5254C52.6523 18.2773 53.3672 19.1973 54.7383 19.1973ZM62.4785 20H61.4473V12.4941H58.8926V11.5449H65.0332V12.4941H62.4785V20ZM71.6074 20H67.1543V19.0801H68.8652V12.4648H67.1543V11.5449H71.6074V12.4648H69.8965V19.0801H71.6074V20ZM79.8984 16.4551C79.8984 18.793 78.7207 20.1758 76.7988 20.1758C74.877 20.1758 73.6992 18.793 73.6992 16.4551V15.0898C73.6992 12.752 74.877 11.3691 76.7988 11.3691C78.7207 11.3691 79.8984 12.752 79.8984 15.0898V16.4551ZM76.7988 19.1973C78.082 19.1973 78.8555 18.2129 78.8555 16.4492V15.0957C78.8555 13.332 78.082 12.3477 76.7988 12.3477C75.5156 12.3477 74.7422 13.332 74.7422 15.0957V16.4492C74.7422 18.2129 75.5156 19.1973 76.7988 19.1973ZM82.3359 20H81.4043V11.5449H82.3945L86.0156 18.125H86.0977V11.5449H87.0293V20H86.0508L82.418 13.4023H82.3359V20Z" fill="#A59A86"/>
<rect x="0.5" y="31.5" width="117" height="31" stroke="#353535"/>
<g clip-path="url(#clip2_31_869)">
<path fill-rule="evenodd" clip-rule="evenodd" d="M22 42.5C19.5147 42.5 17.5 44.5147 17.5 47C17.5 49.4853 19.5147 51.5 22 51.5C24.4853 51.5 26.5 49.4853 26.5 47C26.5 44.5147 24.4853 42.5 22 42.5ZM16.5 47C16.5 43.9624 18.9624 41.5 22 41.5C25.0376 41.5 27.5 43.9624 27.5 47C27.5 50.0376 25.0376 52.5 22 52.5C18.9624 52.5 16.5 50.0376 16.5 47Z" fill="#A59A86"/>
<path fill-rule="evenodd" clip-rule="evenodd" d="M22 41.5C22.1368 41.5 22.2677 41.5561 22.3621 41.6552C23.7345 43.0962 24.5 45.01 24.5 47C24.5 48.99 23.7345 50.9038 22.3621 52.3448C22.2677 52.4439 22.1368 52.5 22 52.5C21.8632 52.5 21.7323 52.4439 21.6379 52.3448C20.2655 50.9038 19.5 48.99 19.5 47C19.5 45.01 20.2655 43.0962 21.6379 41.6552C21.7323 41.5561 21.8632 41.5 22 41.5ZM22 42.7573C21.0329 43.954 20.5 45.4504 20.5 47C20.5 48.5496 21.0329 50.046 22 51.2427C22.9671 50.046 23.5 48.5496 23.5 47C23.5 45.4504 22.9671 43.954 22 42.7573Z" fill="#A59A86"/>
<path fill-rule="evenodd" clip-rule="evenodd" d="M16.5 47C16.5 46.7239 16.7239 46.5 17 46.5H27C27.2761 46.5 27.5 46.7239 27.5 47C27.5 47.2761 27.2761 47.5 27 47.5H17C16.7239 47.5 16.5 47.2761 16.5 47Z" fill="#A59A86"/>
</g>
<path d="M36.8145 48.75H37.8223C37.9277 49.6758 38.6719 50.2383 39.7969 50.2383C40.9219 50.2383 41.6602 49.6523 41.6602 48.7441C41.6602 48.0117 41.168 47.5723 40.0254 47.291L39.2988 47.1094C37.7285 46.7109 37.0195 45.9668 37.0195 44.7422C37.0195 43.3008 38.1035 42.3691 39.791 42.3691C41.3848 42.3691 42.4805 43.2891 42.5508 44.6953H41.543C41.4375 43.8223 40.793 43.3066 39.7969 43.3066C38.7129 43.3066 38.0625 43.8223 38.0625 44.6836C38.0625 45.416 38.5312 45.8379 39.6328 46.1133L40.3711 46.3008C42.0117 46.7051 42.7031 47.4199 42.7031 48.6914C42.7031 50.209 41.5605 51.1758 39.791 51.1758C38.0449 51.1758 36.9023 50.25 36.8145 48.75ZM49.7578 50.0508V51H44.7656V42.5449H49.7578V43.4941H45.8027V46.2363H49.541V47.1445H45.8027V50.0508H49.7578ZM54.7383 50.1973C55.8633 50.1973 56.5781 49.5234 56.6074 48.4336H57.6504C57.6504 50.0684 56.4668 51.1758 54.7383 51.1758C52.752 51.1758 51.5977 49.834 51.5977 47.5254V46.0195C51.5977 43.7109 52.752 42.3691 54.7383 42.3691C56.5195 42.3691 57.6211 43.4531 57.6562 45.2578H56.6074C56.5723 44.1152 55.8164 43.3477 54.7324 43.3477C53.3672 43.3477 52.6523 44.2676 52.6523 46.0195V47.5254C52.6523 49.2773 53.3672 50.1973 54.7383 50.1973ZM62.4785 51H61.4473V43.4941H58.8926V42.5449H65.0332V43.4941H62.4785V51ZM71.6074 51H67.1543V50.0801H68.8652V43.4648H67.1543V42.5449H71.6074V43.4648H69.8965V50.0801H71.6074V51ZM79.8984 47.4551C79.8984 49.793 78.7207 51.1758 76.7988 51.1758C74.877 51.1758 73.6992 49.793 73.6992 47.4551V46.0898C73.6992 43.752 74.877 42.3691 76.7988 42.3691C78.7207 42.3691 79.8984 43.752 79.8984 46.0898V47.4551ZM76.7988 50.1973C78.082 50.1973 78.8555 49.2129 78.8555 47.4492V46.0957C78.8555 44.332 78.082 43.3477 76.7988 43.3477C75.5156 43.3477 74.7422 44.332 74.7422 46.0957V47.4492C74.7422 49.2129 75.5156 50.1973 76.7988 50.1973ZM82.3359 51H81.4043V42.5449H82.3945L86.0156 49.125H86.0977V42.5449H87.0293V51H86.0508L82.418 44.4023H82.3359V51Z" fill="#A59A86"/>
<rect width="118" height="32" transform="translate(0 62)" fill="#EDE5C4"/>
<g clip-path="url(#clip3_31_869)">
<path fill-rule="evenodd" clip-rule="evenodd" d="M22 73.5C19.5147 73.5 17.5 75.5147 17.5 78C17.5 80.4853 19.5147 82.5 22 82.5C24.4853 82.5 26.5 80.4853 26.5 78C26.5 75.5147 24.4853 73.5 22 73.5ZM16.5 78C16.5 74.9624 18.9624 72.5 22 72.5C25.0376 72.5 27.5 74.9624 27.5 78C27.5 81.0376 25.0376 83.5 22 83.5C18.9624 83.5 16.5 81.0376 16.5 78Z" fill="black"/>
<path fill-rule="evenodd" clip-rule="evenodd" d="M22 72.5C22.1368 72.5 22.2677 72.5561 22.3621 72.6552C23.7345 74.0962 24.5 76.01 24.5 78C24.5 79.99 23.7345 81.9038 22.3621 83.3448C22.2677 83.4439 22.1368 83.5 22 83.5C21.8632 83.5 21.7323 83.4439 21.6379 83.3448C20.2655 81.9038 19.5 79.99 19.5 78C19.5 76.01 20.2655 74.0962 21.6379 72.6552C21.7323 72.5561 21.8632 72.5 22 72.5ZM22 73.7573C21.0329 74.954 20.5 76.4504 20.5 78C20.5 79.5496 21.0329 81.046 22 82.2427C22.9671 81.046 23.5 79.5496 23.5 78C23.5 76.4504 22.9671 74.954 22 73.7573Z" fill="black"/>
<path fill-rule="evenodd" clip-rule="evenodd" d="M16.5 78C16.5 77.7239 16.7239 77.5 17 77.5H27C27.2761 77.5 27.5 77.7239 27.5 78C27.5 78.2761 27.2761 78.5 27 78.5H17C16.7239 78.5 16.5 78.2761 16.5 78Z" fill="black"/>
</g>
<path d="M36.8145 79.75H37.8223C37.9277 80.6758 38.6719 81.2383 39.7969 81.2383C40.9219 81.2383 41.6602 80.6523 41.6602 79.7441C41.6602 79.0117 41.168 78.5723 40.0254 78.291L39.2988 78.1094C37.7285 77.7109 37.0195 76.9668 37.0195 75.7422C37.0195 74.3008 38.1035 73.3691 39.791 73.3691C41.3848 73.3691 42.4805 74.2891 42.5508 75.6953H41.543C41.4375 74.8223 40.793 74.3066 39.7969 74.3066C38.7129 74.3066 38.0625 74.8223 38.0625 75.6836C38.0625 76.416 38.5312 76.8379 39.6328 77.1133L40.3711 77.3008C42.0117 77.7051 42.7031 78.4199 42.7031 79.6914C42.7031 81.209 41.5605 82.1758 39.791 82.1758C38.0449 82.1758 36.9023 81.25 36.8145 79.75ZM49.7578 81.0508V82H44.7656V73.5449H49.7578V74.4941H45.8027V77.2363H49.541V78.1445H45.8027V81.0508H49.7578ZM54.7383 81.1973C55.8633 81.1973 56.5781 80.5234 56.6074 79.4336H57.6504C57.6504 81.0684 56.4668 82.1758 54.7383 82.1758C52.752 82.1758 51.5977 80.834 51.5977 78.5254V77.0195C51.5977 74.7109 52.752 73.3691 54.7383 73.3691C56.5195 73.3691 57.6211 74.4531 57.6562 76.2578H56.6074C56.5723 75.1152 55.8164 74.3477 54.7324 74.3477C53.3672 74.3477 52.6523 75.2676 52.6523 77.0195V78.5254C52.6523 80.2773 53.3672 81.1973 54.7383 81.1973ZM62.4785 82H61.4473V74.4941H58.8926V73.5449H65.0332V74.4941H62.4785V82ZM71.6074 82H67.1543V81.0801H68.8652V74.4648H67.1543V73.5449H71.6074V74.4648H69.8965V81.0801H71.6074V82ZM79.8984 78.4551C79.8984 80.793 78.7207 82.1758 76.7988 82.1758C74.877 82.1758 73.6992 80.793 73.6992 78.4551V77.0898C73.6992 74.752 74.877 73.3691 76.7988 73.3691C78.7207 73.3691 79.8984 74.752 79.8984 77.0898V78.4551ZM76.7988 81.1973C78.082 81.1973 78.8555 80.2129 78.8555 78.4492V77.0957C78.8555 75.332 78.082 74.3477 76.7988 74.3477C75.5156 74.3477 74.7422 75.332 74.7422 77.0957V78.4492C74.7422 80.2129 75.5156 81.1973 76.7988 81.1973ZM82.3359 82H81.4043V73.5449H82.3945L86.0156 80.125H86.0977V73.5449H87.0293V82H86.0508L82.418 75.4023H82.3359V82Z" fill="black"/>
<rect x="0.5" y="93.5" width="117" height="31" stroke="#353535"/>
<g clip-path="url(#clip4_31_869)">
<path fill-rule="evenodd" clip-rule="evenodd" d="M22 104.5C19.5147 104.5 17.5 106.515 17.5 109C17.5 111.485 19.5147 113.5 22 113.5C24.4853 113.5 26.5 111.485 26.5 109C26.5 106.515 24.4853 104.5 22 104.5ZM16.5 109C16.5 105.962 18.9624 103.5 22 103.5C25.0376 103.5 27.5 105.962 27.5 109C27.5 112.038 25.0376 114.5 22 114.5C18.9624 114.5 16.5 112.038 16.5 109Z" fill="#A59A86"/>
<path fill-rule="evenodd" clip-rule="evenodd" d="M22 103.5C22.1368 103.5 22.2677 103.556 22.3621 103.655C23.7345 105.096 24.5 107.01 24.5 109C24.5 110.99 23.7345 112.904 22.3621 114.345C22.2677 114.444 22.1368 114.5 22 114.5C21.8632 114.5 21.7323 114.444 21.6379 114.345C20.2655 112.904 19.5 110.99 19.5 109C19.5 107.01 20.2655 105.096 21.6379 103.655C21.7323 103.556 21.8632 103.5 22 103.5ZM22 104.757C21.0329 105.954 20.5 107.45 20.5 109C20.5 110.55 21.0329 112.046 22 113.243C22.9671 112.046 23.5 110.55 23.5 109C23.5 107.45 22.9671 105.954 22 104.757Z" fill="#A59A86"/>
<path fill-rule="evenodd" clip-rule="evenodd" d="M16.5 109C16.5 108.724 16.7239 108.5 17 108.5H27C27.2761 108.5 27.5 108.724 27.5 109C27.5 109.276 27.2761 109.5 27 109.5H17C16.7239 109.5 16.5 109.276 16.5 109Z" fill="#A59A86"/>
</g>
<path d="M36.8145 110.75H37.8223C37.9277 111.676 38.6719 112.238 39.7969 112.238C40.9219 112.238 41.6602 111.652 41.6602 110.744C41.6602 110.012 41.168 109.572 40.0254 109.291L39.2988 109.109C37.7285 108.711 37.0195 107.967 37.0195 106.742C37.0195 105.301 38.1035 104.369 39.791 104.369C41.3848 104.369 42.4805 105.289 42.5508 106.695H41.543C41.4375 105.822 40.793 105.307 39.7969 105.307C38.7129 105.307 38.0625 105.822 38.0625 106.684C38.0625 107.416 38.5312 107.838 39.6328 108.113L40.3711 108.301C42.0117 108.705 42.7031 109.42 42.7031 110.691C42.7031 112.209 41.5605 113.176 39.791 113.176C38.0449 113.176 36.9023 112.25 36.8145 110.75ZM49.7578 112.051V113H44.7656V104.545H49.7578V105.494H45.8027V108.236H49.541V109.145H45.8027V112.051H49.7578ZM54.7383 112.197C55.8633 112.197 56.5781 111.523 56.6074 110.434H57.6504C57.6504 112.068 56.4668 113.176 54.7383 113.176C52.752 113.176 51.5977 111.834 51.5977 109.525V108.02C51.5977 105.711 52.752 104.369 54.7383 104.369C56.5195 104.369 57.6211 105.453 57.6562 107.258H56.6074C56.5723 106.115 55.8164 105.348 54.7324 105.348C53.3672 105.348 52.6523 106.268 52.6523 108.02V109.525C52.6523 111.277 53.3672 112.197 54.7383 112.197ZM62.4785 113H61.4473V105.494H58.8926V104.545H65.0332V105.494H62.4785V113ZM71.6074 113H67.1543V112.08H68.8652V105.465H67.1543V104.545H71.6074V105.465H69.8965V112.08H71.6074V113ZM79.8984 109.455C79.8984 111.793 78.7207 113.176 76.7988 113.176C74.877 113.176 73.6992 111.793 73.6992 109.455V108.09C73.6992 105.752 74.877 104.369 76.7988 104.369C78.7207 104.369 79.8984 105.752 79.8984 108.09V109.455ZM76.7988 112.197C78.082 112.197 78.8555 111.213 78.8555 109.449V108.096C78.8555 106.332 78.082 105.348 76.7988 105.348C75.5156 105.348 74.7422 106.332 74.7422 108.096V109.449C74.7422 111.213 75.5156 112.197 76.7988 112.197ZM82.3359 113H81.4043V104.545H82.3945L86.0156 111.125H86.0977V104.545H87.0293V113H86.0508L82.418 106.402H82.3359V113Z" fill="#A59A86"/>
<rect x="0.5" y="124.5" width="117" height="31" stroke="#353535"/>
<g clip-path="url(#clip5_31_869)">
<path fill-rule="evenodd" clip-rule="evenodd" d="M22 135.5C19.5147 135.5 17.5 137.515 17.5 140C17.5 142.485 19.5147 144.5 22 144.5C24.4853 144.5 26.5 142.485 26.5 140C26.5 137.515 24.4853 135.5 22 135.5ZM16.5 140C16.5 136.962 18.9624 134.5 22 134.5C25.0376 134.5 27.5 136.962 27.5 140C27.5 143.038 25.0376 145.5 22 145.5C18.9624 145.5 16.5 143.038 16.5 140Z" fill="#A59A86"/>
<path fill-rule="evenodd" clip-rule="evenodd" d="M22 134.5C22.1368 134.5 22.2677 134.556 22.3621 134.655C23.7345 136.096 24.5 138.01 24.5 140C24.5 141.99 23.7345 143.904 22.3621 145.345C22.2677 145.444 22.1368 145.5 22 145.5C21.8632 145.5 21.7323 145.444 21.6379 145.345C20.2655 143.904 19.5 141.99 19.5 140C19.5 138.01 20.2655 136.096 21.6379 134.655C21.7323 134.556 21.8632 134.5 22 134.5ZM22 135.757C21.0329 136.954 20.5 138.45 20.5 140C20.5 141.55 21.0329 143.046 22 144.243C22.9671 143.046 23.5 141.55 23.5 140C23.5 138.45 22.9671 136.954 22 135.757Z" fill="#A59A86"/>
<path fill-rule="evenodd" clip-rule="evenodd" d="M16.5 140C16.5 139.724 16.7239 139.5 17 139.5H27C27.2761 139.5 27.5 139.724 27.5 140C27.5 140.276 27.2761 140.5 27 140.5H17C16.7239 140.5 16.5 140.276 16.5 140Z" fill="#A59A86"/>
</g>
<path d="M36.8145 141.75H37.8223C37.9277 142.676 38.6719 143.238 39.7969 143.238C40.9219 143.238 41.6602 142.652 41.6602 141.744C41.6602 141.012 41.168 140.572 40.0254 140.291L39.2988 140.109C37.7285 139.711 37.0195 138.967 37.0195 137.742C37.0195 136.301 38.1035 135.369 39.791 135.369C41.3848 135.369 42.4805 136.289 42.5508 137.695H41.543C41.4375 136.822 40.793 136.307 39.7969 136.307C38.7129 136.307 38.0625 136.822 38.0625 137.684C38.0625 138.416 38.5312 138.838 39.6328 139.113L40.3711 139.301C42.0117 139.705 42.7031 140.42 42.7031 141.691C42.7031 143.209 41.5605 144.176 39.791 144.176C38.0449 144.176 36.9023 143.25 36.8145 141.75ZM49.7578 143.051V144H44.7656V135.545H49.7578V136.494H45.8027V139.236H49.541V140.145H45.8027V143.051H49.7578ZM54.7383 143.197C55.8633 143.197 56.5781 142.523 56.6074 141.434H57.6504C57.6504 143.068 56.4668 144.176 54.7383 144.176C52.752 144.176 51.5977 142.834 51.5977 140.525V139.02C51.5977 136.711 52.752 135.369 54.7383 135.369C56.5195 135.369 57.6211 136.453 57.6562 138.258H56.6074C56.5723 137.115 55.8164 136.348 54.7324 136.348C53.3672 136.348 52.6523 137.268 52.6523 139.02V140.525C52.6523 142.277 53.3672 143.197 54.7383 143.197ZM62.4785 144H61.4473V136.494H58.8926V135.545H65.0332V136.494H62.4785V144ZM71.6074 144H67.1543V143.08H68.8652V136.465H67.1543V135.545H71.6074V136.465H69.8965V143.08H71.6074V144ZM79.8984 140.455C79.8984 142.793 78.7207 144.176 76.7988 144.176C74.877 144.176 73.6992 142.793 73.6992 140.455V139.09C73.6992 136.752 74.877 135.369 76.7988 135.369C78.7207 135.369 79.8984 136.752 79.8984 139.09V140.455ZM76.7988 143.197C78.082 143.197 78.8555 142.213 78.8555 140.449V139.096C78.8555 137.332 78.082 136.348 76.7988 136.348C75.5156 136.348 74.7422 137.332 74.7422 139.096V140.449C74.7422 142.213 75.5156 143.197 76.7988 143.197ZM82.3359 144H81.4043V135.545H82.3945L86.0156 142.125H86.0977V135.545H87.0293V144H86.0508L82.418 137.402H82.3359V144Z" fill="#A59A86"/>
<rect x="12.5" y="598.5" width="25" height="25" rx="3.5" stroke="#353535"/>
<path d="M19.5 609.75C19.5 609.093 19.6997 608.45 20.0723 607.909C20.4448 607.367 20.973 606.951 21.5869 606.716C22.2009 606.48 22.872 606.437 23.5112 606.591C24.0718 606.726 24.5849 607.007 24.999 607.404C25.4124 607.004 25.9262 606.721 26.4878 606.584C27.1282 606.428 27.801 606.471 28.4165 606.707C29.032 606.943 29.5609 607.361 29.9331 607.905C30.3049 608.448 30.5027 609.092 30.5 609.75C30.4998 610.051 30.456 610.35 30.3696 610.639C30.2903 610.903 30.0115 611.053 29.7471 610.974C29.4826 610.895 29.3323 610.616 29.4116 610.351C29.4701 610.156 29.4999 609.954 29.5 609.75V609.748C29.5022 609.292 29.3654 608.846 29.1079 608.47C28.8504 608.093 28.4844 607.804 28.0586 607.641C27.6328 607.478 27.1672 607.448 26.7241 607.556C26.281 607.663 25.8813 607.904 25.5781 608.244C25.5754 608.248 25.5726 608.251 25.5698 608.254C25.4969 608.332 25.4085 608.394 25.3105 608.436C25.2126 608.479 25.1068 608.501 25 608.501C24.8932 608.501 24.7874 608.479 24.6895 608.436C24.5915 608.394 24.5031 608.332 24.4302 608.254C24.428 608.251 24.426 608.249 24.4238 608.246C24.1196 607.908 23.7194 607.669 23.2769 607.563C22.8343 607.456 22.3699 607.486 21.9448 607.649C21.5197 607.812 21.1539 608.1 20.896 608.475C20.6381 608.851 20.5 609.295 20.5 609.75C20.5001 610.672 21.0962 611.389 21.8535 612.146L24.6016 614.807L24.627 614.833C24.6742 614.886 24.7321 614.928 24.7969 614.957C24.8617 614.986 24.932 615 25.0029 615C25.0739 614.999 25.144 614.984 25.2085 614.954C25.2729 614.925 25.3304 614.882 25.377 614.828L25.4062 614.797L25.8921 614.327C26.0906 614.136 26.4072 614.141 26.5991 614.34C26.7909 614.538 26.7854 614.855 26.5869 615.047L26.1089 615.509C25.9731 615.658 25.8091 615.779 25.6255 615.863C25.4321 615.952 25.2221 615.999 25.0093 616C24.7965 616.001 24.5856 615.957 24.3911 615.871C24.2033 615.788 24.035 615.666 23.896 615.515L21.1523 612.859C21.1504 612.857 21.1484 612.856 21.1465 612.854C20.4039 612.111 19.5001 611.128 19.5 609.75Z" fill="#A59A86"/>
<path d="M29.5 612C29.7761 612 30 612.224 30 612.5C30 612.776 29.7761 613 29.5 613H26.5C26.2239 613 26 612.776 26 612.5C26 612.224 26.2239 612 26.5 612H29.5Z" fill="#A59A86"/>
<path d="M27.5 614V611C27.5 610.724 27.7239 610.5 28 610.5C28.2761 610.5 28.5 610.724 28.5 611V614C28.5 614.276 28.2761 614.5 28 614.5C27.7239 614.5 27.5 614.276 27.5 614Z" fill="#A59A86"/>
<rect x="46.5" y="598.5" width="25" height="25" rx="3.5" stroke="#353535"/>
<path d="M53.5 609.75C53.5 609.093 53.6997 608.45 54.0723 607.909C54.4448 607.367 54.973 606.951 55.5869 606.716C56.2009 606.48 56.872 606.437 57.5112 606.591C58.0718 606.726 58.5849 607.007 58.999 607.404C59.4124 607.004 59.9262 606.721 60.4878 606.584C61.1282 606.428 61.801 606.471 62.4165 606.707C63.032 606.943 63.5609 607.361 63.9331 607.905C64.3049 608.448 64.5027 609.092 64.5 609.75C64.4998 610.051 64.456 610.35 64.3696 610.639C64.2903 610.903 64.0115 611.053 63.7471 610.974C63.4826 610.895 63.3323 610.616 63.4116 610.351C63.4701 610.156 63.4999 609.954 63.5 609.75V609.748C63.5022 609.292 63.3654 608.846 63.1079 608.47C62.8504 608.093 62.4844 607.804 62.0586 607.641C61.6328 607.478 61.1672 607.448 60.7241 607.556C60.281 607.663 59.8813 607.904 59.5781 608.244C59.5754 608.248 59.5726 608.251 59.5698 608.254C59.4969 608.332 59.4085 608.394 59.3105 608.436C59.2126 608.479 59.1068 608.501 59 608.501C58.8932 608.501 58.7874 608.479 58.6895 608.436C58.5915 608.394 58.5031 608.332 58.4302 608.254C58.428 608.251 58.426 608.249 58.4238 608.246C58.1196 607.908 57.7194 607.669 57.2769 607.563C56.8343 607.456 56.3699 607.486 55.9448 607.649C55.5197 607.812 55.1539 608.1 54.896 608.475C54.6381 608.851 54.5 609.295 54.5 609.75C54.5001 610.672 55.0962 611.389 55.8535 612.146L58.6016 614.807L58.627 614.833C58.6742 614.886 58.7321 614.928 58.7969 614.957C58.8617 614.986 58.932 615 59.0029 615C59.0739 614.999 59.144 614.984 59.2085 614.954C59.2729 614.925 59.3304 614.882 59.377 614.828L59.4062 614.797L59.8921 614.327C60.0906 614.136 60.4072 614.141 60.5991 614.34C60.7909 614.538 60.7854 614.855 60.5869 615.047L60.1089 615.509C59.9731 615.658 59.8091 615.779 59.6255 615.863C59.4321 615.952 59.2221 615.999 59.0093 616C58.7965 616.001 58.5856 615.957 58.3911 615.871C58.2033 615.788 58.035 615.666 57.896 615.515L55.1523 612.859C55.1504 612.857 55.1484 612.856 55.1465 612.854C54.4039 612.111 53.5001 611.128 53.5 609.75Z" fill="#A59A86"/>
<path d="M63.5 612C63.7761 612 64 612.224 64 612.5C64 612.776 63.7761 613 63.5 613H60.5C60.2239 613 60 612.776 60 612.5C60 612.224 60.2239 612 60.5 612H63.5Z" fill="#A59A86"/>
<path d="M61.5 614V611C61.5 610.724 61.7239 610.5 62 610.5C62.2761 610.5 62.5 610.724 62.5 611V614C62.5 614.276 62.2761 614.5 62 614.5C61.7239 614.5 61.5 614.276 61.5 614Z" fill="#A59A86"/>
<rect x="80" y="598" width="26" height="26" rx="4" fill="#EDE5C4"/>
<path d="M87.5 609.75C87.5 609.093 87.6997 608.45 88.0723 607.909C88.4448 607.367 88.973 606.951 89.5869 606.716C90.2009 606.48 90.872 606.437 91.5112 606.591C92.0718 606.726 92.5849 607.007 92.999 607.404C93.4124 607.004 93.9262 606.721 94.4878 606.584C95.1282 606.428 95.801 606.471 96.4165 606.707C97.032 606.943 97.5609 607.361 97.9331 607.905C98.3049 608.448 98.5027 609.092 98.5 609.75C98.4998 610.051 98.456 610.35 98.3696 610.639C98.2903 610.903 98.0115 611.053 97.7471 610.974C97.4826 610.895 97.3323 610.616 97.4116 610.351C97.4701 610.156 97.4999 609.954 97.5 609.75V609.748C97.5022 609.292 97.3654 608.846 97.1079 608.47C96.8504 608.093 96.4844 607.804 96.0586 607.641C95.6328 607.478 95.1672 607.448 94.7241 607.556C94.281 607.663 93.8813 607.904 93.5781 608.244C93.5754 608.248 93.5726 608.251 93.5698 608.254C93.4969 608.332 93.4085 608.394 93.3105 608.436C93.2126 608.479 93.1068 608.501 93 608.501C92.8932 608.501 92.7874 608.479 92.6895 608.436C92.5915 608.394 92.5031 608.332 92.4302 608.254C92.428 608.251 92.426 608.249 92.4238 608.246C92.1196 607.908 91.7194 607.669 91.2769 607.563C90.8343 607.456 90.3699 607.486 89.9448 607.649C89.5197 607.812 89.1539 608.1 88.896 608.475C88.6381 608.851 88.5 609.295 88.5 609.75C88.5001 610.672 89.0962 611.389 89.8535 612.146L92.6016 614.807L92.627 614.833C92.6742 614.886 92.7321 614.928 92.7969 614.957C92.8617 614.986 92.932 615 93.0029 615C93.0739 614.999 93.144 614.984 93.2085 614.954C93.2729 614.925 93.3304 614.882 93.377 614.828L93.4062 614.797L93.8921 614.327C94.0906 614.136 94.4072 614.141 94.5991 614.34C94.7909 614.538 94.7854 614.855 94.5869 615.047L94.1089 615.509C93.9731 615.658 93.8091 615.779 93.6255 615.863C93.4321 615.952 93.2221 615.999 93.0093 616C92.7965 616.001 92.5856 615.957 92.3911 615.871C92.2033 615.788 92.035 615.666 91.896 615.515L89.1523 612.859C89.1504 612.857 89.1484 612.856 89.1465 612.854C88.4039 612.111 87.5001 611.128 87.5 609.75Z" fill="black"/>
<path d="M97.5 612C97.7761 612 98 612.224 98 612.5C98 612.776 97.7761 613 97.5 613H94.5C94.2239 613 94 612.776 94 612.5C94 612.224 94.2239 612 94.5 612H97.5Z" fill="black"/>
<path d="M95.5 614V611C95.5 610.724 95.7239 610.5 96 610.5C96.2761 610.5 96.5 610.724 96.5 611V614C96.5 614.276 96.2761 614.5 96 614.5C95.7239 614.5 95.5 614.276 95.5 614Z" fill="black"/>
</g>
<rect x="0.5" y="0.5" width="117" height="635" stroke="#3A3A3A"/>
<defs>
<clipPath id="clip0_31_869">
<rect width="118" height="636" fill="white"/>
</clipPath>
<clipPath id="clip1_31_869">
<rect width="12" height="12" fill="white" transform="translate(16 10)"/>
</clipPath>
<clipPath id="clip2_31_869">
<rect width="12" height="12" fill="white" transform="translate(16 41)"/>
</clipPath>
<clipPath id="clip3_31_869">
<rect width="12" height="12" fill="white" transform="translate(16 72)"/>
</clipPath>
<clipPath id="clip4_31_869">
<rect width="12" height="12" fill="white" transform="translate(16 103)"/>
</clipPath>
<clipPath id="clip5_31_869">
<rect width="12" height="12" fill="white" transform="translate(16 134)"/>
</clipPath>
</defs>
</svg>
