<svg width="980" height="34" viewBox="0 0 980 34" fill="none" xmlns="http://www.w3.org/2000/svg">
<mask id="path-1-inside-1_45_76" fill="white">
<path d="M0 0H980V34H0V0Z"/>
</mask>
<path d="M0 0H980V34H0V0Z" fill="#2E2B27" fill-opacity="0.5"/>
<path d="M980 34V33H0V34V35H980V34Z" fill="#2E2B27" mask="url(#path-1-inside-1_45_76)"/>
<g clip-path="url(#clip0_45_76)">
<path fill-rule="evenodd" clip-rule="evenodd" d="M22 12.5C19.5147 12.5 17.5 14.5147 17.5 17C17.5 19.4853 19.5147 21.5 22 21.5C24.4853 21.5 26.5 19.4853 26.5 17C26.5 14.5147 24.4853 12.5 22 12.5ZM16.5 17C16.5 13.9624 18.9624 11.5 22 11.5C25.0376 11.5 27.5 13.9624 27.5 17C27.5 20.0376 25.0376 22.5 22 22.5C18.9624 22.5 16.5 20.0376 16.5 17Z" fill="#EDE5C4"/>
<path fill-rule="evenodd" clip-rule="evenodd" d="M22 11.5C22.1368 11.5 22.2677 11.5561 22.3621 11.6552C23.7345 13.0962 24.5 15.01 24.5 17C24.5 18.99 23.7345 20.9038 22.3621 22.3448C22.2677 22.4439 22.1368 22.5 22 22.5C21.8632 22.5 21.7323 22.4439 21.6379 22.3448C20.2655 20.9038 19.5 18.99 19.5 17C19.5 15.01 20.2655 13.0962 21.6379 11.6552C21.7323 11.5561 21.8632 11.5 22 11.5ZM22 12.7573C21.0329 13.954 20.5 15.4504 20.5 17C20.5 18.5496 21.0329 20.046 22 21.2427C22.9671 20.046 23.5 18.5496 23.5 17C23.5 15.4504 22.9671 13.954 22 12.7573Z" fill="#EDE5C4"/>
<path fill-rule="evenodd" clip-rule="evenodd" d="M16.5 17C16.5 16.7239 16.7239 16.5 17 16.5H27C27.2761 16.5 27.5 16.7239 27.5 17C27.5 17.2761 27.2761 17.5 27 17.5H17C16.7239 17.5 16.5 17.2761 16.5 17Z" fill="#EDE5C4"/>
</g>
<path d="M38.0312 17.6309H36.0859V21H35.0664V12.5449H37.9023C39.5781 12.5449 40.627 13.5176 40.627 15.0879C40.627 16.1953 40.0117 17.1035 39.0508 17.4199L40.7734 21H39.6074L38.0312 17.6309ZM36.0859 13.4648V16.7578H37.7617C38.9277 16.7578 39.584 16.166 39.584 15.1113C39.584 14.0625 38.9395 13.4648 37.8086 13.4648H36.0859ZM47.7578 20.0508V21H42.7656V12.5449H47.7578V13.4941H43.8027V16.2363H47.541V17.1445H43.8027V20.0508H47.7578ZM52.7383 20.1973C53.8633 20.1973 54.5781 19.5234 54.6074 18.4336H55.6504C55.6504 20.0684 54.4668 21.1758 52.7383 21.1758C50.752 21.1758 49.5977 19.834 49.5977 17.5254V16.0195C49.5977 13.7109 50.752 12.3691 52.7383 12.3691C54.5195 12.3691 55.6211 13.4531 55.6562 15.2578H54.6074C54.5723 14.1152 53.8164 13.3477 52.7324 13.3477C51.3672 13.3477 50.6523 14.2676 50.6523 16.0195V17.5254C50.6523 19.2773 51.3672 20.1973 52.7383 20.1973ZM63.0625 17.4551C63.0625 19.793 61.8848 21.1758 59.9629 21.1758C58.041 21.1758 56.8633 19.793 56.8633 17.4551V16.0898C56.8633 13.752 58.041 12.3691 59.9629 12.3691C61.8848 12.3691 63.0625 13.752 63.0625 16.0898V17.4551ZM59.9629 20.1973C61.2461 20.1973 62.0195 19.2129 62.0195 17.4492V16.0957C62.0195 14.332 61.2461 13.3477 59.9629 13.3477C58.6797 13.3477 57.9062 14.332 57.9062 16.0957V17.4492C57.9062 19.2129 58.6797 20.1973 59.9629 20.1973ZM65.5 21H64.5684V12.5449H65.5586L69.1797 19.125H69.2617V12.5449H70.1934V21H69.2148L65.582 14.4023H65.5V21Z" fill="#EDE5C4"/>
<path fill-rule="evenodd" clip-rule="evenodd" d="M454.277 13.1708L452 14.3094V20.6906L452 20.6919L453.829 19.7769C454.038 19.6729 454.267 19.6187 454.5 19.6187C454.733 19.6187 454.962 19.6728 455.171 19.7769L457.277 20.8299C457.276 20.8298 457.277 20.8299 457.277 20.8299C457.346 20.8645 457.422 20.8826 457.5 20.8826C457.578 20.8826 457.654 20.8646 457.723 20.8299C457.723 20.83 457.723 20.8299 457.723 20.8299L460 19.6914L460 13.3089L458.171 14.2239C457.962 14.3279 457.733 14.3821 457.5 14.3821C457.267 14.3821 457.038 14.3279 456.83 14.2239L454.724 13.1709C454.723 13.1709 454.724 13.1709 454.724 13.1709C454.654 13.1363 454.578 13.1182 454.5 13.1182C454.422 13.1182 454.346 13.1362 454.277 13.1708ZM453.83 12.2764C454.038 12.1723 454.267 12.1182 454.5 12.1182C454.733 12.1182 454.962 12.1723 455.171 12.2764L457.277 13.3294C457.276 13.3293 457.277 13.3294 457.277 13.3294C457.346 13.364 457.422 13.3821 457.5 13.3821C457.578 13.3821 457.654 13.3641 457.723 13.3294L459.553 12.4144C459.706 12.3381 459.875 12.3022 460.045 12.3099C460.216 12.3177 460.381 12.3689 460.526 12.4587C460.671 12.5485 460.791 12.6739 460.874 12.8229C460.957 12.9719 461 13.1395 461 13.3099C461 13.31 461 13.3102 461 13.3104L461 19.6919C461 19.8776 460.948 20.0595 460.85 20.2174C460.753 20.3753 460.613 20.5028 460.447 20.5858C460.447 20.5858 460.447 20.5858 460.447 20.5858L458.171 21.7243C457.962 21.8284 457.733 21.8826 457.5 21.8826C457.267 21.8826 457.038 21.8284 456.83 21.7244L454.724 20.6714C454.723 20.6714 454.724 20.6714 454.724 20.6714C454.654 20.6368 454.578 20.6187 454.5 20.6187C454.422 20.6187 454.346 20.6367 454.277 20.6713C454.277 20.6713 454.277 20.6713 454.277 20.6713L452.447 21.5864C452.294 21.6627 452.125 21.6986 451.954 21.6908C451.784 21.683 451.618 21.6317 451.473 21.5418C451.328 21.4519 451.208 21.3264 451.126 21.1772C451.043 21.0282 451 20.8605 451 20.6901L451 14.3089C451 14.1232 451.052 13.9412 451.15 13.7833C451.247 13.6255 451.387 13.4979 451.553 13.4149C451.553 13.415 451.553 13.4149 451.553 13.4149L453.83 12.2764Z" fill="#A59A86"/>
<path fill-rule="evenodd" clip-rule="evenodd" d="M457.5 13.3821C457.776 13.3821 458 13.606 458 13.8821V21.3821C458 21.6583 457.776 21.8826 457.5 21.8826C457.224 21.8826 457 21.6583 457 21.3821V13.8821C457 13.606 457.224 13.3821 457.5 13.3821Z" fill="#A59A86"/>
<path fill-rule="evenodd" clip-rule="evenodd" d="M454.5 12.1182C454.776 12.1182 455 12.342 455 12.6181V20.1181C455 20.3943 454.776 20.6181 454.5 20.6181C454.224 20.6181 454 20.3943 454 20.1181V12.6181C454 12.342 454.224 12.1182 454.5 12.1182Z" fill="#A59A86"/>
<path d="M469.16 12.5449H471.973C473.613 12.5449 474.686 13.6172 474.686 15.2578C474.686 16.8926 473.602 17.9648 471.949 17.9648H470.197V21H469.16V12.5449ZM470.197 13.4648V17.0449H471.715C472.945 17.0449 473.637 16.4062 473.637 15.2578C473.637 14.1035 472.945 13.4648 471.715 13.4648H470.197ZM481.992 20.0391V21H476.959V12.5449H477.984V20.0391H481.992ZM488.73 21L487.998 18.5742H485.057L484.318 21H483.27L485.994 12.5449H487.096L489.82 21H488.73ZM486.516 13.7871L485.326 17.6895H487.729L486.545 13.7871H486.516ZM492.082 21H491.15V12.5449H492.141L495.762 19.125H495.844V12.5449H496.775V21H495.797L492.164 14.4023H492.082V21ZM507.275 11.7422H510.363V12.5449H508.242V21H510.375V21.8027H507.275V11.7422ZM519.41 21H513.516V20.0918H516.012V13.7168H515.918L513.498 15.2812V14.1797L516.018 12.5449H517.031V20.0918H519.41V21ZM525.211 11.7422V21.8027H522.111V21H524.238V12.5449H522.123V11.7422H525.211Z" fill="#A59A86"/>
<g clip-path="url(#clip1_45_76)">
<path fill-rule="evenodd" clip-rule="evenodd" d="M546 12.5C545.726 12.5 545.5 12.7261 545.5 13V15C545.5 15.2739 545.726 15.5 546 15.5C546.276 15.5 546.5 15.7239 546.5 16C546.5 16.2761 546.276 16.5 546 16.5C545.174 16.5 544.5 15.8261 544.5 15V13C544.5 12.1739 545.174 11.5 546 11.5H548C548.826 11.5 549.5 12.1739 549.5 13C549.5 13.2761 549.276 13.5 549 13.5C548.724 13.5 548.5 13.2761 548.5 13C548.5 12.7261 548.274 12.5 548 12.5H546Z" fill="#A59A86"/>
<path fill-rule="evenodd" clip-rule="evenodd" d="M549 15.5C548.726 15.5 548.5 15.7261 548.5 16V18C548.5 18.2739 548.726 18.5 549 18.5C549.276 18.5 549.5 18.7239 549.5 19C549.5 19.2761 549.276 19.5 549 19.5C548.174 19.5 547.5 18.8261 547.5 18V16C547.5 15.1739 548.174 14.5 549 14.5H551C551.826 14.5 552.5 15.1739 552.5 16C552.5 16.2761 552.276 16.5 552 16.5C551.724 16.5 551.5 16.2761 551.5 16C551.5 15.7261 551.274 15.5 551 15.5H549Z" fill="#A59A86"/>
<path fill-rule="evenodd" clip-rule="evenodd" d="M552 18.5C551.724 18.5 551.5 18.7239 551.5 19V21C551.5 21.2761 551.724 21.5 552 21.5H554C554.276 21.5 554.5 21.2761 554.5 21V19C554.5 18.7239 554.276 18.5 554 18.5H552ZM550.5 19C550.5 18.1716 551.172 17.5 552 17.5H554C554.828 17.5 555.5 18.1716 555.5 19V21C555.5 21.8284 554.828 22.5 554 22.5H552C551.172 22.5 550.5 21.8284 550.5 21V19Z" fill="#A59A86"/>
</g>
<path d="M565.902 20.1973C567.027 20.1973 567.742 19.5234 567.771 18.4336H568.814C568.814 20.0684 567.631 21.1758 565.902 21.1758C563.916 21.1758 562.762 19.834 562.762 17.5254V16.0195C562.762 13.7109 563.916 12.3691 565.902 12.3691C567.684 12.3691 568.785 13.4531 568.82 15.2578H567.771C567.736 14.1152 566.98 13.3477 565.896 13.3477C564.531 13.3477 563.816 14.2676 563.816 16.0195V17.5254C563.816 19.2773 564.531 20.1973 565.902 20.1973ZM576.227 17.4551C576.227 19.793 575.049 21.1758 573.127 21.1758C571.205 21.1758 570.027 19.793 570.027 17.4551V16.0898C570.027 13.752 571.205 12.3691 573.127 12.3691C575.049 12.3691 576.227 13.752 576.227 16.0898V17.4551ZM573.127 20.1973C574.41 20.1973 575.184 19.2129 575.184 17.4492V16.0957C575.184 14.332 574.41 13.3477 573.127 13.3477C571.844 13.3477 571.07 14.332 571.07 16.0957V17.4492C571.07 19.2129 571.844 20.1973 573.127 20.1973ZM578.418 17.7539V21H577.498V12.5449H578.652L580.51 17.7949H580.586L582.432 12.5449H583.592V21H582.672V17.7539L582.725 14.332H582.648L580.949 19.0137H580.141L578.441 14.332H578.365L578.418 17.7539ZM585.414 12.5449H588.227C589.867 12.5449 590.939 13.6172 590.939 15.2578C590.939 16.8926 589.855 17.9648 588.203 17.9648H586.451V21H585.414V12.5449ZM586.451 13.4648V17.0449H587.969C589.199 17.0449 589.891 16.4062 589.891 15.2578C589.891 14.1035 589.199 13.4648 587.969 13.4648H586.451ZM595.299 16.3594H594.355L595.082 12.5449H596.4L595.299 16.3594ZM599.904 18.75H600.912C601.018 19.6758 601.762 20.2383 602.887 20.2383C604.012 20.2383 604.75 19.6523 604.75 18.7441C604.75 18.0117 604.258 17.5723 603.115 17.291L602.389 17.1094C600.818 16.7109 600.109 15.9668 600.109 14.7422C600.109 13.3008 601.193 12.3691 602.881 12.3691C604.475 12.3691 605.57 13.2891 605.641 14.6953H604.633C604.527 13.8223 603.883 13.3066 602.887 13.3066C601.803 13.3066 601.152 13.8223 601.152 14.6836C601.152 15.416 601.621 15.8379 602.723 16.1133L603.461 16.3008C605.102 16.7051 605.793 17.4199 605.793 18.6914C605.793 20.209 604.65 21.1758 602.881 21.1758C601.135 21.1758 599.992 20.25 599.904 18.75ZM616.111 11.7422H619.199V12.5449H617.078V21H619.211V21.8027H616.111V11.7422ZM622.357 14.9238C622.357 13.4355 623.459 12.3691 625 12.3691C626.553 12.3691 627.619 13.3301 627.619 14.7422C627.619 15.6211 627.221 16.3242 625.873 17.7949L623.881 19.9629V20.0625H627.754V21H622.404V20.2852L625.264 17.1035C626.336 15.9023 626.594 15.4512 626.594 14.7832C626.594 13.875 625.955 13.2773 624.971 13.2773C623.998 13.2773 623.354 13.9277 623.354 14.9238V14.959H622.357V14.9238ZM634.047 11.7422V21.8027H630.947V21H633.074V12.5449H630.959V11.7422H634.047Z" fill="#A59A86"/>
<path fill-rule="evenodd" clip-rule="evenodd" d="M659.006 12.9535L657.403 15.5004H660.592L659.006 12.9535ZM658.976 11.8209C659.122 11.8156 659.267 11.8483 659.397 11.9156C659.527 11.983 659.638 12.0828 659.718 12.2054C659.72 12.2084 659.722 12.2115 659.723 12.2145L661.569 15.1775C661.652 15.3019 661.701 15.4462 661.711 15.5957C661.721 15.7505 661.688 15.905 661.617 16.0425C661.545 16.1801 661.438 16.2955 661.305 16.3762C661.173 16.4569 661.021 16.4998 660.866 16.5004L660.865 16.5004L657.161 16.5004C657.01 16.5057 656.86 16.4706 656.727 16.3988C656.589 16.3243 656.474 16.2131 656.396 16.0775C656.317 15.9419 656.277 15.7872 656.281 15.6304C656.285 15.4749 656.331 15.3235 656.415 15.1926L658.271 12.2431C658.342 12.1215 658.442 12.0192 658.562 11.9456C658.687 11.8691 658.829 11.8261 658.976 11.8209Z" fill="#A59A86"/>
<path fill-rule="evenodd" clip-rule="evenodd" d="M655 18.5004V21.0004H657.5V18.5004H655ZM654 18.5004C654 17.9481 654.448 17.5004 655 17.5004H657.5C658.052 17.5004 658.5 17.9481 658.5 18.5004V21.0004C658.5 21.5527 658.052 22.0004 657.5 22.0004H655C654.448 22.0004 654 21.5527 654 21.0004V18.5004Z" fill="#A59A86"/>
<path fill-rule="evenodd" clip-rule="evenodd" d="M661.75 18.5004C661.06 18.5004 660.5 19.06 660.5 19.7504C660.5 20.4407 661.06 21.0004 661.75 21.0004C662.44 21.0004 663 20.4407 663 19.7504C663 19.06 662.44 18.5004 661.75 18.5004ZM659.5 19.7504C659.5 18.5077 660.507 17.5004 661.75 17.5004C662.993 17.5004 664 18.5077 664 19.7504C664 20.993 662.993 22.0004 661.75 22.0004C660.507 22.0004 659.5 20.993 659.5 19.7504Z" fill="#A59A86"/>
<path d="M671.814 18.75H672.822C672.928 19.6758 673.672 20.2383 674.797 20.2383C675.922 20.2383 676.66 19.6523 676.66 18.7441C676.66 18.0117 676.168 17.5723 675.025 17.291L674.299 17.1094C672.729 16.7109 672.02 15.9668 672.02 14.7422C672.02 13.3008 673.104 12.3691 674.791 12.3691C676.385 12.3691 677.48 13.2891 677.551 14.6953H676.543C676.438 13.8223 675.793 13.3066 674.797 13.3066C673.713 13.3066 673.062 13.8223 673.062 14.6836C673.062 15.416 673.531 15.8379 674.633 16.1133L675.371 16.3008C677.012 16.7051 677.703 17.4199 677.703 18.6914C677.703 20.209 676.561 21.1758 674.791 21.1758C673.045 21.1758 671.902 20.25 671.814 18.75ZM682.32 20.1973C683.445 20.1973 684.16 19.5234 684.189 18.4336H685.232C685.232 20.0684 684.049 21.1758 682.32 21.1758C680.334 21.1758 679.18 19.834 679.18 17.5254V16.0195C679.18 13.7109 680.334 12.3691 682.32 12.3691C684.102 12.3691 685.203 13.4531 685.238 15.2578H684.189C684.154 14.1152 683.398 13.3477 682.314 13.3477C680.949 13.3477 680.234 14.2676 680.234 16.0195V17.5254C680.234 19.2773 680.949 20.1973 682.32 20.1973ZM692.357 21H691.332V17.1562H687.758V21H686.732V12.5449H687.758V16.207H691.332V12.5449H692.357V21ZM699.594 20.0508V21H694.602V12.5449H699.594V13.4941H695.639V16.2363H699.377V17.1445H695.639V20.0508H699.594ZM702.254 17.7539V21H701.334V12.5449H702.488L704.346 17.7949H704.422L706.268 12.5449H707.428V21H706.508V17.7539L706.561 14.332H706.484L704.785 19.0137H703.977L702.277 14.332H702.201L702.254 17.7539ZM713.984 21L713.252 18.5742H710.311L709.572 21H708.523L711.248 12.5449H712.35L715.074 21H713.984ZM711.77 13.7871L710.58 17.6895H712.982L711.799 13.7871H711.77ZM725.111 11.7422H728.199V12.5449H726.078V21H728.211V21.8027H725.111V11.7422ZM733.021 17.0801V16.2129H733.941C734.891 16.2129 735.553 15.5918 735.553 14.707C735.553 13.8457 734.92 13.2773 733.965 13.2773C733.016 13.2773 732.383 13.834 732.301 14.7422H731.311C731.41 13.2773 732.441 12.3691 734.006 12.3691C735.518 12.3691 736.596 13.2773 736.596 14.5605C736.596 15.5801 736.062 16.3066 735.154 16.5293V16.623C736.279 16.7695 736.947 17.5605 736.947 18.7148C736.947 20.1504 735.74 21.1758 734.053 21.1758C732.383 21.1758 731.223 20.2148 731.146 18.7559H732.125C732.219 19.6582 732.969 20.2441 734.023 20.2441C735.184 20.2441 735.904 19.6465 735.904 18.6914C735.904 17.707 735.16 17.0801 733.988 17.0801H733.021ZM743.047 11.7422V21.8027H739.947V21H742.074V12.5449H739.959V11.7422H743.047Z" fill="#A59A86"/>
<path fill-rule="evenodd" clip-rule="evenodd" d="M769.045 19.6603C768.883 19.5554 768.694 19.4997 768.501 19.5C768.224 19.5004 768 19.2768 768 19.0007C768 18.7245 768.223 18.5004 768.499 18.5C768.886 18.4995 769.264 18.6109 769.588 18.8207C769.913 19.0305 770.169 19.3298 770.327 19.6823C770.485 20.0349 770.538 20.4256 770.478 20.8073C770.419 21.189 770.25 21.5454 769.993 21.8333C769.809 22.0392 769.492 22.0568 769.287 21.8727C769.081 21.6886 769.063 21.3725 769.247 21.1667C769.376 21.0227 769.46 20.8445 769.49 20.6537C769.52 20.4628 769.493 20.2674 769.415 20.0912C769.336 19.9149 769.207 19.7653 769.045 19.6603Z" fill="#A59A86"/>
<path fill-rule="evenodd" clip-rule="evenodd" d="M770.5 17C770.5 16.7239 770.724 16.5 771 16.5H771.005C771.281 16.5 771.505 16.7239 771.505 17C771.505 17.2761 771.281 17.5 771.005 17.5H771C770.724 17.5 770.5 17.2761 770.5 17Z" fill="#A59A86"/>
<path fill-rule="evenodd" clip-rule="evenodd" d="M767.5 13.0101C767.37 13.0101 767.245 13.0617 767.154 13.1536C767.062 13.2454 767.01 13.3701 767.01 13.5C767.01 13.5643 767.023 13.6281 767.047 13.6875C767.072 13.7469 767.108 13.801 767.154 13.8465L768.954 15.6465C769.097 15.7895 769.139 16.0045 769.062 16.1913C768.985 16.3782 768.802 16.5 768.6 16.5H768.5C767.704 16.5 766.941 16.8161 766.379 17.3787C765.816 17.9413 765.5 18.7044 765.5 19.5C765.5 19.8978 765.658 20.2794 765.939 20.5607C766.221 20.842 766.602 21 767 21H770H771C771.276 21 771.5 21.2239 771.5 21.5C771.5 21.7761 771.276 22 771 22H767C766.337 22 765.701 21.7366 765.232 21.2678C764.763 20.7989 764.5 20.163 764.5 19.5C764.5 18.4391 764.921 17.4217 765.672 16.6716C766.185 16.1581 766.824 15.7987 767.516 15.623L766.446 14.5536C766.308 14.4152 766.198 14.251 766.123 14.0702C766.049 13.8894 766.01 13.6957 766.01 13.5C766.01 13.1048 766.167 12.7259 766.446 12.4465C766.726 12.167 767.105 12.0101 767.5 12.0101C767.696 12.0101 767.889 12.0486 768.07 12.1235C768.251 12.1984 768.415 12.3081 768.554 12.4465L770.254 14.1465L769.9 14.5V14H770C771.926 14 773.5 15.5739 773.5 17.5V18C773.5 18.3978 773.342 18.7794 773.061 19.0607C772.779 19.342 772.398 19.5 772 19.5H771.5C771.235 19.5 770.98 19.6054 770.793 19.7929C770.605 19.9804 770.5 20.2348 770.5 20.5C770.5 20.7761 770.276 21 770 21C769.724 21 769.5 20.7761 769.5 20.5C769.5 19.9696 769.711 19.4609 770.086 19.0858C770.461 18.7107 770.97 18.5 771.5 18.5H772C772.133 18.5 772.26 18.4473 772.354 18.3536C772.447 18.2598 772.5 18.1326 772.5 18V17.5C772.5 16.1262 771.374 15 770 15H769.9C769.767 15 769.64 14.9473 769.546 14.8536L767.846 13.1536C767.801 13.1081 767.747 13.072 767.687 13.0474C767.628 13.0227 767.564 13.0101 767.5 13.0101Z" fill="#A59A86"/>
<path fill-rule="evenodd" clip-rule="evenodd" d="M769.939 11.9393C770.221 11.658 770.602 11.5 771 11.5C771.398 11.5 771.779 11.658 772.061 11.9393C772.342 12.2206 772.5 12.6022 772.5 13V15.27C772.5 15.5461 772.276 15.77 772 15.77C771.724 15.77 771.5 15.5461 771.5 15.27V13C771.5 12.8674 771.447 12.7402 771.354 12.6464C771.26 12.5527 771.133 12.5 771 12.5C770.867 12.5 770.74 12.5527 770.646 12.6464C770.553 12.7402 770.5 12.8674 770.5 13V14.5C770.5 14.7761 770.276 15 770 15C769.724 15 769.5 14.7761 769.5 14.5V13C769.5 12.6022 769.658 12.2206 769.939 11.9393Z" fill="#A59A86"/>
<path fill-rule="evenodd" clip-rule="evenodd" d="M764.342 16.0061C764.722 15.9761 765.103 16.0551 765.439 16.234C765.775 16.4129 766.054 16.6843 766.241 17.016C766.377 17.2565 766.292 17.5615 766.052 17.6973C765.811 17.8332 765.506 17.7484 765.371 17.508C765.277 17.3421 765.138 17.2064 764.969 17.117C764.801 17.0275 764.611 16.988 764.421 17.003C764.231 17.0181 764.049 17.0871 763.897 17.2019C763.745 17.3167 763.629 17.4726 763.563 17.6512C763.496 17.8297 763.482 18.0236 763.522 18.2099C763.562 18.3962 763.655 18.5671 763.789 18.7027C763.923 18.8382 764.092 18.9327 764.278 18.975C764.464 19.0173 764.658 19.0056 764.837 18.9413C765.097 18.8482 765.384 18.9834 765.477 19.2434C765.57 19.5033 765.435 19.7896 765.175 19.8827C764.816 20.0112 764.428 20.0346 764.056 19.9501C763.685 19.8655 763.345 19.6766 763.077 19.4055C762.809 19.1344 762.625 18.7924 762.545 18.4198C762.465 18.0473 762.493 17.6596 762.626 17.3024C762.758 16.9453 762.991 16.6335 763.295 16.4039C763.599 16.1742 763.962 16.0362 764.342 16.0061Z" fill="#A59A86"/>
<path d="M785.895 21L785.162 18.5742H782.221L781.482 21H780.434L783.158 12.5449H784.26L786.984 21H785.895ZM783.68 13.7871L782.49 17.6895H784.893L783.709 13.7871H783.68ZM793.137 18.4102V17.584H791.186V16.6992H794.18V18.498C794.18 20.0859 792.984 21.1758 791.279 21.1758C789.293 21.1758 788.145 19.8398 788.145 17.5254V16.0195C788.145 13.7051 789.293 12.3691 791.279 12.3691C793.037 12.3691 794.139 13.4414 794.18 15.1934H793.137C793.09 14.0918 792.34 13.3477 791.262 13.3477C789.896 13.3477 789.188 14.2676 789.188 16.0195V17.5254C789.188 19.2773 789.902 20.1973 791.268 20.1973C792.422 20.1973 793.137 19.5176 793.137 18.4102ZM801.176 20.0508V21H796.184V12.5449H801.176V13.4941H797.221V16.2363H800.959V17.1445H797.221V20.0508H801.176ZM804.082 21H803.15V12.5449H804.141L807.762 19.125H807.844V12.5449H808.775V21H807.797L804.164 14.4023H804.082V21ZM813.896 21H812.865V13.4941H810.311V12.5449H816.451V13.4941H813.896V21ZM817.904 18.75H818.912C819.018 19.6758 819.762 20.2383 820.887 20.2383C822.012 20.2383 822.75 19.6523 822.75 18.7441C822.75 18.0117 822.258 17.5723 821.115 17.291L820.389 17.1094C818.818 16.7109 818.109 15.9668 818.109 14.7422C818.109 13.3008 819.193 12.3691 820.881 12.3691C822.475 12.3691 823.57 13.2891 823.641 14.6953H822.633C822.527 13.8223 821.883 13.3066 820.887 13.3066C819.803 13.3066 819.152 13.8223 819.152 14.6836C819.152 15.416 819.621 15.8379 820.723 16.1133L821.461 16.3008C823.102 16.7051 823.793 17.4199 823.793 18.6914C823.793 20.209 822.65 21.1758 820.881 21.1758C819.135 21.1758 817.992 20.25 817.904 18.75ZM834.111 11.7422H837.199V12.5449H835.078V21H837.211V21.8027H834.111V11.7422ZM844.043 21V19.2129H840.188V18.375L843.059 12.5449H844.113L841.283 18.2402V18.3164H844.055V15.9023H844.992V18.3047H846.281V19.2129H844.986V21H844.043ZM852.047 11.7422V21.8027H848.947V21H851.074V12.5449H848.959V11.7422H852.047Z" fill="#A59A86"/>
<path fill-rule="evenodd" clip-rule="evenodd" d="M875.195 13.0587C875.121 13.0194 875.039 12.9992 874.955 13C874.953 13 874.952 13 874.95 13H873C872.867 13 872.74 13.0527 872.646 13.1465C872.553 13.2403 872.5 13.3674 872.5 13.5V20C872.5 20.1327 872.553 20.2598 872.646 20.3536C872.74 20.4474 872.867 20.5 873 20.5H880.225C880.226 20.5 880.227 20.5001 880.228 20.5001C880.34 20.5008 880.448 20.4643 880.537 20.3964C880.625 20.3285 880.688 20.2332 880.716 20.1255C880.716 20.1253 880.716 20.1252 880.716 20.1251L881.486 17.125C881.505 17.0511 881.507 16.9737 881.491 16.8989C881.476 16.8241 881.444 16.7539 881.397 16.6935C881.35 16.6332 881.29 16.5844 881.221 16.5508C881.153 16.5173 881.077 16.4999 881.001 16.5L881 16.5H875.627C875.538 16.503 875.451 16.5296 875.376 16.5772C875.299 16.6256 875.237 16.6939 875.197 16.7749C875.196 16.7765 875.195 16.7781 875.194 16.7798L874.444 18.2298C874.317 18.475 874.016 18.571 873.77 18.4442C873.525 18.3173 873.429 18.0156 873.556 17.7703L874.305 16.3225C874.427 16.0808 874.613 15.8767 874.842 15.7319C875.071 15.5866 875.337 15.5065 875.608 15.5002C875.612 15.5001 875.616 15.5 875.62 15.5H880.5V15C880.5 14.8674 880.447 14.7403 880.354 14.6465C880.26 14.5527 880.133 14.5 880 14.5H877.035V13.9991L877.035 14.5C876.787 14.5 876.542 14.4383 876.324 14.3205C876.106 14.2032 875.921 14.0339 875.784 13.8277L875.381 13.2298C875.38 13.2282 875.378 13.2266 875.377 13.225C875.331 13.1552 875.269 13.098 875.195 13.0587ZM877.035 13.5C877.035 13.5 877.035 13.5 877.035 13.5H880C880.398 13.5 880.779 13.6581 881.061 13.9394C881.342 14.2207 881.5 14.6022 881.5 15V15.5852C881.555 15.6044 881.608 15.6268 881.66 15.6524C881.866 15.753 882.046 15.8994 882.187 16.0804C882.327 16.2615 882.424 16.4723 882.471 16.6967C882.517 16.9211 882.511 17.1532 882.454 17.375L881.684 20.3744L881.684 20.375C881.601 20.6987 881.411 20.9852 881.146 21.189C880.882 21.3924 880.557 21.5019 880.224 21.5H873C872.602 21.5 872.221 21.342 871.939 21.0607C871.658 20.7794 871.5 20.3979 871.5 20V13.5C871.5 13.1022 871.658 12.7207 871.939 12.4394C872.221 12.1581 872.602 12 873 12H874.948C875.198 11.998 875.444 12.0585 875.665 12.176C875.885 12.2935 876.073 12.4641 876.211 12.6724L876.614 13.2703C876.615 13.2719 876.617 13.2735 876.618 13.275C876.663 13.3442 876.725 13.4009 876.798 13.4402C876.871 13.4795 876.952 13.5 877.035 13.5Z" fill="#A59A86"/>
<path d="M895.809 17.4551C895.809 19.793 894.631 21.1758 892.709 21.1758C890.787 21.1758 889.609 19.793 889.609 17.4551V16.0898C889.609 13.752 890.787 12.3691 892.709 12.3691C894.631 12.3691 895.809 13.752 895.809 16.0898V17.4551ZM892.709 20.1973C893.992 20.1973 894.766 19.2129 894.766 17.4492V16.0957C894.766 14.332 893.992 13.3477 892.709 13.3477C891.426 13.3477 890.652 14.332 890.652 16.0957V17.4492C890.652 19.2129 891.426 20.1973 892.709 20.1973ZM900.127 20.1973C901.357 20.1973 902.072 19.3887 902.072 18V12.5449H903.104V18.0645C903.104 20.0098 901.99 21.1758 900.127 21.1758C898.264 21.1758 897.15 20.0098 897.15 18.0645V12.5449H898.182V18C898.182 19.3887 898.896 20.1973 900.127 20.1973ZM908.061 21H907.029V13.4941H904.475V12.5449H910.615V13.4941H908.061V21ZM912.414 12.5449H915.227C916.867 12.5449 917.939 13.6172 917.939 15.2578C917.939 16.8926 916.855 17.9648 915.203 17.9648H913.451V21H912.414V12.5449ZM913.451 13.4648V17.0449H914.969C916.199 17.0449 916.891 16.4062 916.891 15.2578C916.891 14.1035 916.199 13.4648 914.969 13.4648H913.451ZM922.381 20.1973C923.611 20.1973 924.326 19.3887 924.326 18V12.5449H925.357V18.0645C925.357 20.0098 924.244 21.1758 922.381 21.1758C920.518 21.1758 919.404 20.0098 919.404 18.0645V12.5449H920.436V18C920.436 19.3887 921.15 20.1973 922.381 20.1973ZM930.314 21H929.283V13.4941H926.729V12.5449H932.869V13.4941H930.314V21ZM943.111 11.7422H946.199V12.5449H944.078V21H946.211V21.8027H943.111V11.7422ZM951.982 21.1699C950.406 21.1699 949.293 20.1973 949.205 18.7441H950.201C950.295 19.6289 951.051 20.2383 952.041 20.2383C953.131 20.2383 953.857 19.4707 953.857 18.3223C953.857 17.1621 953.125 16.377 952.041 16.377C951.285 16.377 950.658 16.7227 950.324 17.3203H949.346L949.773 12.5449H954.396V13.4766H950.588L950.354 16.2363H950.447C950.863 15.7324 951.467 15.4688 952.211 15.4688C953.775 15.4688 954.865 16.6348 954.865 18.2988C954.865 20.0098 953.699 21.1699 951.982 21.1699ZM961.047 11.7422V21.8027H957.947V21H960.074V12.5449H957.959V11.7422H961.047Z" fill="#A59A86"/>
<defs>
<clipPath id="clip0_45_76">
<rect width="12" height="12" fill="white" transform="translate(16 11)"/>
</clipPath>
<clipPath id="clip1_45_76">
<rect width="12" height="12" fill="white" transform="translate(544 11)"/>
</clipPath>
</defs>
</svg>
